<svg xmlns="http://www.w3.org/2000/svg" width="170.37" height="177.11" viewBox="0 0 170.37 177.11">
  <defs>
    <style>
      .cls-1 {
        fill: #636363;
      }

      .cls-2 {
        opacity: 0.3;
      }

      .cls-3 {
        fill: #bfbfbf;
      }
    </style>
  </defs>
  <title>Risorsa 101</title>
  <g id="Livello_2" data-name="Livello 2">
    <g id="_02_mappa0zoom" data-name="02_mappa0zoom">
      <g>
        <path class="cls-1" d="M2.79,166.92c-1.06,3.52.63,8,4.11,8.2,12.56.87,9.69-8.22,10.76-11.74s.93-.16-6.9-1C7.29,162,3.85,163.4,2.79,166.92Z"/>
        <path class="cls-2" d="M119.6,24.7c-4-5-8.29-15.49-5.76-19.45,8.33-13.08,3.89,5.29,5.22,6.06.88,1.59,1,3.4,1.4,5.11,1.56,6.08,4.16,8.35,10.35,8.93.74.07,1.84-.1,2.47.43C138,24,146.68,28.07,148.06,29c.39.27-10.37,1.32-11.69,1.45C133.69,30.72,122.72,28.67,119.6,24.7Z"/>
        <path class="cls-1" d="M132.8,21.16c-.26,1.62,1.71,3,2.29,4.62-1.08-.06-4.41.17-5.49,0-4.59-.58-7.93-4.77-10.72-8.68-1.8-2.52-6.07-8.76-3.6-13.69,1.8-3.6,4.18,8,4.47,8C121.16,16.32,126.79,20.5,132.8,21.16Z"/>
        <path class="cls-1" d="M144.83,27.38a9.23,9.23,0,0,0,1.2-2.93,46.29,46.29,0,0,1,5.73,10.7A2.15,2.15,0,0,1,151,38a48.44,48.44,0,0,0-5.48-9.72C145.3,28,144.91,27.78,144.83,27.38Z"/>
        <path class="cls-1" d="M134.05,20.61l4.28-1.68,7.2,2.88.72,3.24s1.08,5.76-.72,3.24c-2.33-3.27-15.85-2.52-15.85-2.52l2.52-4.68Z"/>
        <path class="cls-2" d="M161.64,29.85a70.09,70.09,0,0,0-8.21-13.59c2.65.39,8.16,4.29,8.58,5,3.8,4.29,5.81,9.53,7.77,14.79.95,3.11.61,10.92-.05,11.48-1.87,5.61-5.45,10.11-9.37,14.38C159.17,63.44,149,72.62,148.42,73a63.55,63.55,0,0,1-14.76,9.45c-.66.36-1.42.48-2.09.82-2.55,1-24.68,6-32.83,4.52-1.17-.21-7.36-1.27-9.12-2.46a29.61,29.61,0,0,1-3.22-1.61l-.84-.44c-.87-.72-1.67-1.09-2.12.39-.52.46-3.2,12.55-3.71,13.15C78,99.8,76.56,103,74,105.4A28,28,0,0,1,64.81,111c-2.77,1.09-4.86,2.57-5.93,5.41a22.41,22.41,0,0,1-1.68,3,10.08,10.08,0,0,1-1.3,1.66c-3.39,3.63-7.76,5.44-12.45,6.59-1.15.28-1.11,10.69-1.46,13.57,0,.26-6,19.63-8.23,23.32C31.64,168,31.62,170,31,169.51c-.6-1.06,1.27-6.69,1.34-7.77.48-8.14,2.15-16.13,3.08-24.21.38-3.26.46-6.54.69-9.81.07-1,0-1.91.19-2.86a2.87,2.87,0,0,1,3.08-2.67A52.64,52.64,0,0,0,45.3,122c4.38-.65,7.5-3,8.48-7.26.86-3.73,2.94-5.14,6.52-5.85,6-1.18,9.87-5,11.87-10.77,1.74-5,2.27-10.29,3.79-15.34.41-1.38.84-2.75,1.32-4.1.86-2.41,1.45-2.67,3.8-1.5,2.52,1.24,5.07,2.4,7.6,3.6a18.36,18.36,0,0,0,15.51.68,149.48,149.48,0,0,1,29.58-9c7.25-1.38,12.3-5.65,15.65-12.09a43.23,43.23,0,0,1,2.24-3.92,14.29,14.29,0,0,0,1.09-1.44c.47-.7,1-1.38,1.49-2,2.18-1.9,3.52-4.7,5.34-7,.69-.58,1.09-.37,1.8-3.24S162.29,31.29,161.64,29.85Z"/>
        <path class="cls-3" d="M66.29,73a13.83,13.83,0,0,1,6.53-7.77,17.3,17.3,0,0,1,10.69,0h0c1.24.41,8.11,2.52,9.06,2.89h0a19.89,19.89,0,0,0,10-.81c2.06-.57,9.66-3.32,11.53-3.69,5-.54,35.54-22.32,36.9-25.57a4.88,4.88,0,0,0-.15-4c-1.49-3.3-4.53-11.46-8.49-13.26-4.38-2-8.53.15-9.37.36-4.87,1.2-8.65-2.19-11.64-5.8-.92-1.1-2.12-2.19-1.74-3.92a2,2,0,0,1,1.5-.52c2.45-.15,4-1.83,5.76-3.23.76-.25.76-.36,1.44-.21-.22,1.28,7.22,3.9,9.16,3.53,2.5-.47,15.53,4.45,16,5.33,2.34,1.59,3.56,4.07,5,6.38,2.24,3.72,5.4,8.6,4.08,17.18-1.44,9.37-10.3,16-10.71,16.44-3.32,3.06-6.93,5.76-10.25,8.83-4.15,3.83-9.63,5.19-15,6.2A89.4,89.4,0,0,0,117,73.63c-3.86,1.17-7.75,2.28-11.54,3.68a22.38,22.38,0,0,1-18.48-1.17c-1.84-.92-3.69-1.8-5.46-2.85-2.21-1.3-2.78-1.12-3.88,1.27a37.15,37.15,0,0,0-2.46,8,68.93,68.93,0,0,1-2.29,8.31,18.76,18.76,0,0,1-11.91,12.16,13.74,13.74,0,0,0-7.72,6,16,16,0,0,1-10.51,7.63c-1.14.25-2.22.71-3.36.93a5.57,5.57,0,0,0-4.57,4.67c-1.35,5.68-1.7,11.5-2.52,17.25-1,6.83-1.14,13.77-3.35,20.41-2.75,8.25-9.87,12.28-17.86,13.37a1.46,1.46,0,0,1-1.63-.59c-.11-.83.42-1.41.79-2.05a7,7,0,0,0-.43-8.23c-.51-.69-1.27-1.29-1.16-2.3a1,1,0,0,1,.76-.23c3.47.64,5.66-1.3,7.59-3.76l.78-2.59c.44-1.33.47-2.75.86-4.09l0,0c.61-3.7,4.55-29.91,5-30.84l0,0c.31-.69.44-1.44.81-2.1A13.67,13.67,0,0,1,27.21,112a9.15,9.15,0,0,1,2-2,25.65,25.65,0,0,1,4.15-2.51c.71-.25,8-2.41,8.53-2.83,1.87-1.37,2.61-3.71,4.2-5.35,1-1.21,13.05-9.7,14.4-11.2C62.34,86.07,65.88,73.63,66.29,73Z"/>
        <path class="cls-1" d="M32.58,165.08a9.09,9.09,0,0,0-.37.95c-2,7.24-6.24,10.38-13.81,10-2.79-.14-6.24,1.35-9,1-1.25-.08-3.53-2-4.68-2.88.42-1.67,3.48-1.35,4.81-1.68.67.61,1.42.27,2.14.15,11.3-2,16.88-8,18.49-19.88,1.3-9.55,2-19.18,3.68-28.68a26.41,26.41,0,0,1,.8-3.18,4.87,4.87,0,0,1,3.79-3.64c1.07-.23,2.1-.61,3.17-.84a17.29,17.29,0,0,0,12.11-9,8,8,0,0,1,5-4C67.45,100.86,72,94.66,73.78,86c.55-2.68,1.28-5.32,2-8a19.71,19.71,0,0,1,1.66-4.41c1.23-2.29,1.48-2.37,3.71-1.12A73.78,73.78,0,0,0,89.4,76.6a20.72,20.72,0,0,0,14.45.63c6.06-1.92,12.12-3.85,18.22-5.65,3.46-1,7.1-1.2,10.55-2.43a25.94,25.94,0,0,0,10.57-6.37c2.53-2.66,6.71-5.11,9.56-7.46.47-.07-.42.47-.5.94-2,3.6-3.62,7.38-6.51,10.39A21.34,21.34,0,0,1,134,72.94a129.5,129.5,0,0,0-28.22,8.54,19.94,19.94,0,0,1-18-.55c-2.55-1.32-5.22-2.4-7.77-3.73-1.21-.63-1.55-.35-2,.86a127.86,127.86,0,0,0-3.88,15.09c-.34,1.53-.76,3.05-1.22,4.56a16.37,16.37,0,0,1-13.08,11.94,15.87,15.87,0,0,1-1.6.35c-1.85.19-2.78,1.11-3.27,3-1.87,7.14-5.06,9.54-12.44,9.73l-2.46.05c-2.89.07-3.3.26-3.32,3.13-.07,10.94-2.5,21.6-3.56,32.42C33,160.59,32.78,162.84,32.58,165.08Z"/>
        <path class="cls-3" d="M129,8.48a31.26,31.26,0,0,1-2.39-5A4.56,4.56,0,0,0,123.4.73l-2.53-.6a4.56,4.56,0,0,0-4.52,1.47h0a4.56,4.56,0,0,0,0,5.89l.83,1a4.56,4.56,0,0,1,.53.79l.4.76c3,7.46,3.38,2.92,5.51,2.19C126.49,11.22,129.9,9.74,129,8.48Z"/>
        <path class="cls-3" d="M0,166.81c0,3.68,2.85,7.07,6.3,6.66,12.43-1.44,6.3-3,6.3-6.66s1.44-8.11-6.3-6.66C2.88,160.78,0,163.13,0,166.81Z"/>
      </g>
    </g>
  </g>
</svg>
