<svg xmlns="http://www.w3.org/2000/svg" width="244.34" height="201.09" viewBox="0 0 244.34 201.09">
  <defs>
    <style>
      .cls-1 {
        fill: #fb9188;
      }

      .cls-2 {
        opacity: 0.3;
      }

      .cls-3 {
        fill: #650a03;
      }

      .cls-4 {
        fill: #650b04;
      }

      .cls-5 {
        fill: #642e29;
      }

      .cls-6 {
        fill: #420702;
      }

      .cls-7 {
        fill: #660c05;
      }

      .cls-8 {
        fill: #470d08;
      }

      .cls-9 {
        fill: #ff9188;
      }
    </style>
  </defs>
  <title>Risorsa 98</title>
  <g id="Livello_2" data-name="Livello 2">
    <g id="_02_mappa0zoom" data-name="02_mappa0zoom">
      <g>
        <path class="cls-1" d="M13.92,177.67c3.43-1,6.1-3.33,8.88-5.4,6.81-5.09,13.28-10.62,20.52-15.13a46.66,46.66,0,0,1,24.32-7.35,124.38,124.38,0,0,1,19.85,1.62c2.84.42,5.7.72,8.55,1.12a2.16,2.16,0,0,0,2.56-1.37c3-5.62,5.78-11.42,9.77-16.43,7.66-9.6,17.77-13.49,30-12.54,8.2.64,16.44,1.48,24.64.23,6.17-.94,11.53-3.16,14.84-9.28a183.83,183.83,0,0,0,9.9-21.46C192,80.46,198.89,70.79,206,61.25a69.1,69.1,0,0,0,8.34-13.88,149.36,149.36,0,0,1,8.06-16,4.94,4.94,0,0,0,.93-2.47c-.11-.83.44-1.27,1-1.71A64.71,64.71,0,0,0,233.75,20a2.56,2.56,0,0,1,2.4-.87,2.3,2.3,0,0,1,1.73,1.36,3,3,0,0,1-.64,1.9,49.06,49.06,0,0,0-6.06,20.47,38.87,38.87,0,0,0-.42,4.89,9.13,9.13,0,0,1-.57,2.19C224.43,61.07,218.42,72.07,211,82.26c-4.15,5.7-6.77,12.23-9.48,18.68-2.37,5.64-4.78,11.23-8.34,16.26a29.08,29.08,0,0,1-6.42,6.89c-2.22,1.63-4.07,3.67-6.2,5.41A33.86,33.86,0,0,1,160.92,137a21.54,21.54,0,0,0-2.23.38,168.49,168.49,0,0,1-19.87-.6A45.8,45.8,0,0,0,128,137a7.36,7.36,0,0,0-5.36,3.39,57.83,57.83,0,0,0-5,9c-1.1,2.58-2.22,5.16-3.51,7.65a6.93,6.93,0,0,1-2.05,2.74c-5.12,4.37-11.17,5.54-17.67,5.17-7.72-.43-15.3-2.33-23.1-2-2.26.11-4.49.46-6.73.62a39.12,39.12,0,0,0-19.48,8.52c-6.94,4-13.4,8.76-19.9,13.45-1.45,1-3,2-4.5,2.86-.69.4-1.41.92-2.29.46a5,5,0,0,1-.73-1.88c-1-3.15-2.93-5.49-6.2-6.52a2.69,2.69,0,0,1-1.25-.66C10.76,177.87,12.62,178.27,13.92,177.67Z"/>
        <path class="cls-2" d="M243.16,18.17c-3.26,6.16-2.77,15.29-3.51,22.17s-.33,14-1.92,20.84a75.49,75.49,0,0,1-14.5,30.14c-3.23,4.08-6.67,8-10,12a12.62,12.62,0,0,0-2.27,4.34,147,147,0,0,1-6.28,16.74c-6.43,13.57-17.41,20.91-31.86,23.62-6.3,1.18-12.7,1-19.05,1.18-5.21.17-10.41.22-15.54,1.28a15.86,15.86,0,0,0-10.8,7.19,92.73,92.73,0,0,1-6,8.82c-4.18,5.22-9.76,8-16.14,9.53-7.48,1.8-14.94,1.42-22.44.24-6.16-1-12.35-1.67-18.6-1-7.29.76-12.4,5-16.75,10.49-3.91,5-8.22,9.58-14,12.53-4.92,2.52-10.18,3.06-15.6,2.79-14.94-.22-17-8.56-16.38-8.5,2.7.23,10.44,5.86,12.73,4.53,9.35-.48,16.06-5.91,21.65-12.53a43.44,43.44,0,0,1,29.53-15.74c7.81-.88,15.59-1.26,23.37.09,3,.52,5.87,1.45,8.87,1.81a25.64,25.64,0,0,0,9-.25,15.09,15.09,0,0,0,10.83-9,38.76,38.76,0,0,0,2.53-8.69c1-5.42,4.36-8.34,9.53-9.53a66.23,66.23,0,0,1,19.16-1.71c7.86.48,15.74,1.05,23.63.17a27.59,27.59,0,0,0,21.86-14.27,91.72,91.72,0,0,0,7.4-17.63,109.07,109.07,0,0,1,21.25-37.57c.52-.67,1.07-1.31,1.53-2A50.52,50.52,0,0,0,234.61,45.1c.41-3,.78-6.1,1.41-9.11a19.91,19.91,0,0,0,.43-2.52c.52-3.92,2.39-7.37,3.82-11a3.41,3.41,0,0,1,1.16-1.66C242.61,20.49,241.9,17.34,243.16,18.17Z"/>
        <path class="cls-1" d="M130.92,24c1.67.27,2.84-.85,3.94-1.71A72.1,72.1,0,0,1,166.91,8.18a55.12,55.12,0,0,1,22,.35,38.84,38.84,0,0,0,23.73-2.28,86.32,86.32,0,0,1,20.25-6c.88-.13,1.77-.13,2.65-.19a.66.66,0,0,1-.27.87A13.55,13.55,0,0,0,231,8.1c.21,3.17-1.58,4.5-4.36,5.6a54.41,54.41,0,0,0-12.11,7.12c-3.44,2-7.26,2.76-11.14,3.35-5.73.86-11.33-.21-16.95-1-2-.27-3.93-.61-5.9-.82-10.33-1.81-20.15-.49-29.31,4.82a25.9,25.9,0,0,0-2.67,1.53,20.37,20.37,0,0,1-3.35,1.55c-5,1.66-10,3.5-15.22,4.29-7.41,1.12-14.75.33-22.08-.8-.65-.1-1.61-.17-1.66-.93s.85-1,1.48-1.25c2.34-1,3.51-2.45,5.74-3.68a13,13,0,0,1,2.67-.32,24.58,24.58,0,0,0,7.15-1A49.47,49.47,0,0,0,130.92,24Z"/>
        <path class="cls-2" d="M224.56,27.51l-2,1.53a4.53,4.53,0,0,0-1,.55,34.88,34.88,0,0,1-28,5.79c-12.43-2.68-24.17-.52-35.92,3.31-7,2.29-14,4.9-21.24,6.42-7.85,1.64-15.66,1.24-23.5.12-.83-.12-1.75-.3-2.7-.53a35,35,0,0,1-15.08-8,2.24,2.24,0,0,0-.75-.53c1.32-1.75,4.35,2.2,6.18,1a4.23,4.23,0,0,1,1.83.16A57.84,57.84,0,0,0,119.08,39a9.79,9.79,0,0,1,4.05.41c7.23,4.19,13.81,2.56,20.07-2.19,2.19-1.66,4.3-3.41,6.54-5a33.24,33.24,0,0,1,23.73-6.12c6.33.72,12.66,1.75,19,1.76a70.64,70.64,0,0,0,31-7.15c1.28-.62,2.46-1.53,4-1.61,1,.2.9.93.59,1.55C226.91,23,226.12,25.43,224.56,27.51Z"/>
        <path class="cls-1" d="M119.33,10c-3,2.14-3.58,5.26-3.62,8.63-.41,1-1.37,1.28-2.24,1.64-4.54,1.88-9.18,3.49-13.77,5.26a2.25,2.25,0,0,1-2.15.13,11.38,11.38,0,0,0-6.09-2.09,2.43,2.43,0,0,1,1.66-.72c3.77-.46,6.08-2.85,8-5.82A16.06,16.06,0,0,1,112,9.38C114.47,8.95,116.88,9.87,119.33,10Z"/>
        <path class="cls-3" d="M14.38,197.43a10.56,10.56,0,0,0,4.1-8.23,4.6,4.6,0,0,1,2.37-.52c6.63.25,11.23-3.3,15.29-8,2.73-3.14,5.14-6.59,8.66-9a36.64,36.64,0,0,1,19.39-8.57,79.23,79.23,0,0,1,18.8.37,35.67,35.67,0,0,1,6.35,1.57c8.85,2.94,16.47,1.07,22.75-5.92l1.55-2.13c2.45-4,4.65-8.21,8.08-11.6a27.18,27.18,0,0,1,13.54-7.35,44.52,44.52,0,0,1,11.2-1.06c4.11.14,8.23,0,12.34,0,4.08-.46,8.19-.56,12.25-1.21,6.12-1,11.85-2.95,16.63-7.1A31.84,31.84,0,0,0,196,117.39a88.59,88.59,0,0,0,5.13-14.75c.82-3.4,2.91-6.48,4.54-9.65a112,112,0,0,1,11-17.12,17,17,0,0,1,3.17-3.22c1.05-.79,2.21-1.48,3.53-.44-2,2.56-3.86,5.16-5.87,7.67-7.62,9.55-12.11,20.66-16.1,32-1.41,4-2.92,8-4.68,11.87-5.47,12-14.77,18.33-28,18.89-7.09.3-14.13-.38-21.19-.65A58.36,58.36,0,0,0,128,144.26c-3.8,1.17-6.27,3.52-7.15,7.46-.39,1.74-.89,3.45-1.28,5.19-2.65,12-11.4,15.84-22,14.35-5.76-.81-11.35-2.67-17.24-2.71-8.33-.05-16.58.43-24.63,2.87a34.45,34.45,0,0,0-15.48,9.38c-3.67,3.89-7.2,7.93-11.53,11.16S19.89,197.53,14.38,197.43Z"/>
        <path class="cls-3" d="M223.38,72.21a4.36,4.36,0,0,0-4,1.53c-4.61,4.76-7.82,10.5-11.34,16-2.36,3.71-3.72,7.91-6,11.69-1.18,2-1,4.46-1.82,6.66-2.37,6.66-4.83,13.23-9.65,18.6a27.73,27.73,0,0,1-11.3,7.56,38.21,38.21,0,0,1-13.79,2.58c-2.19,0-4.33.67-6.53.39q-.2-.15-.14-.29t.14-.15a61.53,61.53,0,0,0,10.67-2,30.21,30.21,0,0,0,12.71-7.69,33.88,33.88,0,0,1,3.62-3c6.26-4.89,9.95-11.58,13.08-18.66,2-4.51,3.88-9.07,5.91-13.57A79.61,79.61,0,0,1,213.3,78c6.42-8.85,11.23-18.64,16.45-28.2.59.44.53,1.07.46,1.68-.77,6.72-2.29,13.21-5.73,19.13A2.58,2.58,0,0,1,223.38,72.21Z"/>
        <path class="cls-4" d="M159,136.81v.44c-4.18,0-8.38-.13-12.55.06a56.5,56.5,0,0,0-12.93,1.79c-7.24,2.06-12.34,6.8-16.31,13a23.93,23.93,0,0,1-3.53,5A159.51,159.51,0,0,1,121,141.7a10.29,10.29,0,0,1,9.49-5.66,104.12,104.12,0,0,1,10.87.36A158.57,158.57,0,0,0,159,136.81Z"/>
        <path class="cls-3" d="M224.48,70.61c1.14-3.7,2.79-7.22,3.71-11a54.24,54.24,0,0,0,1.56-9.81l.5-1.91c1.13-4.25,3.26-8.12,4.66-12.27.21-.63.46-1.33,1.3-1.44.68.52.4,1.17.25,1.8-1.29,10.18-2.46,20.41-8.16,29.36C227.14,67.17,226.16,69.15,224.48,70.61Z"/>
        <path class="cls-3" d="M44.79,171.74C41,176,37.3,180.31,33.31,184.35s-9.22,5.3-14.84,4.84a.53.53,0,0,1,0-.39c2.41-.72,4.34-2.28,6.35-3.69C31.41,180.52,37.78,175.65,44.79,171.74Z"/>
        <path class="cls-1" d="M112.08,159.18c-2.74,4.69-7.17,6.91-12.24,7.7a22.34,22.34,0,0,1-12.26-1.79c-3.92-1.67-8.21-1.31-12.33-1.84-3.68-.47-7.38.13-11.07-.07a24,24,0,0,1,5.83-.75c6.58-.42,13.06.64,19.56,1.47,6.14.78,12.24.91,18.07-1.84C109.27,161.27,110.55,160.05,112.08,159.18Z"/>
        <path class="cls-5" d="M236,34.3a1.47,1.47,0,0,1,.62-1.34l.28.52c-.14.84.05,1.74-.46,2.5C236.25,35.44,236.61,34.75,236,34.3Z"/>
        <path class="cls-6" d="M214.59,20.29c3.74-.93,7.08-2.87,10.7-4.12,1.53-.53,3.06-1.09,4.93-1.75a13.17,13.17,0,0,1-2.5,4.92,76,76,0,0,1-25.81,8.5c-7.19,1.07-14.36.49-21.52-.35-5.58-.65-11.16-1.59-16.78-.55a33.76,33.76,0,0,0-15.15,7c-2.3,1.84-4.66,3.62-7.11,5.26A51.09,51.09,0,0,1,95.1,36.9c-.14-.85,28.54,2,29.13,1.88,6.24-.94,11.41-4.37,16.84-7.19,1.39-.72,2.87-1.22,4.31-1.84l2.74-1.31a72.64,72.64,0,0,1,27.68-6.86,19.22,19.22,0,0,1,4.67.29c5.32.25,10.51,1.58,15.84,1.88A36.93,36.93,0,0,0,214.59,20.29Z"/>
        <path class="cls-1" d="M145.38,29.76c-6.92,3.56-13.28,8.38-21.28,9.55-.43.06-2.52.31-3.35.33-6.62.19-22.77-1.29-23.85-2.37-3.51-3.51,4.33-8.26.64-11.61,6.11-2.21,12.27-4.27,18.16-7l.42,1.26c0,.94-.78.86-1.31.88a4,4,0,0,0-3.37,2,57.23,57.23,0,0,1-3.31,4.71c1.52.14,2.27.65,3.54.4,1,.19,2.71-.76,3.2.58a59.21,59.21,0,0,1-8.6,4.34,87.54,87.54,0,0,0,10.68,1.44,55.19,55.19,0,0,0,26.26-4A3.81,3.81,0,0,1,145.38,29.76Z"/>
        <path class="cls-7" d="M180.47,21.88a89.59,89.59,0,0,0-31.54,6.47,3.36,3.36,0,0,1-.8.1,41.42,41.42,0,0,1,29.35-7C178.47,21.55,179.53,21.35,180.47,21.88Z"/>
        <path class="cls-8" d="M116.47,20.79c-3.47.59-5,2.17-5.78,5.72-.3,1.34,1,1.23,1.71,1.39-1.47.86-3.48,0-5.58.28,3.22-3.19,4-8.19,9.32-8.3C125.72,19.61,116.5,20.43,116.47,20.79Z"/>
        <path class="cls-1" d="M212.9,20.33s6.48-1.8,10.45-1.8,1.8,5,1.8,5l-1.8,5.4.36,3.6,14-12.25s6.48-9.37,6.12-10.81,2.16-9-1.8-9.37a30.84,30.84,0,0,0-6.48,0l-7.2,2.52Z"/>
        <path class="cls-3" d="M244.34,3.81l0,3.17a57,57,0,0,1-2.13,14.9L234.32,49.8l-8.4,7.11,5-20.06a37.83,37.83,0,0,1,1.83-5.51Z"/>
        <path class="cls-3" d="M24.5,190.36c0,5.37-7.44,7.2-13.51,7.2s-11-4.35-11-9.73,6.92-2.47,12.61-.36C22.33,191.08,24.5,185,24.5,190.36Z"/>
        <path class="cls-9" d="M24.14,183.16c0,3.48-7.68,7.93-13.15,7.93s-9.91-2.82-9.91-6.3,4.44-6.3,9.91-6.3S24.14,179.68,24.14,183.16Z"/>
        <path class="cls-1" d="M105.55,30.6c0,3.88,3.6,7-7,7a7,7,0,0,1-7-7c0-3.88-1.92-3.66,0-7C92.94,21.05,105.55,26.72,105.55,30.6Z"/>
        <path class="cls-1" d="M127.16,17.09c0,2.88-7.92,2.88-10.81,2.88s-2.16-1.62-2.16-4.5a5.7,5.7,0,0,1,5.4-5.58C122.48,9.89,127.16,14.21,127.16,17.09Z"/>
      </g>
    </g>
  </g>
</svg>
