<svg xmlns="http://www.w3.org/2000/svg" width="244.4" height="258.07" viewBox="0 0 244.4 258.07">
  <defs>
    <style>
      .cls-1 {
        fill: #bfbfbf;
      }

      .cls-2 {
        fill: #636363;
      }

      .cls-3 {
        fill: #090100;
        opacity: 0.3;
      }
    </style>
  </defs>
  <title>Risorsa 102</title>
  <g id="Livello_2" data-name="Livello 2">
    <g id="_02_mappa0zoom" data-name="02_mappa0zoom">
      <g>
        <path class="cls-1" d="M7.38,240.69a25.33,25.33,0,0,0,10.4-12.29c1.82-4.8,2.25-9.84,2.83-14.87.61-5.29.48-10.64,1.95-15.85a19.61,19.61,0,0,1,10-12.41c1.2-.65,2.43-1.27,3.69-1.81a15.6,15.6,0,0,0,7.62-6.33,31.24,31.24,0,0,1,18.69-14.47c4.57-1.39,7.25-4.64,9-8.91q2-4.94,4.31-9.77c4.06-8.52,10.92-13.08,20.25-14,10.61-1.09,21.16-2.65,31.72-4.14a16,16,0,0,0,11.62-7.28c2-3.06,4-6.23,6.89-8.65a27.38,27.38,0,0,1,12.78-5.79,20.82,20.82,0,0,0,15.4-11.4c.35-.67.79-1.28,1.19-1.92,6.64-10.65,16.57-16.16,28.63-18.42,5.33-1,10.74-1.09,16.55-1.61-3.18-2.47-6-4.73-8.92-6.92-1.47-1.11-3.11-2-4.58-3.13-6.51-5-7.52-11.69-6-19.17.68-3.42,1.46-6.82,2.2-10.23a1.41,1.41,0,0,1,0-1c.46-3.1,1.29-6.14,1.63-9.26.07-.61.15-1.24.83-1.53,2.74.73,5.52.13,8.28.25L214,24.59a26.73,26.73,0,0,1-.67,7.11c-1.48,3.67-1.69,7.58-2.1,11.45-.09.81.09,1.66,0,2.46-.54,3.73,1.38,6.17,4.27,8A76.65,76.65,0,0,1,224.22,60c2.38,2,5.27,3.16,8,4.62.8.43,1.89.7,1.68,2-3.5,3-2.92,7.12-3.05,11a5.79,5.79,0,0,1-.08,1.63c-1.18,1.53-3,1.17-4.52,1.36-5.91.71-11.89.72-17.77,1.72C202.12,83.49,196,85.25,191,89.55A31.57,31.57,0,0,0,184.48,98a40.7,40.7,0,0,1-9.09,11.31c-4.08,3.36-8.92,5.09-13.95,6.25a16.3,16.3,0,0,0-11.26,8.17c-.86,1.55-2,3-3,4.44-4.74,6.83-11.51,9.87-19.55,10.58-5.86.52-11.72,1-17.58,1.52-3.4.3-6.83.33-10.25.54-1,.06-2.06,0-3.08,0-5.25.11-9,2.4-11,7.4-1.34,3.31-2.61,6.63-3.78,10a27.29,27.29,0,0,1-16.92,17.34,20.55,20.55,0,0,0-10.43,8.27,27,27,0,0,1-15.09,11.72c-3.6,1.1-5.4,3.51-5.8,7.15-.32,2.86-.62,5.7-.69,8.59-.17,6.85-.65,13.69-2.83,20.27a34,34,0,0,1-10.86,16.38c-1.65,1.33-3,3-4.73,4.27-.56.38-.34,4.24-1.1,4.23-.71-.27-10.45,3.6-13,.36-2.16-3.24,2.63-11,3.13-12A14.92,14.92,0,0,1,7.38,240.69Z"/>
        <path class="cls-2" d="M8.12,257.48c8.48-6.7,20.46-18.71,22.66-29.92a109.43,109.43,0,0,0,1.77-18,45.35,45.35,0,0,1,1.15-9.36,6,6,0,0,1,3.85-4.46c1-.4,2-.88,3-1.24a25,25,0,0,0,13.11-10.42,22.63,22.63,0,0,1,11.64-9.32c8.6-3.11,13.7-9.47,16.53-17.91,1.07-3.18,2.32-6.29,3.61-9.39A10.77,10.77,0,0,1,96,140.34c10.63-.21,21.19-1.32,31.77-2.16,8.33-.67,15.12-4.1,19.72-11.33.81-1.27,1.75-2.47,2.47-3.79a15.33,15.33,0,0,1,10.74-7.88c1.47-.33,2.9-.8,4.35-1.21a28.06,28.06,0,0,0,15.72-11.26,29.28,29.28,0,0,0,2.44-3.8c5.82-11.72,16-16.31,28.32-17.48,5.86-.56,11.73-1.08,17.59-1.62a1.91,1.91,0,0,0,1.34-.41.51.51,0,0,1,.65.35,9.48,9.48,0,0,0,3.47,4.48.84.84,0,0,1,.39,1.06c-.59.8-1.54.84-2.38,1.07-6.9,1.92-14,2.29-21.08,3.39-4.8.75-9.63,1.38-14.44,2.09-5.56.82-9.7,3.4-11.92,8.81a69,69,0,0,1-4,7.86c-3.5,6.14-8.84,9.77-15.5,11.68-.59.17-1.19.34-1.79.45a21,21,0,0,0-14.49,9.5c-4.9,7.5-12.28,11.51-20.74,13.81a81.64,81.64,0,0,1-13,2.87,85.41,85.41,0,0,0-9,2.09,56.53,56.53,0,0,1-12.84,2.56c-5.58.64-8.89,3.7-10.67,8.87-1.7,4.94-3.66,9.78-7.4,13.62a71,71,0,0,1-10.8,8.52A44.92,44.92,0,0,0,55.47,191a19.08,19.08,0,0,1-9.87,6.71c-1.06.29-2.07.74-3.13,1a8,8,0,0,0-6.3,7A120,120,0,0,0,34.7,219.2a117.43,117.43,0,0,1-1,12.48,24.56,24.56,0,0,1-8.88,16c-2.61,2.11-5.22,4.24-8,6.15-1.24.86-.54,3.8-2.28,3C14.29,256.08,7.53,258.06,8.12,257.48Z"/>
        <path class="cls-3" d="M12.81,256.76c4.68-4.32,17.35-12.14,20-22.94,1.15-4.75,1.1-9.65,1.4-14.5a103.76,103.76,0,0,1,1.65-14.47c.68-3.36,2.56-5.6,5.88-6.41a24.93,24.93,0,0,0,15.23-10c1.49-2.12,3.75-3.59,5.87-5.1,1.78-1.27,3.51-2.63,5.36-3.8A33.19,33.19,0,0,0,82.33,161a29.35,29.35,0,0,1,2-4.49,8.56,8.56,0,0,1,6.1-4.77c5.37-1,10.77-1.88,16.15-2.8-7.72,3.11-12.14,9.46-16,16.34-2,3.64-4.08,7.28-6.17,10.9-4,6.94-10.06,11.65-17,15.31a79.06,79.06,0,0,0-15.63,11.21c-1.17,1-2.28,2.18-3.53,3.12-4.33,3.26-5.4,7.86-5.41,12.9,0,5.76-.23,11.47-1.89,17C37.84,246.22,30.79,253,20.9,257.08,17.74,258.39,16.41,256.4,12.81,256.76Z"/>
        <path class="cls-3" d="M115.62,146.81c4.94-1.35,9.89-2.67,14.83-4a32,32,0,0,0,18.7-13.27,20.66,20.66,0,0,1,14-9.23c9.3-1.81,15.79-7.2,19.64-15.83.78-1.75,1.75-3.42,2.51-5.18,1.87-4.36,5.27-6.69,9.81-7.54,8.42-1.58,16.92-2.56,25.4-3.71,4.88-.66,9.78-1.28,14.47-2.91,2.45-.21,4.7.63,7,1.25-8.48,6.79-18.46,9.13-29,10a97.09,97.09,0,0,0-10.38,1.12c-4.68.88-8,3.18-10,7.55a59.42,59.42,0,0,1-3.89,7.69c-3.73,5.85-9.13,9.58-15.47,12-3.32,1.26-6.78,2.14-10.18,3.19a13.29,13.29,0,0,0-6.69,4.56c-5.75,7.39-13.61,11.07-22.54,12.71A107.21,107.21,0,0,1,115.62,146.81Z"/>
        <path class="cls-1" d="M123.93,74.08c6.4-9.87,12.65-19.84,19.26-29.57a27,27,0,0,1,15.68-10.93c6.39-1.74,12.32-4.25,16.31-9.91,2.05-2.91,4-5.87,6-8.82a57.66,57.66,0,0,1,7.85-10C193.32.8,200.47-2.45,207.29,2.5c.31.23,1.18,1,.93,1-1.37.33.82,3.14-.16,4s-5.18-.26-6,.86c-5.56-.51-8.29,3.41-11,7.18s-5.1,8.11-7.86,12a29.86,29.86,0,0,1-15.78,11.86c-2.68.84-5.34,1.72-8,2.74-5.92,2.32-9.77,6.87-13.1,12-4.55,7-9,14.07-13.81,20.91-.57.81-7.34,19.61-12.39,17.44C115.47,90.34,119.43,81.33,123.93,74.08Z"/>
        <path class="cls-3" d="M203.77,30.23l-.18,1.06c-.56-3.08-1.06-6.18-1.72-9.24-.23-1.09-.37-2.74-1.5-2.91s-1.74,1.32-2.36,2.28C195.08,26,193,31,190.5,35.79a37,37,0,0,1-4.42,6.65c-3.74,4.43-8.7,6.88-14.13,8.26s-9.46,4.49-12.79,8.95c-5.49,7.34-11.23,14.5-18,20.74C137.8,83.49,125.7,90.3,125.92,90c2.07-3,4-4,6.12-7.56a10.33,10.33,0,0,1,1.08-4c6.26-6.49,10.4-15,15.17-22.59,3.81-6.07,9.23-9.54,16.08-11.16a46,46,0,0,0,7.42-2.4c6.65-2.82,10.87-8.15,14.75-13.88a130.1,130.1,0,0,1,9-12.49,11.33,11.33,0,0,1,4.78-3.43,1.06,1.06,0,0,1,1,.16c.78,2.24,2.37,4.06,3.26,6.24C205,22.74,204.41,26.48,203.77,30.23Z"/>
        <path class="cls-3" d="M237.81,64.52c-3.23-.68-5.63-2.25-6.53-5.67s-3.5-5.78-6.6-7.46c-1.68-.91-3.41-1.74-5.13-2.58a11.23,11.23,0,0,1-6.18-7.27c-.89-3.24-1.76-6.55-.44-9.93.33-2.34.17-4.76,1-7,.52,1.83,1.1,3.64,1.54,5.49a27.33,27.33,0,0,0,9.78,15C230,49,234,53.4,235.57,59.55c.74,2.89,2.12,5.08,5.66,4.58A20.6,20.6,0,0,1,237.81,64.52Z"/>
        <path class="cls-2" d="M212.94,31.61a28.79,28.79,0,0,0,.59,8.56,11.42,11.42,0,0,0,6.75,8.48,32.25,32.25,0,0,1,7.51,4.17c1.44,1.2,3,2.45,3.4,4.27a10.09,10.09,0,0,0,6.62,7.42,11,11,0,0,0-4.16,2c0-1-1-1.11-1.58-1.37A43.71,43.71,0,0,1,220.84,58a65.67,65.67,0,0,0-6.06-4.22A8.42,8.42,0,0,1,210.54,46a71.9,71.9,0,0,1,1.72-13.21C212.36,32.3,212.31,31.75,212.94,31.61Z"/>
        <path class="cls-2" d="M204.19,18.49l1.92,1.22c-.53,2.74-1,5.48-1.61,8.21a22.68,22.68,0,0,1-.73,2.32Z"/>
        <path class="cls-2" d="M201.94,8.15a11.14,11.14,0,0,0-.79,4.65c-2.31.44-3.85,2-5.3,3.66C191.9,21,188.74,26,185.44,31c-4.88,7.31-11.4,12.08-20,14-.33.07-.66.2-1,.27a24.09,24.09,0,0,0-16.21,11.57c-4.69,7.58-9.61,20.27-15.85,26.68-.08.09-.56.69-1.13,1.43a25.16,25.16,0,0,1-4.11,4.17c-1.51,1.22-3.54,3.09-3.76,2.68,4.38-5.87,15.42-26.85,19.37-33,1.7-2.65,3.49-5.25,5.25-7.86a24.78,24.78,0,0,1,12.82-9.81c1.36-.47,2.7-1,4.08-1.38,8.57-2.17,14.79-7.36,19.49-14.72,2.57-4,4.81-8.31,7.94-12,.75-.88,1.53-1.76,2.37-2.56C196.73,8.51,199,7.31,201.94,8.15Z"/>
        <path class="cls-2" d="M200.49,12.88c1-.52.72.72,1.44,2.52,1,2.41,2.16,7.2,2.16,7.2l2.16-2.88s9-6.48,5.4-10.09C210,8,201.93,8.2,201.93,8.2S198.33,14,200.49,12.88Z"/>
        <path class="cls-1" d="M201.93,8.2s3.32,4.27,4.32,5.76c1.44,2.16,0,5.76,0,5.76l7.56,4.68s4.32-13.69.72-17.29c-1.66-1.66-7.93-5-7.93-5Z"/>
        <path class="cls-2" d="M239.85,74.29c0,6.53-2.81,10.65-6,11.82-4.79,1.73-6-5.29-6-11.82s5.62-11.15,9.17-10.09C241.19,65.48,239.85,67.76,239.85,74.29Z"/>
        <path class="cls-1" d="M236.15,72.14c0,4.08-2.39,6.83-5.22,7.38-9.19,1.8-5.22-3.31-5.22-7.38s2.88-9.19,7.93-6.3C236.71,67.6,236.15,68.06,236.15,72.14Z"/>
        <path class="cls-3" d="M242.37,65.67l1.09,2.18a6.28,6.28,0,0,1,.66,2.61l.27,8.73a6.28,6.28,0,0,1-.52,2.71l-2,4.47s-4.47-1.3-5.4-1.44a11.43,11.43,0,0,0-2.16,0L239,69.08l-1.22-4.56,3.38-.48h0A6.28,6.28,0,0,1,242.37,65.67Z"/>
      </g>
    </g>
  </g>
</svg>
