<?xml version="1.0" encoding="utf-8"?>
<!-- Generator: Adobe Illustrator 21.0.0, SVG Export Plug-In . SVG Version: 6.00 Build 0)  -->
<svg version="1.1" id="Livello_1" xmlns="http://www.w3.org/2000/svg" xmlns:xlink="http://www.w3.org/1999/xlink" x="0px" y="0px"
	 viewBox="0 0 375 667" style="enable-background:new 0 0 375 667;" xml:space="preserve">
<style type="text/css">
	.st0{fill:#FABA4D;}
	.st1{fill:#097283;}
	.st2{fill:#0D9BB2;}
	.st3{fill:#53DBD0;}
	.st4{fill:#016C7B;}
</style>
<title>primainterlogo</title>
<g id="logo">
	<rect y="0" class="st0" width="375" height="667"/>
	<g id="logo-2">
		<path class="st1" d="M117.9,265.8l139.8,80.7c11.2,6.5,15.1,20.9,8.6,32.1l0,0c-6.5,11.2-20.9,15.1-32.1,8.6L94.4,306.5
			c-11.2-6.5-15.1-20.9-8.6-32.1l0,0C92.3,263.1,106.7,259.3,117.9,265.8z"/>
		<path class="st1" d="M223.6,275.8h33.3c13,0,23.5,10.5,23.5,23.5v0c0,13-10.5,23.5-23.5,23.5h-33.3c-13,0-23.5-10.5-23.5-23.5v0
			C200.1,286.3,210.6,275.8,223.6,275.8z"/>
		<path class="st1" d="M144.3,229.7h25.6c13,0,23.5,10.5,23.5,23.5v0c0,13-10.5,23.5-23.5,23.5h-25.6c-13,0-23.5-10.5-23.5-23.5v0
			C120.8,240.2,131.3,229.7,144.3,229.7z"/>
		<path class="st1" d="M210.6,194.1h2.6c9.5,0,17.2,7.7,17.2,17.2l0,0c0,9.5-7.7,17.2-17.2,17.2h-2.6c-9.5,0-17.2-7.7-17.2-17.2l0,0
			C193.4,201.8,201.1,194.1,210.6,194.1z"/>
		<path class="st2" d="M123.1,257.1l139.8,80.7c11.2,6.5,15.1,20.9,8.6,32.1l0,0c-6.5,11.2-20.9,15.1-32.1,8.6L99.6,297.8
			c-11.2-6.5-15.1-20.9-8.6-32.1l0,0C97.5,254.4,111.9,250.6,123.1,257.1z"/>
		<path class="st2" d="M228.8,267.1h33.3c13,0,23.5,10.5,23.5,23.5v0c0,13-10.5,23.5-23.5,23.5h-33.3c-13,0-23.5-10.5-23.5-23.5v0
			C205.3,277.6,215.9,267.1,228.8,267.1z"/>
		<path class="st2" d="M149.5,221h25.6c13,0,23.5,10.5,23.5,23.5v0c0,13-10.5,23.5-23.5,23.5h-25.6c-13,0-23.5-10.5-23.5-23.5v0
			C126,231.5,136.6,221,149.5,221z"/>
		<path class="st2" d="M214.5,187.7h2.6c9.5,0,17.2,7.7,17.2,17.2l0,0c0,9.5-7.7,17.2-17.2,17.2h-2.6c-9.5,0-17.2-7.7-17.2-17.2l0,0
			C197.2,195.4,204.9,187.7,214.5,187.7z"/>
		<path class="st3" d="M128.4,248.4l139.8,80.7c11.2,6.5,15.1,20.9,8.6,32.1l0,0c-6.5,11.2-20.9,15.1-32.1,8.6l-139.8-80.7
			c-11.2-6.5-15.1-20.9-8.6-32.1l0,0C102.7,245.7,117.1,241.9,128.4,248.4z"/>
		<path class="st3" d="M234.1,258.4h33.3c13,0,23.5,10.5,23.5,23.5v0c0,13-10.5,23.5-23.5,23.5h-33.3c-13,0-23.5-10.5-23.5-23.5v0
			C210.5,268.9,221.1,258.4,234.1,258.4z"/>
		<path class="st3" d="M154.8,212.3h25.6c13,0,23.5,10.5,23.5,23.5v0c0,13-10.5,23.5-23.5,23.5h-25.6c-13,0-23.5-10.5-23.5-23.5v0
			C131.2,222.8,141.8,212.3,154.8,212.3z"/>
		<path class="st3" d="M218.3,181.3h2.6c9.5,0,17.2,7.7,17.2,17.2l0,0c0,9.5-7.7,17.2-17.2,17.2h-2.6c-9.5,0-17.2-7.7-17.2-17.2l0,0
			C201.1,189,208.8,181.3,218.3,181.3z"/>
	</g>
	<g>
		<path class="st4" d="M154,425.9l5.9-15.8h2.3l5.9,15.8h-2.3l-1.5-4.3h-6.6l-1.5,4.3H154z M158.5,419.8h5.2l-2.6-7.1H161
			L158.5,419.8z"/>
		<path class="st4" d="M171.7,425.9h-2v-15.8h2V425.9z"/>
		<path class="st4" d="M178.9,426.1c-1.7,0.2-3.3-1-3.5-2.7c0-0.2,0-0.5,0-0.7V417h-1.9v-1.9h1.9v-3.3h2v3.3h2.6v1.9h-2.6v5.5
			c0,1.2,0.5,1.8,1.4,1.8c0.3,0,0.6-0.1,0.9-0.2l0.7,1.7C180,426,179.4,426.1,178.9,426.1z"/>
		<path class="st4" d="M184,425.9h-2v-10.8h2v1.8l0,0c0.2-0.6,0.7-1.1,1.3-1.5c0.6-0.4,1.2-0.6,1.9-0.6c0.5,0,1,0.1,1.5,0.3
			l-0.8,1.9c-0.3-0.1-0.7-0.2-1.1-0.1c-0.7,0-1.5,0.3-1.9,0.9c-0.6,0.6-0.9,1.4-0.9,2.2V425.9z"/>
		<path class="st4" d="M190.3,416.4c2.2-2.2,5.8-2.2,8,0c2.1,2.3,2.1,5.9,0,8.2c-2.2,2.2-5.8,2.2-8,0c0,0,0,0,0,0
			C188.2,422.3,188.2,418.8,190.3,416.4z M191.8,423.4c1.3,1.4,3.4,1.5,4.8,0.2c0.1-0.1,0.1-0.1,0.2-0.2c1.4-1.6,1.4-4,0-5.6
			c-1.3-1.4-3.4-1.5-4.8-0.2c-0.1,0.1-0.1,0.1-0.2,0.2C190.4,419.3,190.4,421.7,191.8,423.4z"/>
		<path class="st4" d="M204.7,425.9l-4.4-10.8h2.2l3.2,8.4l0,0l3.2-8.4h2.2l-4.4,10.8H204.7z"/>
		<path class="st4" d="M217,426.3c-1.5,0.1-3-0.5-4-1.6c-1-1.1-1.6-2.6-1.5-4.1c0-1.5,0.5-2.9,1.5-4c0.9-1.1,2.3-1.7,3.8-1.7
			c1.4-0.1,2.8,0.5,3.8,1.6c1,1.2,1.5,2.7,1.4,4.2v0.4h-8.5c0,1,0.4,1.9,1.1,2.6c0.6,0.6,1.5,1,2.3,1c1.3,0.1,2.5-0.6,2.9-1.9
			l1.8,0.8c-0.4,0.9-1,1.6-1.7,2.1C219.1,426.1,218,426.3,217,426.3z M219.9,419.3c-0.1-0.7-0.4-1.3-0.9-1.8
			c-0.6-0.6-1.5-0.9-2.3-0.8c-0.7,0-1.4,0.2-1.9,0.7c-0.6,0.5-1,1.2-1.1,1.9L219.9,419.3z"/>
	</g>
</g>
</svg>
