<svg xmlns="http://www.w3.org/2000/svg" width="19.25" height="19.25" viewBox="0 0 19.25 19.25">
  <defs>
    <style>
      .cls-1 {
        fill: #aaa;
      }

      .cls-2 {
        fill: #ececec;
      }
    </style>
  </defs>
  <title>Risorsa 76</title>
  <g id="Livello_2" data-name="Livello 2">
    <g id="ICONE">
      <g id="usernname">
        <circle class="cls-1" cx="9.62" cy="9.62" r="9.62"/>
        <g id="icon_you">
          <path class="cls-2" d="M12.19,15.45c0,.59.33,2-.17,2.32-.89.52-4.87.25-4.93-.32a2.81,2.81,0,0,1-.23-.89,3.22,3.22,0,0,1,.27-1.62,3.32,3.32,0,0,1,.81-1.14,3.29,3.29,0,0,1,.9-.6c.05,0,.07,0,.08,0a1.68,1.68,0,0,0,.3.71.66.66,0,0,0,.19.16A.47.47,0,0,0,10,14a1.76,1.76,0,0,0,.34-.78c0-.14,0-.14.18-.1a2.18,2.18,0,0,1,1.21.9,2.6,2.6,0,0,1,.41,1A1.91,1.91,0,0,1,12.19,15.45Z"/>
          <path class="cls-2" d="M9,10.24a1.87,1.87,0,0,0,.48.09,1.4,1.4,0,0,0,.53-.1l.21-.1s.05,0,0,0-.12,2.61-.26,3.07a.84.84,0,0,1-.18.35c-.18.18-.33.12-.44,0a1.22,1.22,0,0,1-.2-.55c0-.11-.07-.53-.08-.63C9.07,12,9.05,10.55,9,10.24Z"/>
          <ellipse class="cls-2" cx="9.57" cy="5.59" rx="2.72" ry="4.38"/>
        </g>
      </g>
    </g>
  </g>
</svg>
