<svg xmlns="http://www.w3.org/2000/svg" width="29.22" height="37.24" viewBox="0 0 29.22 37.24">
  <defs>
    <style>
      .cls-1 {
        fill: #4c4c4c;
      }

      .cls-2 {
        fill: #c6c6c6;
      }

      .cls-3 {
        fill: #b2b2b2;
      }

      .cls-4 {
        fill: red;
      }

      .cls-5 {
        fill: #ed0000;
      }

      .cls-6 {
        fill: #fff;
      }

      .cls-7, .cls-9 {
        fill: #ededed;
      }

      .cls-8 {
        font-size: 4.74px;
        font-family: AlfaSlabOne-Regular, Alfa Slab One;
      }

      .cls-9 {
        opacity: 0.4;
      }
    </style>
  </defs>
  <title>Risorsa 97</title>
  <g id="Livello_2" data-name="Livello 2">
    <g id="_02_mappa0zoom" data-name="02_mappa0zoom">
      <g id="stop_here" data-name="stop here">
        <g>
          <path class="cls-1" d="M11.16,37.21c-1.27-.67,1.72-1.47,5.17-2.11.22.68-2.59,1.46-5.17,2.11Z"/>
          <path class="cls-1" d="M28.47,34c-1.31.23-1.81.49-3.16.72-4,.6-10.85.8-13.91.21-1.37-.16-1.85-.31-1.92-.6,0-.89,4.36-1.53,9.63-2a46.15,46.15,0,0,1,6.19.06c2.64.22,4.1.67,3.89,1.19l-.73.37Z"/>
          <path class="cls-1" d="M26.85,33.93c-1.34.24-1.87.49-3.25.73a16.21,16.21,0,0,1-2.28.23c-4.11.22-9,0-10.14-.57-.52-.74,3.82-1.67,9.07-1.81,3.29,0,6,.18,7.12.76.26.27,0,.4-.51.65Z"/>
        </g>
        <rect class="cls-2" x="9.83" y="20.95" width="2.24" height="16.29" rx="0.9" ry="0.9"/>
        <path class="cls-3" d="M11,20.95h0a1.12,1.12,0,0,1,1.12,1.12V36.12A1.12,1.12,0,0,1,11,37.24h0"/>
        <circle class="cls-4" cx="10.95" cy="10.95" r="10.95"/>
        <path class="cls-5" d="M11,0a11,11,0,0,1,0,21.91"/>
        <circle class="cls-6" cx="10.95" cy="10.95" r="9.22"/>
        <path class="cls-7" d="M11,1.73a9.22,9.22,0,1,1,0,18.44"/>
        <text class="cls-8" transform="translate(3.88 12.76)">STOP</text>
        <path class="cls-9" d="M11,1.73a9.22,9.22,0,1,1,0,18.44"/>
      </g>
    </g>
  </g>
</svg>
