<svg xmlns="http://www.w3.org/2000/svg" width="28.04" height="37.24" viewBox="0 0 28.04 37.24">
  <defs>
    <style>
      .cls-1 {
        fill: #4c4c4c;
      }

      .cls-2 {
        fill: #c6c6c6;
      }

      .cls-3 {
        fill: #b2b2b2;
      }

      .cls-4, .cls-8 {
        fill: #494949;
      }

      .cls-5 {
        fill: #383838;
      }

      .cls-6 {
        fill: #fff;
      }

      .cls-7, .cls-9 {
        fill: #ededed;
      }

      .cls-8 {
        font-size: 5.38px;
        font-family: AlfaSlabOne-Regular, Alfa Slab One;
      }

      .cls-9 {
        opacity: 0.4;
      }
    </style>
  </defs>
  <title>Risorsa 100</title>
  <g id="Livello_2" data-name="Livello 2">
    <g id="_02_mappa0zoom" data-name="02_mappa0zoom">
      <g id="stop_here" data-name="stop here">
        <g>
          <path class="cls-1" d="M11.48,37c-1,0-2,0-1.68-.13.66-.67,4.14-1.32,5.72-2,0,0,1.77,0,1.47.15-.57.66-4.93,1.3-5.51,2Z"/>
          <path class="cls-1" d="M27.34,33.83l-.7.37a60.26,60.26,0,0,1-16.06.43l-1-.3c-1.44-1.05,4.49-2.25,11.1-2.33a40.62,40.62,0,0,1,6,.48c1.75.32,1.57.84.63,1.34Z"/>
          <path class="cls-1" d="M26.53,33.81c-1.32.24-1.81.49-2.92.6-4.84.59-12,.51-12.44-.34-.1-.29-.17-.58.59-.86a39,39,0,0,1,5.67-.88,39.81,39.81,0,0,1,7,.08c2.46.35,2.23.88,2,1.4Z"/>
        </g>
        <rect class="cls-2" x="9.83" y="20.95" width="2.24" height="16.29" rx="0.9" ry="0.9"/>
        <path class="cls-3" d="M11,20.95h0a1.12,1.12,0,0,1,1.12,1.12V36.12A1.12,1.12,0,0,1,11,37.24h0"/>
        <circle class="cls-4" cx="10.95" cy="10.95" r="10.95"/>
        <path class="cls-5" d="M11,0a11,11,0,0,1,0,21.91"/>
        <circle class="cls-6" cx="10.95" cy="10.95" r="9.22"/>
        <path class="cls-7" d="M11,1.73a9.22,9.22,0,1,1,0,18.44"/>
        <text class="cls-8" transform="translate(2.93 12.76)">STOP</text>
        <path class="cls-9" d="M11,1.73a9.22,9.22,0,1,1,0,18.44"/>
      </g>
    </g>
  </g>
</svg>
