<svg xmlns="http://www.w3.org/2000/svg" width="32.34" height="42.56" viewBox="0 0 32.34 42.56">
  <defs>
    <style>
      .cls-1 {
        fill: #4c4c4c;
      }

      .cls-2 {
        fill: #c6c6c6;
      }

      .cls-3 {
        fill: #b2b2b2;
      }

      .cls-4 {
        fill: red;
      }

      .cls-5 {
        fill: #ed0000;
      }

      .cls-6 {
        fill: #fff;
      }

      .cls-7, .cls-9 {
        fill: #ededed;
      }

      .cls-8 {
        font-size: 5.38px;
        font-family: AlfaSlabOne-Regular, Alfa Slab One;
      }

      .cls-9 {
        opacity: 0.4;
      }
    </style>
  </defs>
  <title>Risorsa 95</title>
  <g id="Livello_2" data-name="Livello 2">
    <g id="_02_mappa0zoom" data-name="02_mappa0zoom">
      <g id="stop_here" data-name="stop here">
        <g>
          <path class="cls-1" d="M12.54,42.56a9.5,9.5,0,0,1-1.67-.13c2-.8,4.85-1.59,7.65-2.37,1.46.15.85.41.25.68-3.4.64-2,1.31-6.23,1.83Z"/>
          <path class="cls-1" d="M31.46,38.94l-.72.37a34,34,0,0,1-4.66.58c-5.52.46-13,.52-14.37-.34-.57-.44-.24-.87.13-1.31.4-.14,1.59-.26,2-.4a72,72,0,0,1,13-.93c4.09.28,7.1,1.17,4.66,2Z"/>
          <path class="cls-1" d="M29.83,38.91l-.75.38a35.08,35.08,0,0,1-4.72.58c-5,.2-11.11.12-11.89-.59-.09-.29.23-.72,1-1a32.54,32.54,0,0,1,6.84-1c1.85-.09,4.41-.15,5.89-.1,4.17.27,5.93,1,3.64,1.73Z"/>
        </g>
        <rect class="cls-2" x="11.16" y="23.76" width="2.54" height="18.48" rx="1.02" ry="1.02"/>
        <path class="cls-3" d="M12.42,23.76h0A1.27,1.27,0,0,1,13.69,25V41a1.27,1.27,0,0,1-1.27,1.27h0"/>
        <circle class="cls-4" cx="12.42" cy="12.42" r="12.42"/>
        <path class="cls-5" d="M12.42,0a12.42,12.42,0,0,1,0,24.85"/>
        <circle class="cls-6" cx="12.42" cy="12.42" r="10.46"/>
        <path class="cls-7" d="M12.42,2a10.46,10.46,0,0,1,0,20.92"/>
        <text class="cls-8" transform="translate(4.4 14.47)">STOP</text>
        <path class="cls-9" d="M12.42,2a10.46,10.46,0,0,1,0,20.92"/>
      </g>
    </g>
  </g>
</svg>
