<svg xmlns="http://www.w3.org/2000/svg" width="34.13" height="43.47" viewBox="0 0 34.13 43.47">
  <defs>
    <style>
      .cls-1 {
        fill: #4c4c4c;
      }

      .cls-2 {
        fill: #c6c6c6;
      }

      .cls-3 {
        fill: #b2b2b2;
      }

      .cls-4, .cls-8 {
        fill: #494949;
      }

      .cls-5 {
        fill: #383838;
      }

      .cls-6 {
        fill: #fff;
      }

      .cls-7, .cls-9 {
        fill: #ededed;
      }

      .cls-8 {
        font-size: 5.38px;
        font-family: AlfaSlabOne-Regular, Alfa Slab One;
      }

      .cls-9 {
        opacity: 0.4;
      }
    </style>
  </defs>
  <title>Risorsa 96</title>
  <g id="Livello_2" data-name="Livello 2">
    <g id="_02_mappa0zoom" data-name="02_mappa0zoom">
      <g id="stop_here" data-name="stop here">
        <g>
          <path class="cls-1" d="M12.53,43c-2.22-.67,4-1.59,5.08-2.39a5.17,5.17,0,0,1,2.1-.11c.82.41-1.35.93-3.25,1.32s0,.79-3.93,1.19Z"/>
          <path class="cls-1" d="M32.77,39.39c-1.33.24-1.84.49-3.21.73-7.53,1-17.5.87-18.42-.42,0-.29.37-.72,1.19-1A69.48,69.48,0,0,1,22,37.32c4.7-.28,9.13.15,11,.75,1.52.44,1.56.83-.23,1.32Z"/>
          <path class="cls-1" d="M31.4,39.23c-1.35.24-1.89.49-3.27.73a16.19,16.19,0,0,1-2.27.23c-5.27.33-10.91.4-12.55-.32-.53-.44,1-1,2.62-1.54,2-.39,3.86-.49,6.11-.72,5.47-.26,9,.27,9.89,1,.26.27,0,.4-.53.65Z"/>
        </g>
        <rect class="cls-2" x="11.48" y="24.45" width="2.61" height="19.02" rx="1.05" ry="1.05"/>
        <path class="cls-3" d="M12.78,24.45h0a1.3,1.3,0,0,1,1.3,1.3V42.16a1.3,1.3,0,0,1-1.3,1.3h0"/>
        <circle class="cls-4" cx="12.78" cy="12.78" r="12.78"/>
        <path class="cls-5" d="M12.78,0a12.78,12.78,0,0,1,0,25.57"/>
        <circle class="cls-6" cx="12.78" cy="12.78" r="10.76"/>
        <path class="cls-7" d="M12.78,2a10.76,10.76,0,1,1,0,21.53"/>
        <text class="cls-8" transform="translate(4.76 14.89)">STOP</text>
        <path class="cls-9" d="M12.78,2a10.76,10.76,0,1,1,0,21.53"/>
      </g>
    </g>
  </g>
</svg>
