<svg xmlns="http://www.w3.org/2000/svg" width="27.92" height="37.24" viewBox="0 0 27.92 37.24">
  <defs>
    <style>
      .cls-1 {
        fill: #4c4c4c;
      }

      .cls-2 {
        fill: #c6c6c6;
      }

      .cls-3 {
        fill: #b2b2b2;
      }

      .cls-4, .cls-8 {
        fill: #494949;
      }

      .cls-5 {
        fill: #383838;
      }

      .cls-6 {
        fill: #fff;
      }

      .cls-7, .cls-9 {
        fill: #ededed;
      }

      .cls-8 {
        font-size: 5.38px;
        font-family: AlfaSlabOne-Regular, Alfa Slab One;
      }

      .cls-9 {
        opacity: 0.4;
      }
    </style>
  </defs>
  <title>Risorsa 94</title>
  <g id="Livello_2" data-name="Livello 2">
    <g id="_03_mappa0zoom" data-name="03_mappa0zoom">
      <g id="stop_here" data-name="stop here">
        <g>
          <path class="cls-1" d="M11.44,36.81h-2c.63-.67,4.43-1.46,6-2.12,0,0,1.77,0,1.47.15-.56.66-4.9,1.3-5.46,2Z"/>
          <path class="cls-1" d="M27.23,33.69l-.7.37a19,19,0,0,1-3.53.46c-5.5.46-12.13.53-13.52-.34-.11-.29-.57-.44.2-.72,1.53-.86,5.73-1.48,10.84-1.61a40.72,40.72,0,0,1,6,.48c1.75.32,1.59.85.66,1.35Z"/>
          <path class="cls-1" d="M26.42,33.67a11,11,0,0,1-2.9.6c-4.55.46-12,.51-12.44-.34-.11-.29-.56-.44.2-.72a28.23,28.23,0,0,1,8.61-1.08c3.27,0,5.68.32,6.43.75.28.27-.21.53.11.8Z"/>
        </g>
        <rect class="cls-2" x="9.83" y="20.95" width="2.24" height="16.29" rx="0.9" ry="0.9"/>
        <path class="cls-3" d="M11,20.95h0a1.12,1.12,0,0,1,1.12,1.12V36.12A1.12,1.12,0,0,1,11,37.24h0"/>
        <circle class="cls-4" cx="10.95" cy="10.95" r="10.95"/>
        <path class="cls-5" d="M11,0a11,11,0,0,1,0,21.91"/>
        <circle class="cls-6" cx="10.95" cy="10.95" r="9.22"/>
        <path class="cls-7" d="M11,1.73a9.22,9.22,0,1,1,0,18.44"/>
        <text class="cls-8" transform="translate(2.93 12.76)">STOP</text>
        <path class="cls-9" d="M11,1.73a9.22,9.22,0,1,1,0,18.44"/>
      </g>
    </g>
  </g>
</svg>
