<svg xmlns="http://www.w3.org/2000/svg" width="53.41" height="49.1" viewBox="0 0 53.41 49.1">
  <defs>
    <style>
      .cls-1 {
        fill: #ececec;
      }

      .cls-2 {
        font-size: 10.06px;
        fill: #bbb;
        font-family: ProductSans-Regular, Product Sans;
      }

      .cls-3 {
        letter-spacing: -0.01em;
      }

      .cls-4 {
        letter-spacing: -0.05em;
      }

      .cls-5 {
        letter-spacing: 0em;
      }
    </style>
  </defs>
  <title>Risorsa 49</title>
  <g id="Livello_2" data-name="Livello 2">
    <g id="loginBIANCO">
      <path id="let_sgoICON" data-name="let&apos;sgoICON" class="cls-1" d="M53.27,26.54c.44,6.81-3.15,10.73-8.71,13a61.66,61.66,0,0,0-11.12,6A21.44,21.44,0,0,1,24.87,49C20.29,49.69,17,47.43,14.73,44A90.06,90.06,0,0,0,4.2,31.69,13.66,13.66,0,0,1,0,22.8C-.3,16.77,2.73,12.24,8,10.4,13.84,8.33,18.84,5,24.15,2c6-3.38,11.22-2.53,16,2.35,4.43,4.51,7.73,9.89,11.29,15.05A9.45,9.45,0,0,1,53.27,26.54Z"/>
      <text class="cls-2" transform="translate(8.65 27.75)">L<tspan class="cls-3" x="5.01" y="0">e</tspan><tspan x="10.25" y="0">t</tspan><tspan class="cls-4" x="13.81" y="0">’</tspan><tspan x="15.65" y="0">s </tspan><tspan class="cls-5" x="22.44" y="0">g</tspan><tspan x="28.18" y="0">o!</tspan></text>
    </g>
  </g>
</svg>
