<svg xmlns="http://www.w3.org/2000/svg" width="50.4" height="49.19" viewBox="0 0 50.4 49.19">
  <defs>
    <style>
      .cls-1 {
        fill: #6dba4c;
      }

      .cls-2 {
        fill: #082421;
      }

      .cls-3 {
        fill: #fdcebd;
      }

      .cls-4 {
        fill: #fd7b6f;
      }

      .cls-5 {
        fill: #fdb59b;
      }

      .cls-6 {
        fill: #505050;
      }

      .cls-7 {
        fill: #fe6052;
      }
    </style>
  </defs>
  <title>Risorsa 61</title>
  <g id="Livello_2" data-name="Livello 2">
    <g id="you">
      <g id="sopra">
        <g id="icon_you">
          <circle class="cls-1" cx="20.8" cy="25.45" r="20.8"/>
          <path class="cls-2" d="M26.42,17.3a11.76,11.76,0,0,0-.12-1.86,17.13,17.13,0,0,0-.65-3,14,14,0,0,0-.89-2.17,9.77,9.77,0,0,0-1.26-1.89,6.86,6.86,0,0,0-1.68-1.46,4.51,4.51,0,0,0-1-.47c-.14,0-.16-.1-.16-.22A1.89,1.89,0,0,0,20.31,5a1.57,1.57,0,0,0-.94-.6h-.12a1.7,1.7,0,0,1,.82.63,1.85,1.85,0,0,1,.29,1.17,2.63,2.63,0,0,1-.66,1.46,15.56,15.56,0,0,0-1.28,1.49,3.89,3.89,0,0,0-.62,1.77,7.06,7.06,0,0,0,0,1.3,12.12,12.12,0,0,1,.05,1.66,5.55,5.55,0,0,1-.92,2.9,5,5,0,0,1-1.08,1,6.12,6.12,0,0,0-1.6,1.58,5.13,5.13,0,0,0-.55,1.44,8.53,8.53,0,0,0-.21,2.37,4.46,4.46,0,0,0,.07.44s0,.08,0,.09a.08.08,0,0,1-.11,0,4.34,4.34,0,0,0-.76-.84q-.57-.63-1.11-1.28L11,21c-.48-.53-.93-1.09-1.38-1.66a10,10,0,0,1-1.16-1.79,4.41,4.41,0,0,1-.5-2,2.09,2.09,0,0,1,.9-1.74c.45-.34,1-.61,1.4-1A2.62,2.62,0,0,0,11.42,11a5.86,5.86,0,0,0-.2-1.71,19.41,19.41,0,0,1-.4-2.12,6.25,6.25,0,0,1,.78-3.7,7.32,7.32,0,0,1,1.6-2A5.61,5.61,0,0,1,15.89.12,6.61,6.61,0,0,1,17.71,0a6,6,0,0,1,3,1.17,20.55,20.55,0,0,0,1.89,1.29,6.93,6.93,0,0,0,2.18.74A17.14,17.14,0,0,0,27,3.44l1.41.07a12,12,0,0,1,3.71.72,5.39,5.39,0,0,1,3.35,3.55,4,4,0,0,1-.25,2.83c-.34.8-.8,1.54-1.17,2.32a9.72,9.72,0,0,0-.85,2.64,8.9,8.9,0,0,0-.11,2,7,7,0,0,0,1.51,4,11.08,11.08,0,0,0,3.18,2.66,37.38,37.38,0,0,0,4.26,2A11.65,11.65,0,0,1,44.92,28a9.73,9.73,0,0,1,2,2.41,11,11,0,0,1,1.18,2.38A5.77,5.77,0,0,1,48.42,35c0,.59-.14,1.18-.24,1.76A5,5,0,0,0,48.57,40c.26.48.57.93.86,1.39a5.66,5.66,0,0,1,.87,1.89A3.4,3.4,0,0,1,50,45.83a2.24,2.24,0,0,1-1.51,1.07,6.06,6.06,0,0,1-1.93,0,17.35,17.35,0,0,1-2.17-.37,8.59,8.59,0,0,1-1.6-.55,16,16,0,0,1-2.28-1.31c-.59-.4-1.15-.84-1.71-1.28a20.34,20.34,0,0,1-2.09-1.81,7.9,7.9,0,0,1-1.19-1.79,7.13,7.13,0,0,0-1-1.61,2.75,2.75,0,0,0-1.71-.87,5.78,5.78,0,0,0-2,.16,15.76,15.76,0,0,1-1.9.38A2.92,2.92,0,0,1,27,37.57a3,3,0,0,1-1-1,5.08,5.08,0,0,1-.68-1.76,9.63,9.63,0,0,1-.13-1,8.08,8.08,0,0,0-.33-2.2,4.12,4.12,0,0,0-.83-1.28c-.4-.46-.88-.85-1.26-1.32a3.1,3.1,0,0,1-.42-.71.17.17,0,0,1,.06-.24,3.61,3.61,0,0,0,.65-.55A8.58,8.58,0,0,0,24.27,26c.22-.36.43-.72.62-1.1a14.35,14.35,0,0,0,1.06-3,16.66,16.66,0,0,0,.32-1.64c.06-.4.1-.81.13-1.22s0-.66,0-1c0-.09,0-.18,0-.27v-.22C26.42,17.51,26.46,17.4,26.42,17.3Z"/>
          <path class="cls-3" d="M26.34,17.65a.12.12,0,0,0,0,0c0,.12,0,.25,0,.37a11.46,11.46,0,0,1-.08,1.57,17.34,17.34,0,0,1-.57,3,13.79,13.79,0,0,1-1,2.54,8.67,8.67,0,0,1-2,2.57A5.07,5.07,0,0,1,20.11,29,4.21,4.21,0,0,1,18,28.77,6,6,0,0,1,15.7,27.2a9.36,9.36,0,0,1-1.31-1.82,4.93,4.93,0,0,1-.47-1,4.3,4.3,0,0,1-.31-1.29,8.86,8.86,0,0,1,.44-2.9,3.94,3.94,0,0,1,1.35-1.82c.43-.34.87-.68,1.27-1a4.14,4.14,0,0,0,1.15-2,7.21,7.21,0,0,0,.27-2.2c0-.63-.11-1.25-.1-1.88a3.59,3.59,0,0,1,1-2.45,13.81,13.81,0,0,0,1.11-1.2,2.82,2.82,0,0,0,.47-1c0-.12.07-.15.2-.11a5.22,5.22,0,0,1,1.77,1A9.33,9.33,0,0,1,25,11a15,15,0,0,1,.95,2.92,1.56,1.56,0,0,1,0,.18c-.1,0-.09-.1-.11-.16a1.49,1.49,0,0,0-.16-.39s0-.06-.07,0a.07.07,0,0,0,0,.06c0,.13,0,.25-.05.38a23.2,23.2,0,0,1-.67,4.67,18.21,18.21,0,0,1-1.06,2.86,15.45,15.45,0,0,1-1.59,2.69,7.14,7.14,0,0,1-2,1.9,15.26,15.26,0,0,1-1.72.83,2.72,2.72,0,0,0-.66.38.44.44,0,0,0,0,.74,2.18,2.18,0,0,0,1.31.61A3.38,3.38,0,0,0,21.43,28a7.42,7.42,0,0,0,2.45-2.76,16.08,16.08,0,0,0,1.42-4.12c.25-1.12.5-2.25.68-3.39a9.72,9.72,0,0,0,.13-1.81,7.19,7.19,0,0,0-.05-.74.34.34,0,0,1,0-.3,2.74,2.74,0,0,1,.1.61,15,15,0,0,1,.12,1.9C26.35,17.47,26.3,17.57,26.34,17.65Z"/>
          <path class="cls-4" d="M25.29,43c0,1.4.69,4.85-.36,5.53-1.9,1.23-10.35.59-10.46-.77A7.39,7.39,0,0,1,14,45.66a8.54,8.54,0,0,1,.56-3.86,8,8,0,0,1,1.71-2.73,7,7,0,0,1,1.9-1.43c.11-.06.14-.07.18.08A4.29,4.29,0,0,0,19,39.41a1.47,1.47,0,0,0,.4.39.93.93,0,0,0,1.29-.37,4.46,4.46,0,0,0,.73-1.86c.06-.34.05-.34.38-.23a4.72,4.72,0,0,1,2.58,2.14,6.66,6.66,0,0,1,.86,2.46A5.12,5.12,0,0,1,25.29,43Z"/>
          <path class="cls-3" d="M17.86,28.87a5.93,5.93,0,0,0,1.53.28,4.46,4.46,0,0,0,1.69-.31,6.06,6.06,0,0,0,.67-.32c.13-.07.17,0,.15.1-.06.37-.38,8.29-.84,9.76a2.67,2.67,0,0,1-.59,1.11c-.57.58-1,.38-1.41-.13a3.88,3.88,0,0,1-.63-1.74c-.05-.33-.23-1.68-.25-2C18.11,34.45,18.06,29.87,17.86,28.87Z"/>
          <path class="cls-5" d="M26.09,14.88c0,.47.09.93.07,1.39a13.86,13.86,0,0,1-.26,2.24c-.24,1.21-.48,2.42-.79,3.62a14.11,14.11,0,0,1-1.26,3.28,7.22,7.22,0,0,1-1.53,2,4.78,4.78,0,0,1-2.22,1.25,2.75,2.75,0,0,1-2.21-.42,1.26,1.26,0,0,1-.27-.27c-.21-.27-.13-.55.2-.78a7.45,7.45,0,0,1,1.27-.62,7.52,7.52,0,0,0,2-1.28,10.38,10.38,0,0,0,1.94-2.54A17,17,0,0,0,25,17.85a16.94,16.94,0,0,0,.31-1.91c.07-.7.14-1.39.18-2.09a1,1,0,0,1,.07-.41s0-.09.08-.09,0,.05.06.08a3.42,3.42,0,0,1,.25.63A4.21,4.21,0,0,1,26.09,14.88Z"/>
          <path class="cls-6" d="M44.05,29.65l-.24-.14,0,0a4.47,4.47,0,0,0,.41.4.93.93,0,0,1,.27.33,8.81,8.81,0,0,1,.67,1.51l0,.07c.08-.14,0-.25,0-.37a2.05,2.05,0,0,0-.07-.35c0-.12-.06-.24-.11-.41a5.16,5.16,0,0,1,.74.95,5.79,5.79,0,0,1,.82,2.42,8.07,8.07,0,0,1,0,1.84c-.08.7-.22,1.39-.27,2.1a6.45,6.45,0,0,0,.29,2.8,7.62,7.62,0,0,0,.79,1.46,5.32,5.32,0,0,1,.9,1.74,1.14,1.14,0,0,1-.57,1.38,1.5,1.5,0,0,1-1,.06,1.73,1.73,0,0,1-1.36-1.29,2.87,2.87,0,0,1,0-1c.06-.61.19-1.21.27-1.82a12.57,12.57,0,0,0,.14-2.11,3.22,3.22,0,0,0-.51-1.75,4.17,4.17,0,0,0-1.1-1A2.93,2.93,0,0,1,43,35.32a3.21,3.21,0,0,1-.27-1.1c0-.61-.06-1.23-.12-1.84a6,6,0,0,0-.86-2.46A9.4,9.4,0,0,1,41,28.32a1.54,1.54,0,0,1-.09-.57.39.39,0,0,1,.46-.42,1.52,1.52,0,0,1,.8.36A11.45,11.45,0,0,1,44,29.51,1.43,1.43,0,0,1,44.05,29.65Z"/>
          <path class="cls-6" d="M31.61,14.49c0-.18,0-.35-.05-.53a6.58,6.58,0,0,1,.38-2.24,5,5,0,0,0,.27-1.31A2.46,2.46,0,0,0,31.78,9a12.07,12.07,0,0,0-.9-1.11,3,3,0,0,1-.73-1.36,1.35,1.35,0,0,1,.05-.7.27.27,0,0,1,.22-.17,1.35,1.35,0,0,1,.64,0A3.08,3.08,0,0,1,33,7.13a3,3,0,0,1,.47,2,5.69,5.69,0,0,1-.47,1.7,27.86,27.86,0,0,0-1.15,2.84c-.08.28-.15.57-.23.85Z"/>
          <path class="cls-6" d="M11.36,7.18a1.81,1.81,0,0,1-.13-.95A7.75,7.75,0,0,1,11.39,5a4.38,4.38,0,0,1,.85-1.72A9.06,9.06,0,0,1,15.18.85a1.1,1.1,0,0,1,.53-.18c.07,0,.18,0,.21.05a.26.26,0,0,1-.07.3l-.61.48A15.18,15.18,0,0,0,13.3,3.06a6.62,6.62,0,0,0-1.39,2.19,9,9,0,0,0-.52,1.9Z"/>
          <path class="cls-6" d="M8.67,15.78A1.74,1.74,0,0,1,8.91,15a2.09,2.09,0,0,1,.62-.76l.14-.07c.17-.06.23,0,.24.16a1.62,1.62,0,0,1-.18.73c-.16.38-.33.75-.49,1.13a.39.39,0,0,0-.05.29s0,.08,0,.11a.13.13,0,0,1-.12,0,.68.68,0,0,1-.3-.35A.82.82,0,0,1,8.67,15.78Z"/>
          <path class="cls-7" d="M21.22,39.68a2.26,2.26,0,0,1,.41-1c.06-.11.12-.21.17-.32a.19.19,0,0,1,.27-.11A3,3,0,0,1,23.87,40a.25.25,0,0,1,0,.07c0,.13.07.28,0,.38a.38.38,0,0,1-.38,0,4.17,4.17,0,0,1-.65-.28,9.18,9.18,0,0,0-1-.44A.67.67,0,0,0,21.22,39.68Z"/>
          <path class="cls-5" d="M21.36,33.55c-.14-.3-.22-.61-.35-.9a7,7,0,0,0-1-1.55,5,5,0,0,1-.67-.88,1.07,1.07,0,0,1-.09-.22c-.08-.33,0-.45.35-.45a4.67,4.67,0,0,1,.92,0,1.18,1.18,0,0,1,1,1.07,7.72,7.72,0,0,1,0,1.93c0,.23,0,.47-.07.7A.49.49,0,0,1,21.36,33.55Z"/>
        </g>
      </g>
    </g>
  </g>
</svg>
