<svg xmlns="http://www.w3.org/2000/svg" width="19.24" height="19.24" viewBox="0 0 19.24 19.24">
  <defs>
    <style>
      .cls-1 {
        fill: #ffe029;
      }

      .cls-2 {
        fill: #e5a10a;
      }

      .cls-3 {
        fill: #991d10;
      }
    </style>
  </defs>
  <title>Risorsa 54</title>
  <g id="Livello_2" data-name="Livello 2">
    <g id="ICONE">
      <g id="home">
        <circle class="cls-1" cx="9.62" cy="9.62" r="9.62"/>
        <path class="cls-2" d="M13.46,14.91H5.78a.66.66,0,0,1-.66-.66V8.15a.66.66,0,0,1,.42-.61L9.38,6a.66.66,0,0,1,.47,0L13.7,7.54a.66.66,0,0,1,.42.61v6.1A.66.66,0,0,1,13.46,14.91Z"/>
        <path class="cls-3" d="M15.79,6.43l-6-2.32a.58.58,0,0,0-.42,0l-6,2.32A.65.65,0,0,0,3,7H3a.65.65,0,0,0,.89.61L9.41,5.52a.58.58,0,0,1,.42,0l5.48,2.13A.65.65,0,0,0,16.21,7h0A.65.65,0,0,0,15.79,6.43Z"/>
      </g>
    </g>
  </g>
</svg>
