<svg xmlns="http://www.w3.org/2000/svg" xmlns:xlink="http://www.w3.org/1999/xlink" width="89.9" height="159.26" viewBox="0 0 89.9 159.26">
  <defs>
    <style>
      .cls-1 {
        fill: #25a7b6;
      }

      .cls-2 {
        fill: #fe6153;
      }

      .cls-3 {
        fill: #fed0cc;
      }

      .cls-4 {
        fill: #fad0cc;
      }

      .cls-5 {
        fill: #fcfcfc;
      }

      .cls-6 {
        fill: #3997a2;
      }

      .cls-7 {
        fill: #fe3a28;
      }

      .cls-8 {
        fill: #fef8eb;
      }

      .cls-9 {
        fill: url(#Sfumatura_senza_nome_9);
      }
    </style>
    <linearGradient id="Sfumatura_senza_nome_9" data-name="Sfumatura senza nome 9" x1="-1120.76" y1="1740.29" x2="-1042.41" y2="1740.29" gradientTransform="translate(1780.41 1120.76) rotate(90)" gradientUnits="userSpaceOnUse">
      <stop offset="0" stop-color="#fff" stop-opacity="0"/>
      <stop offset="1" stop-color="#fcbc21"/>
    </linearGradient>
  </defs>
  <title>Risorsa 59</title>
  <g id="Livello_2" data-name="Livello 2">
    <g id="inizio_navigazione" data-name="inizio navigazione">
      <g id="torcia">
        <path class="cls-1" d="M31.31,117.27"/>
        <path class="cls-2" d="M47,157.36c-.1.13-2.18,1.9-6.61,1.9a10.86,10.86,0,0,1-6.68-2C32.63,156.32,48.68,155.22,47,157.36Z"/>
        <path class="cls-1" d="M31.59,104.94c-.11-.29.2-.29.25-.47-.1-.11-.25,0-.37-.06A73.1,73.1,0,0,1,26.85,95c-.36-.91-2.3-6-1.78-7.46.13-.37.61-.27,1-.27H55c.29,0,.65-.12.86.18.94,1.35-1.8,8.74-3,11.56a37.82,37.82,0,0,1-3.39,5.42,1.15,1.15,0,0,0,0,.75l0,2.14c.08.22,1,45.47,1,46.87a2.9,2.9,0,0,1-.47,1.7,3,3,0,0,1-.93.73c-2.15.73-15.44.6-17,.13-1.16-.36-1.93-1-1.95-2.2,0-.86.53-16.07.33-16.3a.58.58,0,0,1-.05-.35c0-.62.17-1.22.11-1.84a15.74,15.74,0,0,0-.06-2.21,2.71,2.71,0,0,1,.1-1.24,21.75,21.75,0,0,0,.09-2.45,1,1,0,0,1,0-.18,7.35,7.35,0,0,0,.06-1.44c0-.49.2-1,.07-1.47a.64.64,0,0,1,.07-.4,1.53,1.53,0,0,0,.13-.58,1.35,1.35,0,0,1,0-.15,2.71,2.71,0,0,0,0-.66,5,5,0,0,1,.08-.51c0-.26-.08-.53.06-.78a1,1,0,0,0,.08-.5c0-.18.06-.36.09-.54a2.65,2.65,0,0,0,.05-1.33l-.1-.28a1.92,1.92,0,0,1-.13-.4"/>
        <path class="cls-2" d="M25.07,87.42a2.82,2.82,0,0,1-1-.64,2.59,2.59,0,0,1-.56-2.08A3.46,3.46,0,0,1,24.64,82a1.74,1.74,0,0,1,.85-.4,1,1,0,0,1,.67-.14H55.48a1.41,1.41,0,0,1,.73.15,3.67,3.67,0,0,1-.32,5.76,2,2,0,0,1-.64,0H29.09C27.75,87.37,26.41,87.33,25.07,87.42Z"/>
        <path class="cls-1" d="M54.2,78.36a.29.29,0,0,0,.06.08,2.43,2.43,0,0,1,1.63,1.46,5.45,5.45,0,0,1,.23,1.57c-.16.11-.35.06-.53.06H26a.87.87,0,0,1-.53-.06,4.81,4.81,0,0,1,.64-2.26c0-.16.2-.23.31-.33h0a1.56,1.56,0,0,1,1.24-.54c.58,0,1.15.06,1.72.06H53.61A1.62,1.62,0,0,0,54.2,78.36Z"/>
        <path class="cls-2" d="M30.67,138l-.08.21-.13.06c-.45-.64-1.18-.76-1.84-1a1.65,1.65,0,0,1-1.16-1.64,8.31,8.31,0,0,1,.6-2.53,16.36,16.36,0,0,0,1-3.5,8.12,8.12,0,0,0,0-2.33c-.2-1.27-.73-2.46-.84-3.74a2.73,2.73,0,0,1,.69-2.39,2.43,2.43,0,0,1,1.1-.45,3.11,3.11,0,0,1,1.21.17c1,.31.43,1.66.49,2.16l-.1.47a8.81,8.81,0,0,0-.26,1.86c0,.23.06.46-.06.68h0c-.14.2,0,.45-.1.66s-.16.18-.1.31c.1.54-.15,1.06-.07,1.6A8.38,8.38,0,0,1,30.9,130h0a15.38,15.38,0,0,0-.05,2,2,2,0,0,1,0,.64,6.53,6.53,0,0,0-.1,1.19c.08.73,0,1.47,0,2.21A9.91,9.91,0,0,0,30.67,138Z"/>
        <path class="cls-3" d="M25.07,87.42a3.74,3.74,0,0,1,.69-.1H55.57l.32,0,0,.13H26.08a4.58,4.58,0,0,0-1,.09Z"/>
        <path class="cls-4" d="M25.51,81.47H56.12l.09.11H25.49Z"/>
        <path class="cls-5" d="M54.2,78.36c-.2.18-.45.09-.67.09q-12.84,0-25.68,0a2.3,2.3,0,0,0-1.39.44v-.32a7.34,7.34,0,0,1,1.82-.34c8.49.26,17,.05,25.48.12Z"/>
        <path class="cls-5" d="M51.24,6.27c-1.53,0-3-.17-4.56-.06C47,5.85,47.43,6,47.8,6a14.4,14.4,0,0,1,1.61,0C50,6,50.71,5.69,51.24,6.27Z"/>
        <path class="cls-5" d="M81.1,6.52a5.51,5.51,0,0,1,1.61,0A1.44,1.44,0,0,1,81.1,6.52Z"/>
        <path class="cls-5" d="M63.68,6.37a4.29,4.29,0,0,1-2,0C62.37,6.08,63,6.44,63.68,6.37Z"/>
        <path class="cls-5" d="M88.63,6.75c.41-.32.79-.1,1.12-.21a.11.11,0,0,1,.14.12.18.18,0,0,1-.17.17A2.42,2.42,0,0,1,88.63,6.75Z"/>
        <path class="cls-5" d="M66.41,6.63c-.2,0-.38-.07-.39-.28a.22.22,0,0,1,.3-.21c.15.07.46,0,.45.25S66.56,6.6,66.41,6.63Z"/>
        <path class="cls-5" d="M72.88,6.49c.45-.34.88-.05,1.32,0A9,9,0,0,1,72.88,6.49Z"/>
        <path class="cls-5" d="M50.47,146.93a14,14,0,0,1-.08-2.39A12.15,12.15,0,0,1,50.47,146.93Z"/>
        <path class="cls-5" d="M64.92,6.34c-.16.15-.3.25-.49.11s-.1-.14,0-.18A.4.4,0,0,1,64.92,6.34Z"/>
        <path class="cls-5" d="M88,6.61c-.18.17-.32.3-.53.17a.14.14,0,0,1,0-.13C87.6,6.47,87.77,6.52,88,6.61Z"/>
        <path class="cls-5" d="M31.35,116l0,1.29A1.72,1.72,0,0,1,31.35,116Z"/>
        <path class="cls-5" d="M80.23,6.6a.54.54,0,0,1,.75,0A1.27,1.27,0,0,1,80.23,6.6Z"/>
        <path class="cls-5" d="M58.7,6.23c.32,0,.51-.08.7.12C59.15,6.48,59,6.41,58.7,6.23Z"/>
        <path class="cls-5" d="M31.31,118.15a5.26,5.26,0,0,1-.08,1.22A3.2,3.2,0,0,1,31.31,118.15Z"/>
        <path class="cls-5" d="M76,6.58a.37.37,0,0,1,.38,0,.18.18,0,0,1-.05.12C76.16,6.76,76,6.76,76,6.58Z"/>
        <path class="cls-5" d="M49.49,105.19c-.07-.25-.2-.5,0-.75Z"/>
        <path class="cls-5" d="M72.12,6.62c-.07,0-.16,0-.14-.13s.11-.06.17-.06a.14.14,0,0,1,.11.09C72.27,6.62,72.19,6.62,72.12,6.62Z"/>
        <path class="cls-5" d="M57.71,6.24a.42.42,0,0,1-.4,0C57.42,6.11,57.57,6.27,57.71,6.24Z"/>
        <path class="cls-5" d="M53.92,6.12c.09,0,.16,0,.15.13s-.08.05-.13.05-.17,0-.13-.1S53.89,6.15,53.92,6.12Z"/>
        <path class="cls-5" d="M26.46,78.88a.81.81,0,0,1-.31.33C26.09,78.94,26.29,78.93,26.46,78.88Z"/>
        <path class="cls-5" d="M31.42,115.33a1,1,0,0,1-.08.66C31.36,115.77,31.26,115.54,31.42,115.33Z"/>
        <path class="cls-5" d="M86.83,6.64c.1,0,.27,0,.27,0s-.1.06-.16.07a.37.37,0,0,1-.14,0Z"/>
        <path class="cls-5" d="M49.71,104.29l.21-.21C50,104.28,49.91,104.35,49.71,104.29Z"/>
        <path class="cls-5" d="M31.34,112.92a1,1,0,0,1,.08.56C31.27,113.32,31.35,113.11,31.34,112.92Z"/>
        <path class="cls-6" d="M43.73,149.54a15.53,15.53,0,0,1-.59-3,49.67,49.67,0,0,1-.31-8.93Q43,133,43,128.38c0-2.12-.09-4.24-.22-6.35-.1-1.65,0-3.31-.21-4.95a35.36,35.36,0,0,0-1.07-6.88,6.71,6.71,0,0,0-1.56-2.55A7,7,0,0,1,38.6,106a1.26,1.26,0,0,1-.12-.73c0-.29.14-.45.52-.43,1,.05,2,0,3,0a3.92,3.92,0,0,1,2.84,1.09,3.06,3.06,0,0,1,.72,1.53,14.46,14.46,0,0,1,0,3.91c-.05.94-.2,1.88-.28,2.83q-.22,2.54-.42,5.08c-.06.82-.08,1.65-.09,2.47,0,1.85-.22,3.7-.14,5.55.07,1.69-.06,3.38-.13,5.07-.06,1.45-.12,2.9-.22,4.35s-.1,3.13-.06,4.69c0,1,.13,2,.07,3a33.46,33.46,0,0,1-.43,4.81A1.88,1.88,0,0,1,43.73,149.54Z"/>
        <path class="cls-6" d="M48.1,102.46a8.49,8.49,0,0,1-1.75-.35,14.37,14.37,0,0,0-3.81-.59,13.61,13.61,0,0,0-2.45.25c-.42.06-.83,0-1.24,0-.09,0-.21,0-.22-.1a.36.36,0,0,1,.11-.23,3.33,3.33,0,0,1,1-.74,18.22,18.22,0,0,1,4.17-1.42,12.07,12.07,0,0,0,6.46-4.13c1.17-1.42,2.18-2.94,3.25-4.42a4.81,4.81,0,0,1,.54-.6c.14-.13.3-.31.51-.2a.55.55,0,0,1,.24.51,7.63,7.63,0,0,1-.38,2.32,31.67,31.67,0,0,1-3.81,8.06A2.91,2.91,0,0,1,48.1,102.46Z"/>
        <path class="cls-6" d="M32.59,138.61c.07,1.64.18,3.27.28,4.89a45.92,45.92,0,0,0,.77,6c.34,1.76.69,3.51,1,5.26.17.88-.33,1.34-1.2,1.14-1.1-.25-1.56-1-1.59-2.39,0-1.83.22-3.65.31-5.47.07-1.6.1-3.2.16-4.8A30.31,30.31,0,0,1,32.59,138.61Z"/>
        <path class="cls-2" d="M31.64,123c-.12-.5.1-1,0-1.49C32,122,31.68,122.53,31.64,123Z"/>
        <path class="cls-7" d="M50.61,84.24a6.17,6.17,0,0,1-1.72.17c-2.41,0-4.83-.07-7.24,0a58.32,58.32,0,0,0-6.17.39c-1.41.2-2.85.22-4.28.36-1.07.1-2.14.23-3.21.23a4.23,4.23,0,0,1-2.3-.4,1.25,1.25,0,0,1-.56-.56.61.61,0,0,1,.4-.92,4.76,4.76,0,0,1,2.5,0c1.24.17,2.47.35,3.73.41a31.11,31.11,0,0,0,3.45.07,25.26,25.26,0,0,1,3-.08c3.36.19,6.73,0,10.09.12A7.85,7.85,0,0,1,50.61,84.24Z"/>
        <path class="cls-8" d="M49.61,20.7a1.78,1.78,0,0,1-1.08-.11A1.58,1.58,0,0,1,49.61,20.7Z"/>
        <path class="cls-7" d="M29.14,133.19a8.35,8.35,0,0,0,.41,2.81c.07.23.18.55-.05.69s-.5-.08-.7-.26a1.72,1.72,0,0,1-.32-2.07C28.69,134,28.94,133.6,29.14,133.19Z"/>
        <path class="cls-7" d="M29.51,125.18c0-.81-.34-1.44-.35-2.13A1,1,0,0,1,29.9,122c.36-.13.55,0,.57.38a1.31,1.31,0,0,1-.1.52Z"/>
        <polygon class="cls-9" points="80.23 0 54.2 78.36 27.27 78.22 0 0 80.23 0"/>
      </g>
    </g>
  </g>
</svg>
