<svg xmlns="http://www.w3.org/2000/svg" width="19.24" height="19.24" viewBox="0 0 19.24 19.24">
  <defs>
    <style>
      .cls-1 {
        fill: #ff7915;
      }

      .cls-2 {
        fill: #ececec;
      }

      .cls-3 {
        fill: #b8fdff;
      }

      .cls-4 {
        fill: #e8d5bc;
      }
    </style>
  </defs>
  <title>Risorsa 55</title>
  <g id="Livello_2" data-name="Livello 2">
    <g id="ICONE">
      <g id="work">
        <circle class="cls-1" cx="9.62" cy="9.62" r="9.62"/>
        <path class="cls-2" d="M13.66,14.88H5.58a.9.9,0,0,1-.85-1.2L6.07,9.8a.9.9,0,0,1,.85-.61h5.76a.9.9,0,0,1,.88.68l1,3.88A.9.9,0,0,1,13.66,14.88Z"/>
        <path class="cls-2" d="M12.82,9h-6a.77.77,0,0,1-.71-.47L4.77,5.44a.77.77,0,0,1,.71-1.07h8.3a.77.77,0,0,1,.73,1l-1,3.06A.77.77,0,0,1,12.82,9Z"/>
        <path class="cls-3" d="M12,8.49H7.46A.76.76,0,0,1,6.76,8L5.85,5.9a.76.76,0,0,1,.7-1.05h6.16a.76.76,0,0,1,.72,1L12.76,8A.76.76,0,0,1,12,8.49Z"/>
        <rect class="cls-4" x="6.69" y="9.42" width="0.77" height="0.51" rx="0.25" ry="0.25"/>
        <rect class="cls-4" x="7.79" y="9.42" width="0.77" height="0.51" rx="0.25" ry="0.25"/>
        <rect class="cls-4" x="8.88" y="9.42" width="0.77" height="0.51" rx="0.25" ry="0.25"/>
        <rect class="cls-4" x="9.98" y="9.42" width="0.77" height="0.51" rx="0.25" ry="0.25"/>
        <rect class="cls-4" x="11.07" y="9.42" width="0.77" height="0.51" rx="0.25" ry="0.25"/>
        <rect class="cls-4" x="12.17" y="9.42" width="0.77" height="0.51" rx="0.25" ry="0.25"/>
        <rect class="cls-4" x="6.69" y="10.18" width="0.77" height="0.51" rx="0.25" ry="0.25"/>
        <rect class="cls-4" x="7.79" y="10.18" width="0.77" height="0.51" rx="0.25" ry="0.25"/>
        <rect class="cls-4" x="8.88" y="10.18" width="0.77" height="0.51" rx="0.25" ry="0.25"/>
        <rect class="cls-4" x="9.98" y="10.18" width="0.77" height="0.51" rx="0.25" ry="0.25"/>
        <rect class="cls-4" x="11.07" y="10.18" width="0.77" height="0.51" rx="0.25" ry="0.25"/>
        <rect class="cls-4" x="12.17" y="10.18" width="0.77" height="0.51" rx="0.25" ry="0.25"/>
        <rect class="cls-4" x="6.69" y="11.09" width="0.77" height="0.51" rx="0.25" ry="0.25"/>
        <rect class="cls-4" x="7.79" y="11.09" width="0.77" height="0.51" rx="0.25" ry="0.25"/>
        <rect class="cls-4" x="8.88" y="11.09" width="0.77" height="0.51" rx="0.25" ry="0.25"/>
        <rect class="cls-4" x="9.98" y="11.09" width="0.77" height="0.51" rx="0.25" ry="0.25"/>
        <rect class="cls-4" x="11.07" y="11.09" width="0.77" height="0.51" rx="0.25" ry="0.25"/>
        <rect class="cls-4" x="12.17" y="11.09" width="0.77" height="0.51" rx="0.25" ry="0.25"/>
        <rect class="cls-4" x="6.69" y="12" width="0.77" height="0.51" rx="0.25" ry="0.25"/>
        <rect class="cls-4" x="7.79" y="12" width="0.77" height="0.51" rx="0.25" ry="0.25"/>
        <rect class="cls-4" x="8.88" y="12" width="0.77" height="0.51" rx="0.25" ry="0.25"/>
        <rect class="cls-4" x="9.98" y="12" width="0.77" height="0.51" rx="0.25" ry="0.25"/>
        <rect class="cls-4" x="11.07" y="12" width="0.77" height="0.51" rx="0.25" ry="0.25"/>
        <rect class="cls-4" x="12.17" y="12" width="0.77" height="0.51" rx="0.25" ry="0.25"/>
        <rect class="cls-4" x="6.69" y="12.9" width="0.77" height="0.51" rx="0.25" ry="0.25"/>
        <rect class="cls-4" x="7.79" y="12.9" width="0.77" height="0.51" rx="0.25" ry="0.25"/>
        <rect class="cls-4" x="8.88" y="12.9" width="0.77" height="0.51" rx="0.25" ry="0.25"/>
        <rect class="cls-4" x="9.98" y="12.9" width="0.77" height="0.51" rx="0.25" ry="0.25"/>
        <rect class="cls-4" x="11.07" y="12.9" width="0.77" height="0.51" rx="0.25" ry="0.25"/>
        <rect class="cls-4" x="12.17" y="12.9" width="0.77" height="0.51" rx="0.25" ry="0.25"/>
        <rect class="cls-4" x="6.69" y="13.81" width="0.77" height="0.51" rx="0.25" ry="0.25"/>
        <rect class="cls-4" x="7.79" y="13.81" width="0.77" height="0.51" rx="0.25" ry="0.25"/>
        <rect class="cls-4" x="5.6" y="13.81" width="0.77" height="0.51" rx="0.25" ry="0.25"/>
        <rect class="cls-4" x="5.6" y="12.9" width="0.77" height="0.51" rx="0.25" ry="0.25"/>
        <rect class="cls-4" x="5.6" y="12" width="0.77" height="0.51" rx="0.25" ry="0.25"/>
        <rect class="cls-4" x="8.88" y="13.81" width="0.77" height="0.51" rx="0.25" ry="0.25"/>
        <rect class="cls-4" x="9.98" y="13.81" width="0.77" height="0.51" rx="0.25" ry="0.25"/>
        <rect class="cls-4" x="11.07" y="13.81" width="0.77" height="0.51" rx="0.25" ry="0.25"/>
        <rect class="cls-4" x="12.17" y="13.81" width="0.77" height="0.51" rx="0.25" ry="0.25"/>
        <rect class="cls-4" x="13.26" y="12" width="0.77" height="0.51" rx="0.25" ry="0.25"/>
        <rect class="cls-4" x="13.26" y="12.9" width="0.77" height="0.51" rx="0.25" ry="0.25"/>
        <rect class="cls-4" x="13.26" y="13.81" width="0.77" height="0.51" rx="0.25" ry="0.25"/>
      </g>
    </g>
  </g>
</svg>
