<svg xmlns="http://www.w3.org/2000/svg" width="19.24" height="19.24" viewBox="0 0 19.24 19.24">
  <defs>
    <style>
      .cls-1 {
        fill: #ffe029;
      }

      .cls-2 {
        fill: #c4c4c4;
      }

      .cls-3 {
        fill: #a1dbdb;
      }

      .cls-4 {
        fill: #fff;
      }

      .cls-5 {
        fill: #2effff;
      }

      .cls-6 {
        fill: #446d03;
      }
    </style>
  </defs>
  <title>Risorsa 67</title>
  <g id="Livello_2" data-name="Livello 2">
    <g id="ICONE">
      <g id="city">
        <circle class="cls-1" cx="9.62" cy="9.62" r="9.62"/>
        <rect class="cls-2" x="5.77" y="4.48" width="3.53" height="9.53"/>
        <rect class="cls-2" x="9.89" y="4.48" width="3.53" height="9.53"/>
        <rect class="cls-3" x="5.99" y="4.86" width="0.91" height="0.91"/>
        <rect class="cls-3" x="7.08" y="4.86" width="0.91" height="0.91"/>
        <rect class="cls-3" x="8.16" y="4.86" width="0.91" height="0.91"/>
        <rect class="cls-3" x="5.99" y="6.06" width="0.91" height="0.91"/>
        <rect class="cls-3" x="7.08" y="6.06" width="0.91" height="0.91"/>
        <rect class="cls-3" x="8.16" y="6.06" width="0.91" height="0.91"/>
        <rect class="cls-3" x="5.99" y="7.26" width="0.91" height="0.91"/>
        <rect class="cls-3" x="7.08" y="7.26" width="0.91" height="0.91"/>
        <rect class="cls-3" x="8.16" y="7.26" width="0.91" height="0.91"/>
        <rect class="cls-3" x="5.99" y="8.46" width="0.91" height="0.91"/>
        <rect class="cls-3" x="7.08" y="8.46" width="0.91" height="0.91"/>
        <rect class="cls-3" x="8.16" y="8.46" width="0.91" height="0.91"/>
        <rect class="cls-3" x="5.99" y="9.66" width="0.91" height="0.91"/>
        <rect class="cls-3" x="7.08" y="9.66" width="0.91" height="0.91"/>
        <rect class="cls-3" x="8.16" y="9.66" width="0.91" height="0.91"/>
        <rect class="cls-3" x="5.99" y="10.86" width="0.91" height="0.91"/>
        <rect class="cls-3" x="7.08" y="10.86" width="0.91" height="0.91"/>
        <rect class="cls-3" x="8.16" y="10.86" width="0.91" height="0.91"/>
        <rect class="cls-3" x="5.99" y="12.06" width="0.91" height="0.91"/>
        <rect class="cls-3" x="7.08" y="12.06" width="0.91" height="0.91"/>
        <rect class="cls-3" x="8.16" y="12.06" width="0.91" height="0.91"/>
        <rect class="cls-3" x="10.11" y="4.86" width="0.91" height="0.91"/>
        <rect class="cls-3" x="11.2" y="4.86" width="0.91" height="0.91"/>
        <rect class="cls-3" x="12.29" y="4.86" width="0.91" height="0.91"/>
        <rect class="cls-3" x="10.11" y="6.06" width="0.91" height="0.91"/>
        <rect class="cls-3" x="11.2" y="6.06" width="0.91" height="0.91"/>
        <rect class="cls-3" x="12.29" y="6.06" width="0.91" height="0.91"/>
        <rect class="cls-3" x="10.11" y="7.26" width="0.91" height="0.91"/>
        <rect class="cls-3" x="11.2" y="7.26" width="0.91" height="0.91"/>
        <rect class="cls-3" x="12.29" y="7.26" width="0.91" height="0.91"/>
        <rect class="cls-3" x="10.11" y="8.46" width="0.91" height="0.91"/>
        <rect class="cls-3" x="11.2" y="8.46" width="0.91" height="0.91"/>
        <rect class="cls-3" x="12.29" y="8.46" width="0.91" height="0.91"/>
        <rect class="cls-3" x="10.11" y="9.66" width="0.91" height="0.91"/>
        <rect class="cls-3" x="11.2" y="9.66" width="0.91" height="0.91"/>
        <rect class="cls-3" x="12.29" y="9.66" width="0.91" height="0.91"/>
        <rect class="cls-3" x="10.11" y="10.86" width="0.91" height="0.91"/>
        <rect class="cls-3" x="11.2" y="10.86" width="0.91" height="0.91"/>
        <rect class="cls-3" x="12.29" y="10.86" width="0.91" height="0.91"/>
        <rect class="cls-3" x="10.11" y="12.06" width="0.91" height="0.91"/>
        <rect class="cls-3" x="11.2" y="12.06" width="0.91" height="0.91"/>
        <rect class="cls-3" x="12.29" y="12.06" width="0.91" height="0.91"/>
        <rect class="cls-4" x="8.02" y="7.11" width="3.74" height="6.89"/>
        <rect class="cls-5" x="8.37" y="7.55" width="0.91" height="0.91"/>
        <rect class="cls-5" x="9.46" y="7.55" width="0.91" height="0.91"/>
        <rect class="cls-5" x="10.55" y="7.55" width="0.91" height="0.91"/>
        <rect class="cls-5" x="8.37" y="8.75" width="0.91" height="0.91"/>
        <rect class="cls-5" x="9.46" y="8.75" width="0.91" height="0.91"/>
        <rect class="cls-5" x="10.55" y="8.75" width="0.91" height="0.91"/>
        <rect class="cls-5" x="8.37" y="9.95" width="0.91" height="0.91"/>
        <rect class="cls-5" x="9.46" y="9.95" width="0.91" height="0.91"/>
        <rect class="cls-5" x="10.55" y="9.95" width="0.91" height="0.91"/>
        <rect class="cls-5" x="8.37" y="11.15" width="0.91" height="0.91"/>
        <rect class="cls-5" x="9.46" y="11.15" width="0.91" height="0.91"/>
        <rect class="cls-5" x="10.55" y="11.15" width="0.91" height="0.91"/>
        <rect class="cls-5" x="8.37" y="12.35" width="0.91" height="0.91"/>
        <rect class="cls-5" x="9.46" y="12.35" width="0.91" height="0.91"/>
        <rect class="cls-5" x="10.55" y="12.35" width="0.91" height="0.91"/>
        <rect class="cls-6" x="4.87" y="14.01" width="10.05" height="1.1" rx="0.55" ry="0.55"/>
      </g>
    </g>
  </g>
</svg>
