<svg xmlns="http://www.w3.org/2000/svg" width="19.24" height="19.24" viewBox="0 0 19.24 19.24">
  <defs>
    <style>
      .cls-1 {
        fill: #00a4ff;
      }

      .cls-2 {
        fill: #ececec;
      }
    </style>
  </defs>
  <title>Risorsa 64</title>
  <g id="Livello_2" data-name="Livello 2">
    <g id="ICONE">
      <g id="EMAIL">
        <circle class="cls-1" cx="9.62" cy="9.62" r="9.62"/>
        <path class="cls-2" d="M14.54,13.49h-10A.54.54,0,0,1,4,13V7.8a.54.54,0,0,1,.81-.46L9.26,10a.54.54,0,0,0,.55,0l4.46-2.67a.54.54,0,0,1,.81.46V13A.54.54,0,0,1,14.54,13.49Z"/>
        <path class="cls-2" d="M9.37,8.8l-5-2.86c-.22-.13-.11-.4.16-.4h10c.27,0,.38.27.16.4L9.7,8.8A.34.34,0,0,1,9.37,8.8Z"/>
      </g>
    </g>
  </g>
</svg>
