<svg xmlns="http://www.w3.org/2000/svg" width="19.24" height="19.24" viewBox="0 0 19.24 19.24">
  <defs>
    <style>
      .cls-1 {
        fill: #ff740d;
      }

      .cls-2 {
        fill: #0198ad;
      }

      .cls-3 {
        fill: #d4dee3;
      }

      .cls-4 {
        fill: #040404;
      }

      .cls-5 {
        fill: #dde4e8;
      }

      .cls-6 {
        fill: #f7f9fa;
      }

      .cls-7 {
        fill: #e9eef0;
      }

      .cls-8 {
        fill: #e9eef1;
      }

      .cls-9 {
        fill: #dde4e9;
      }

      .cls-10 {
        fill: #ebeff2;
      }

      .cls-11 {
        fill: #dfe6ea;
      }

      .cls-12 {
        fill: #d3dee3;
      }

      .cls-13 {
        fill: #dae3e7;
      }

      .cls-14 {
        fill: #27b0b9;
      }

      .cls-15 {
        fill: #dae4e8;
      }

      .cls-16 {
        fill: #45e8fe;
      }

      .cls-17 {
        fill: #45e8fd;
      }

      .cls-18 {
        fill: #7193a1;
      }

      .cls-19 {
        fill: #cad7dc;
      }

      .cls-20 {
        fill: #e7eef0;
      }

      .cls-21 {
        fill: #f8f9fa;
      }

      .cls-22 {
        fill: #c7dcdf;
      }

      .cls-23 {
        fill: #dee9eb;
      }

      .cls-24 {
        fill: #afdcda;
      }

      .cls-25 {
        fill: #fafbfc;
      }

      .cls-26 {
        fill: #5edacb;
      }

      .cls-27 {
        fill: #010202;
      }
    </style>
  </defs>
  <title>Risorsa 71</title>
  <g id="Livello_2" data-name="Livello 2">
    <g id="ICONE">
      <g id="time">
        <circle class="cls-1" cx="9.62" cy="9.62" r="9.62"/>
        <g>
          <path class="cls-2" d="M7.83,13.18A6.21,6.21,0,0,1,8.57,13a1.59,1.59,0,0,1,.29,0c0,.05-.06,0-.08.05s.16,0,.23,0v.15s0,.08,0,.13c0,.23,0,.47,0,.7a.56.56,0,0,1,0,.17s-.07,0-.11,0l-.36,0a1.07,1.07,0,0,0-.34,0H8.11c-.05,0,0-.05,0-.08A.58.58,0,0,0,8.18,14c0-.08-.06-.07-.12-.06a.77.77,0,0,0-.32.19.67.67,0,0,0-.21.27c0,.05,0,.12.05.13A.85.85,0,0,0,8,14.3s0-.06.09,0a.68.68,0,0,0,.44.18,2.25,2.25,0,0,0,.77,0,.49.49,0,0,0,.2-.08s.06,0,0-.07-.05,0-.08,0a.35.35,0,0,1-.21,0,.28.28,0,0,1,0-.22s.07,0,.11,0a1.09,1.09,0,0,0,.54-.12.2.2,0,0,0,.1-.09c0-.06-.06-.06-.1-.07a1.11,1.11,0,0,0-.54.07s-.08.06-.12,0,0-.28,0-.43a.92.92,0,0,1,0-.2.19.19,0,0,1,0-.09.23.23,0,0,1,.15,0c.26,0,.51,0,.77,0a7.78,7.78,0,0,0,.8-.13c.3-.05.6-.11.89-.18a.07.07,0,0,1,.08,0,1.74,1.74,0,0,0,.3.37.08.08,0,0,1,0,.06,2,2,0,0,1-.51.33l-.35.16s-.08,0-.07.08.06,0,.09,0a1.52,1.52,0,0,0,1.08-.43,1,1,0,0,0,.16-.2s0-.05,0-.08-.06,0-.09,0a.54.54,0,0,0-.1.06,0,0,0,0,1,0,0c-.07-.14-.17-.27-.25-.41a0,0,0,0,1,0-.05,1.23,1.23,0,0,1,.34-.09s0,0,.07.06a.49.49,0,0,0,.31-.18s0-.06.08-.08a4.1,4.1,0,0,0,.76-.43.22.22,0,0,0,.1-.14h0c.06,0,.14,0,.19,0a1.42,1.42,0,0,1-.17.45,4,4,0,0,1-.68.92,4.9,4.9,0,0,1-1.18.89,3.51,3.51,0,0,1-.92.29,7.81,7.81,0,0,1-1.23.18L9,14.6a2.74,2.74,0,0,0-.74.14l-.1,0c-.14,0-.28,0-.42,0a1.29,1.29,0,0,0-.95.64c-.15.25-.24.52-.37.78a4.22,4.22,0,0,0-.21.47s0,.1,0,.12.08,0,.11-.05l.12-.12s0-.06.09-.05a2.31,2.31,0,0,1-.59.66,1,1,0,0,1-1.19,0,.51.51,0,0,1-.18-.51s0,0,0,.07,0,.05,0,.06,0,0,.06,0a.94.94,0,0,0,.08-.14,1.68,1.68,0,0,1,.63-.75,4.44,4.44,0,0,0,.86-.81,6.13,6.13,0,0,0,.7-1,2.16,2.16,0,0,1,.49-.63,1.31,1.31,0,0,1,.36-.22S7.83,13.2,7.83,13.18Z"/>
          <path class="cls-2" d="M9.37,2.4a1.45,1.45,0,0,1-.08-.33l0-.12a1.5,1.5,0,0,0,0-.2A1.21,1.21,0,0,1,9.6.86a1.27,1.27,0,0,1,.63-.39.57.57,0,0,1,.7.35c.09.24.12.5.2.74a1.25,1.25,0,0,0,.1.27.88.88,0,0,1,.12.29c.06.18.13.37.21.55a1.24,1.24,0,0,0,.81.66,3.63,3.63,0,0,0,.84.17,1.1,1.1,0,0,1,1,.7,2.74,2.74,0,0,1,.2.83s0,.09,0,.14a.08.08,0,0,1-.06.09.33.33,0,0,1-.18,0s0,0,0,0a.19.19,0,0,1,.11,0l-.44-.1a1.11,1.11,0,0,1-.6-.4,5.59,5.59,0,0,0-.41-.44,1.39,1.39,0,0,0-.63-.34,4,4,0,0,0-1-.16h-.44c-.12,0-.12,0-.1.1A2.48,2.48,0,0,1,10,3.54l-.06,0h0a.31.31,0,0,0,0-.19,8.16,8.16,0,0,1-.19-.88,2.85,2.85,0,0,1,0-.78A1,1,0,0,1,10,1.11l.27-.28a.51.51,0,0,0,.13-.18c0-.09,0-.15-.12-.14l-.1,0a1.36,1.36,0,0,0-.83,1,2,2,0,0,0,0,.64.8.8,0,0,1,0,.22A0,0,0,0,1,9.37,2.4Z"/>
          <path class="cls-2" d="M7.83,13.18c.07,0,0,0,0,0a1.52,1.52,0,0,0-.45.3A2.17,2.17,0,0,0,7,14a6,6,0,0,1-.54.85,6,6,0,0,1-.71.78c-.18.15-.39.28-.56.44a1.57,1.57,0,0,0-.37.51l-.11.2s0,.07-.08.06,0,0,0-.08a.16.16,0,0,0,0-.09.87.87,0,0,1,.24-.5,2.82,2.82,0,0,1,.48-.42,5.31,5.31,0,0,0,.57-.51,3.19,3.19,0,0,0,.4-.57,7.19,7.19,0,0,1,.56-.91,1.06,1.06,0,0,1,.26-.25.59.59,0,0,1,.22-.1s-.06,0-.07,0A2.15,2.15,0,0,1,7.83,13.18Z"/>
          <path class="cls-2" d="M6.51,16.61c-.08,0-.11.12-.18.17s-.12.11-.18.08,0-.12,0-.17l.44-1A1.69,1.69,0,0,1,7,15.15a1.4,1.4,0,0,1,1.13-.36h0a.92.92,0,0,0-.27.15c-.11.08-.2.17-.3.26s0,0,0,.06c-.28.35-.53.72-.78,1.09a.12.12,0,0,1-.07.06Z"/>
          <path class="cls-3" d="M14.1,11.79c-.06,0-.13,0-.2,0a4.58,4.58,0,0,1-.72-.19l-.41-.13s-.06,0-.07-.05-.08-.07-.13,0,0,0,0,0,0-.17,0-.25a0,0,0,0,1,0,0,.11.11,0,0,0,.09-.15s0,0,0,0l.21,0h0a.36.36,0,0,1-.05.29c-.08,0-.12-.05-.17-.07a.39.39,0,0,0,.31.09l.08,0a2.44,2.44,0,0,0,.5.09c.1,0,.18.07.26.07s0,0,0,0h-.08s-.05,0,0-.05a.92.92,0,0,1,.12-.28.15.15,0,0,0,0-.11s0,0,0,0v0h-.06a.28.28,0,0,0-.2,0c-.07,0-.17,0-.25,0a2.15,2.15,0,0,1-.41-.19h0l-.06,0,0,0a1.27,1.27,0,0,0-.13-.09s0,0,0,0a3.12,3.12,0,0,1-.85-2.07s0,0,0,0A4.25,4.25,0,0,1,12.13,7a.56.56,0,0,1,.08-.22A2.17,2.17,0,0,1,12.79,6a1.47,1.47,0,0,1,1-.38,1.39,1.39,0,0,1,.83.27,2.19,2.19,0,0,1,.47.47s0,0,0,.06a.37.37,0,0,0-.2.26,0,0,0,0,1,0,0c-.06,0-.07-.08-.09-.12a1.83,1.83,0,0,0-.5-.58L14.2,6,14,5.87a.92.92,0,0,0-.61-.09,1.25,1.25,0,0,0-.72.45c-.08.09-.16.18-.23.28a2.46,2.46,0,0,0-.39,1.11,4.78,4.78,0,0,0,0,.91,2.77,2.77,0,0,0,.21,1,3.5,3.5,0,0,0,.32.62,1.33,1.33,0,0,0,.7.58,1,1,0,0,0,.85-.08,1.77,1.77,0,0,0,.64-.69,3.36,3.36,0,0,0,.39-1.33A4,4,0,0,0,15,7.22c0-.07-.05-.14-.07-.2s0-.07,0-.1a.12.12,0,0,1,.07,0,.43.43,0,0,0,.27,0h.07a2.08,2.08,0,0,1,.17.51,2.34,2.34,0,0,1,.06.38s0,.07-.06.07-.17.1-.2.21a1,1,0,0,0,.06.67.08.08,0,0,0,.1.05c.07,0,.07,0,.07.07a3.18,3.18,0,0,1-.2.71,2.68,2.68,0,0,1-.33.58,2,2,0,0,1-.62.56c-.06,0,0,.08,0,.13s0,0,0,.06a.94.94,0,0,1-.17.46h0a.1.1,0,0,0-.06.12c.05.08,0,.14,0,.21Z"/>
          <path class="cls-3" d="M14.38,5.25h.08s0,0,0,.05a0,0,0,0,1,0,0s-.09,0-.13.07,0,0,0,0h0s.07-.07.12,0a.44.44,0,0,1,0,.07.24.24,0,0,1,0,.09h0l0,0a.09.09,0,0,0-.14,0l-.06.06c-.1,0,0-.07,0-.11-.33,0-.66.1-1,.15a1.53,1.53,0,0,0-.25.08,2.08,2.08,0,0,0-.27.1.21.21,0,0,0-.18,0s-.08.06-.13,0,0-.2.12-.23a3.86,3.86,0,0,1,.39-.14l.1,0a4,4,0,0,1,.55-.12c.19,0,.37-.08.57-.08a.09.09,0,0,1,.06,0Z"/>
          <path class="cls-4" d="M14.52,5.55a.09.09,0,0,1,0-.09s0,0,0,0h0s0,0,0-.07a.1.1,0,0,1,0-.06v0s.06,0,.09.06a.07.07,0,0,1,0,.07c.09.18.07.38.18.56a2.15,2.15,0,0,0,.18.24,2.63,2.63,0,0,1,.35.57s0,0,0,.06a.08.08,0,0,1,0,0,2.65,2.65,0,0,0-.15-.28l0-.09s0,0,0-.07a1.41,1.41,0,0,0-.27-.32,1.56,1.56,0,0,0-.87-.45,1.37,1.37,0,0,0-1,.25,2.24,2.24,0,0,0-.78,1l0,.09s0,0,0-.05a3.28,3.28,0,0,1,.21-.41.59.59,0,0,1,.18-.28.4.4,0,0,0,.07-.31s0,0-.06,0-.11,0-.11.12a.68.68,0,0,1,0,.17s0,.06,0,.06a1.46,1.46,0,0,1,0-.37.17.17,0,0,0,.14-.05.12.12,0,0,1,.17,0,.12.12,0,0,1,.08,0,.08.08,0,0,1,0,0,.07.07,0,0,0,0-.06s0,0,0,0,0,0,0,.08a1.43,1.43,0,0,1,1.41-.22l.17.08.15.08a.49.49,0,0,0-.05-.21A.07.07,0,0,1,14.52,5.55Z"/>
          <path class="cls-4" d="M15.6,8a1.14,1.14,0,0,0,0,.81.5.5,0,0,1-.24-.55.52.52,0,0,1,.05-.18A.15.15,0,0,1,15.6,8Z"/>
          <path class="cls-4" d="M14.22,11.42s.05-.07.07-.11l.13-.36s0,0,0-.07,0-.13.13-.16a1.11,1.11,0,0,1-.08.54.11.11,0,0,1-.08.09C14.34,11.36,14.3,11.43,14.22,11.42Z"/>
          <path class="cls-5" d="M15.06,6.38l0,.05c0,.05-.09.09-.12.15a.23.23,0,0,0,.2.31c.05,0,.09,0,.14,0a.1.1,0,0,1,0,.09.47.47,0,0,1-.42,0s0,0,0,0-.07-.12-.07-.19,0-.2.15-.27A.12.12,0,0,1,15.06,6.38Z"/>
          <path class="cls-6" d="M15.64,8.53V8.21c.1,0,.15,0,.22,0a.36.36,0,0,1,0,.25C15.79,8.58,15.73,8.59,15.64,8.53Z"/>
          <path class="cls-4" d="M14.12,11.75l0-.21c.07-.1.19-.12.3-.18a.24.24,0,0,1-.12.27A1.81,1.81,0,0,1,14.12,11.75Z"/>
          <path class="cls-7" d="M15.32,6.86A.24.24,0,0,1,15,6.75a.26.26,0,0,1,.15-.32l0,.09,0,0c-.06,0-.1.09-.07.16a.18.18,0,0,0,.19.09h.06s0,0,0,0Z"/>
          <path class="cls-8" d="M15.64,8.53a.2.2,0,0,0,.21,0,.23.23,0,0,1,0,.13.13.13,0,0,1-.19,0Z"/>
          <path class="cls-9" d="M15.64,8.62a.24.24,0,0,0,.19,0,.18.18,0,0,1,0,0s0,.12-.13.1S15.64,8.67,15.64,8.62Z"/>
          <path class="cls-10" d="M15.86,8.24c-.06-.05-.14,0-.22,0V8.12a.16.16,0,0,1,.2,0S15.85,8.21,15.86,8.24Z"/>
          <path class="cls-11" d="M15.84,8.13a.6.6,0,0,0-.2,0h0s0-.11.1-.1A.12.12,0,0,1,15.84,8.13Z"/>
          <path class="cls-2" d="M14.18,5.24l-.47.07c-.24,0-.47.1-.71.13l-.36.11c-.06,0-.07,0-.08-.06a1.43,1.43,0,0,0,0-.25,1.45,1.45,0,0,0-.46-.74,2.33,2.33,0,0,0-.63-.36L11,4l-.31-.14s-.1,0-.07-.09.09,0,.14,0a4.85,4.85,0,0,1,1.55.2,1.64,1.64,0,0,1,.68.45,4,4,0,0,0,.56.57,1.38,1.38,0,0,0,.5.18,1,1,0,0,1,.26.08C14.29,5.24,14.23,5.21,14.18,5.24Z"/>
          <path class="cls-2" d="M9.37,2.4c0-.13,0-.25,0-.38A1.27,1.27,0,0,1,9.59.95,1,1,0,0,1,9.88.69c.13-.06.22-.18.38-.2a.19.19,0,0,1,.18,0c0,.06,0,.11,0,.17a1.51,1.51,0,0,1-.27.3,1.16,1.16,0,0,0-.38.66,2.94,2.94,0,0,0,0,.59A7.54,7.54,0,0,0,10,3.37s0,.11,0,.14A2,2,0,0,1,9.37,2.4Z"/>
          <path class="cls-2" d="M13.86,11.78s0,0,0,.06a.79.79,0,0,1-.24.19,3.72,3.72,0,0,1-.61.32s0-.09,0-.14-.09,0-.13,0a.54.54,0,0,0-.35.33l-.35.09h0a1.14,1.14,0,0,1-.23-.36s.06-.07.1-.1a2.29,2.29,0,0,0,.39-.36l.2-.27c.09-.12.09-.12.25-.06a9.16,9.16,0,0,0,.93.28S13.85,11.76,13.86,11.78Z"/>
          <path class="cls-2" d="M11,4a2.45,2.45,0,0,1,.9.38,1.49,1.49,0,0,1,.57.76,1,1,0,0,1,.07.33s0,.07.08.05A1.88,1.88,0,0,1,13,5.45a3.17,3.17,0,0,1-.5.16A1.66,1.66,0,0,0,12.38,5a1.27,1.27,0,0,0-.61-.63,4.33,4.33,0,0,0-.53-.23A.79.79,0,0,1,11,4Z"/>
          <path class="cls-12" d="M12.34,6.2a.55.55,0,0,0,0-.25c0-.07,0-.1.09-.11l.13,0c0,.15,0,.3-.09.43a1.45,1.45,0,0,0-.18.25s0,0,0,0A.54.54,0,0,0,12.34,6.2Z"/>
          <path class="cls-13" d="M12.9,10.66l0,0,.06,0h0c.05,0,.09.07,0,.11s0,0,0,0,0,0,0,.05l0,0c-.08,0-.16,0-.22-.06v-.19h0s0,0,0,0,0,0,0,0A.45.45,0,0,1,12.9,10.66Z"/>
          <path class="cls-14" d="M13.86,11.78a5.36,5.36,0,0,1-1-.28c-.1,0-.18-.06-.25,0,0,0,0-.11.08-.14.25.1.52.17.78.25l.43.12Z"/>
          <path class="cls-2" d="M11.95,12.26a.09.09,0,0,1,0-.05,3.5,3.5,0,0,0,.51-.4,1.33,1.33,0,0,1-.36.36S12,12.22,11.95,12.26Z"/>
          <path class="cls-15" d="M12.74,10.68h0c0-.05,0-.1,0-.14l0,0a0,0,0,0,1,0,0l0,0S12.76,10.65,12.74,10.68Z"/>
          <path class="cls-2" d="M7.2,13.42s.06,0,.09,0l-.16.07a1.4,1.4,0,0,0-.46.49c-.19.28-.33.59-.51.87a1.61,1.61,0,0,1-.33.4c.1-.16.22-.3.31-.46l.42-.74A1.68,1.68,0,0,1,7.2,13.42Z"/>
          <path class="cls-2" d="M9,13.06a2.2,2.2,0,0,0-.34,0c0-.08.14,0,.18-.09s0,0,.06,0S9,13,9,13.06Z"/>
          <path class="cls-2" d="M9.27,13s0-.08,0-.12a.47.47,0,0,1,.21,0,7.39,7.39,0,0,0,1.2-.18,5.8,5.8,0,0,0,.84-.31s.09-.06.14,0l.24.34a4.65,4.65,0,0,1-.69.16l-.84.15L10,13Z"/>
          <path class="cls-2" d="M12.27,13.17c.05,0,.07.05.12.07s.08,0,.12,0,0-.07,0-.11v0A.18.18,0,0,1,12.7,13c.06,0,0,.06,0,.1a1.19,1.19,0,0,1-.35.39,1.7,1.7,0,0,1-.74.26.82.82,0,0,1-.23,0,.09.09,0,0,1-.09,0s0-.06.05-.08l.05,0A4.2,4.2,0,0,0,12.27,13.17Z"/>
          <path class="cls-16" d="M7.59,14.53c-.1,0-.13-.05-.09-.15a.93.93,0,0,1,.55-.49c.1,0,.14,0,.15.08a.08.08,0,0,1,0,0,.78.78,0,0,0-.42.35A.72.72,0,0,1,7.59,14.53Z"/>
          <path class="cls-16" d="M6.08,16.07C6,16.05,6,16,6,15.95a1,1,0,0,1,.44-.55c.11-.07.16,0,.16.07a2.06,2.06,0,0,0-.51.57Z"/>
          <path class="cls-16" d="M10,13.76a1.72,1.72,0,0,0-.64.07l-.14.06a.1.1,0,0,1,0-.11,1.08,1.08,0,0,1,.68-.11C10,13.68,10,13.69,10,13.76Z"/>
          <path class="cls-16" d="M13.06,12.2a.62.62,0,0,0-.39.29l-.07.12s0,0,0-.07a.1.1,0,0,1,0-.11.68.68,0,0,1,.36-.25S13,12.14,13.06,12.2Z"/>
          <path class="cls-17" d="M11.44,13.44c-.16,0-.33,0-.49,0a.21.21,0,0,0-.14.07s0,0,0-.07a.84.84,0,0,1,.6-.07Z"/>
          <path class="cls-18" d="M12.56,10.21a1.74,1.74,0,0,1-.26-.45,3.21,3.21,0,0,1-.21-.58A4.21,4.21,0,0,1,12,8.4,4.47,4.47,0,0,1,12.18,7a2.16,2.16,0,0,1,.46-.77,1.58,1.58,0,0,1,.59-.44.67.67,0,0,1,.19,0,1.29,1.29,0,0,1,.63.09s.1,0,.14.09a.09.09,0,0,1,0,.06.58.58,0,0,1-.21.37c-.17.19-.39.34-.57.52a2.58,2.58,0,0,0-.7,1.21,1.22,1.22,0,0,0,0,.33c0,.3,0,.61,0,.91s.07.51.11.77a.69.69,0,0,1,0,.14c0,.1,0,.13-.16.11S12.61,10.26,12.56,10.21Z"/>
          <path class="cls-19" d="M14.22,6l0-.05a.68.68,0,0,1,.24.18,2.26,2.26,0,0,1,.39.56l.11.23c0,.14.09.27.13.41a3.26,3.26,0,0,1,.12.8,4.23,4.23,0,0,1-.07.95,3.46,3.46,0,0,1-.26.81,2,2,0,0,1-.52.68,1.12,1.12,0,0,1-.8.3,1.14,1.14,0,0,1-.64-.26,1.23,1.23,0,0,1-.35-.39c.07,0,.08.1.14.13s.16.16.26.23a1,1,0,0,0,1.36-.06,2.17,2.17,0,0,0,.55-.83A3.71,3.71,0,0,0,15.12,8a3.45,3.45,0,0,0-.33-1.3,2,2,0,0,0-.47-.64Z"/>
          <path class="cls-19" d="M12.76,10.59v0s.11,0,.14.11S12.81,10.61,12.76,10.59Z"/>
          <path class="cls-19" d="M14.2,10.87s0-.05.09,0A.09.09,0,0,1,14.2,10.87Z"/>
          <path class="cls-4" d="M13,11.25h0s.08,0,.07,0A.1.1,0,0,1,13,11.25Z"/>
          <path class="cls-19" d="M13.95,11h0l0,0H14S13.95,11,13.95,11Z"/>
          <path class="cls-19" d="M13,10.71s-.06,0-.06,0A.06.06,0,0,1,13,10.71Z"/>
          <path class="cls-20" d="M14.26,5.66s0-.07,0-.11a.12.12,0,0,1,.11-.09c.08,0,.12,0,.11.09s-.05,0-.08,0a0,0,0,0,0,0,0,0,0,0,0,0,0,0,0,0,0,0,0,.06,0s0,0,0-.06h0s0,0,0,0,0,0,0,.07-.05.1-.14.09A.45.45,0,0,1,14.26,5.66Z"/>
          <path class="cls-21" d="M15.31,6.81c-.15,0-.29,0-.28-.16a.16.16,0,0,1,.12-.13A1,1,0,0,1,15.31,6.81Z"/>
          <path class="cls-22" d="M14.42,5.73s.07,0,.11,0,0-.06,0-.09,0,0,0,0a.42.42,0,0,1,.07.21s0,0,0,0,0,0-.06,0Z"/>
          <path class="cls-23" d="M12.5,6.07c-.06,0-.07,0-.07-.07s0-.07.08-.07.08,0,.07.08S12.55,6.08,12.5,6.07Z"/>
          <path class="cls-24" d="M12.74,10.68l0-.05s0,0,0,0S12.76,10.69,12.74,10.68Z"/>
          <path class="cls-3" d="M13,10.86s0,0,0,0,0,0-.05,0Z"/>
          <path class="cls-19" d="M14.22,6a1.15,1.15,0,0,1,.37.36,3,3,0,0,1,.5,1.25,3.75,3.75,0,0,1,.05,1,3.15,3.15,0,0,1-.56,1.7,1.5,1.5,0,0,1-.52.46A1,1,0,0,1,13,10.6a.92.92,0,0,1-.26-.26c.11,0,.14,0,.14-.08a4,4,0,0,0-.06-.53A5.61,5.61,0,0,1,12.7,9c0-.19,0-.38,0-.56a1.77,1.77,0,0,1,.22-.86,2.66,2.66,0,0,1,.72-.9,3.88,3.88,0,0,0,.47-.45A.39.39,0,0,0,14.22,6Z"/>
          <path class="cls-4" d="M13,11.23h-.05c0-.14.06-.29.11-.44,0,0,.07,0,.08.06A.34.34,0,0,1,13,11.23Z"/>
          <path class="cls-25" d="M14.48,5.55a.17.17,0,0,1,0,.05.07.07,0,0,1-.1,0s-.07,0,0-.09a.07.07,0,0,1,.11,0l0,0Z"/>
          <path class="cls-6" d="M12.5,6a.06.06,0,0,1,.06,0s0,0,0,.05a0,0,0,0,1-.06,0S12.48,6,12.5,6Z"/>
          <path class="cls-26" d="M13.49,8.45a.21.21,0,0,1,0-.08s0-.12.11-.11.17,0,.2.1a.34.34,0,0,1-.05.27.14.14,0,0,1-.21,0A.26.26,0,0,1,13.49,8.45Z"/>
          <path class="cls-27" d="M13.55,8.5s0,0,0,0,0-.12.05-.12,0,.08.06.12,0,0,0,0,0,.1-.06.1S13.57,8.52,13.55,8.5Z"/>
          <path class="cls-27" d="M13.69,8.59V8.35A.15.15,0,0,1,13.69,8.59Z"/>
          <polygon class="cls-2" points="9.27 12.92 8.86 12.99 8.67 13.94 8.1 14.14 7.95 14.3 8.27 14.6 9.73 14.44 9.61 13.94 9.27 13.96 9.22 13.91 9.23 13.78 9.27 12.92"/>
          <path class="cls-2" d="M11.52,12.38l.28-.15.11,0,1,1-.64.29-.83-1Z"/>
        </g>
      </g>
    </g>
  </g>
</svg>
