<svg xmlns="http://www.w3.org/2000/svg" width="19.39" height="19.39" viewBox="0 0 19.39 19.39">
  <defs>
    <style>
      .cls-1 {
        fill: #06c900;
      }

      .cls-2 {
        fill: #082421;
      }

      .cls-3 {
        fill: #fdcebd;
      }

      .cls-4 {
        fill: #fd7b6f;
      }

      .cls-5 {
        fill: #fdb59b;
      }

      .cls-6 {
        fill: #505050;
      }

      .cls-7 {
        fill: #fe6052;
      }
    </style>
  </defs>
  <title>Risorsa 65</title>
  <g id="Livello_2" data-name="Livello 2">
    <g id="ICONE">
      <g id="icon_you">
        <circle class="cls-1" cx="9.7" cy="9.7" r="9.7"/>
        <path class="cls-2" d="M9.64,7.24a3.44,3.44,0,0,0,0-.54,5,5,0,0,0-.19-.88,4.09,4.09,0,0,0-.26-.63,2.86,2.86,0,0,0-.37-.55,2,2,0,0,0-.49-.43A1.32,1.32,0,0,0,8,4.06s0,0,0-.06a.55.55,0,0,0-.09-.36.46.46,0,0,0-.28-.18h0a.5.5,0,0,1,.24.18A.54.54,0,0,1,7.86,4a.77.77,0,0,1-.19.43,4.56,4.56,0,0,0-.37.44,1.14,1.14,0,0,0-.18.52,2.07,2.07,0,0,0,0,.38,3.55,3.55,0,0,1,0,.49,1.62,1.62,0,0,1-.27.85,1.48,1.48,0,0,1-.32.3,1.79,1.79,0,0,0-.47.46,1.5,1.5,0,0,0-.16.42,2.5,2.5,0,0,0-.06.7,1.31,1.31,0,0,0,0,.13s0,0,0,0a0,0,0,0,1,0,0,1.27,1.27,0,0,0-.22-.24L5.29,8.5l-.16-.18C5,8.16,4.86,8,4.73,7.83a2.94,2.94,0,0,1-.34-.52,1.29,1.29,0,0,1-.15-.58.61.61,0,0,1,.26-.51c.13-.1.28-.18.41-.28a.77.77,0,0,0,.32-.56,1.72,1.72,0,0,0-.06-.5,5.69,5.69,0,0,1-.12-.62A1.83,1.83,0,0,1,5.3,3.18a2.14,2.14,0,0,1,.47-.59,1.64,1.64,0,0,1,.79-.38,1.94,1.94,0,0,1,.53,0A1.77,1.77,0,0,1,8,2.52a6,6,0,0,0,.55.38,2,2,0,0,0,.64.22,5,5,0,0,0,.64.07l.41,0a3.52,3.52,0,0,1,1.09.21,1.58,1.58,0,0,1,1,1,1.18,1.18,0,0,1-.07.83c-.1.23-.23.45-.34.68a2.85,2.85,0,0,0-.25.77,2.61,2.61,0,0,0,0,.58A2,2,0,0,0,12,8.49a3.24,3.24,0,0,0,.93.78,11,11,0,0,0,1.25.6,3.41,3.41,0,0,1,.86.51,2.85,2.85,0,0,1,.6.71,3.21,3.21,0,0,1,.34.7,1.69,1.69,0,0,1,.08.63c0,.17,0,.34-.07.52a1.48,1.48,0,0,0,.11,1c.08.14.17.27.25.41a1.66,1.66,0,0,1,.25.55,1,1,0,0,1-.09.74.66.66,0,0,1-.44.31,1.77,1.77,0,0,1-.57,0,5.08,5.08,0,0,1-.64-.11,2.52,2.52,0,0,1-.47-.16,4.68,4.68,0,0,1-.67-.38c-.17-.12-.34-.24-.5-.38a6,6,0,0,1-.61-.53,2.31,2.31,0,0,1-.35-.52,2.09,2.09,0,0,0-.29-.47.8.8,0,0,0-.5-.25,1.69,1.69,0,0,0-.59,0,4.62,4.62,0,0,1-.56.11.86.86,0,0,1-.54-.09.87.87,0,0,1-.29-.29,1.49,1.49,0,0,1-.2-.52,2.82,2.82,0,0,1,0-.29,2.37,2.37,0,0,0-.1-.65,1.21,1.21,0,0,0-.24-.38c-.12-.13-.26-.25-.37-.39a.91.91,0,0,1-.12-.21,0,0,0,0,1,0-.07,1.06,1.06,0,0,0,.19-.16A2.51,2.51,0,0,0,9,9.79c.06-.1.13-.21.18-.32A4.2,4.2,0,0,0,9.5,8.6a4.88,4.88,0,0,0,.09-.48c0-.12,0-.24,0-.36s0-.19,0-.29,0-.05,0-.08V7.33S9.65,7.27,9.64,7.24Z"/>
        <path class="cls-3" d="M9.61,7.34h0s0,.07,0,.11a3.35,3.35,0,0,1,0,.46,5.08,5.08,0,0,1-.17.87,4,4,0,0,1-.29.74,2.54,2.54,0,0,1-.57.75,1.48,1.48,0,0,1-.76.38,1.23,1.23,0,0,1-.62-.07,1.75,1.75,0,0,1-.67-.46,2.74,2.74,0,0,1-.38-.53A1.44,1.44,0,0,1,6,9.32a1.26,1.26,0,0,1-.09-.38A2.59,2.59,0,0,1,6,8.1a1.15,1.15,0,0,1,.4-.53c.13-.1.25-.2.37-.31a1.21,1.21,0,0,0,.34-.59A2.11,2.11,0,0,0,7.2,6c0-.18,0-.37,0-.55a1.05,1.05,0,0,1,.28-.72,4,4,0,0,0,.32-.35.82.82,0,0,0,.14-.28s0,0,.06,0a1.53,1.53,0,0,1,.52.29,2.73,2.73,0,0,1,.72,1,4.39,4.39,0,0,1,.28.86.46.46,0,0,1,0,.05s0,0,0,0a.44.44,0,0,0,0-.11s0,0,0,0v0s0,.07,0,.11a6.79,6.79,0,0,1-.2,1.37,5.33,5.33,0,0,1-.31.84,4.52,4.52,0,0,1-.47.79,2.09,2.09,0,0,1-.6.56,4.47,4.47,0,0,1-.5.24.8.8,0,0,0-.19.11.13.13,0,0,0,0,.22.64.64,0,0,0,.38.18,1,1,0,0,0,.7-.18,2.17,2.17,0,0,0,.72-.81,4.71,4.71,0,0,0,.42-1.21c.07-.33.15-.66.2-1a2.85,2.85,0,0,0,0-.53,2.11,2.11,0,0,0,0-.22.1.1,0,0,1,0-.09.8.8,0,0,1,0,.18,4.39,4.39,0,0,1,0,.56S9.6,7.32,9.61,7.34Z"/>
        <path class="cls-4" d="M9.31,14.77c0,.41.2,1.42-.1,1.62-.56.36-3,.17-3.06-.22A2.16,2.16,0,0,1,6,15.54a2.5,2.5,0,0,1,.16-1.13,2.34,2.34,0,0,1,.5-.8,2,2,0,0,1,.56-.42s0,0,.05,0a1.26,1.26,0,0,0,.18.49.43.43,0,0,0,.12.11A.27.27,0,0,0,8,13.72a1.31,1.31,0,0,0,.21-.54c0-.1,0-.1.11-.07a1.38,1.38,0,0,1,.76.63,2,2,0,0,1,.25.72A1.5,1.5,0,0,1,9.31,14.77Z"/>
        <path class="cls-3" d="M7.13,10.63a1.74,1.74,0,0,0,.45.08,1.31,1.31,0,0,0,.5-.09l.2-.09s0,0,0,0S8.2,13,8.07,13.41a.78.78,0,0,1-.17.33c-.17.17-.3.11-.41,0a1.14,1.14,0,0,1-.18-.51c0-.1-.07-.49-.07-.59C7.2,12.26,7.19,10.92,7.13,10.63Z"/>
        <path class="cls-5" d="M9.54,6.53c0,.14,0,.27,0,.41a4.06,4.06,0,0,1-.08.66c-.07.35-.14.71-.23,1.06a4.13,4.13,0,0,1-.37,1,2.11,2.11,0,0,1-.45.58,1.4,1.4,0,0,1-.65.37.81.81,0,0,1-.65-.12l-.08-.08c-.06-.08,0-.16.06-.23a2.18,2.18,0,0,1,.37-.18,2.2,2.2,0,0,0,.6-.38,3,3,0,0,0,.57-.74,5,5,0,0,0,.65-2c0-.2,0-.41.05-.61a.29.29,0,0,1,0-.12s0,0,0,0,0,0,0,0a1,1,0,0,1,.07.19A1.23,1.23,0,0,1,9.54,6.53Z"/>
        <path class="cls-6" d="M14.8,10.85l-.07,0h0l.12.12a.27.27,0,0,1,.08.1,2.58,2.58,0,0,1,.2.44v0s0-.07,0-.11a.6.6,0,0,0,0-.1l0-.12a1.51,1.51,0,0,1,.22.28,1.7,1.7,0,0,1,.24.71,2.36,2.36,0,0,1,0,.54c0,.21-.06.41-.08.61a1.89,1.89,0,0,0,.09.82,2.23,2.23,0,0,0,.23.43,1.56,1.56,0,0,1,.27.51.33.33,0,0,1-.17.4.44.44,0,0,1-.29,0,.51.51,0,0,1-.4-.38.84.84,0,0,1,0-.3c0-.18.06-.36.08-.53a3.68,3.68,0,0,0,0-.62.94.94,0,0,0-.15-.51,1.22,1.22,0,0,0-.32-.29.86.86,0,0,1-.31-.34.94.94,0,0,1-.08-.32c0-.18,0-.36,0-.54a1.77,1.77,0,0,0-.25-.72,2.75,2.75,0,0,1-.24-.47.45.45,0,0,1,0-.17.11.11,0,0,1,.14-.12.45.45,0,0,1,.23.11,3.35,3.35,0,0,1,.53.53Z"/>
        <path class="cls-6" d="M11.16,6.41c0-.05,0-.1,0-.16a1.93,1.93,0,0,1,.11-.65,1.48,1.48,0,0,0,.08-.38.72.72,0,0,0-.12-.43,3.53,3.53,0,0,0-.26-.33.87.87,0,0,1-.21-.4.39.39,0,0,1,0-.2.08.08,0,0,1,.06,0,.39.39,0,0,1,.19,0,.9.9,0,0,1,.57.43.88.88,0,0,1,.14.57,1.67,1.67,0,0,1-.14.5,8.16,8.16,0,0,0-.34.83l-.07.25Z"/>
        <path class="cls-6" d="M5.23,4.27a.53.53,0,0,1,0-.28,2.27,2.27,0,0,1,0-.37,1.28,1.28,0,0,1,.25-.5,2.65,2.65,0,0,1,.86-.7.32.32,0,0,1,.15-.05s.05,0,.06,0a.08.08,0,0,1,0,.09l-.18.14a4.44,4.44,0,0,0-.57.45,1.94,1.94,0,0,0-.41.64,2.63,2.63,0,0,0-.15.56Z"/>
        <path class="cls-6" d="M4.44,6.79a.51.51,0,0,1,.07-.23.61.61,0,0,1,.18-.22l0,0c.05,0,.07,0,.07,0a.47.47,0,0,1-.05.21l-.14.33a.11.11,0,0,0,0,.09s0,0,0,0h0a.2.2,0,0,1-.09-.1A.24.24,0,0,1,4.44,6.79Z"/>
        <path class="cls-7" d="M8.11,13.79a.66.66,0,0,1,.12-.31l.05-.09a.05.05,0,0,1,.08,0,.89.89,0,0,1,.53.51v0s0,.08,0,.11a.11.11,0,0,1-.11,0l-.19-.08-.29-.13A.2.2,0,0,0,8.11,13.79Z"/>
        <path class="cls-5" d="M8.16,12c0-.09-.07-.18-.1-.26a2,2,0,0,0-.28-.45,1.46,1.46,0,0,1-.2-.26l0-.06c0-.1,0-.13.1-.13a1.37,1.37,0,0,1,.27,0,.35.35,0,0,1,.29.31,2.26,2.26,0,0,1,0,.57c0,.07,0,.14,0,.21A.14.14,0,0,1,8.16,12Z"/>
      </g>
    </g>
  </g>
</svg>
