<svg xmlns="http://www.w3.org/2000/svg" width="29.03" height="37.73" viewBox="0 0 29.03 37.73">
  <defs>
    <style>
      .cls-1 {
        fill: #4c4c4c;
      }

      .cls-2 {
        fill: #c6c6c6;
      }

      .cls-3 {
        fill: #b2b2b2;
      }

      .cls-4, .cls-8 {
        fill: #494949;
      }

      .cls-5 {
        fill: #383838;
      }

      .cls-6 {
        fill: #fff;
      }

      .cls-7, .cls-9 {
        fill: #ededed;
      }

      .cls-8 {
        font-size: 5.38px;
        font-family: AlfaSlabOne-Regular, Alfa Slab One;
      }

      .cls-9 {
        opacity: 0.4;
      }
    </style>
  </defs>
  <title>Risorsa 93</title>
  <g id="Livello_2" data-name="Livello 2">
    <g id="_03_mappa0zoom" data-name="03_mappa0zoom">
      <g id="stop_here" data-name="stop here">
        <g>
          <path class="cls-1" d="M11.09,37.73c-1.34-.27-.67-.53,0-.8,3.18-.52,1.75-1.08,5.4-1.45-.06.81-1.57,1.46-5.39,2.25Z"/>
          <path class="cls-1" d="M28.28,34.48a14.84,14.84,0,0,1-2.89.6c-1.11.11-2.5.35-4.52.46-6.24.33-10.54-.13-11.23-.86-.48-.75,4.66-1.66,9.5-2,1.47,0,3.26,0,4.72,0a15.38,15.38,0,0,1,5.08,1c.29.27-.18.52-.66.77Z"/>
          <path class="cls-1" d="M26.65,34.45a15.79,15.79,0,0,1-3,.6l-2.26.23c-5.27.33-10.73,0-10.18-.87.73-.57,3.05-1.1,7.19-1.43,1.84-.09,2.58-.06,4.06,0,1.18.18,2.68.22,3.9.4.76,0,.49.15,1,.3.27.27-.24.53-.74.78Z"/>
        </g>
        <rect class="cls-2" x="9.83" y="20.95" width="2.24" height="16.29" rx="0.9" ry="0.9"/>
        <path class="cls-3" d="M11,20.95h0a1.12,1.12,0,0,1,1.12,1.12V36.12A1.12,1.12,0,0,1,11,37.24h0"/>
        <circle class="cls-4" cx="10.95" cy="10.95" r="10.95"/>
        <path class="cls-5" d="M11,0a11,11,0,0,1,0,21.91"/>
        <circle class="cls-6" cx="10.95" cy="10.95" r="9.22"/>
        <path class="cls-7" d="M11,1.73a9.22,9.22,0,1,1,0,18.44"/>
        <text class="cls-8" transform="translate(2.93 12.76)">STOP</text>
        <path class="cls-9" d="M11,1.73a9.22,9.22,0,1,1,0,18.44"/>
      </g>
    </g>
  </g>
</svg>
