<svg xmlns="http://www.w3.org/2000/svg" width="375" height="481.5" viewBox="0 0 375 481.5">
  <defs>
    <style>
      .cls-1 {
        fill: #fdb34c;
      }

      .cls-2 {
        fill: #5ddacb;
      }

      .cls-3 {
        fill: #0198ad;
      }

      .cls-4 {
        fill: #016c7b;
      }

      .cls-5 {
        fill: #48e8fe;
      }

      .cls-6 {
        fill: #082320;
      }

      .cls-7 {
        fill: #646464;
      }

      .cls-8 {
        fill: #fecebe;
      }

      .cls-9 {
        fill: #fda98d;
      }

      .cls-10 {
        fill: #0299ae;
      }

      .cls-11 {
        fill: #142c2a;
      }

      .cls-12 {
        fill: #344240;
      }

      .cls-13 {
        fill: #fe7a6e;
      }

      .cls-14 {
        fill: #636363;
      }

      .cls-15 {
        fill: #fda98e;
      }

      .cls-16 {
        fill: #46e8fe;
      }

      .cls-17 {
        fill: #41dbf1;
      }

      .cls-18 {
        fill: #fdaa8e;
      }

      .cls-19 {
        fill: #132b29;
      }

      .cls-20 {
        fill: #213835;
      }

      .cls-21 {
        fill: #1b302e;
      }

      .cls-22 {
        fill: #0299ad;
      }

      .cls-23 {
        fill: #2a3c3a;
      }

      .cls-24 {
        fill: #f9fcfc;
      }

      .cls-25 {
        fill: #19302e;
      }

      .cls-26 {
        fill: #47e8fe;
      }

      .cls-27 {
        fill: #43def4;
      }

      .cls-28 {
        fill: #fd3c2b;
      }

      .cls-29 {
        fill: #203d3a;
      }

      .cls-30 {
        fill: #0c2926;
      }

      .cls-31 {
        fill: #44daee;
      }

      .cls-32 {
        fill: #46daee;
      }

      .cls-33 {
        fill: #41daef;
      }

      .cls-34 {
        fill: #40dbf0;
      }

      .cls-35 {
        fill: #47e5fb;
      }

      .cls-36 {
        fill: #46d9ed;
      }

      .cls-37 {
        fill: #42ddf3;
      }

      .cls-38 {
        fill: #43e3f9;
      }
    </style>
  </defs>
  <title>Risorsa 46</title>
  <g id="Livello_2" data-name="Livello 2">
    <g id="illustrazioniINIZIALI">
      <g id="_01" data-name="01">
        <rect id="_01rett" data-name="01rett" class="cls-1" width="375" height="457.04"/>
        <g id="_01illustrazione" data-name="01illustrazione">
          <path class="cls-2" d="M91,197.1a91.38,91.38,0,0,0-1-11.27c-.33-2.53-.55-5.08-.88-7.61s-.8-5-1.1-7.57c-.44-3.61-1.66-7.08-1.64-10.78a59.23,59.23,0,0,1,2.68-19,15.86,15.86,0,0,1,9.52-10,27.08,27.08,0,0,1,12.28-2,47.82,47.82,0,0,1,11,2.23,108.78,108.78,0,0,0,16,4,49.82,49.82,0,0,0,18.64-.6,205.61,205.61,0,0,0,36.22-12.24,93.61,93.61,0,0,1,17.09-6A45,45,0,0,1,222.27,115c6.48.41,12.35,2.41,17.31,6.84a48,48,0,0,1,9,11.5c4.45,7.44,7.41,15.57,11,23.43,3.36,7.44,6.29,15.07,10,22.38a5.74,5.74,0,0,1-3.68,1.3c1.58.16,3.23-.38,4.75.43a1.15,1.15,0,0,1,.5.94,1,1,0,0,1-.11.41c-1.06,1-2.47,1.07-3.76,1.46-.16.07.06.29,0,.13s0-.07.08-.11a.65.65,0,0,1,.93.16c-.08.76-.74,1-1.24,1.33-7.09,4.83-15,7.63-23.33,9.34a137.59,137.59,0,0,0-15.87,3.79c-9.92,3.28-18.89,8.2-26.07,15.92a39.67,39.67,0,0,0-10.2,22.28c-.91,6.69-1.42,13.41-1.94,20.14-.44,5.73-.64,11.48-1.07,17.21-.55,7.36-.86,14.74-2,22-1.64,10.34-5.94,19.54-11.9,28.05a70.51,70.51,0,0,1-4.66,6,2.57,2.57,0,0,0-.56,2.74q1.09,3.43,2.12,6.89a3.08,3.08,0,0,1,.27,1.72.48.48,0,0,1-.49.36c-1.06-1.17-1.12-2.73-1.56-4.13-2.67-8.54-5.4-17.06-8.41-25.49-.13-.38-.37-.74-.18-1.17.47-.46,1-.21,1.54-.19,2.94.11,5.88.31,8.77-.51a12.88,12.88,0,0,0,6.44-3.84,3.76,3.76,0,0,0,.88-1.36c.2-.64.11-1.06-.7-1.06-3.26,0-5.77-1.66-8-3.76-3.51-3.26-5.31-7.5-6.66-12-1.76-5.81-3.1-11.73-5-17.51a48.89,48.89,0,0,0-7-14,2.94,2.94,0,0,1-.66-1.17c.08-.92.87-1.2,1.51-1.55,1.49-.81,3-1.49,4.54-2.31a119.56,119.56,0,0,0,13.58-8.46,45.17,45.17,0,0,0,5.44-4,18.25,18.25,0,0,0,4.47-7.35c.37-1.07.83-2.1,1.18-3.18a119.4,119.4,0,0,0,7.3-28.51,2.55,2.55,0,0,0,0-.68c0-.31,0-.67-.43-.76s-.5.16-.68.37a9.06,9.06,0,0,0-1,1.62c-2.48,4.58-3.91,9.56-5.48,14.48-1.36,4.23-2.6,8.49-4.18,12.65-2.18,5.72-6.3,9.8-11.26,13.08-5.22,3.45-10.38,7-15.72,10.25a3,3,0,0,1-1.46.68c-.68-.05-1-.61-1.29-1.08-.82-1.18-1.59-2.4-2.45-3.56a13.93,13.93,0,0,0-4.23-3.72c-.6-.36-1.16-.69-1.78,0-.16.17-.3-.08-.4-.22-.31-1.5.53-2.9.38-4.39.14-1.85.17-3.7.36-5.55a5.69,5.69,0,0,0,.11-2.94,1.94,1.94,0,0,1,1.1-2.33,14.59,14.59,0,0,0,6.21-8.2,33.25,33.25,0,0,0,1.47-16.91,26.43,26.43,0,0,0-2.92-8.5,7,7,0,0,0-2.76-2.8c.14-.47.57-.48.94-.59s.66-.2.62-.66a3.5,3.5,0,0,1,0-.77,8.31,8.31,0,0,0-3.5-6.87C137,180,133.1,179.62,129,180.57c-2.38.55-4.73,1.23-7.14,1.65-1.09.14-2.19,0-3.28.09-2.08-.13-4.12-.63-6.21-.72a10.19,10.19,0,0,0-8.48,3.07c-.37.34-.74.68-1.09,1-.08.09-.17.17-.26.26a6.32,6.32,0,0,0-1.27,1.44,3.42,3.42,0,0,1-.34.42,27.92,27.92,0,0,0-2.06,2.51,28,28,0,0,1-6.42,6.25C92,196.85,91.65,197.35,91,197.1Z"/>
          <path class="cls-3" d="M61.88,469.56c-3.56-3.56-5.4-8-6.49-12.81a41.86,41.86,0,0,1-.78-12.21A68.25,68.25,0,0,1,57,431.45a123.14,123.14,0,0,1,7.71-21.07c1.5-3.11,3.61-5.86,5.38-8.82,2.12-3.55,4.08-7.21,6.54-10.55a72.51,72.51,0,0,1,11.11-12.49,20.6,20.6,0,0,0,1.65-1.77c.29-1,1.26-1.39,1.95-2,5-4.5,10.18-8.71,16.32-11.59,1.8-.84,3.6-1.7,5.48-2.38,1.35-.49,1.76-.14,1.5,1.3-.6,3.29-1.31,6.56-1.83,9.86-.39,1.38-.41,2.84-.88,4.2-.68,1.09-1.86,1.56-2.85,2.25a68.85,68.85,0,0,0-19.86,22.2,103,103,0,0,0-12.07,32,54.38,54.38,0,0,0-.95,8.08c-.11,2.53.1,5.09,2,7.09.1.26.13.53.22.78.69,2,1.94,2.28,3.46.83C84.36,447,85.73,444,87.12,441c3.54-7.65,6.42-15.59,10.36-23.06a62.63,62.63,0,0,1,9.93-14.39,46.91,46.91,0,0,1,18-11.87,55.43,55.43,0,0,1,18.54-3.11c6-.07,12,.24,18,.63,5.08.33,10.14.11,15.22.19,1.43,0,2.85-.53,4.31-.22a2,2,0,0,1,.37.24c1.28.73,1.28.73,2-.51.38-.63,1.05-.67,1.66-.81a36,36,0,0,0,9.85-3.81c7.91-4.49,12.69-11.31,15-20A77.87,77.87,0,0,0,212.6,348c.47-9.52.21-19,.18-28.55,0-4.16,0-8.33.11-12.48.14-5.2.4-10.4.68-15.6.15-2.84.22-5.7.37-8.55.35-6.79.88-13.56,2.75-20.15a44.3,44.3,0,0,1,14.27-22A85.88,85.88,0,0,1,248.8,229c7.93-3.92,15.82-7.91,23.12-13,4.51-3.12,8.93-6.38,13.52-9.38a40.72,40.72,0,0,1,5.59-3.35,67.17,67.17,0,0,1,6.47-2.77,15.43,15.43,0,0,1,10.4.07c1.7.64,1.89,1.12,1.1,2.75a65.25,65.25,0,0,1-9.52,14c-6,7-13.32,12.51-20.89,17.71-12.3,8.45-24.48,17-35.81,26.8a85.09,85.09,0,0,0-9.92,9.66,41.93,41.93,0,0,0-9.2,21.61,72.56,72.56,0,0,0-.84,12.73c.13,3.71.5,7.41.88,11.1.47,4.46.83,8.93,1.25,13.39.47,4.92,1.23,9.8,1.8,14.71.33,2.88.6,5.76.73,8.66a91.7,91.7,0,0,1,0,9.22A33.9,33.9,0,0,1,222,380.26,50.26,50.26,0,0,1,198.6,399.5a76.71,76.71,0,0,1-18.74,4.5c-9.52,1.27-19,2.51-28.54,4-3.27.52-6.56.88-9.83,1.39-9.13,1.44-17,5.51-24.08,11.32a89,89,0,0,0-16.19,17.88c-4,5.65-7.51,11.56-11.19,17.38a69.6,69.6,0,0,1-8,10.63c-3,3.14-6.3,5.82-10.78,6.39C67.56,473.46,64.3,472.6,61.88,469.56Z"/>
          <path class="cls-2" d="M112.53,371.85c.26-2.86,1-5.63,1.5-8.45a3.55,3.55,0,0,0,.12-.66c0-.65.72-1.46.06-1.86-.36-.22-1.22.34-1.84.58a61.45,61.45,0,0,0-19.16,12.09,23.93,23.93,0,0,1-3.82,3.2c-3.58-2.39-7.21-4.72-10.62-7.36a61.15,61.15,0,0,1-15.14-16.93,37.6,37.6,0,0,1-4.92-13.58,54.19,54.19,0,0,1-.14-14.39c1.06-9.78,4.64-18.72,8.53-27.61,3.26-7.43,7.34-14.41,11.28-21.48a113.45,113.45,0,0,0,9.38-22.15,1.07,1.07,0,0,0,0-.27c.73-.29,1.32.16,1.93.4,5.65,2.23,11.11,4.93,16.95,6.68,4.94,1.48,9.92,2.12,15,.81a10.09,10.09,0,0,0,3-1.15c.48-.25.92-.77,1.58-.46a1.29,1.29,0,0,1,0,1.05c-1.09,3.64-2,7.33-3.13,10.95a167.33,167.33,0,0,0-4.84,23.54c-.23,1.75-.55,3.5-.65,5.26-.16,2.65.29,5.15,2.41,7.07a6.37,6.37,0,0,0,2.21,1.3,2.64,2.64,0,0,1,1.51.85c.19,2.2-.42,4.31-.65,6.47-1.15,10.83-3.55,21.45-5.52,32.14-1.35,7.31-2.63,14.63-4.07,21.92a5.22,5.22,0,0,1-.58,1.94A.32.32,0,0,1,112.53,371.85Z"/>
          <path class="cls-4" d="M270.64,181.12c-1.7-.59-3.47-.15-5.39-.36a27.55,27.55,0,0,1,4.3-1.61c2.81-.78,5.46-2.08,8.3-2.77.24-.06.42-.32.64-.49,2-1.32,4.26-2,6.4-3a92.19,92.19,0,0,0,13-7c5.29-3.5,10.71-6.83,15.38-11.18a2.94,2.94,0,0,1,1.09-.52c1.93-1.86,3.51-4,5.44-5.95-.67,2.15-1,4.34-1.55,6.49a2,2,0,0,1,.1,1.45c-.73,5.47-1.31,11-1.79,16.45a77.63,77.63,0,0,0-.19,12.87,50.33,50.33,0,0,1-.1,9.62,13.7,13.7,0,0,0,0,3.39c.41,3,.09,6,.34,8.94-.1.46-.28.93-.82.94s-.68-.42-.86-.78a29.88,29.88,0,0,0-2.94-4.72c-4.69-6.15-12-6.43-18.25-3.75-8.43,3.64-15.42,9.44-22.93,14.47a153.17,153.17,0,0,1-16.29,9.56c-5.34,2.69-10.8,5.16-15.82,8.45-6.64,4.35-12.78,9.25-17.27,15.92a47.12,47.12,0,0,0-7.28,20.16c-.64,4.53-.94,9.09-1.14,13.66q-.43,9.49-.82,19c-.22,5.34-.63,10.69-.43,16,.32,8.25.27,16.5.14,24.74s-.63,16.23-3.51,24a31.44,31.44,0,0,1-17.14,18.36,41.72,41.72,0,0,1-5.76,2,2.67,2.67,0,0,1-2,.1,1.69,1.69,0,0,1-.6-1.17c-2.24-10.3-5.06-20.45-7.89-30.59-.29-1-.9-2-.7-3.14.31-.82,1.12-1,1.78-1.36a47.76,47.76,0,0,0,14.8-11.77c5.53-6.56,8.47-14.29,10-22.64a112.62,112.62,0,0,0,1.43-13.36c.19-3.36.13-6.7.2-10,.09-4.44.18-8.88.33-13.31.3-8.6.94-17.19,3.14-25.57a47.77,47.77,0,0,1,7.69-16.69,39.57,39.57,0,0,1,13.52-11.35c5.42-2.86,11.13-5.08,16.8-7.38a164.28,164.28,0,0,0,22.35-10.56c5.33-3.17,10.37-6.71,13.85-12a8.61,8.61,0,0,0,1.54-7.09,6.83,6.83,0,0,0-3.81-4.31,14.63,14.63,0,0,0-4.88-1.51,9.15,9.15,0,0,1-1.2-.23A2.56,2.56,0,0,1,270.64,181.12Z"/>
          <path class="cls-5" d="M183.54,385.47a31.74,31.74,0,0,0,11.24-4.33c8.26-5,12.84-12.52,14.87-21.75a88.61,88.61,0,0,0,1.7-15c.4-8.43.32-16.85.1-25.27-.15-5.49.09-11,.19-16.43.12-6.46.56-12.91.78-19.38.13-3.87.42-7.74.81-11.6.93-9.22,3.14-18,8.73-25.68a57.39,57.39,0,0,1,13.54-12.75,95.53,95.53,0,0,1,14.39-8.25,170.56,170.56,0,0,0,27.39-16.45c4.11-3,8.2-6.06,12.83-8.18a38.6,38.6,0,0,1,8.22-3.21,14.45,14.45,0,0,1,13.73,5.16,27.9,27.9,0,0,1,3.25,5.26c.31.69.61.87,1,.1a.92.92,0,0,1,0,1.34c-.67-.85-.82-.06-1,.35a70.81,70.81,0,0,1-4.48,8.18A75.65,75.65,0,0,1,297.5,233a13.28,13.28,0,0,0-2.91,2.77,6.57,6.57,0,0,1-1.95,1.86c-4,3-8.22,5.8-12.35,8.67-5.21,3.63-10.32,7.38-15.46,11.11a252,252,0,0,0-20.89,17c-5.76,5.19-10.46,11.21-12.84,18.74a66.61,66.61,0,0,0-2.6,13.73c-.64,6.59.14,13.11.78,19.64.49,5,.89,9.92,1.4,14.87s1.29,9.7,1.8,14.56c.36,3.42.44,6.86.68,10.29a5.56,5.56,0,0,1-.34,2.13c-.26,6.29-1.15,12.42-4.31,18A48.33,48.33,0,0,1,218.06,399c-2.41,2.11-5,3.89-7.62,5.76-2,2-4.63,2.82-7.16,3.75-8.63,3.14-17.68,4.3-26.74,5.35-6,.69-11.93,1.72-17.89,2.6-3.9.58-7.82,1-11.71,1.67a45.77,45.77,0,0,0-9.56,2.6,3.49,3.49,0,0,1-1.71.32A46.34,46.34,0,0,0,125,427.19c-8.76,6.54-15.51,14.91-21.49,24C99.42,457.41,95.82,464,91.31,470a38.71,38.71,0,0,1-8,8.41c-7.15,5.2-14,3.69-18.86-3.37a15.87,15.87,0,0,1-2.59-5.48,13.94,13.94,0,0,0,5.79,3,11.66,11.66,0,0,0,8.06-1.44A27.36,27.36,0,0,0,84,463.81c6.34-7.89,10.93-16.95,16.77-25.17a116,116,0,0,1,9.65-11.82A66.49,66.49,0,0,1,123,416.22a48.82,48.82,0,0,1,20-7.41c5.86-.84,11.73-1.58,17.56-2.6,4.41-.77,8.89-1.2,13.35-1.75,8-1,16-2.17,23.67-4.92A45.13,45.13,0,0,0,210.58,392a50.85,50.85,0,0,0,10.4-11,34.45,34.45,0,0,0,5.89-15.34,81.46,81.46,0,0,0,0-15.65c-.34-5-1.2-9.9-1.73-14.85-.51-4.74-.88-9.49-1.36-14.23-.69-6.73-1.68-13.45-1.27-20.22.57-9.56,2.21-18.87,8.1-26.88a63.83,63.83,0,0,1,10.63-11.12q4.2-3.51,8.41-7c3.85-3.19,7.84-6.18,11.91-9.08,8.18-5.82,16.48-11.47,24.54-17.45,9.49-7,17.38-15.57,22.74-26.26.59-1.19.27-1.6-.77-2a15.65,15.65,0,0,0-13.3,1.19c-1.52.85-3.26,1.17-4.79,2.11-3.81,2.33-7.51,4.82-11.16,7.4-5.16,3.64-10.32,7.26-15.82,10.39-5,2.82-10.14,5.21-15.19,7.85a86.54,86.54,0,0,0-16.41,10.91,44.23,44.23,0,0,0-12.08,15.77,50.91,50.91,0,0,0-3.62,12.55,134.68,134.68,0,0,0-1.38,15.72c-.17,4.19-.33,8.39-.55,12.58-.28,5.24-.51,10.47-.5,15.71,0,10.59.18,21.17-.05,31.76-.17,8-.74,16-3.73,23.61A30.37,30.37,0,0,1,200.72,381a34.8,34.8,0,0,1-15.25,7.47c-.72.16-1.76.18-1.28,1.46.08.21,0,.36-.24.36-.85,0-1.8.24-2.29-.81,1.8,0,1.8,0,1.48-2a3.15,3.15,0,0,1-.06-1.7A.61.61,0,0,1,183.54,385.47Z"/>
          <path class="cls-2" d="M232.82,368.33c-.06-4.69-.36-9.37-.87-14-.42-3.88-1.1-7.74-1.55-11.62-.37-3.17-.57-6.36-.88-9.54s-.76-6.61-1-9.93c-.38-5.26-.91-10.49-.42-15.8a67.16,67.16,0,0,1,2.83-15,38.87,38.87,0,0,1,7.78-13.23c4-4.65,8.8-8.41,13.44-12.37,7.88-6.72,16.42-12.52,24.78-18.59,5.18-3.77,10.65-7.13,15.71-11.08.63-.49,1-1.3,1.94-1.42a33.6,33.6,0,0,1,1.3,7.63,49.46,49.46,0,0,1,0,9.86,45.67,45.67,0,0,1-3.37,13.52,72.64,72.64,0,0,1-11,17.62c-2.94,3.6-6.16,7-9.15,10.5a144.55,144.55,0,0,0-15.51,21.5c-2.49,4.38-4.91,8.8-7.15,13.31-3.89,7.81-6.86,16-10.12,24.09A122.89,122.89,0,0,1,232.82,368.33Z"/>
          <path class="cls-6" d="M91,197.1c3.12-1.72,5.42-4.35,7.68-7,.27,0,.34.18.37.4a16.72,16.72,0,0,1-8.14,8.38,20,20,0,0,1-6.54,1.64c4,1.26,7.47.27,10.69-2.11a32.1,32.1,0,0,0,5.38-5.72,52.22,52.22,0,0,1,4.14-4.85,10.22,10.22,0,0,1,7.21-3c3.55,0,6.82-1.35,10.2-2.15a17.79,17.79,0,0,1,2.09-.48,5.18,5.18,0,0,0-.84.08,1.47,1.47,0,0,1-1.24-.37c3.84-.83,7.56-2.36,11.57-2.15,4.68.25,9.36,2.9,10.65,8.16a2.21,2.21,0,0,1-.12,1.92,12.85,12.85,0,0,0-4-.33,6.12,6.12,0,0,0-4.54,2.88,9.81,9.81,0,0,1-5.19,4.16,17.18,17.18,0,0,0-4.7,2.42,7.29,7.29,0,0,0-3,6.11c0,.61,0,1.49,1,.67.55-.43.72,0,.79.46a12.77,12.77,0,0,0,.28,2.29,38.71,38.71,0,0,0,2.31,12.17,1.25,1.25,0,0,1,0,.67.82.82,0,0,1-.42.53,4.11,4.11,0,0,0-1.21.6c-2.29,2.33-5.28,2.73-8.29,2.78-3.35.06-6.69.5-10,.32-3.06-.16-6.1-.17-9.07-1.22a19.7,19.7,0,0,0-10.2-.54,20.89,20.89,0,0,1-7.14.49A16.34,16.34,0,0,1,73.69,221a34.17,34.17,0,0,0-5.34-3.49c-2.72-1.31-5.54-1.11-8.38-.59-.13,0-.2.18-.24.31a14.3,14.3,0,0,1-7.82-2.12c-3.94-2.67-3.61-9.16.58-11.39,2.92-1.55,6.21-1.87,9.27-3a31,31,0,0,1,12.56-2,80.15,80.15,0,0,0,8.48.5A16.08,16.08,0,0,0,91,197.1Z"/>
          <path class="cls-2" d="M135.67,421a47.7,47.7,0,0,1,14.17-3.77c4.14-.57,8.27-1.22,12.4-1.82s8.1-1.16,12.15-1.71c7.48-1,15-1.8,22.35-3.67a58.64,58.64,0,0,0,13.7-5.32,42,42,0,0,1-4.28,6,101.28,101.28,0,0,1-10.25,11.69c-6.29,6-13.55,10.08-22.25,11.46-7.45,1.18-14.57-.12-21.54-2.57a42.48,42.48,0,0,1-13.3-7.76C137.79,422.71,136.72,421.89,135.67,421Z"/>
          <path class="cls-2" d="M88.87,249.37c.84-3.28,2.53-6.31,2.91-9.73a3.65,3.65,0,0,0,.06-.54c-.09-2.21.15-4.41.26-6.62.08-1.62-.45-3.22-.26-4.85,1.06-.77,2.14-.26,3.22-.09,2.08.57,3.84,1.82,5.72,2.8,3.3,1.71,6.75,2.37,10.23,1.11,3.06-1.11,6.19-1.13,9.32-1.5a26.32,26.32,0,0,0,4.56-.66,20.28,20.28,0,0,0,5.14-1.86,2.37,2.37,0,0,1,1.23-.46c1.38.56,2.67,1.31,4,2a1.61,1.61,0,0,1,1,1.36,67.9,67.9,0,0,1,.19,11.48,38.37,38.37,0,0,1-2.79,2.93,29.25,29.25,0,0,0-4,6.46c-.29.6-.5,1.29-1.29,1.48a52.3,52.3,0,0,1-14.6,2.22,58.35,58.35,0,0,1-10-.77,58.81,58.81,0,0,1-13.25-3.49C89.91,250.34,89.15,250.17,88.87,249.37Z"/>
          <path class="cls-7" d="M125.05,229.6a38.59,38.59,0,0,1-8.76,1,6.91,6.91,0,0,0-2.63.48c-4.75,1.91-9.39,1.87-13.9-.82-1.5-.9-3.12-1.61-4.68-2.41-2.41-.75-4.86-.51-7.31-.32-1.65.13-3.25.59-4.88.86l-.86.25a2.05,2.05,0,0,0-1.32,0,9.8,9.8,0,0,1-9.78-5c-2.62-4.29-6.42-6.11-11.21-6.38,0,0,0-.1-.07-.11l-.49-.2a12.37,12.37,0,0,1,11,1.13c1.91,1.34,3.78,2.77,5.75,4a13,13,0,0,0,10.13,1.64,24,24,0,0,1,14.06.75c2.09.78,4.17.41,6.25.62a31.74,31.74,0,0,0,6.78-.14c2.11-.25,4.25,0,6.37-.3a8.53,8.53,0,0,0,5.59-2.43,1.68,1.68,0,0,1,1.57-.61c.56.21.72,1,1.39,1a3.41,3.41,0,0,1,1.4,2.57c-.12,2.18-1.19,3.33-3.84,4.13C125.43,229.43,125.18,229.35,125.05,229.6Z"/>
          <path class="cls-5" d="M316.34,209.09v-1.34a12.11,12.11,0,0,1-.26-3.77c.09-2.23-.32-4.44-.25-6.65.11-3.53.34-7.06.22-10.59,0-1.26-.21-2.52-.24-3.79a130.32,130.32,0,0,1,1-16.86c.35-3.35.78-6.69,1.15-10a11.28,11.28,0,0,1,.3-1.31c1.17-1,1.86-2.47,3.3-3.61-.71,3.26-1.83,6.14-1.92,9.23-.12,4-.78,7.92-1.15,11.89a80.52,80.52,0,0,1-.8,8.37,1.75,1.75,0,0,1-.23.84c1-4.08,2.28-8.11,2.67-12.33a25.69,25.69,0,0,0,0-4.61c0-.49-.19-1,.26-1.39a11.33,11.33,0,0,1,5.4,8.4c1,6-.61,11.68-2.26,17.34a94.3,94.3,0,0,1-4.93,13c-1.19,2.58-.95,5.17-.78,7.82,0,.18.13.35.11.52,0,.41.28,1-.27,1.19s-.56-.49-.74-.82A15.5,15.5,0,0,1,316.34,209.09Z"/>
          <path class="cls-3" d="M314.39,154.2c-4.83,4.66-10.51,8.17-16.07,11.84a95.08,95.08,0,0,1-19.84,9.85c4.75-4.85,9.33-9.87,14.38-14.42a37.89,37.89,0,0,1,8.91-6.44c3.89-1.84,7.89-2.77,12.08-.91A1.92,1.92,0,0,0,314.39,154.2Z"/>
          <path class="cls-8" d="M88.87,249.37a47.17,47.17,0,0,0,12,3.82,59.13,59.13,0,0,0,12,1.26,48.05,48.05,0,0,0,14.34-1.91c.45-.14.89-.46,1.38-.1,0,0,.08.08.07.11a13.92,13.92,0,0,1-2.58,6.71,10.76,10.76,0,0,1-4.33,1.91c.05-.91.93-.83,1.44-1.2s1.09-.5.92-1.17-.77-.74-1.31-.78a35.73,35.73,0,0,0-5.83,0,43.32,43.32,0,0,1-13.47-.93,83.71,83.71,0,0,1-20.86-7.19,28.3,28.3,0,0,0-4.4-2.38,25,25,0,0,1-5.1-3.7c-2.19-1.86-4.57-3.54-6.29-5.91-.16-.22-.48-.42-.48-.63,0-.56-.69-1.2-.11-1.6s1,.26,1.4.57a203.64,203.64,0,0,0,19.1,12.26A23,23,0,0,0,88.87,249.37Z"/>
          <path class="cls-9" d="M78.24,247.48c.5-.58.94-.09,1.3.15,5.81,3.71,12.25,5.89,18.82,7.75a65.42,65.42,0,0,0,13.12,2.27c3.55.26,7-.47,10.54-.11a7,7,0,0,1,1.73.26c.51.18.91.43,1,1A1.14,1.14,0,0,1,124,260c-.74.41-1.49.79-2.24,1.19-5.45,1.51-10.76.65-16-1-6.17-1.95-12-4.85-18-7.19a88.07,88.07,0,0,1-8.92-5A6.65,6.65,0,0,1,78.24,247.48Z"/>
          <path class="cls-10" d="M320.45,163.13c.91,6.54-1,12.63-2.93,18.72.17-3.28.27-6.55.69-9.8.38-2.89.56-5.8.88-8.7a8.39,8.39,0,0,1,.55-3A13.57,13.57,0,0,1,320.45,163.13Z"/>
          <path class="cls-11" d="M82.89,228.4a24.51,24.51,0,0,1,11.25-1,1.41,1.41,0,0,1,.94.48,12.92,12.92,0,0,0-3.23-.22,28.68,28.68,0,0,0-7.38.65A10.19,10.19,0,0,1,82.89,228.4Z"/>
          <path class="cls-12" d="M80.7,228.68a1,1,0,0,1,1.32,0Z"/>
          <path class="cls-3" d="M282,187.33c1,3.47-.5,6.29-2.49,8.9-3.49,4.57-8.09,7.83-13,10.71-8.53,5-17.68,8.67-26.82,12.37a96.5,96.5,0,0,0-15.64,7.5,39.13,39.13,0,0,0-15.75,19.61,68,68,0,0,0-3.86,16c-.55,4.34-.88,8.69-1.14,13.05-.19,3.13,0,6.25-.22,9.36-.33,4.8-.07,9.6-.29,14.39-.37,8.2-1.09,16.36-3.74,24.22a44.34,44.34,0,0,1-18.73,23.81c-1.91,1.22-4,2.18-5.84,3.42-.52-.05-.62-.49-.72-.86-.66-2.39-1.38-4.75-2.12-7.11a12.71,12.71,0,0,1-.09-1.33c-.72-2.41-1.26-4.9-2.2-7.22s-.39-3.74,1.11-5.5a70.57,70.57,0,0,0,13.8-24.74,59.71,59.71,0,0,0,2.26-11.07c.65-5.59,1-11.2,1.38-16.82.27-4.5.52-9,.83-13.49.36-5.2.72-10.41,1.27-15.6.41-4,.75-8,1.39-11.91a40.42,40.42,0,0,1,8.91-19.7c4-4.77,8.86-8.28,14.12-11.44,8.25-5,17.35-7.34,26.67-9.18,6.54-1.29,13-2.85,19-5.92a50.22,50.22,0,0,0,8.07-4.91,1.49,1.49,0,0,1,1.37-.4,28.55,28.55,0,0,1,9.15,1.61A7.8,7.8,0,0,1,282,187.33Z"/>
          <path class="cls-13" d="M126.09,259.25a56.64,56.64,0,0,0,2.5-6.82c1.34-2.05,2.05-4.46,3.62-6.38,1.18-1.45,2.2-3.07,3.91-4,.39.26.32.7.39,1.07s.09,1,.67,1.17.87-.29,1.19-.65a.79.79,0,0,1,.32-.22c.28-1,.77-1,1.66-.55,3.2,1.61,5.1,4.42,7,7.26.34.52.71,1,1.06,1.53,0,.64-.67.65-1,1-.5.47-1.1.93-.91,1.69s.93.92,1.59,1.09a3.26,3.26,0,0,0,1.48-.09c.43-.09.87-.31,1.29.06,4.28,5.33,6.83,11.49,8.78,18s3.11,13,5.71,19.23a19,19,0,0,0,7.91,9.59,8.17,8.17,0,0,0,5.2,1.41c.69-.09,1.09-.11.86,1-.37,1.83-1.71,2.77-2.95,3.71a14.56,14.56,0,0,1-8.91,2.89,35.81,35.81,0,0,1-6.21-.24,15.06,15.06,0,0,0-4.11-.2c-3.14-.38-6.25-1-9.42-1.14a115.8,115.8,0,0,0-13.81,0,5.21,5.21,0,0,1-2.41-.12c-.47-.44-.08-.66.26-.72,3.8-.64,7.59-1.32,11.47-.74.09,0,.14.09.12,0a25.68,25.68,0,0,1-4-1.19,29.18,29.18,0,0,1-8.68-4.44c-3.72-3-5.29-7-5.94-11.55s-.78-9.3-1.37-13.93a25.29,25.29,0,0,1-.45-5.8Z"/>
          <path class="cls-8" d="M138.68,243.4c-.14.87-.65,1.43-1.52,1.33s-1-.9-1-1.64c0-.35,0-.7,0-1.06a105.73,105.73,0,0,0-.17-11.75c0-.65-.39-.82-.85-1a27.68,27.68,0,0,1-4.25-2.3c-1.15,0-1.29-1.05-1.71-1.79a3.89,3.89,0,0,0-1.34-2.44c-.63-.26-.67-.86-.81-1.41a34.08,34.08,0,0,1-2.52-13c-.28-2.37-.3-4.63,1.48-6.6a7.16,7.16,0,0,1,3.5-2.17,11,11,0,0,0,4.24-1.71,8.87,8.87,0,0,0,2.54-3.29,5.75,5.75,0,0,1,5.71-3.37.62.62,0,0,1,.55.33c1.85.11,2.37,1.68,3.1,2.93a25.35,25.35,0,0,1,2.82,8.15,21.75,21.75,0,0,0-.59,4.54,37.75,37.75,0,0,1-2.64,9.38c-.85,2.24-1.89,4.42-2.58,6.72-.16.53-.58,1.31,0,1.62s.93-.51,1.31-.91a16.4,16.4,0,0,0,1.91-3c.25-.43.35-1.08,1.09-1a14.63,14.63,0,0,1-6.49,8.38,1.39,1.39,0,0,0-.78,1.85,3.88,3.88,0,0,1-.13,2.86c-.69-.6-.12-1.59-.84-2.49-.26,3.34-.79,6.39-.16,9.23,0,.45.31.28.13.3s0,0-.05-.06c-.09-.56-.07-1.07.59-1.29C139.4,240.36,138.55,241.83,138.68,243.4Z"/>
          <path class="cls-8" d="M157.42,310.37a4.68,4.68,0,0,1,3.8.54c2,5.23,3.76,10.55,5.45,15.9l4.67,14.83a26.11,26.11,0,0,1,1.8,5.35c3.14,10.65,6.16,21.34,8.72,32.15a51.31,51.31,0,0,1,1.38,6.61c.11.92.17,1.85.34,2.75.33,1.76.31,1.81-1.34,1.3a4.59,4.59,0,0,1-.59-.28v0a14.27,14.27,0,0,1-1.57-3.17c-.47-1.31-1-2.59-1.54-3.88a2.93,2.93,0,0,1-.14-.35,12,12,0,0,0-.69-1.9,2.76,2.76,0,0,1-.14-.34,17.88,17.88,0,0,0-1-2.77,2.91,2.91,0,0,1-.15-.37c-.51-1.55-1-3.09-1.54-4.64-.17-.54-.5-1.1-.06-1.67.69.08,1-.11.77-.89a76.84,76.84,0,0,0-2.76-7.67c-1.74-4.62-3.22-9.34-5-14-1.16-3-1.41-6.27-2.19-9.39-1.24-4.93-2.87-9.74-4.22-14.63-.9-3.27-1.47-6.63-2.63-9.84a3.43,3.43,0,0,0-1.64-2.19C156.77,311.28,156.42,310.7,157.42,310.37Z"/>
          <path class="cls-8" d="M150.84,255.36c-1.09.14-2.13.79-3.27.29-.65-.28-1.43-.48-1.57-1.3a2.09,2.09,0,0,1,1-1.92,8.39,8.39,0,0,1,1.39-.79,77.48,77.48,0,0,0,6.89-4.32c3.78-2.4,7.47-4.93,11.21-7.39,6.24-4.11,9.83-10,11.93-17.07,1.74-5.83,3.47-11.68,5.66-17.37a39.83,39.83,0,0,1,3.17-6.53c.36-.59.83-1.19,1.45-.88s.59,1.09.51,1.68a118.91,118.91,0,0,1-4.16,19.4c-.84,2.84-1.72,5.66-2.83,8.41a2.59,2.59,0,0,1-.59,1.18c-.67-1,.24-2.08,0-3.19a63,63,0,0,0-3.59,6.72,25.55,25.55,0,0,1-6.55,8.39,74.56,74.56,0,0,1-7.93,5.46c-2.93,1.79-5.77,3.72-8.57,5.79.67,0,1.27-.61,1.91-.08-1.67,1.27-3.77,1.78-5.46,3C151.24,255,151,255.19,150.84,255.36Z"/>
          <path class="cls-14" d="M123.43,181.92c.48.06,1-.15,1.58.16a14,14,0,0,1-3.49,1.1c-3.58.92-7.1,2-10.88,2.09-3.12.08-5.43,2.08-7.35,4.42s-3.75,4.76-5.79,7c-3.28,3.59-8.16,5.72-12.93,4.33a2.86,2.86,0,0,1-1.6-.88c7.49,0,12.59-3.55,16-9.78a19.35,19.35,0,0,1,1.88-2.8l.22-.21a13.67,13.67,0,0,0,1.41-1.65h0a6.81,6.81,0,0,0,1.43-1.27,13.1,13.1,0,0,1,8.34-3.27,62.28,62.28,0,0,1,6.33.78A21.43,21.43,0,0,0,123.43,181.92Z"/>
          <path class="cls-15" d="M156.92,251.84l-2.6.59c.19-.7.67-.9,1.08-1.22,5-3.88,10.8-6.72,15.77-10.71a25.47,25.47,0,0,0,6.38-8c1.18-2.19,2.13-4.5,3.45-6.61.26-.41.54-.81,1-1.51.35,1.72-.44,3-.37,4.34-1.53,5.31-3.85,10-8.79,13.15-4.13,2.67-8.19,5.48-12.38,8.08C159.34,250.69,158.1,251.22,156.92,251.84Z"/>
          <path class="cls-14" d="M142.47,191.51c-3-.09-5.09,1-6.31,3.9-1.12,2.64-3.48,3.88-6.18,4.36a7,7,0,0,0-4.85,3.78c-.88,1.48-.58,3.16-.68,4.77-.44-.78-.15-1.66-.28-2.5-.61.19-.73,1.24-1.35.94s-.54-1.08-.53-1.72c0-3.49,1.86-5.84,4.83-7.41a28.39,28.39,0,0,1,3.33-1.5,8.5,8.5,0,0,0,4.8-3.95c1.47-2.74,5.39-3.56,7.69-2.93a1.94,1.94,0,0,1,1.17.6l.2.5a1.57,1.57,0,0,1-.75.79C143.28,191.47,142.84,191.39,142.47,191.51Z"/>
          <path class="cls-15" d="M146.89,220c-1.17,1.37-1.63,3.21-3,4.47-.13.12-.17.37-.3.44-.46.22-.78.94-1.37.63s-.4-1-.27-1.49a55.09,55.09,0,0,1,2.83-7.59,37.39,37.39,0,0,0,2.89-11.6c0-.71-.28-1.76.71-2.26.2,1.82.54,3.65.56,5.47A31,31,0,0,1,146.89,220Z"/>
          <path class="cls-16" d="M282,187.33a17.43,17.43,0,0,0-5.8-2.68,35.12,35.12,0,0,0-8-.8l-1.13-.09,0-.19,3.83-1.38a3.51,3.51,0,0,1,2.25-.77c3.67.6,7,1.74,8.79,5.4A2.18,2.18,0,0,1,282,187.33Z"/>
          <path class="cls-17" d="M183.25,385.74c-1-4.1-2-8.2-3-12.3-1.83-7.41-3.93-14.74-6-22.08-.93-3.26-1.94-6.49-2.91-9.73l.24-.29c1.08,2.84,1.78,5.8,2.69,8.69.07.21.16.41.25.61.84,3.1,1.67,6.21,2.53,9.31,2.32,8.28,4.59,16.58,6.27,25a2.47,2.47,0,0,0,.21.49Z"/>
          <path class="cls-18" d="M139.14,238.77c-.39.49-.18,1.23-.72,1.73a11.65,11.65,0,0,1-.53-5.73c.12-1.21.14-2.42.23-3.62,0-.47.14-1.15.7-1.13s.65.64.64,1.18,0,1.26,0,1.89Z"/>
          <path class="cls-19" d="M112.22,181.17a9.26,9.26,0,0,1-2.49.55,15,15,0,0,0-5.9,2.91.18.18,0,0,1-.33,0A10.37,10.37,0,0,1,112.22,181.17Z"/>
          <path class="cls-20" d="M100.82,187.56a8.74,8.74,0,0,1-1.88,2.8l-.23-.27A11.47,11.47,0,0,1,100.82,187.56Z"/>
          <path class="cls-21" d="M123.43,181.92a10.11,10.11,0,0,1-4.88,0l3.48,0Z"/>
          <path class="cls-22" d="M273.12,181.42a5.35,5.35,0,0,1-2.25.77l0-.28c.21-.46.69-.55,1.06-.79Z"/>
          <path class="cls-23" d="M102.45,185.7a2.48,2.48,0,0,1-1.41,1.65C101.21,186.55,101.86,186.15,102.45,185.7Z"/>
          <path class="cls-24" d="M272,181.12c-.17.51-.7.54-1.06.79l-.26-.78Z"/>
          <path class="cls-23" d="M103.5,184.62l.33,0c-.37.48-.68,1-1.39,1.07A3,3,0,0,1,103.5,184.62Z"/>
          <path class="cls-25" d="M143.57,191.13l.75-.79C144.22,190.75,144.44,191.46,143.57,191.13Z"/>
          <path class="cls-4" d="M78,447.74c-1.3-.78-1.63-2.11-1.88-3.44-.61-3.34-.09-6.64.42-9.93A94.6,94.6,0,0,1,83.15,412,90,90,0,0,1,95.3,391.06a67.53,67.53,0,0,1,16.37-14.85c.49,1.48-.35,2.9-.23,4.36a1.61,1.61,0,0,1-.08.4c-.12.66-.14,1.37.64,1.55s1.09-.46,1.33-1.08c.37-1,.67-2,1-2.94a15.21,15.21,0,0,0,.59-1.94,2.79,2.79,0,0,1,.11-.36,8.38,8.38,0,0,0,.52-1.75,2.68,2.68,0,0,1,.11-.36,1.85,1.85,0,0,1,.67-1,87.82,87.82,0,0,1,15.53-6.79c11.8-4.12,23.68-8,35.24-12.8a3.66,3.66,0,0,1,1.43-.39.82.82,0,0,1,.4.15c.67,1.1.72,2.43,1.27,3.57,1.33,3.86,2.26,7.86,3.79,11.65.79,2.87,1.7,5.71,2.77,8.49v0c.44,1,.61,2.05,1.1,3v0c.34.71.44,1.51.83,2.2v0c.41,1.11.81,2.23,1.3,3.32.13.29.28.56.07.87-1.69.82-3.54.74-5.32.79-3.8.12-7.62.19-11.42,0s-7.59-.57-11.38-.67c-8.55-.22-17.14-.59-25.49,2a46.73,46.73,0,0,0-18,10.43c-6.71,6.18-11.06,13.94-14.84,22.09-3.15,6.79-5.67,13.85-9.09,20.51a21.52,21.52,0,0,1-3.24,4.85C80.43,447.26,79.56,448.47,78,447.74Z"/>
          <path class="cls-26" d="M78,447.74A3.79,3.79,0,0,0,81.14,446c3.17-3.9,5-8.54,6.9-13.08,3.59-8.39,6.91-16.91,12-24.56,6.68-10.07,15.59-17.21,27.38-20.52a61.08,61.08,0,0,1,17.67-1.89c3.75.06,7.52,0,11.26.38,6,.55,11.93.48,17.9.5,1.94,0,3.84-.4,5.77-.55q.16-.23.32,0a11.7,11.7,0,0,1,1.34,3.27,5.7,5.7,0,0,0-2.65.07,98.9,98.9,0,0,1-15.33.15c-7.31-.39-14.62-.94-21.94-.72-11.53.36-21.85,4-30.66,11.61A58.56,58.56,0,0,0,98,417.81c-3.47,6.53-6.12,13.42-9.08,20.18a57.08,57.08,0,0,1-4.8,9.43,18.94,18.94,0,0,1-1.62,2c-.78.86-1.7,1.76-2.92,1.24A3,3,0,0,1,78,447.74Z"/>
          <path class="cls-27" d="M115.24,376.18a25,25,0,0,1-1.85,6,1.27,1.27,0,0,1-1.68.76,1.33,1.33,0,0,1-.8-1.57c.22-1.72.5-3.44.75-5.16a24.18,24.18,0,0,1,.87-4.36h.21c.48.54.15,1.12.06,1.67-.36,2.23-.78,4.44-1,6.69a7.84,7.84,0,0,0,0,1.08c0,.27,0,.58.32.7s.6-.16.74-.43c.59-1.12.82-2.39,1.31-3.55C114.41,377.36,114.29,376.44,115.24,376.18Z"/>
          <path class="cls-8" d="M115.24,376.18a39.3,39.3,0,0,0-1.73,4.86,2.62,2.62,0,0,1-.34.86c-.34.38-.62,1-1.29.76s-.56-.83-.53-1.28a39.88,39.88,0,0,1,.4-4c.29-1.84.66-3.67,1-5.51l2.84-15.16q1.47-7.84,2.93-15.68c.88-4.65,1.85-9.29,2.64-14,.59-3.48.91-7,1.46-10.5.38-2.42.46-4.89,1.08-7.28A10.2,10.2,0,0,1,130,309c.43.58,1.77.95.45,1.94-1.43-.23-2,.13-2.39,1.67a57,57,0,0,0-1.25,7.23c-.86,7.85-2.31,15.59-3.73,23.35a3.71,3.71,0,0,0,0,2,5.59,5.59,0,0,1-.28,2.53c-1.46,6.95-3.24,13.81-5,20.68-.1.35-.22.69-.32,1a36.36,36.36,0,0,1-1.61,4.83v0c-.24.62-.32,1.29-.57,1.92Z"/>
          <path class="cls-28" d="M130.17,309.38a22.48,22.48,0,0,0-6.48-.09,7.52,7.52,0,0,1-6.17-5.58,14.69,14.69,0,0,1-.06-6c.55-3.84,1.12-7.69,1.84-11.51a127.18,127.18,0,0,1,3.55-15.09,48.46,48.46,0,0,1,.82,5.72c.86,5.77.63,11.66,2.11,17.36a15.15,15.15,0,0,0,7.23,9.38,48.77,48.77,0,0,0,9.72,4,4.7,4.7,0,0,1,1.09.48,59.23,59.23,0,0,0-12.54,1.14C131,309.6,130.57,309.53,130.17,309.38Z"/>
          <path class="cls-29" d="M127,221.3c.45.37.51,1,.81,1.41-.88.16-.77-.69-1.11-1.08Z"/>
          <path class="cls-30" d="M129.13,225.15l1.71,1.8c.23.33,0,.5-.25.61a18.3,18.3,0,0,1-5.54,2c.85-.77,2.08-.89,2.92-1.74A3.17,3.17,0,0,0,129.13,225.15Z"/>
          <path class="cls-2" d="M130.17,309.38l1.11-.17c2.7.08,5.38-.27,8.09-.26a85.3,85.3,0,0,1,13.69.81c1.45.24,2.91.47,4.37.62-.5.38-.29.88-.22,1.36a31.41,31.41,0,0,1,1.45,5.07c1,4.81,2.74,9.37,4.08,14.07.45,1.57.94,3.12,1.33,4.7a2.26,2.26,0,0,1,.05,1.59,3.7,3.7,0,0,0-2,.86,71.68,71.68,0,0,1-17.63,11.66,177.6,177.6,0,0,1-18.81,7.12c-1.08.36-2.12.84-3.21,1.11a3.15,3.15,0,0,0-2.48,2.84c-.43,2.22-1.1,4.4-1.71,6.58-.14.49,0,1.26-.93,1.22,1.07-4.27,2.2-8.53,3.19-12.83.81-3.51,1.72-7,2.27-10.56a61.53,61.53,0,0,1,1.82-9.16c1.65-7.19,3.15-14.41,5-21.54.31-1.16.12-2.44.85-3.5C131.3,310.24,130.25,309.92,130.17,309.38Z"/>
          <path class="cls-9" d="M164,337.31a40.8,40.8,0,0,0-1.84-6.86c-1.88-5.73-3.41-11.56-5-17.38a5.08,5.08,0,0,1,0-1.35c1,.07,1.5.61,1.77,1.64,2.52,9.43,5.63,18.7,7.75,28.22,2,8.9,5.62,17.18,8.57,25.71.31.89.54,1.81.8,2.71.11.38.3.87-.11,1.11s-.57-.32-.87-.48l-.36-.18c-.7-.41-.55-1.27-1-1.82-1.74-3.77-2.62-7.81-3.84-11.75a18.44,18.44,0,0,0-1.12-3.58h-.13c-.78-.57-.8-1.48-1-2.3a3,3,0,0,0-.56-1.92A95.14,95.14,0,0,1,163.92,338,1.2,1.2,0,0,1,164,337.31Z"/>
          <path class="cls-31" d="M173.76,368.65c.61.46.61,1.24,1,1.82.51,2.23,1.59,4.28,2,6.54-1.25-2.27-1.78-4.82-2.72-7.2A1.8,1.8,0,0,1,173.76,368.65Z"/>
          <path class="cls-32" d="M180.32,386.25H180c-.29-1.41-1.26-2.61-1.35-4.09A16.16,16.16,0,0,1,180.32,386.25Z"/>
          <path class="cls-33" d="M177.85,380a6,6,0,0,1-1.1-3A6.58,6.58,0,0,1,177.85,380Z"/>
          <path class="cls-34" d="M178.66,382.19a3.32,3.32,0,0,1-.83-2.2A3.6,3.6,0,0,1,178.66,382.19Z"/>
          <path class="cls-3" d="M164,337.31c1,3.94,2.11,7.87,3.47,11.72.26.61.33,1.27.55,1.89l.65,2.4c-11.07,4.51-22.34,8.48-33.67,12.28a133.67,133.67,0,0,0-15.58,6.22c-1.06.51-2.08,1.09-3.12,1.63-.17-1.46.75-2.69.84-4.09,0-.28-.07-.59.21-.81,1-1.58,1-3.48,1.66-5.17a3.09,3.09,0,0,0,.26-1c0-3.36,2.12-4.61,5.05-5.52a137.13,137.13,0,0,0,22.89-8.88,65.84,65.84,0,0,0,13.67-9.36,15.69,15.69,0,0,0,1.64-1.4C163.16,336.43,163.59,336.42,164,337.31Z"/>
          <path class="cls-35" d="M117.15,369.36c.18,1.46-.77,2.68-.84,4.09-.4.14-.09.73-.52.85A20.83,20.83,0,0,1,117.15,369.36Z"/>
          <path class="cls-36" d="M168.8,353.32a6.24,6.24,0,0,1,1.12,3.58A12.47,12.47,0,0,1,168.8,353.32Z"/>
          <path class="cls-37" d="M115.23,376.2a2.73,2.73,0,0,1,.57-1.92A2.6,2.6,0,0,1,115.23,376.2Z"/>
          <path class="cls-15" d="M130.53,311c-.15,3.79-1.5,7.34-2.29,11-1.63,7.55-3.41,15.07-5.14,22.6a3.22,3.22,0,0,1-.28.61c-.74-1.2,0-2.4.13-3.54,1-6.16,2.41-12.24,3-18.49.3-3.44,1-6.84,1.62-10.24.21-1.19.56-2.38,2.12-2.61C130.34,310.19,130.45,310.48,130.53,311Z"/>
          <path class="cls-38" d="M168,350.92a3.11,3.11,0,0,1-.55-1.89A2.36,2.36,0,0,1,168,350.92Z"/>
        </g>
      </g>
    </g>
  </g>
</svg>
