<svg xmlns="http://www.w3.org/2000/svg" width="375" height="495.76" viewBox="0 0 375 495.76">
  <defs>
    <style>
      .cls-1 {
        fill: #fdb34c;
      }

      .cls-2 {
        fill: #0299ad;
      }

      .cls-3 {
        fill: #5ddacb;
      }

      .cls-4 {
        fill: #004b54;
      }

      .cls-5 {
        fill: #082320;
      }

      .cls-6 {
        fill: #026d7c;
      }

      .cls-7 {
        fill: #646464;
      }

      .cls-8 {
        fill: #fecebd;
      }

      .cls-9 {
        fill: #fe7a6e;
      }

      .cls-10 {
        fill: #5bd5c6;
      }

      .cls-11 {
        fill: #51c9bd;
      }

      .cls-12 {
        fill: #50bbad;
      }

      .cls-13 {
        fill: #4d8669;
      }

      .cls-14 {
        fill: #2b6259;
      }

      .cls-15 {
        fill: #68bfb3;
      }

      .cls-16 {
        fill: #2c6259;
      }

      .cls-17 {
        fill: #254a40;
      }

      .cls-18 {
        fill: #fe3d2c;
      }

      .cls-19 {
        fill: #5cd9ca;
      }

      .cls-20 {
        fill: #5cd8ca;
      }

      .cls-21 {
        fill: #5ad2c4;
      }

      .cls-22 {
        fill: #5cd7c9;
      }

      .cls-23 {
        fill: #59d0c1;
      }

      .cls-24 {
        fill: #5cd7c8;
      }

      .cls-25 {
        fill: #5ad4c5;
      }

      .cls-26 {
        fill: #5cd3c5;
      }

      .cls-27 {
        fill: #54c3b5;
      }

      .cls-28 {
        fill: #5bd5c7;
      }

      .cls-29 {
        fill: #5ad3c5;
      }

      .cls-30 {
        fill: #59cfc0;
      }

      .cls-31 {
        fill: #264c41;
      }

      .cls-32 {
        fill: #54c4b7;
      }

      .cls-33 {
        fill: #f2f2f2;
      }

      .cls-34 {
        fill: #58cec0;
      }

      .cls-35 {
        fill: #56c6b7;
      }

      .cls-36 {
        fill: #54c5b7;
      }

      .cls-37 {
        fill: #2a5e55;
      }

      .cls-38 {
        fill: #f7f7f7;
      }

      .cls-39 {
        fill: #4fb9ac;
      }

      .cls-40 {
        fill: #f8f8f8;
      }

      .cls-41 {
        fill: #fb6c5e;
      }

      .cls-42 {
        fill: #58cfc1;
      }

      .cls-43 {
        fill: #317067;
      }

      .cls-44 {
        fill: #315450;
      }

      .cls-45 {
        fill: #828282;
      }

      .cls-46 {
        fill: #2a4e41;
      }

      .cls-47 {
        fill: #64bfb1;
      }

      .cls-48 {
        fill: #5ac9b7;
      }

      .cls-49 {
        fill: #e8e8e8;
      }

      .cls-50 {
        fill: #38604e;
      }

      .cls-51 {
        fill: #4cafa2;
      }

      .cls-52 {
        fill: #316356;
      }

      .cls-53 {
        fill: #54c0b1;
      }

      .cls-54 {
        fill: #53c3b6;
      }

      .cls-55 {
        fill: #295a52;
      }

      .cls-56 {
        fill: #336e63;
      }

      .cls-57 {
        fill: #2f6358;
      }

      .cls-58 {
        fill: #2b554a;
      }

      .cls-59 {
        fill: #dbdbdb;
      }

      .cls-60 {
        fill: #50baad;
      }

      .cls-61 {
        fill: #306357;
      }

      .cls-62 {
        fill: #2d4f40;
      }

      .cls-63 {
        fill: #366655;
      }

      .cls-64 {
        fill: #63635a;
      }

      .cls-65 {
        fill: #326357;
      }

      .cls-66 {
        fill: #2d6259;
      }

      .cls-67 {
        fill: #2b655e;
      }

      .cls-68 {
        fill: #2e594a;
      }

      .cls-69 {
        fill: #fd786c;
      }

      .cls-70 {
        fill: #fecebe;
      }

      .cls-71 {
        fill: #024b54;
      }

      .cls-72 {
        fill: #fdcdbc;
      }

      .cls-73 {
        fill: #5fd6c7;
      }

      .cls-74 {
        fill: #18585f;
      }

      .cls-75 {
        fill: #5cd4c5;
      }

      .cls-76 {
        fill: #dcb5a8;
      }

      .cls-77 {
        fill: #b99e93;
      }

      .cls-78 {
        fill: #bda59c;
      }

      .cls-79 {
        fill: #59d0c2;
      }

      .cls-80 {
        fill: #5bd6c7;
      }

      .cls-81 {
        fill: #54c5b8;
      }

      .cls-82 {
        fill: #58caba;
      }

      .cls-83 {
        fill: #295348;
      }

      .cls-84 {
        fill: #2e645a;
      }

      .cls-85 {
        fill: #344e3a;
      }

      .cls-86 {
        fill: #29544a;
      }

      .cls-87 {
        fill: #2d4d3d;
      }
    </style>
  </defs>
  <title>Risorsa 43</title>
  <g id="Livello_2" data-name="Livello 2">
    <g id="illustrazioniINIZIALI">
      <g id="_02" data-name="02">
        <rect id="_02rett" data-name="02rett" class="cls-1" width="375" height="457.04"/>
        <g id="_02illustration" data-name="02illustration">
          <path class="cls-2" d="M158.35,448.95c-.38,7.3-.29,14.6-.27,22.1-3.42-1.42-6.71-2.76-10-4.13-2.68-1.13-5.35-2.31-8-3.46a4.47,4.47,0,0,0-.91-3.74,60,60,0,0,1-5-9.8,266.18,266.18,0,0,1-11.72-30.75,282.09,282.09,0,0,1-8-36.08c-1.47-9-2.9-18.07-3.9-27.18-1.27-11.65-2.36-23.33-3.73-35-1.86-15.87-3.85-31.72-7.18-47.32-.14-.64-.25-1.28-.34-1.93s-.12-1.46-.2-2.19c.11,1.45.26,2.89.26,4.35q0,9.26,0,18.52c0,5.79-.46,11.56-.31,17.35.22,8.35.26,16.7.37,25.06.06,4.33-.6,8.6-.41,12.91,0,.52.08,1.28-.72,1.35a4.35,4.35,0,0,1-.39-2.69q0-28.84,0-57.67c0-25.23.11-50.47-.05-75.7-.06-10.15-.19-20.3-.28-30.45a5,5,0,0,1,2.1-4.45c5.76-4.46,11.31-9.23,16.9-14l29.66-25a6.34,6.34,0,0,1,1.58-.84l9.53-7.9c.34-.28.63-.88,1.09-.63s.26,1,.2,1.46c-.46,3.63-.15,7.28-.2,10.91a3.57,3.57,0,0,1,.44,2.19q0,15,0,30.08c0,2-.57,3.87-.41,5.84.25,5.76.08,11.52.11,17.28-.09,2.53-.06,5.07,0,7.6,0,4.76,0,9.52,0,14.28a21.21,21.21,0,0,0,0,2.19q0,4.25,0,8.49c0,9.85,0,19.69,0,29.54a16.72,16.72,0,0,1,0,1.86,14.88,14.88,0,0,0,0,2.13c0,5.14,0,10.27,0,15.41,0,1.9.63,3.79.11,5.69-.76,1.11-1.49.38-2.15-.12a62.07,62.07,0,0,1-5.25-4.72c-2.35-2.22-4.56-4.61-7-6.75a6.45,6.45,0,0,0-2.42-1.51c-1.88-.55-2.91.58-2.37,2.65a15.74,15.74,0,0,0,3.33,5.9A40.6,40.6,0,0,0,153,288.89a19.17,19.17,0,0,1,5,3.86c.17.6.24,1.22.4,1.83a44.51,44.51,0,0,1,.09,5.08c.1,14.6,0,29.2,0,43.8,0,2.61-.21,5.23,0,7.83a14.54,14.54,0,0,1-.1,2.39,13,13,0,0,0,0,1.82q0,42.67,0,85.33c0,2.24,0,4.48.07,6.71A2,2,0,0,1,158.35,448.95Z"/>
          <path class="cls-3" d="M147.77,138.23c-3.36,3.14-7,5.94-10.45,8.89-8.28,7-16.53,14-24.83,21q-6.71,5.63-13.54,11.09a2.37,2.37,0,0,0-1,2.13c0,8.77,0,17.53.06,26.3.51,46.37.1,92.73.24,139.1,0,.76,0,1.53,0,2.29a2.88,2.88,0,0,1,.43,2c-.11,6.27.27,12.55-.23,18.82-.14,1.74.26,3.47.26,5.22,0,16.6.11,33.2-.08,49.79-.07,6.44-.19,12.87-.24,19.31A2.83,2.83,0,0,1,98,446c-7.56-.41-15-1.33-22.33-3.83A53.16,53.16,0,0,1,61,434.94a33.78,33.78,0,0,1-4.09-3.34A62.2,62.2,0,0,1,47.6,420,54.17,54.17,0,0,1,40.22,399a75.79,75.79,0,0,1-.46-14.48A114.65,114.65,0,0,1,46,354.36c2.42-7.11,5.06-14.12,7.73-21.11,4.05-10.63,8.79-20.92,12.63-31.66A202.75,202.75,0,0,0,74.54,274q1.47-7.17,2.28-14.46,1.08-9.59,1.49-19.23c.21-5,.39-10.09.59-15.13.2-4.88.29-9.77.56-14.64q.34-6.15.89-12.29c.42-4.61,1-9.2,1.43-13.82a113.59,113.59,0,0,1,2.67-17c2.26-9.35,5.84-17.89,12.4-24.51,5.39-5.44,11.54-9.15,18.86-10.38a41.75,41.75,0,0,1,9.76-.54,51.9,51.9,0,0,1,8.7,1.71A129.81,129.81,0,0,1,147.77,138.23Z"/>
          <path class="cls-3" d="M158,180.13c-.47-1.18.14-2.31.19-3.46s.16-2.15.17-3.24q0-15.68,0-31.35c2.52.49,5.05.95,7.56,1.5a27.23,27.23,0,0,0,3.46.45,189.67,189.67,0,0,0,20.7.34c4.81-.09,9.62-.52,14.42-1,5.89-.55,11.79-1.17,17.66-2,4.84-.67,9.8-1,14.42-2.71a91.22,91.22,0,0,1,9.14-2.89c2.49-.63,5-1.62,7.54-1.51,3.6.15,7.15-.76,10.74-.38,5.64.59,11.18,1.65,15.79,5.68a25.45,25.45,0,0,1,6.91,10.91,61,61,0,0,1,3.3,16.17,94.05,94.05,0,0,1-.61,17.5c-.91,8-3.08,15.78-4.28,23.74-.56,3.72-1.1,7.44-1.39,11.21a88.83,88.83,0,0,0-.51,10.05,69.56,69.56,0,0,0,1.07,12.24,9,9,0,0,1,.06,1.63c-.48.64-1.16.51-1.78.51-8.68,0-17.37.28-26-.06-10.7-.42-20.41-4.05-28.44-12.34a36.78,36.78,0,0,0-4.74-4.15,10.82,10.82,0,0,0-7.78-2.39,1.25,1.25,0,0,1-1.12-.22,2.37,2.37,0,0,1-.31-1.41c.16-4.91-.45-9.81-.32-14.72,0-1.26.11-2.35,1.39-2.91.9-.39,1-1.44,1-2.39-.16-3.87-.18-7.75-.39-11.6-.16-2.88-.05-5.79-.47-8.65a11.18,11.18,0,0,0-.1-1.14c-.27-1.07-.86-1.33-1.58-.55-1,1.12-2.06,1-3.21.29a8.19,8.19,0,0,0-6.54-1.06,32.2,32.2,0,0,1-13.41.77,31,31,0,0,0-4.26-.06,2.84,2.84,0,0,1-2.41-1,1.88,1.88,0,0,0-2.56-.4,10,10,0,0,1-8.44.32,6.47,6.47,0,0,0-2.91-.26c-2.17.19-4.42-.3-6.5.84a24.68,24.68,0,0,1-3.57.08A7,7,0,0,1,158,180.13Z"/>
          <path class="cls-4" d="M158.07,299.54q0-2.61,0-5.22a2.16,2.16,0,0,1-.14-1.24c.41-.55.81-.15,1.16.06,2.22,1.35,4.41,2.76,6.69,4,.38.21,1,.35.78,1.13a18.4,18.4,0,0,0-.16,2.41c-.25,3.69,0,7.37.12,11-.08.18.06-.08,0,.13s0,.17,0,0a128.81,128.81,0,0,1-.07-13.51.57.57,0,0,1,.87-.25c1.15.72,2.46,1.16,3.38,2.32a14.41,14.41,0,0,1,.12,3c0-.54,0-1.08,0-1.62s.27-1,.86-1a19.57,19.57,0,0,1,4.41,1.67c3.42,1.57,6.9,3,10.32,4.56a4.21,4.21,0,0,1,2,1.5c.46,1.25.15,2.57.26,3.86,0,.32,0,.69.29.87s.45-.06.63-.26a.79.79,0,0,0,.11-1,3.16,3.16,0,0,1-.52-2.73c.85-.33,1.42.25,1.89.84a14.82,14.82,0,0,1,2.88,5.53,4.25,4.25,0,0,0,.55,1.83,38.76,38.76,0,0,1,4.2,13.8,13.6,13.6,0,0,1-.05,1.46c-.1.77-.11.77.4.56a2.6,2.6,0,0,1,.65,1.61,190.77,190.77,0,0,1,2.87,20.86c.82,8.91,1.7,17.81,3.37,26.58a30.47,30.47,0,0,0,2,6.83,9.73,9.73,0,0,0,3,4c1.18,1.18,2.33.62,3.49-.06a.65.65,0,0,1,.61.43,23.51,23.51,0,0,1,.45,4.38,97.28,97.28,0,0,1-.18,15.17,14.38,14.38,0,0,0,.08,2.77,148.51,148.51,0,0,1,.74,15.67,3.48,3.48,0,0,1-.67,2.43,40.59,40.59,0,0,1-.71,5.06,2.82,2.82,0,0,0,.18,1.76,3.4,3.4,0,0,1-.28,3.83,2.17,2.17,0,0,0-.38,2.08,2.56,2.56,0,0,1-2.18,3.29,44.1,44.1,0,0,1-11.64-1.22,4.66,4.66,0,0,0-4.72,1.28,2.66,2.66,0,0,1-3.79-.18,1.53,1.53,0,0,0-1.72-.52,53.2,53.2,0,0,1-12,.89c-3.54,0-7.11-.15-10.66-.45-2.43-.21-4.88-1-7.38-.18-.53.17-1.25-.39-1.89-.62a18.69,18.69,0,0,1-.26-5.16q0-44.28,0-88.56a2.54,2.54,0,0,0,0-1.62c-.24-.69.2-1.3.18-2,.08-4.75.32-9.43,1.94-14,.89-2.49.16-5-.63-7.49-.23-.7-1.2-1.36-.43-2.14s1.55,0,2.24.49a.79.79,0,0,0,.3.18c-.41-5.75-.33-11.51-.77-17.24-.17-2.24,0-4.48-.08-6.72,0-1.5,0-3-1.8-3.38C158.27,301.2,158.28,300.24,158.07,299.54Z"/>
          <path class="cls-3" d="M298.16,280.85c3.41,8.27,7.22,16.33,10.75,24.53q3.78,8.79,7.88,17.4c4.15,8.69,8.78,17.09,12.51,26a82.12,82.12,0,0,1,6,22.18A37.32,37.32,0,0,1,332.6,391,67.33,67.33,0,0,1,324.67,404,51.74,51.74,0,0,1,314,414.83a49.24,49.24,0,0,1-20,8.65,118.94,118.94,0,0,1-13.83,1.94,3,3,0,0,0-.82.31c-.66-.3-.68-1-.81-1.64-2.23-11.2-5.06-22.24-7.54-33.37a209.33,209.33,0,0,1-3.57-21.92c-.52-4.6-.92-9.23-1.64-13.8a18.21,18.21,0,0,0-.68-2.67c0-1,.66-1.29,1.26-1.61a109,109,0,0,0,15.2-10.43c5.29-3.95,8.95-9.48,12.1-15.5,2.3-4.08,3.28-8.7,4.33-13.28a35,35,0,0,0,.92-5.44,17.56,17.56,0,0,0,0-4.88,3.84,3.84,0,0,0-3.1-3.43,15.85,15.85,0,0,0-3.65-.41,104.9,104.9,0,0,1-14.8-.67,2,2,0,0,1-1.25-.39c-.4-1,.37-1.15.87-1.22,4-.6,7.27-3.13,10.83-4.88a23.23,23.23,0,0,0,9-8.18C297.2,281.53,297.44,280.83,298.16,280.85Z"/>
          <path class="cls-5" d="M214.66,224.35c4.07-1,7.39.82,10.5,3.46,3.43,2.92,6.44,6.42,10.27,8.81a40.64,40.64,0,0,0,15.69,5.82c9,1.34,18.07.41,27.11.66,2.05.06,4.11,0,6.17,0a35,35,0,0,1,7.95.87c5.66,1.42,8.71,7.69,9.47,12.83.71,4.77-.43,9.17-1.83,13.56A24.15,24.15,0,0,1,287.14,287c-7.84,4.06-15.68,3.68-23.62-.19-6-3-11.72-6.61-17.46-10.16-4.92-3-10.17-3.29-15.58-2.78-4.88.46-9.72,1.34-14.65,1.18a17.42,17.42,0,0,1-11.58-4.48A24.54,24.54,0,0,1,196,251c.15-6.08,1-12.09,4.11-17.38a1.54,1.54,0,0,0,.25-1.23,1.69,1.69,0,0,1,.94-1.53,51,51,0,0,1,11.21-6.36A2.43,2.43,0,0,1,214.66,224.35Z"/>
          <path class="cls-6" d="M98,446c0-4.69-.09-9.39,0-14.08.43-18.44.24-36.88.2-55.32,0-9.21.05-18.42.06-27.64a1.24,1.24,0,0,0,.24-.91c0-3.6.3-7.17.47-10.75.09-2-.15-4-.16-6,0-4.31.2-8.65-.07-12.94a173.59,173.59,0,0,1-.16-17.5c.39-10.48.08-21,.22-31.43a2.38,2.38,0,0,1,.12-.77c1.61,8.31,3.42,16.56,4.65,25,1.12,7.7,2.11,15.43,3.13,23.15.76,5.74,1.21,11.52,1.83,17.28.56,5.17,1.29,10.31,1.7,15.49.81,10.06,2.36,20,3.92,29.92a321.93,321.93,0,0,0,7,33.79c3.86,14.31,9.38,27.83,15.45,41.1a33.09,33.09,0,0,0,3.61,6.14,2,2,0,0,1-.18,2.92,17.79,17.79,0,0,1-5.32-1.73C123,456.25,110.84,452,99,446.7A4.8,4.8,0,0,1,98,446Z"/>
          <path class="cls-3" d="M274.3,426c-4.54.51-9.09.84-13.65,1.07-3.73.19-7.45.6-11.16,1-2.7.27-5.38.64-8.08,1-.78-.35-.79-1.2-.94-1.91-.94-4.52-1.61-9.1-2.48-13.63-2.19-11.47-4.23-23-7-34.32a5.36,5.36,0,0,1-.26-3,24.68,24.68,0,0,1,5.95-6,217.59,217.59,0,0,1,20.68-14.33c.54-.34,1.13-1,1.87-.38a1.92,1.92,0,0,1,0,1.72,9.65,9.65,0,0,0-.3,4.85c1.78,9.73,3,19.58,5.06,29.23a155.61,155.61,0,0,0,7.42,23.77,98,98,0,0,1,2.83,9.64A1.83,1.83,0,0,1,274.3,426Z"/>
          <path class="cls-7" d="M200.47,232.23c.38.17,1,.19.48.93-2.85,4-3.62,8.86-4.27,13.73A28.14,28.14,0,0,0,198.11,261c2.7,7,9.16,13.6,17.53,13.66a120.41,120.41,0,0,0,15.06-1.31,25.14,25.14,0,0,1,18.14,4.45,105.37,105.37,0,0,0,16.62,9.4c12.51,5.82,28.79.17,34-15.74a12.61,12.61,0,0,1,.51-1.16,27.13,27.13,0,0,1-1.82,10.53c-3.24,5.32-7.75,8.7-13,11.32A57.31,57.31,0,0,1,276,295.9c-1.28,1.25-2.91,1.17-4.44,1.39-8.41,1.24-16-1.19-23.28-5.89-4.46-2.88-9-5.71-14-7.52a20.43,20.43,0,0,0-11.7-1c-2.42-.12-4.82.25-7.23.35-1.5.24-3,.31-4.51.62a3.76,3.76,0,0,0-.66.15,6.12,6.12,0,0,1-1.06.26,11.12,11.12,0,0,0-2.37.24,19.15,19.15,0,0,1-7.29-1.36,10.33,10.33,0,0,1-4.28-3.53c-3.24-4.92-5-10.54-6.36-16.38a27.31,27.31,0,0,1-.19-7.48,9.22,9.22,0,0,0,.27-1.65,15.48,15.48,0,0,1,.64-3,3,3,0,0,0,.44-1.56,19.37,19.37,0,0,1,1-4.38,2.48,2.48,0,0,0,.46-1.64c1.53-2.71,3.19-5.32,4.89-7.9a17,17,0,0,1,2.38-2.86C199.25,232.37,199.74,231.82,200.47,232.23Z"/>
          <path class="cls-8" d="M231.1,376c-.37,1.59.32,3,.66,4.44,2.62,11,4.6,22.16,6.69,33.3.9,4.79,1.77,9.58,2.66,14.36a6.76,6.76,0,0,0,.3.91c.95,5,2,9.93,2.81,15,2.3,15.14,6.1,29.92,8.54,45a13.22,13.22,0,0,1,.12,5.32c-.39,1.58-1.18,2-2.29.86-1.45-1.43-2.07-3.4-2.73-5.33a91.24,91.24,0,0,1-3.49-15.95,55.86,55.86,0,0,0-1.5-6C239.72,456,236.46,444.13,234,432c-.12-.58-.24-1.17-.37-1.75-.75-.47-.72-1.37-.92-2.13-2.42-9.07-3.51-18.45-5.17-27.7-.69-3.86-1.61-7.64-2.66-11.4a20.64,20.64,0,0,1-.93-4.94c.29-1.56,1.56-2.32,2.34-3.48A36.66,36.66,0,0,1,230,376.4C230.28,376.09,230.57,375.59,231.1,376Z"/>
          <path class="cls-3" d="M224.28,383.79c.42,4,1.86,7.66,2.69,11.53,1.67,7.73,2.6,15.62,4.11,23.39.76,3.88,1.72,7.71,2.58,11.57a34.61,34.61,0,0,1-5.89,1.34c-4.06.85-8.14,1.56-12.21,2.33a72.18,72.18,0,0,0-.08-11.84c-.16-2.31-.52-4.62-.53-6.93a75.9,75.9,0,0,1,.4-8.6,36.55,36.55,0,0,0-.1-4.2c0-3-.28-6.07-.42-9.11,0-.77.54-1,1-1.27a30.91,30.91,0,0,0,6.58-6.66C222.9,384.67,223.26,383.72,224.28,383.79Z"/>
          <path class="cls-8" d="M274.3,426c-2.14-9.38-6.19-18-8.78-27.19a208.24,208.24,0,0,1-4.72-23.72c-.65-4.07-1.4-8.12-2.09-12.18a11.08,11.08,0,0,1,.4-6.56,3,3,0,0,0,0-1.1c.83-1.5,2.41-1.67,3.63-2.47.72-.47,1.46-1.13,2.42-.76,1.41,1.59,1.28,3.75,1.47,5.67,1,9.79,2.19,19.54,4.07,29.17,1.76,9,4.07,17.79,6.13,26.68.94,4,1.69,8.13,2.53,12.2A50.69,50.69,0,0,0,281.95,437c.35.89.86,2,0,2.66s-1.49-.41-2.06-1.05c-2.36-2.69-3.35-6.21-4.66-9.54C274.86,428.09,274.61,427,274.3,426Z"/>
          <path class="cls-4" d="M195.41,279.45c3.12,3.76,7.19,4.57,11.51,4.64.21.23.49.44.52.77.16,1.81,1,3.39,1.41,5.11-.91,2.36-2.76,3.65-4.67,4.74a16.51,16.51,0,0,1-8.22,2.06c-.77-1,.38-1.43.48-2.1-.64.52-.69,1.54-1.29,2.17a34,34,0,0,1-14.38-1.37,60.75,60.75,0,0,0-6.41-1.78A43.82,43.82,0,0,1,159.48,287c-.66-.44-1.59-.76-1.47-2,.68-.71.4-1.66.3-2.43-.52-4-.16-8.05-.25-12.08-.05-2.35,0-4.7,0-7a3.65,3.65,0,0,0,0-2l-.06-1.68c.26-4.06.53-8.12.42-12.18-.15-5.87-.28-11.73-.28-17.6q0-4.11,0-8.22a8.32,8.32,0,0,0-.13-2.26V205c.54-2.5.16-5,0-7.49q0-8.71-.05-17.42c.53-.7,1,0,1.53.06a11.34,11.34,0,0,0,3.83,0c1.42-1.48,3.21-.87,4.84-1a16,16,0,0,1,5.93.57,8.12,8.12,0,0,0,7-.64c1.26-.79,2.39-.82,3.2.77.25.49.7.52,1.15.54,2.77.15,5.55.36,8.3.49a29,29,0,0,0,10.37-1.17,7.41,7.41,0,0,1,6.77,1.33c.68.48,1.69,1.09,2.28-.42a1.16,1.16,0,0,1,1.44-.81,1.62,1.62,0,0,1,1.16,1.67c.09,2,.19,4,.27,6q.31,7.91.6,15.82c.05,1.45-.28,2.63-1.85,2.72-.6,0-.57.49-.54.92.19,2.94,0,5.88.27,8.82s.1,5.67.13,8.51c-5.09,1.21-9.42,4.19-13.72,7.26a2.67,2.67,0,0,0-.46.62c-1.68.5-2.63,2-3.57,3.43a54.56,54.56,0,0,0-4.46,7.22,3.91,3.91,0,0,1-.8.89c.22.65-.15,1.12-.4,1.63a21.11,21.11,0,0,0-.81,4.25c-.44.44-.35,1.14-.63,1.65l-.54,2.54c-.24.49-.12,1.08-.37,1.57a26.2,26.2,0,0,1-3.5,9.76,8.07,8.07,0,0,1-3.31,3.12c-.66.31-.9.59-.25,1.21a40.22,40.22,0,0,1,4.67,6.05c2,2.85,4.59,4.33,7.94,3.73A1,1,0,0,1,195.41,279.45Z"/>
          <path class="cls-9" d="M158,285c.06.75.68.88,1.1,1.18a46.38,46.38,0,0,0,16.81,7.47c2.83.64,5.61,1.51,8.42,2.28,3.65,1,7.36.63,11.05.57a.34.34,0,0,1,.44,0,22.08,22.08,0,0,0,8.09-2.1,13.11,13.11,0,0,0,4.77-4.37.24.24,0,0,1,.27,0c1.85,1.21,1.85,1.21,2.58-1,1.5-1,2.76-2.44,4.38-3.27,2.3-1.14,4.38-2.86,7-3.21,6.68-1.86,12.61.94,18.29,4.13,3.86,2.17,7.76,4.34,11.45,6.88,3,2,6.4,2.21,9.65,3.14,4.72,1.35,9.2.29,13.74-.72,1.39.64,2.88.38,4.32.59a79.72,79.72,0,0,0,12.3.36,15,15,0,0,1,3.48.44c3,.69,3.52,3.18,3.46,6.7,0,.78-.17,1.61-.25,2.41a132.24,132.24,0,0,1-10.77,15.33,57.26,57.26,0,0,1-13.69,11.51A102.87,102.87,0,0,1,252.67,344c-12.32,4.1-23.22,1.13-32.89-8.14-2-1.89-3.81-3.94-5.65-6-2.67-3-5.46-5.81-8.3-8.58a25.41,25.41,0,0,0-8.22-5.33,7.42,7.42,0,0,0-3.87-.47,20,20,0,0,0-2.77-5.08,2,2,0,0,0-1.61-1c-.49,0-.69-.43-1-.7-1.36-1.35-3.12-1.79-4.74-2.51-3.9-1.74-7.83-3.4-11.75-5.1-.44-.31-1.08-.16-1.41-.73a20.08,20.08,0,0,0-3.9-2.18h0l-8.46-5.2c-.15-.05-.18-.28-.35-.31-2.29-1.58-4.57-3.18-6.88-4.73a36.66,36.66,0,0,1-9.61-9.28,15.18,15.18,0,0,1-2.23-4.58c-.58-2,.48-3.38,2.35-3.09a6.62,6.62,0,0,1,3.36,1.92c3.9,3.57,7.45,7.59,11.54,10.91C156.8,284.32,157.28,284.91,158,285Z"/>
          <path class="cls-3" d="M158.07,299.54c.46,1.15,1.05,2,2.37,1.68.37-.1.52.08.56.5.08.92.25,1.83.27,2.75.13,4.62,0,9.26.38,13.86.28,3.79-.05,7.6.54,11.43a4.86,4.86,0,0,0-2.25-1.64c-.29-.07-.59-.15-.77.23s.1.48.24.69c1.66,2.53,2.36,5.83,1.41,8.29-1.56,4.06-1.46,8.29-2.36,12.37a14.51,14.51,0,0,0-.17,1.94c-.4-.52-.23-1.15-.23-1.73Q158.06,324.72,158.07,299.54Z"/>
          <path class="cls-10" d="M158.31,230c.11,5.05.13,10.11.37,15.15a49,49,0,0,1,0,8.43,53.81,53.81,0,0,1-.62,6.21q0-14.9,0-29.8C158.17,229.84,158.24,229.84,158.31,230Z"/>
          <path class="cls-11" d="M158.05,197.56c.33,2.5,1.14,5,0,7.49Q158.06,201.3,158.05,197.56Z"/>
          <path class="cls-12" d="M158.31,230h-.22q0-4.25,0-8.49.13-.33.22,0Z"/>
          <path class="cls-13" d="M158.3,221.52l-.22,0q0-1,0-2C158.56,220.14,158.33,220.85,158.3,221.52Z"/>
          <path class="cls-14" d="M158.12,261.47a1.75,1.75,0,0,1,0,2Z"/>
          <path class="cls-15" d="M157.74,292.74l.35.31,0,1.28C157.63,293.88,157.81,293.27,157.74,292.74Z"/>
          <path class="cls-16" d="M158.12,353.6a1.3,1.3,0,0,1,0,1.62Z"/>
          <path class="cls-17" d="M163.36,180.18a5.29,5.29,0,0,1-3.83,0Z"/>
          <path class="cls-18" d="M193.73,315.51a2.27,2.27,0,0,1,2.34-.43c4.57,1.21,8.32,4,11.69,7.51s6.71,7.35,10.16,10.92c5.35,5.52,11.31,9.86,18.66,11.36a27.61,27.61,0,0,0,13.5-.58,91.33,91.33,0,0,0,34-18.53c3.7-3.18,6.61-7.24,9.46-11.35,1.87-2.71,3.52-5.62,5.76-8a80,80,0,0,1-3.46,14.43,24.24,24.24,0,0,1-2,4.26c-1.82,2.91-4,5.51-5.88,8.35a43.86,43.86,0,0,1-6.29,7.08,95.22,95.22,0,0,1-14.78,10.39c-.6.35-1.19.74-1.78,1.11l-6,3.23c-5,2.46-9.37,6.09-14.05,9.15a71.58,71.58,0,0,0-12.94,10.44c-.36.37-.69.77-1,1.16a60.9,60.9,0,0,0-6.82,7.8c-1.09,1.25-2.21,2.47-3.25,3.77a32.6,32.6,0,0,1-6.21,5.7l-.4,0a3.39,3.39,0,0,1-3.4.31c-2.08-1.15-3.07-3.29-3.88-5.53a63.57,63.57,0,0,1-2.56-11.92c-1.54-9.69-2.07-19.51-3.26-29.24a101.94,101.94,0,0,0-2.37-13.63c-.4-.59-.18-1.38-.5-2-.86-4.89-1.72-9.8-4.42-14A2.1,2.1,0,0,1,193.73,315.51Z"/>
          <path class="cls-19" d="M185.94,406.8c.87-5,1.85-9.65,3-14.21.24-1,.77-1,1.44-.91s.46.68.39,1.12A38.33,38.33,0,0,1,185.94,406.8Z"/>
          <path class="cls-20" d="M184.57,309c.11,2.65-.24,5,.22,7.3a1.31,1.31,0,0,1-.58,1.21,24.34,24.34,0,0,1-2.26,1.77C182.89,316,181.66,312,184.57,309Z"/>
          <path class="cls-20" d="M176.92,368.38c-.38,1.94-.82,3.87-1.13,5.82-.12.74-.57.85-1,1-1,.28-2,.46-3.2.74l5.05-8.2C177.19,367.7,177,368,176.92,368.38Z"/>
          <path class="cls-21" d="M176.06,422.09c-.25-5.17-.75-10.32-1-15.5a51.93,51.93,0,0,0-.54-8.06c-.1-.14-.07-.23.07-.3.49.13.53.57.55,1,.21,4.52.67,9,1,13.55.16,2.44.13,4.87.25,7.3C176.35,420.77,176.85,421.54,176.06,422.09Z"/>
          <path class="cls-22" d="M193,379.73c.75,1.49.36,2.89-.13,4.33-.36,1.05-.6,2.15-.87,3.24-.12.47.06,1.23-.78.95a1.07,1.07,0,0,1-.7-1.5c.45-1.48.92-2.95,1.42-4.41A6.71,6.71,0,0,1,193,379.73Z"/>
          <path class="cls-23" d="M185.71,379.52l4.3-12.38a2.38,2.38,0,0,1,.14,2.73c-1.36,3.29-2.79,6.55-4.19,9.82Z"/>
          <path class="cls-24" d="M192.23,421.47c-1.31-.11-2.49.58-3.85.78.18-1-.61-2.24.45-2.69C190.34,418.94,191.51,419.79,192.23,421.47Z"/>
          <path class="cls-25" d="M178.28,317.05c-.42,2.73-.35,5.49-1.24,8.09-.15-1.54-.12-3.07-.39-4.58A3.13,3.13,0,0,1,178.28,317.05Z"/>
          <path class="cls-26" d="M188.35,308.76a1.3,1.3,0,0,1,1,.7c.23,1,.26,2,1.12,2.7.38.29.09.59-.13.77-.49.41-.79,1.21-1.48,1.19-.32,0-.41-.57-.43-.94C188.39,311.7,188.37,310.23,188.35,308.76Z"/>
          <path class="cls-27" d="M166.25,300.51c.21-.74-.18-1.57.29-2.26h0c-.08,5.17.58,10.35.28,15.91-.77-.91-.38-1.61-.58-2.19Q166,306.23,166.25,300.51Z"/>
          <path class="cls-28" d="M200.94,365.19c1.33.9,1.23,2.39,1.2,3.74,0,1.09-1.1.83-1.64.86s-.27-.73-.15-1.18C200.65,367.52,200.09,366.23,200.94,365.19Z"/>
          <path class="cls-29" d="M165.18,438.81a66.51,66.51,0,0,0,.55-7c.81,2.58.61,4.89,1.09,7.06A1.05,1.05,0,0,1,165.18,438.81Z"/>
          <path class="cls-29" d="M171.49,380.83a6.44,6.44,0,0,1,2.09-1.13c.38-.14.77-.4,1.08,0s-.15.77-.11,1.21c.05.65-.45.56-.83.58A3.64,3.64,0,0,1,171.49,380.83Z"/>
          <path class="cls-30" d="M172.54,432.91c.11,1.77.73,3.48.5,5.29a.69.69,0,0,1-1.1-.05c.47-1.81-.1-3.75.55-5.53a.18.18,0,0,1,.1.18Q172.58,432.91,172.54,432.91Z"/>
          <path class="cls-31" d="M166.25,300.51q0,5.73,0,11.45c-.53-1.25-.24-2.57-.21-3.84C166.09,305.58,165.7,303,166.25,300.51Z"/>
          <path class="cls-32" d="M167.69,401.18a19,19,0,0,1,.47,7.86Z"/>
          <path class="cls-33" d="M205.41,435.58a5.68,5.68,0,0,1-.78,3.52l-.28-3.52A.65.65,0,0,1,205.41,435.58Z"/>
          <path class="cls-34" d="M180.86,401.51c-.5-1.38-.88-2.75.66-3.89C181.72,399.08,180.94,400.23,180.86,401.51Z"/>
          <path class="cls-35" d="M162.22,383.11c.55-.14.58.11.6.68.06,1.78-.52,3.49-.32,5.41-.48-.54-.21-1.07-.37-1.51A15.47,15.47,0,0,1,162.22,383.11Z"/>
          <path class="cls-36" d="M195.45,397.2a12.75,12.75,0,0,1-1.14,5.77c.37-1.92.3-4,1.16-5.76Z"/>
          <path class="cls-37" d="M168.86,419.43c.23-1.91-1-3.84,0-6.11Z"/>
          <path class="cls-38" d="M171.94,438.15l1.1.05c.91,1.64,0,1.74-1.27,1.73Z"/>
          <path class="cls-39" d="M176.06,422.09c.48-.6.14-1.34.29-2,.55,1.62.15,3.24.07,4.87C176.51,424,175.86,423.08,176.06,422.09Z"/>
          <path class="cls-40" d="M165.18,438.81l1.64,0c.46,1.49-.6.9-1.13,1C164.58,440.08,165.18,439.25,165.18,438.81Z"/>
          <path class="cls-41" d="M211,393.62a12.07,12.07,0,0,0,3.4-.31C213.38,394.68,212.23,394.57,211,393.62Z"/>
          <path class="cls-42" d="M205.41,435.58h-1.06c-.11-.71-.16-1.6.68-1.54S205.32,435,205.41,435.58Z"/>
          <path class="cls-43" d="M193.05,357.58v3.52C192.72,359.93,192.36,358.75,193.05,357.58Z"/>
          <path class="cls-44" d="M170.45,300.42a2.56,2.56,0,0,1,1.41.73c-1.71.19-.34,1.81-1.05,2.52C170.56,302.62,171,301.44,170.45,300.42Z"/>
          <path class="cls-45" d="M210.43,436.24c0,1.21.31,2.44-.23,3.61a.86.86,0,0,1,0-1,4.92,4.92,0,0,1,0-2.62C210.29,436.07,210.36,436.07,210.43,436.24Z"/>
          <path class="cls-46" d="M162.22,383.11l-.09,4.58A7.58,7.58,0,0,1,162.22,383.11Z"/>
          <path class="cls-47" d="M198.44,331.31a2.49,2.49,0,0,1,.5,2l-.42.83A9.38,9.38,0,0,1,198.44,331.31Z"/>
          <path class="cls-48" d="M200.11,430.48c-.26-.76-.5-1.24,0-1.68.07-.06.4.07.49.21C200.94,429.57,200.43,429.84,200.11,430.48Z"/>
          <path class="cls-49" d="M209.87,440.44c0,.93.26,1.91-.71,2.79a5.32,5.32,0,0,1,.74-2.76Z"/>
          <path class="cls-50" d="M172.54,432.91a1.07,1.07,0,0,1-.06-.29c0-.86-.54-1.66-.13-2.56C172.33,431,173.19,431.87,172.54,432.91Z"/>
          <path class="cls-51" d="M191.61,342.43a5,5,0,0,1,1.12-2.36,3.31,3.31,0,0,1-1.1,2.39Z"/>
          <path class="cls-52" d="M196.54,392.37a1.68,1.68,0,0,1,.32-2Z"/>
          <path class="cls-53" d="M189.53,320.25a1.5,1.5,0,0,1,1.43-.77A1.73,1.73,0,0,1,189.53,320.25Z"/>
          <path class="cls-54" d="M176.92,368.38a.78.78,0,0,0-.28-.67,2.07,2.07,0,0,1,.8-1.29C177.26,367.18,177.38,367.85,176.92,368.38Z"/>
          <path class="cls-55" d="M198.61,337.87v1.94h-.14v-1.94Z"/>
          <path class="cls-56" d="M162.2,393.26a5.94,5.94,0,0,1,.13-2.08,5.94,5.94,0,0,1,.13,2.08Q162.33,393.49,162.2,393.26Z"/>
          <path class="cls-57" d="M193.9,403.88c.49.57.23.89-.06,1.25A1.13,1.13,0,0,1,193.9,403.88Z"/>
          <path class="cls-58" d="M174.58,398.23a1,1,0,0,1-.07.3c-.42-.39-.19-.89-.27-1.41C174.86,397.39,174.66,397.83,174.58,398.23Z"/>
          <path class="cls-59" d="M210.17,438.85l0,1c-.07.23.1.61-.32.6l0,0C209.72,439.87,209.63,439.3,210.17,438.85Z"/>
          <path class="cls-51" d="M191.63,342.46a1.92,1.92,0,0,1-.67,1.4,1.51,1.51,0,0,1,.64-1.42Z"/>
          <path class="cls-60" d="M195.47,397.21c0-.5-.22-1.05.3-1.7,0,.72.16,1.25-.32,1.68Z"/>
          <path class="cls-61" d="M182.07,424.82a2,2,0,0,1-.07-1.44A1.53,1.53,0,0,1,182.07,424.82Z"/>
          <path class="cls-62" d="M162.2,393.26h.25a4.29,4.29,0,0,1-.13,1.73A4.28,4.28,0,0,1,162.2,393.26Z"/>
          <path class="cls-63" d="M181.75,420.63a1.33,1.33,0,0,1,0,1.22A1.34,1.34,0,0,1,181.75,420.63Z"/>
          <path class="cls-64" d="M210.43,436.24h-.21a2.49,2.49,0,0,1,.11-1.4A2.49,2.49,0,0,1,210.43,436.24Z"/>
          <path class="cls-65" d="M168.14,412v-1.13C168.53,411.3,168.27,411.65,168.14,412Z"/>
          <path class="cls-66" d="M187.62,350.78a.7.7,0,0,1-.21,1C187.15,351.28,187.54,351.16,187.62,350.78Z"/>
          <path class="cls-67" d="M181,402.73c-.1.18-.15.35-.25.43s-.27,0-.26-.19a.65.65,0,0,1,.16-.39S180.84,402.66,181,402.73Z"/>
          <path class="cls-68" d="M189.26,320.32c-.07.11-.12.28-.22.33s-.27-.06-.25-.23a.55.55,0,0,1,.2-.35C189.2,319.95,189.19,320.17,189.26,320.32Z"/>
          <path class="cls-69" d="M281.73,340.52c1.8-2.49,4.08-4.48,5.84-7,1.86-2.7,3.82-5.32,5.75-8a2.49,2.49,0,0,1,.58-.44C290.78,331.14,287.14,336.7,281.73,340.52Z"/>
          <path class="cls-70" d="M195.41,279.45c-3.74,1.05-7-.25-9.37-3.76-.85-1.25-1.67-2.54-2.55-3.76a17.14,17.14,0,0,0-3.23-3.31c4.31-1.25,5.89-5,7.23-8.91.49-1.45.85-2.95,1.27-4.43.25-.06.39,0,.26.31-.72,8.49,2.14,15.84,5.94,22.88C195.13,278.78,195.42,279,195.41,279.45Z"/>
          <path class="cls-71" d="M216.08,286c-1.63.72-2.61,2.6-4.4,3-1.07-.57-1.28-1.72-1.56-2.84a4.59,4.59,0,0,1,.32-2.69l4.75-.66A28,28,0,0,1,216.08,286Z"/>
          <path class="cls-72" d="M210.38,286.22a12.5,12.5,0,0,0,1.3,2.8c0,.86.06,1.8-.86,2.19-1.08.46-1.55-.51-2.13-1.21a15.11,15.11,0,0,1-1.78-5.92c.78,0,1.56-.75,2.34,0,.57.14.74.7,1,1.18C210.38,285.58,210.24,285.93,210.38,286.22Z"/>
          <path class="cls-73" d="M216.08,286a3.39,3.39,0,0,1-.89-3.15,53.59,53.59,0,0,1,7.7-.37C220.56,283.46,218.33,284.74,216.08,286Z"/>
          <path class="cls-74" d="M210.14,285.45l-.88-1.33c.19-.43.54-.37.87-.37A1.83,1.83,0,0,1,210.14,285.45Z"/>
          <path class="cls-75" d="M210.14,285.45q0-.85,0-1.71l.32-.26q0,1.37-.06,2.73C210.11,286,210.16,285.73,210.14,285.45Z"/>
          <path class="cls-76" d="M191.25,245.41l.4-1.63C192.2,244.52,191.68,244.95,191.25,245.41Z"/>
          <path class="cls-77" d="M189.81,251.3c.09-.61-.12-1.36.63-1.65C190.28,250.23,190.33,250.9,189.81,251.3Z"/>
          <path class="cls-78" d="M189,255.59l-.26-.31c.33-.41,0-1.12.51-1.43A2.53,2.53,0,0,1,189,255.59Z"/>
          <path class="cls-79" d="M174.71,233V216.47C175.4,218.21,175.24,231.89,174.71,233Z"/>
          <path class="cls-10" d="M165.12,266c0-2.07,0-4.14,0-6.22,0-.71.27-1,.83-1.05s.31.61.4.94a9.45,9.45,0,0,1-.81,6.42Z"/>
          <path class="cls-21" d="M192.45,189.61c-2.75,2-5.54,4-8.51,6.23C184.61,194.1,190.21,190,192.45,189.61Z"/>
          <path class="cls-80" d="M176.81,271.64c.87.93,1.4,1.8,2.33,2-.2,1-.91,1.53-1.26,2.3-.15.33-.39.72-.8.55a.9.9,0,0,1-.44-1.09A11.53,11.53,0,0,0,176.81,271.64Z"/>
          <path class="cls-10" d="M167.14,193.59c.3-.81,0-1.9.85-2.53a5.86,5.86,0,0,1,1.41,2,7.3,7.3,0,0,1-1.86,1.38C167.08,194.65,167.25,193.95,167.14,193.59Z"/>
          <path class="cls-81" d="M213.1,194.86c-.14,0-.37,0-.41-.09-.38-.77-.24-6,.48-6.81v5.3A2.23,2.23,0,0,1,213.1,194.86Z"/>
          <path class="cls-30" d="M169.22,200.06a4.7,4.7,0,0,1-1.09,2.86c-.63.6-.78.34-.93-.33C166.87,201.07,167.17,200.69,169.22,200.06Z"/>
          <path class="cls-79" d="M161.29,189.41c.09-1.68-.39-3-.35-4.33,0-.63.14-.68.59-.7s.39.32.39.7A8.91,8.91,0,0,1,161.29,189.41Z"/>
          <path class="cls-35" d="M195.83,296.47h-.44c-.49-1.71,1.12-1.82,1.51-2.86l.31.21Z"/>
          <path class="cls-82" d="M167.34,184.29a2.19,2.19,0,0,1-1.84,1.26,1.32,1.32,0,0,1-.08-.57C165.76,183.9,166.56,184.63,167.34,184.29Z"/>
          <path class="cls-83" d="M165,191.65c-.16.84-.21,1.68-.33,2.51C164.61,193.3,164.31,192.42,165,191.65Z"/>
          <path class="cls-84" d="M165.69,268l-.14,2.55A2,2,0,0,1,165.69,268Z"/>
          <path class="cls-85" d="M213.1,194.86l.07-1.6a2,2,0,0,1,.17,1.66s-.09,0-.12,0S213.13,194.9,213.1,194.86Z"/>
          <path class="cls-86" d="M174.76,244.26c-.08-.17-.18-.3-.16-.39s.15-.21.23-.31c.08.1.22.21.21.29S174.89,244.08,174.76,244.26Z"/>
          <path class="cls-87" d="M166.77,289.05a1.12,1.12,0,0,1-.09-1.05C167,288.33,166.88,288.67,166.77,289.05Z"/>
        </g>
      </g>
    </g>
  </g>
</svg>
