<svg xmlns="http://www.w3.org/2000/svg" width="375" height="483.36" viewBox="0 0 375 483.36">
  <defs>
    <style>
      .cls-1 {
        fill: #fdb34c;
      }

      .cls-2 {
        fill: #5ddacb;
      }

      .cls-3 {
        fill: #24a6b5;
      }

      .cls-4 {
        fill: #092421;
      }

      .cls-5 {
        fill: #fdcebd;
      }

      .cls-6 {
        fill: #11757e;
      }

      .cls-7 {
        fill: #fdb59b;
      }

      .cls-8 {
        fill: #505050;
      }

      .cls-9 {
        fill: #fdb69c;
      }

      .cls-10 {
        fill: #fdb59c;
      }

      .cls-11 {
        fill: #192e2c;
      }

      .cls-12 {
        fill: #0c2623;
      }

      .cls-13 {
        fill: #fd7b6f;
      }

      .cls-14 {
        fill: #a50f01;
      }

      .cls-15 {
        fill: #650901;
      }

      .cls-16 {
        fill: #fe6052;
      }

      .cls-17 {
        fill: #a30f01;
      }

      .cls-18 {
        fill: #971003;
      }

      .cls-19 {
        fill: #172c29;
      }

      .cls-20 {
        fill: #293b37;
      }

      .cls-21 {
        fill: #feecea;
      }

      .cls-22 {
        fill: #ededed;
      }

      .cls-23 {
        fill: #fccebd;
      }

      .cls-24 {
        fill: #59d3c4;
      }

      .cls-25 {
        fill: #348078;
      }

      .cls-26 {
        fill: #60d9ca;
      }

      .cls-27 {
        fill: #65dacb;
      }

      .cls-28 {
        fill: #63d8c9;
      }

      .cls-29 {
        fill: #5fd4c5;
      }

      .cls-30 {
        fill: #182d2a;
      }

      .cls-31 {
        fill: #feebe9;
      }
    </style>
  </defs>
  <title>Risorsa 44</title>
  <g id="Livello_2" data-name="Livello 2">
    <g id="illustrazioniINIZIALI">
      <g id="_04" data-name="04">
        <rect id="_04rett" data-name="04rett" class="cls-1" width="375" height="457.04"/>
        <g id="_04illustration" data-name="04illustration">
          <path class="cls-2" d="M66.79,175.05c1-.22,1.05-1.12,1.21-1.87a57.82,57.82,0,0,1,1.32-6.44c2-5.77,3.13-11.78,5.59-17.43a63,63,0,0,1,8.37-14.09,45.72,45.72,0,0,1,14.46-12.06c6.72-3.6,13.85-4.42,21.21-3.94,6.83.45,13.25,2.75,19.59,5.2-.25,1.24-1.38,1.71-2.18,2.44-5.85,5.32-10.16,11.56-11.5,19.5-1.11,6.53,1.06,11.75,6.52,15.61,3.18,2.25,6.7,3.88,10,5.85a29.81,29.81,0,0,1,6.12,4.46,28.58,28.58,0,0,1,6.09,8.91c.7,1.66,1.43,3.31,2.21,4.93a4.14,4.14,0,0,1-.23-2.38,36.58,36.58,0,0,1,4-8.86,82.91,82.91,0,0,1,5.89-6.77c3.5-3.47,7.49-6.35,11.26-9.5,5-4.16,9.68-8.58,12.73-14.45a22.17,22.17,0,0,0,1.84-4.42,24.92,24.92,0,0,0,1.55-12.37c-.06-.41-.08-.83.34-1.1,1.86,0,3.72.09,5.58,0a96,96,0,0,1,35.3,5.71c5,1.77,10.12,3.33,14.87,5.79a50,50,0,0,1,11.59,8c-.25,1-1.1,1.45-1.77,2.09-5.22,5-8.38,11-8.37,18.35a23.52,23.52,0,0,0,2.91,10.52c2.2,4.39,4.69,8.62,6.41,13.25a26.6,26.6,0,0,1,1.78,10,5.64,5.64,0,0,1,2.13-1.25c5.56-2.4,11.46-3.44,17.42-4.27a1.57,1.57,0,0,1,1.45.34c.54,4.26.93,8.55,1.63,12.79,1.89,11.29,4.25,22.46,10.53,32.31a41.52,41.52,0,0,0,15.17,13.92c4.84,2.7,9.85,5.08,14.29,8.47a50.36,50.36,0,0,1,13.07,14.85c3.41,5.87,6.27,12,7.57,18.7a70.33,70.33,0,0,1,.86,19.66c-.19,2.15,0,4.31-.29,6.49-.33,3-.14,6.08-.4,9.11-.43,5-.6,9.94-1.16,14.9a100.53,100.53,0,0,1-5.39,23.11,79,79,0,0,1-11.36,20.51c-4,5.38-8.11,10.74-12.51,15.82a135.06,135.06,0,0,1-15.12,15.28A199.1,199.1,0,0,1,273.88,439,60.21,60.21,0,0,1,252.43,447c-10.48,1.69-20.29-.5-29.43-5.78-2.66-1.54-5.2-3.26-7.8-4.9-.8-.3-.74-1.06-.86-1.69q-2.06-10.33-4.35-20.62c-.91-4.08-2.5-8-3-12.17-.92-7.35-2.75-14.51-4.26-21.74a5,5,0,0,1-.16-1.07c.09-.92.83-1.28,1.51-1.62a31.25,31.25,0,0,0,7.35-5.61,7.58,7.58,0,0,0,1.68-8.77,18.24,18.24,0,0,0-3-3.33,40,40,0,0,1-9.8-16.84c-.54-1.73-.94-3.5-1.42-5.24-1.22-5.26-1.56-10.63-2.07-16-.71-7.35-1.47-14.7-2.65-22a40.8,40.8,0,0,0-2.59-9.4,3.79,3.79,0,0,1-.41-1.48c1-1,2.35-1.33,3.5-2.05,4.78-3,9.49-6.08,14-9.42,1.51-1.11,1.64-1.06,2.52.57,1.06,2,1.73,4.1,2.9,6,1.36,3.2,3.71,4.6,7.23,4.41,3.35-.18,6.72.06,10.06-.36,1.68.06,3.37,0,5,0a2.38,2.38,0,0,0,2.05-.79.4.4,0,0,1,.47,0,1.58,1.58,0,0,1,.21,1.61c-1.44,3.23-1.82,6.74-2.65,10.13-1.44,6.84-1.66,13.84-2.84,20.71a64.67,64.67,0,0,1-1.62,6.78c-.38,1.29-.68,2.6-1,3.91-1,4.65-2.39,9.18-3.38,13.82a26,26,0,0,0-.5,4.45,6.56,6.56,0,0,0,2.49,5.88,2.16,2.16,0,0,1,1,1.17c-.21,3.36-1,6.65-1.4,10-1.07,8.36-2,16.73-2.7,25.13-.65,8.24-1.23,16.48-1.6,24.75-.25,5.64-.11,11.27-.21,16.9a36.56,36.56,0,0,0,.41,3.7,2.46,2.46,0,0,0,.85-1.71,160.33,160.33,0,0,0,2.8-16.18c1-7.22,1.62-14.48,2.3-21.73.31-3.34.56-6.69.79-10,.27-3.91.65-7.81.64-11.74.21-5.6,1.2-11.12,1.82-16.68a2.79,2.79,0,0,1,.33-1.33,1.92,1.92,0,0,1,1.76-.29,31.26,31.26,0,0,1,3.46.82A62.6,62.6,0,0,0,258.61,360a3.48,3.48,0,0,1,1.81.26c.09.06.2.19.18.22-1.24,1.13-.63,2.39-.27,3.64,2.07,7.18,3.34,14.55,5.31,21.75.07.25.16.49.21.74,2.36,9.48,3.66,19.2,6.36,28.6a106.5,106.5,0,0,1,2.81,14,7.24,7.24,0,0,0,1.19,3.76,7,7,0,0,0,.24-3.89,53,53,0,0,0-1.42-6.83c-1.47-5.78-2.06-11.7-3-17.57-1.09-7-3-14-4-21-.9-6.24-1.64-12.5-2.88-18.69-.07-.35-.14-.71-.22-1.06-.53-2.46-.53-2.46-3.05-2.74a1.88,1.88,0,0,1-.59-.17.45.45,0,0,1-.25-.39,7.28,7.28,0,0,1,3.87-1c3.91-.28,5.35-1.82,5.91-4.62a35.23,35.23,0,0,0-.34-14.23,3.13,3.13,0,0,1-.12-.52c-1.2-6-1.45-12.24-3.26-18.15A83.42,83.42,0,0,1,264,306.89c-.26-2.32-.06-4.65-.17-7-.08-1.69,0-3.44-1.44-4.74.23-.8.93-.72,1.5-.71,7.66.12,14.9-1.68,22.11-4.17a78,78,0,0,0,21.92-12,24.77,24.77,0,0,0,5.52-5.18c1.87-1.9,3.59-3.94,5.64-6.16a23.23,23.23,0,0,0-6.68,3.6c-4.33,3.26-8.86,6.24-12.88,9.92-3.1,2.85-6.94,4.36-10.89,5.72-6.94,2.39-14.15,3.37-21.35,4.39a10.09,10.09,0,0,1-5.18-.24,5,5,0,0,0,.14-3.13c-.73-4.42-1.94-8.65-4.87-12.2a6.47,6.47,0,0,0-4-2.7,1.39,1.39,0,0,1-1.18-.88,7.66,7.66,0,0,1-.13-3.06,43.35,43.35,0,0,0,.25-7.21,3.28,3.28,0,0,1,2.48-3.58c.76-.13,1.13.42,1.47.93a12.4,12.4,0,0,0,4.71,3.93c.46.24.92.47,1.39.69a9.55,9.55,0,0,1,5.67,6.56,16.25,16.25,0,0,0,5.31,9.07c1,.82,1.93,1.76,3.38,1.65a19.06,19.06,0,0,0,10.2-.52,48,48,0,0,0,8.72-3.09,12.26,12.26,0,0,0,4.13-2.8,3.47,3.47,0,0,0,1-1.4c2.93-4.14,2.66-12.72-1.94-16.34a9.92,9.92,0,0,0-3.18-1.87c-4.57-1.4-7.34-4.61-9.06-8.9a5.56,5.56,0,0,0-.76-1.34c-1.46-2.23-3.9-3.35-5.81-5.07-5.13-4.59-9.41-9.71-10.76-16.75a26.12,26.12,0,0,0-3.06-7.91c-3.74-6.64-10.48-7.92-16.42-5.65-5.69,2.18-9.16,6.51-10.89,12.29a20,20,0,0,0-.86,7.19,5.56,5.56,0,0,0,.21,1.91c.46,2.61,0,5.24.12,7.86a32,32,0,0,0,3.4,13.65,9.48,9.48,0,0,0,1.68,2.39,10.21,10.21,0,0,0,4.51,3.37,2.83,2.83,0,0,1,2,3.1c-.16,4.06-.21,8.12,0,12.18a.62.62,0,0,1-.41.43c-3.7.84-5.47,3.84-7.42,6.62-.33.46-.54,1-1.1,1.26-3.88,1.29-7.75,2.6-11.7,3.64a20.47,20.47,0,0,1-6.63.41,7.35,7.35,0,0,1-5.18-3.09,45,45,0,0,1-4.23-6.67,1.75,1.75,0,0,1,.11-2.17c5-5.67,6.57-12.81,8.58-19.74a141,141,0,0,0,5-27.29c.39-4.63.77-9.28.08-13.93-.06-.38.08-.83-.38-1.12-.5.47-.45,1.12-.61,1.7-2,7.41-2.79,15-4,22.61a71.45,71.45,0,0,1-6.4,19.71,105.84,105.84,0,0,1-5.18,10.07,3.87,3.87,0,0,1-1.37,1.3c-.78-.13-.8-.87-1.06-1.38a13.69,13.69,0,0,0-2.85-4.35c-.34-.3-.73-.74-1.2-.48s-.37.92-.22,1.39a57.17,57.17,0,0,0,2.73,5.86c.39.87,1,1.74.33,2.75-5.52,4.85-11.15,9.56-18.32,11.86a2.89,2.89,0,0,1-1,.25c-.86-.28-1.16-1.14-1.73-1.72a51.16,51.16,0,0,0-8.09-6.74c-.59-.39-1.14-.73-1.83-.26a.43.43,0,0,1-.39-.22,1.3,1.3,0,0,1-.07-.73,40.66,40.66,0,0,0,.18-14.39c-.3-2.11-.11-2.56,1.72-3.63a15.32,15.32,0,0,0,2.58-1.68,2.74,2.74,0,0,1,.4-.31,17.78,17.78,0,0,0,4.92-6.48,41,41,0,0,0,4-16.61,53.15,53.15,0,0,0-2.55-19.41c-.37-1.08-.88-2.1-1.17-3.2,0-1,1-1.59,1.26-2.53s.35-1.47-.37-2.05a20.87,20.87,0,0,0-2.07-6.61c-2.82-4.78-7.17-7.13-12.51-7.87-7.41-1-12.8,2.55-17.43,7.76a31.09,31.09,0,0,0-5,8.52,39.09,39.09,0,0,1-3.26,6,13.58,13.58,0,0,1-8.94,5.9c-2.48.53-5,.68-7.51,1.11a32.08,32.08,0,0,0-18.46,9.7c-.71.75-1.45,1.48-2.22,2.16-1,1.47-2.24,2.68-3.26,4.11a24.28,24.28,0,0,0-3.31,7.29,2.24,2.24,0,0,1-.65,1.21,1.41,1.41,0,0,1-1.05.14,7.31,7.31,0,0,0-6.12,1.45,8.66,8.66,0,0,0-2.34,3,19.14,19.14,0,0,0-1.85,4.59,43.25,43.25,0,0,1-1.65,4.68,11.53,11.53,0,0,1-6.8,6.82A12.22,12.22,0,0,0,75,267.81a8.31,8.31,0,0,0-2.25,5.11,17.37,17.37,0,0,1-.53,3c-.14.48-.15,1.21-1,1-1.62-3.37-3.53-6.59-5-10.06a72.64,72.64,0,0,1-4.15-15.2c-.45-2.56-.57-5.17-1.25-7.68a1.48,1.48,0,0,1,1.15-.7,64.49,64.49,0,0,1,20.52-.92c1.62.21,1.77.09,1.32-1.46a43.41,43.41,0,0,1-1.69-12.87,56.39,56.39,0,0,1,2.4-14c1.46-5.29,2.86-10.62,3.12-16.12.53-11.15-5.77-20.56-17.3-22.34C69.19,175.41,67.89,175.9,66.79,175.05Z"/>
          <path class="cls-2" d="M162.73,403.92c-11.37-6.14-23.58-9.82-36.17-12.42-4.29-.89-8.62-1.61-12.85-2.79a2.56,2.56,0,0,1-.5-2c0-6.46-.52-12.91-.32-19.37,0-1.6-.52-3.18-.19-4.78a1.56,1.56,0,0,1,.8-1.09c2.15-1.15,2.42-2.9,1.65-5a145.86,145.86,0,0,1-2.75-19.65c-.28-3.54-.46-7.11-.44-10.68a88.92,88.92,0,0,0-1.7-19.73,1.27,1.27,0,0,1,.08-1c.69-.64,1.26-.11,1.8.23,1.61,1,3.19,2.09,4.77,3.17a11.6,11.6,0,0,0,8.71,1.8,50.76,50.76,0,0,0,8.11-2c6.65-2.23,13.49-3.91,19.9-6.82.59-.27,1.18-.55,1.51.35-.17,3.05.45,6.08.32,9.13.32,5.62.22,11.24.58,16.86a103.71,103.71,0,0,1-.41,13.76c-.37,5.51-.88,11-1.33,16.51-.32,3.91.37,7.83.67,11.73.45,4.19,1.7,8,4.71,11.17a5.69,5.69,0,0,0,2.07,1.54c.58.22,1.17.46,1.37,1.15a39,39,0,0,1,.14,5.85c0,4,0,8,0,12C163.24,402.5,163.37,403.31,162.73,403.92Z"/>
          <path class="cls-3" d="M66.79,175.05a20.08,20.08,0,0,1,20.82,16.29c1.45,6.66-.16,13-1.72,19.43-1,4-2.29,8-2.86,12.12a40.77,40.77,0,0,0,1.14,17.41c.8,2.7.81,2.77-2,2.44a64.23,64.23,0,0,0-10.66-.25A61.9,61.9,0,0,0,60.88,244l-1.22.06c-.06-.87.7-.94,1.22-1.13a34.42,34.42,0,0,1,21-1.53c-.64-.45-1.34-.88-2-1.34a20.19,20.19,0,0,0-2.18-1.19A15.41,15.41,0,0,0,65,238.36c-2.15.77-4.17,1.83-6.25,2.75a29.86,29.86,0,0,1-11.12,2.63c-6.69.23-10.45-2.11-12.94-7.81-2-4.63-2.39-9.61-3.09-14.52a100.25,100.25,0,0,1-.68-14.86c0-1,.49-1.92.1-2.89a35.76,35.76,0,0,1,3.9-8.6A47.82,47.82,0,0,1,43.44,184a33.51,33.51,0,0,1,23.35-8.94Z"/>
          <path class="cls-3" d="M282.57,194.92c-7.39.74-14.61,2.1-21.35,5.6a25.11,25.11,0,0,0-.87-7.27A56.58,56.58,0,0,0,255,180.82c-2.71-4.9-5.2-9.89-4.95-15.69A25.12,25.12,0,0,1,256,150.34a29.1,29.1,0,0,1,4.64-4.49c5.41-4,11.57-6,18.13-7.15a34.3,34.3,0,0,1,23.16,4.1c7.91,4.36,13.08,10.93,14.51,19.94,1.24,7.81-1.16,14.71-6.28,20.72a28.25,28.25,0,0,1-12.33,8.24,5.79,5.79,0,0,1-.9.17c-.12-.56.31-.74.67-.89a25.55,25.55,0,0,0,9.56-7c-3.14,1.83-6.56,3.69-10.58,4.13-2.78.3-5.45-.38-8.16-.69-4.19-.49-8.35-.88-12.31,1.1-4.34,2.16-8.45,4.61-11.37,8.78,5.46-2.3,11.18-3.25,16.9-4.1,4-.59,8-.48,12-1.08a1.19,1.19,0,0,1,1.14.35c-2.89,1.11-6,1.35-9,1.87A13.42,13.42,0,0,0,282.57,194.92Z"/>
          <path class="cls-3" d="M155.92,183.76v2.63a10.88,10.88,0,0,1-2.26-4.09,30,30,0,0,0-5.1-8.23c-2.5-3.09-5.87-5.06-9.24-7-3.63-2.06-7.44-3.83-10.53-6.71a13.5,13.5,0,0,1-4.51-9.05c-.56-7.95,2.82-14.46,7.63-20.46a59.86,59.86,0,0,1,6.63-6.45c6.29-4.79,13-8.64,20.86-10.35a52.4,52.4,0,0,1,14.78-1.38c5,.34,9.8,1.34,13.8,4.65a10,10,0,0,1,3.36,4.28,9.49,9.49,0,0,1,.13,4.73,30.61,30.61,0,0,1-7.5,15.87c-4,4.74-9.13,8.21-13.91,12.05-4.39,3.53-8.33,7.43-10.95,12.48A30.27,30.27,0,0,0,156,179.32,39.53,39.53,0,0,0,155.92,183.76Z"/>
          <path class="cls-4" d="M74.81,267.61a10.18,10.18,0,0,1,6.19-5.3c4.16-1.46,6.49-4.48,7.86-8.48,1.09-3.19,1.86-6.49,3.83-9.37,1.57-2.28,5.38-3.76,7.38-3.14a9.19,9.19,0,0,0,1.51.23,9.76,9.76,0,0,1-.24,5.41,1.27,1.27,0,0,1-.36.32,6.5,6.5,0,0,0-1.65.66,5.7,5.7,0,0,0-1.79,2,2,2,0,0,1-.22.37,6.78,6.78,0,0,0-1.4,2.11,9,9,0,0,0-.65,1.57,10.14,10.14,0,0,0-.61,1.69,20.52,20.52,0,0,0-1.11,5.92,9.85,9.85,0,0,1-2,3.11c-2.43,3.43-3.62,7.12-2.64,11.36A7.69,7.69,0,0,0,93.82,282a20.18,20.18,0,0,0,3.79,1.32,1.25,1.25,0,0,1,1,.59,10.4,10.4,0,0,1-2.86,4.94c-1,.21-1.56-.43-2.17-1-2.12-1.81-4.25-3.59-6.51-5.23a10.73,10.73,0,0,0-1.85-1.11,1.12,1.12,0,0,0-1.3.14,1.25,1.25,0,0,0-.38,1.4,5,5,0,0,0,1.2,1.78c1.66,1.86,3.79,3.17,5.62,4.84a38.38,38.38,0,0,1,4.24,4.16c-.8,4-2,7.74-6.12,9.53-1.81.78-3.73,1.17-5.58-.06-2.11-.58-4-1.62-6.27-2-3-.47-5.81.24-8.66.87a3.46,3.46,0,0,1-.89.08A7.5,7.5,0,0,0,66,300.67c-2.91-2.55-3.36-5.73-2-9.15a14.08,14.08,0,0,1,5.48-7.31,10.57,10.57,0,0,0,5.31-10.43,10.92,10.92,0,0,1,.39-4.14A2.11,2.11,0,0,0,74.81,267.61Z"/>
          <path class="cls-2" d="M202.77,427.84q-7.48-4.07-14.55-8.81c-5.76-3.88-11.64-7.6-17.69-11-.61-.58-.43-1.35-.44-2,0-2.94-.41-5.87-.43-8.81.2-2.91-.12-5.84.37-8.73.22-1.28-.51-2.51-.17-3.79.52-.37,1.09-.18,1.65-.16,6.83.2,13.64.19,20.26-1.89a2.88,2.88,0,0,1,1.67-.16c.72.75.54,1.74.7,2.63,1.78,9.53,3.38,19.1,5.78,28.51,1.06,4.15,2,8.34,2.9,12.52C203,426.65,203.26,427.27,202.77,427.84Z"/>
          <path class="cls-2" d="M91.3,377.52a27.45,27.45,0,0,1-8-11.15,37.24,37.24,0,0,1-2.46-17.54c.36-4.94,1.24-9.84,1.78-14.77.61-5.52,1-11.06,1.08-16.62,0-2-.19-4-.12-6a1.16,1.16,0,0,1,.82-.65,61.69,61.69,0,0,0,9.15-3.66,1,1,0,0,1,.95.2c.18,1.43-.62,2.65-.86,4-.19,1.05-.49,2.09-.74,3.13a67.37,67.37,0,0,0-1.65,14.14c-.15,5.29-.93,10.49-1.44,15.73a44.87,44.87,0,0,0,.3,11.44,15.63,15.63,0,0,0,2.2,5.08c-.18,3.29,0,6.59-.3,9.87-.13,1.6-.14,3.19-.18,4.78C91.79,376.2,91.91,377,91.3,377.52Z"/>
          <path class="cls-5" d="M169.92,397.07a1.23,1.23,0,0,1,.29,1q.16,5,.33,9.95c.41,5.81.41,11.64.65,17.45.54,12.87.26,25.74.18,38.6a86.63,86.63,0,0,1-1.47,17.79c-.14.66-.16.66-.87,1.5-1.14-1.54-1.28-3.38-1.57-5.11-.93-5.51-1.49-11.07-2-16.65-.48-5.89-1-11.78-1.25-17.68-.21-4.06-.4-8.12-.62-12.18-.36-6.85-.5-13.7-.65-20.56-.05-2.41-.16-4.84-.27-7.26q0-10.19,0-20.38a3.81,3.81,0,0,1,3.58,1c.08,2,.06,3.93,0,5.89-.18,6.88.23,13.75.39,20.62a146,146,0,0,0,2.63,25.11,17.7,17.7,0,0,1,.43,3,53,53,0,0,0,.54-11.78c-.36-6.09-.51-12.18-.82-18.27-.18-3.62-.08-7.24,0-10.86A1.53,1.53,0,0,1,169.92,397.07Z"/>
          <path class="cls-5" d="M202.79,378.76c1.14,5.14,2.53,10.23,3.37,15.42,1.07,6.57,2.45,13,4.1,19.48,1.88,7.36,3.39,14.82,4.71,22.31a1.3,1.3,0,0,0,.24.39c.5,4,1,7.92,1.5,11.88.26,2.08.59,4.17.67,6.26.17,4.16.88,8.29.63,12.47-.86-.19-.8-1-1-1.59-2.44-7.42-4.61-14.92-6.65-22.45-3.11-11.48-5.94-23-8.38-34.66-1.58-7.53-2.66-15.17-3.91-22.77-.23-1.38-.86-2.66-.83-4.08A8.7,8.7,0,0,1,202.79,378.76Z"/>
          <path class="cls-6" d="M155.92,183.76c-.27,0-.57-.1-.55-.42.33-4.71.48-9.44,2.15-13.95a30.33,30.33,0,0,1,5.83-9.39c4-4.58,9.08-7.85,13.7-11.68,6.23-5.17,11.61-11,13.49-19.21a27.71,27.71,0,0,0,.79-7.49c1.16,1.33,1.21,3.12,1.92,4.64-.1,1.42.42,2.76.33,4.22a26,26,0,0,1-1.95,9.48,43.8,43.8,0,0,1-12.19,15.56,172.49,172.49,0,0,0-16.59,15.53,38.79,38.79,0,0,0-2.95,3.94A46.61,46.61,0,0,0,155.92,183.76Z"/>
          <path class="cls-6" d="M31.05,203.65c.84-.73.73,0,.64.46a30.46,30.46,0,0,0-.27,7.26A83,83,0,0,0,34.49,234c.88,3,2.31,5.67,5,7.37s5.8,2,9,1.81c5.82-.38,10.86-3,16.07-5.16s10.29-1.5,15.08,1.41c1.25.76,2.46,1.61,4.06,2.67-2.29-.17-4-.75-5.85-1a34.49,34.49,0,0,0-14.63,1.39,9.54,9.54,0,0,0-3.64,1.54c-4.2,1.06-8.35,2.42-12.7,2.65-5.91.31-11-1.64-14.8-6.32C29,236.5,27.64,231.89,27,226.93,26.06,218.74,28.09,211.13,31.05,203.65Z"/>
          <path class="cls-2" d="M110,387.74a36.69,36.69,0,0,1-10.33-4c-1.56-.85-3-1.87-4.54-2.81-.62-.56-.5-1.31-.52-2-.16-4.67.16-9.34.34-14a5.42,5.42,0,0,1,.59-2.53,1.42,1.42,0,0,1,1.43-.32,33,33,0,0,0,10,.42,3.6,3.6,0,0,1,2,.22,1,1,0,0,1,.4.42,64,64,0,0,1,.86,6.75c.41,5.26.19,10.53.25,15.79C110.4,386.39,110.55,387.15,110,387.74Z"/>
          <path class="cls-7" d="M197.5,381.23c1.74,7.08,2.74,14.3,4,21.47,2.68,15.36,6.76,30.37,10.8,45.4C214,454.45,216,460.72,218,467q0,.3,0,.6c-.93.43-1.17-.36-1.46-.9a45,45,0,0,1-2.11-4.82c-1.44-3.7-3.3-7.22-4.44-11a144.12,144.12,0,0,1-7.21-23c-1.94-8.41-4-16.79-5.77-25.22-1.31-6.09-2.33-12.23-3.46-18.36a12.73,12.73,0,0,1-.09-1.7A5.12,5.12,0,0,1,197.5,381.23Z"/>
          <path class="cls-6" d="M294.76,192.46c-10.46,1-21.06,1.26-31.14,5.79a19,19,0,0,1,5.3-5.92c3.51-2.58,7.19-4.84,11.57-5.62a24.6,24.6,0,0,1,8,.34c4.83.72,9.61,1.27,14.17-1.12a46.83,46.83,0,0,0,5.61-3.19l.27.3c-.89,1-1.75,2-2.69,2.92a24.3,24.3,0,0,1-8.36,5.47,2.71,2.71,0,0,0-.6.46A5.38,5.38,0,0,1,294.76,192.46Z"/>
          <path class="cls-5" d="M94.45,307.37l-.94,0a17.37,17.37,0,0,0-5.8,1.49c-3.7,1.3-7.36,2.72-11.05,4.07a15,15,0,0,1-10.16,0c-.29-.1-.58-.25-.89-.06-7.66-2.23-14.46-6.21-21.1-10.49-.77-.5-2.08-1.15-1.43-2.19s1.68,0,2.46.4c7.67,3.68,15.42,7.15,23.8,9a10.25,10.25,0,0,0,5.12-.11c2.58-.76,4.93-2.08,7.5-2.85.44-.13.91-.19,1.36-.28.15-.21.31-.45.56-.51,3.7-.87,7.27-2.36,11.14-2.46a3.24,3.24,0,0,1,.45.11c1.43.48,2,1.22,1.73,2.3A2.44,2.44,0,0,1,94.45,307.37Z"/>
          <path class="cls-8" d="M74.81,267.61c.56,0,1.2.12,1,.81-.95,2.91-.31,6-.79,8.9a9.82,9.82,0,0,1-4.68,6.8,14.19,14.19,0,0,0-6.48,9.74,6.49,6.49,0,0,0,2.32,6.36c.65.55,1.46,1.06,1,2.14-.62.63-1.54.16-2.21.6-.6-.28-1.29.09-1.88-.24-.3,0-.66.18-.9-.18A6,6,0,0,1,59.69,299a7.4,7.4,0,0,1-.16-5.55c1.26-4.51,3.38-8.56,7.16-11.45a17.1,17.1,0,0,0,4.24-3.8c.27-.41.57-.71.32-1.21,1.2-1.2.81-2.84,1.11-4.27C72.74,270.77,73.14,268.9,74.81,267.61Z"/>
          <path class="cls-5" d="M113.08,362c.49,5.65.06,11.32.41,17,.2,3.24.05,6.48.22,9.71-.62,5-.06,10-.37,15-.32,5.26-.24,10.56-1.2,15.78,0,.25,0,.52-.31.66-.74-1.47-1.32-6.17-1.22-10,.78.15.65.82.73,1.35a5.14,5.14,0,0,0,.15,1.47,5.8,5.8,0,0,1-.12-2c.1-4.51-.57-9-.87-13.44-.16-2.37-.14-4.74-.2-7.12q-.14-5.65,0-11.32c.11-4.44-.46-8.88.11-13.31.16-1.2-.05-2.28-1.36-2.8l0,0C110.16,361.73,111.65,362,113.08,362Z"/>
          <path class="cls-7" d="M95.7,362.35a151.13,151.13,0,0,0-.6,18.6c-.67,2.91-.29,5.86-.33,8.79-.05,4.17-.3,8.32-.59,12.48-.16,2.3.1,4.63-.1,6.92a37.4,37.4,0,0,1-.6,6.27c-.41.43.29,1.52-.57,1.47s-.62-1-.64-1.68c-.18-5.84-.61-11.67-.46-17.51.2-7.49.2-15,.81-22.47.3-3.71,0-7.45.08-11.17a3.51,3.51,0,0,1,.46-2.38A1.87,1.87,0,0,1,95.7,362.35Z"/>
          <path class="cls-5" d="M93.51,361.7c-.48.4-.3,1-.31,1.45,0,2.54,0,5.07,0,7.61,0,6.81-.58,13.6-.74,20.41-.13,5.58-.19,11.16-.12,16.73,0,2.67.2,5.35.24,8,0,.31,0,.63.36.81.52-.3,0-1,.54-1.31A16.25,16.25,0,0,1,93,420.6a1.1,1.1,0,0,1-.75-1.14c-.22-3.33-.46-6.67-.63-10-.52-10.64-.24-21.29-.34-31.93.12-5.58.24-11.16.68-16.73C92.69,360.75,93.33,360.85,93.51,361.7Z"/>
          <path class="cls-2" d="M95.11,303.77c-2.56-.12-4.91.86-7.33,1.43-1.49.35-3,.75-4.46,1.13l-.38-3c4.82,1.08,8.55-1,10.25-5.74.46-1.28.85-2.59,1.28-3.88,1.82,0,2.9,1.19,3.89,2.5-.73,2.3-1.84,4.47-2.49,6.81A1,1,0,0,1,95.11,303.77Z"/>
          <path class="cls-9" d="M109,363c1.53-.31,2,.35,1.87,1.83-.63,8.46-.39,16.94-.26,25.41a142.39,142.39,0,0,0,1.07,15.37,50.25,50.25,0,0,1-.1,8.89c-.9-1.36-.43-2.94-1-4.32Q110,399,110,387.74c0-4.74.12-9.49,0-14.23C109.81,370,109.35,366.48,109,363Z"/>
          <path class="cls-10" d="M65.6,312.9c1.54-.51,3,.23,4.47.43A16.52,16.52,0,0,0,78.29,312c4.75-1.81,9.42-3.83,14.38-5,.36-.09,1.13-.79.83.44a42.77,42.77,0,0,1-9.93,4,37.19,37.19,0,0,0-7.77,2.26A11.53,11.53,0,0,1,65.6,312.9Z"/>
          <path class="cls-5" d="M210,450.82c1.63,3.15,3,6.44,4.31,9.71.83,2,1.69,4,2.57,6,.22.5.39,1.11,1.14,1.09-.19,1.06-.69.6-1.15.23a11.09,11.09,0,0,1-2.61-3.59A45.4,45.4,0,0,1,210,450.82Z"/>
          <path class="cls-11" d="M59.69,299a22.22,22.22,0,0,0,2.43,3.54A3.31,3.31,0,0,1,59.69,299Z"/>
          <path class="cls-12" d="M63,302.71c.63.09,1.32-.3,1.88.24C64.28,302.92,63.59,303.31,63,302.71Z"/>
          <path class="cls-13" d="M197.5,381.23l-4.05,1.34A56.89,56.89,0,0,1,170,384.74a4.53,4.53,0,0,1-3.79-.37c-1.24.1-2.27-.64-3.44-.82-4.44-1.5-6-5.3-7.39-9.25a10.08,10.08,0,0,1-.67-3.89c1,.15.9,1,1.08,1.66a16.55,16.55,0,0,0,1.88,4.58c0-1.61-.35-2.86-.31-4.14a132.44,132.44,0,0,1,2.34-22.34,49,49,0,0,0,1.4-10.13,40.91,40.91,0,0,0-1.12-9.07c-1.39-5.78-2.32-11.68-4.39-17.29-.3-.83-.28-1.73-.51-2.58q-.18-3.85-.36-7.71a2.45,2.45,0,0,1,.31-1.63l.11-.18a14.59,14.59,0,0,0,1.32-1c1.28-1,2.73-1.74,3.6-3.17a4.17,4.17,0,0,0,.9-1.78c0-.14.07-.27.11-.4a5,5,0,0,0,0-1.9c-.34-1.31-1.3-1.65-2.52-1.74-1-.07-2,.48-3,0-.71-1.46,0-2.86.3-4.22,1.31-5.26,3.35-10.14,8-13.42a9.85,9.85,0,0,1,8.2-1.84,1.19,1.19,0,0,1,.43.94,2,2,0,0,0,1.63,2.11c1.25.22,1.21-1,1.7-1.62.29-.8.67-.88,1.41-.37,3.76,2.58,7.37,5.31,10.15,9a17.74,17.74,0,0,1,3.85,5.25,1.75,1.75,0,0,1,.2,1,62.26,62.26,0,0,1,2.92,9.58c.56,3.17,1,6.35,1.38,9.55.5,4.26,1,8.52,1.51,12.79.28,2.6.44,5.21.66,7.82a69.39,69.39,0,0,0,1.5,9.65,27.51,27.51,0,0,0,1.06,16.84,6.86,6.86,0,0,0,2.77,3.05c1.91,1.31,3.83,2.63,5.7,4a6.53,6.53,0,0,0,4.51,1.23c1.72,2.75.78,6.82-2,9.53a49.35,49.35,0,0,1-8.58,6.3Z"/>
          <path class="cls-4" d="M108.39,228.83c2.44-2,4.46-4.54,7.1-6.39A33.77,33.77,0,0,1,128.44,217c3.09-.61,6.25-.76,9.32-1.53a13.77,13.77,0,0,0,8.67-6.76c2-3.23,3.11-6.86,5.15-10.05,3.44-5.4,7.88-9.6,14.3-11,8.17-1.73,18.47,2.5,20.46,13a12.52,12.52,0,0,1,.09,1.7c-.33,1.5-1.27,2.11-3.1,1.95a14.18,14.18,0,0,1-5.13-1.66,15.94,15.94,0,0,0-5.45-1.7c-4.68-.52-9.4,3.64-10.82,7.58a87.3,87.3,0,0,0-2.63,9.08,23.56,23.56,0,0,1-2.1,5.82c-1.12,2-2.52,2.13-3.88.23-.39-.55-.63-1.19-1-1.76s-.54-1.06-1.16-.74-.29.92-.13,1.39a8.49,8.49,0,0,0,2.26,3.47c.44.43,1,.78,1.1,1.45a47.62,47.62,0,0,0,3,14.45,27.84,27.84,0,0,0,8.85,12.42c.36.29.79.51.91,1-.59,1.18-1.86,1.38-2.86,2-3,.36-5.18,2.34-7,4.42-2.63,2.93-5.17,5.86-8.52,8a5.87,5.87,0,0,1-6,.65,50.12,50.12,0,0,0-5.65-2.13,3.28,3.28,0,0,0-3.69.71c-1.72,0-3.34-.83-5.08-.68a8.64,8.64,0,0,0-2.1.14c-3.75.6-6.64,2.76-9.3,5.26-1.77,1.66-3.43,3.44-5.17,5.13-.45.44-.83,1.13-1.67.84a2.22,2.22,0,0,0-2.06-.29,12,12,0,0,1-7.87-.73,7.06,7.06,0,0,1-3.55-9.83,18.16,18.16,0,0,1,2.5-3.91,31.36,31.36,0,0,0,5.06-8.12,11.07,11.07,0,0,0,.82-6.2,44.61,44.61,0,0,1-1-6.27c-.19-5,1.9-9.23,4.92-13,.73-.93,1.52-1.8,2.32-2.84-.79-.27-1.16.26-1.63.46S108.72,229.64,108.39,228.83Z"/>
          <path class="cls-14" d="M271.17,355.19a5.83,5.83,0,0,1-5.7,4.88c-1.5,0-2.85.78-4.33.44a.41.41,0,0,1-.56,0c-1,0-2.06,0-3.08,0a63.94,63.94,0,0,1-17.4-2.65,22.71,22.71,0,0,0-5.28-1.11,3.24,3.24,0,0,1-1.6,0c-.93-.33-2-.3-2.74-1.13-3.22-1.61-3.84-4.4-3.69-7.68.17-3.65,1.24-7.09,2.16-10.57.62-2.33,1.18-4.67,1.77-7,.9-.18,1.14-1,1.49-1.65,2.43-4.61,4.66-9.33,6.85-14.06a14.19,14.19,0,0,0,1.06-6.79c-.15-3.23-.67-6.45-.24-9.72.31-2.39-.21-4.83-.4-7.24a10.27,10.27,0,0,1,.22-4.06c-.12.38-.31.62-.76.44l-.13-.07a.43.43,0,0,1-.08-.35,4.16,4.16,0,0,1,.2-.54c0-.12.1-.24.16-.36a4.33,4.33,0,0,0,.52-2.34,6.87,6.87,0,0,1,1.45-3,28.64,28.64,0,0,1,3.91-5.29,7.54,7.54,0,0,1,4.72-2.57.44.44,0,0,1,.4.12,1.39,1.39,0,0,1,.09.44c0,.5-.05,1.12.64,1.18s.86-.56,1.07-1.08.06-1.34.69-1.77c4.85.68,6.36,4.72,8.19,8.31,1.45,2.83,1.6,6.08,2.3,9.16.24,1-.78.69-1.08,1.11-.41,1-1.94,1.32-1.62,2.74.1,1.2,1.56,1.08,2,2,1.32.14,1.65,1.08,1.73,2.18.09,1.39.2,2.79.19,4.18a65.75,65.75,0,0,0,3.23,20.13,69.51,69.51,0,0,1,2.12,10.87c.32,2.25.71,4.5,1.13,6.74a4.79,4.79,0,0,1,.06,1.21c-.36.63-.08,1.37-.33,2a12.35,12.35,0,0,0-.12,2.9,17.7,17.7,0,0,1-1.74,7.64,9,9,0,0,1-4.69,4.31c-3.66,1.55-7.56,1.92-11.13,2.29a92.11,92.11,0,0,0,9.21-.6c3.19-.3,6.08-1.16,8.32-3.6a.94.94,0,0,1,.41-.21A.61.61,0,0,1,271.17,355.19Z"/>
          <path class="cls-4" d="M237.65,228.16A20,20,0,0,1,243,212.84c4.4-4.71,10.6-7,17.13-4.5,3.76,1.42,5.81,4.52,7.48,8a33.23,33.23,0,0,1,2.51,7.79c.84,4,3.19,7.06,5.63,10.15a43.47,43.47,0,0,0,8.56,7.65,4.1,4.1,0,0,1,1.76,2.1,2.94,2.94,0,0,1,.35,1.5c-.28,4.52,2.35,7.49,5.38,10.3,1.79,1.66,3.95,2.82,5.69,4.53a6.64,6.64,0,0,1,2,3.59,19,19,0,0,1,.5,4.75,8.11,8.11,0,0,1-3.65,6c-.89.67-1.25,1.36-.31,2.26-3.65,2.19-7.74,3.07-11.81,4a13.66,13.66,0,0,1-7.8-.3c-1.83-.93-2.81-2.66-3.93-4.24a19.92,19.92,0,0,1-2.59-6.25c-.24-.84-.53-1.67-.77-2.51a8.74,8.74,0,0,0-4.88-5.68,20.56,20.56,0,0,1-5.42-3.24c-.94-.9-1.89-1.79-1.64-3.29a32.24,32.24,0,0,0,3.56-8.5c.15-.54.32-1.12,1-1.16.86.32,1.15,1.3,2,1.75a17.39,17.39,0,0,1-2.07-9.42,12,12,0,0,0-3-8.72,10.09,10.09,0,0,1-2.25-4.7c-.49-2.33-1.05-4.64-1.72-6.92a18.38,18.38,0,0,0-1.63-4c-.92-1.61-1.35-1.77-3.13-1.18-2.83,0-4.74,1.52-6.38,3.68-2.43,3.19-4.44,6.55-5.13,10.56a2.84,2.84,0,0,1-.49,1.29A.3.3,0,0,1,237.65,228.16Z"/>
          <path class="cls-5" d="M167.06,255.46a29.44,29.44,0,0,1-10.67-15.13,46.35,46.35,0,0,1-2.27-12.82c.31-.56.8-.36,1.23-.25a5,5,0,0,0,4.62-1.19,12.28,12.28,0,0,0,3.51-4.66c1-2.17,1.89-4.37,2.82-6.55a21,21,0,0,1,3.27-5,6.71,6.71,0,0,1,5-2.77c3.5-.21,7-.4,10.51-.55a.67.67,0,0,1,.41.19c1.85,3.53,2.63,7.38,3.39,11.23a49.16,49.16,0,0,1,.57,12.63c-.49,7.69-2.35,15-7.47,21.09a3.19,3.19,0,0,1-1.79,1.41c-.23-.56.19-.87.48-1.2,3.71-4.21,5.53-9.26,6.5-14.67.2-1.11.4-2.23.47-3.08a44.5,44.5,0,0,1-6,14.38,24.31,24.31,0,0,0-1.73,2.93,1.16,1.16,0,0,0,.31,1.63,5.56,5.56,0,0,1-2.42,1.81c-2.08,1.16-2.13,1.57-1.84,3.83.62,4.76,1,9.54-.4,14.25a2.58,2.58,0,0,1-.29-2.08c.48-4.24-.36-8.46-.23-12.69,0-.23,0-.52-.74-.66.1,5.42.07,10.75,1.25,16a1,1,0,0,0,.27,0c.22,1.14-.11,2-1.35,2.1a2.14,2.14,0,0,1-2.32-1.81,8.18,8.18,0,0,1-.07-1.53,26,26,0,0,1-1.59-8.75,47.31,47.31,0,0,1-.34-5.38c0-.76-.48-1-1.09-1.31S167.39,256.36,167.06,255.46Z"/>
          <path class="cls-5" d="M237.87,228.17c.69-5.24,3.2-9.6,6.62-13.49a5.9,5.9,0,0,1,5.5-2.34c.58.17.69.71.93,1.15a29.52,29.52,0,0,1,3.25,9.94,14.55,14.55,0,0,0,3.63,7.88,8.24,8.24,0,0,1,2.16,5,34.24,34.24,0,0,0,1.74,8.45,1.11,1.11,0,0,1,0,1c-.42.22-.42.64-.54,1a25.39,25.39,0,0,1-3.7,8.64c-.41,1.06-.92,2-2.2,2.19-1.94.7-2.64,2-2.53,4.11.16,3.27-.09,6.56-.17,9.84-.1.65-.2,1.3-.31,2-.17.95-.61,1.76-1.7,1.45s-1-1.23-.58-2.1c-.51-1.26-.13-2.55-.09-3.82.08-2.78-.05-5.57.27-8.35a4.64,4.64,0,0,0-1.91-4.48c-5.58-4.09-7.68-10.12-9.13-16A24.6,24.6,0,0,0,243,253c.24.39.5.81.14,1.28-2.24-2.22-3.2-5.11-4-8a36.17,36.17,0,0,1-1.11-13.58,14.05,14.05,0,0,0-.24-2.76A3.44,3.44,0,0,1,237.87,228.17Z"/>
          <path class="cls-5" d="M241.06,280.62a11.85,11.85,0,0,1-1.24,3c.2,1-.52,1.8-.63,2.73a.21.21,0,0,1-.08.2c-3.19.09-6.35.6-9.52.91a35.66,35.66,0,0,1-10.32-.5,5.88,5.88,0,0,1-3.44-2.22c-.65-.79-1.25-1.63-1.88-2.58,0,.61.2,1.21-.3,1.63-1.46-2.17-2.11-4.75-3.53-7.06-5.1,3.89-10.49,7.34-15.93,10.72-.84.52-1.57,1.58-2.83,1-.4-.22-.29-.63-.35-1a3.79,3.79,0,0,1,1.73-4.13c1.64-1,3.08-2.24,4.63-3.34,2.69-1.91,5.45-3.71,8.18-5.56,2-1.33,2.19-2.46,1-4.34.58-.79,0-1.45-.28-2.1-.76-1.62-1.6-3.2-2.37-4.81a7.45,7.45,0,0,1-.68-1.85c-.1-.57-.3-1.31.4-1.67s1.09.14,1.51.48a9,9,0,0,1,2.33,3c.55,1.08,1.08,2.17,1.61,3.25.66-.15,1.07-.5,1-1.24,2.16-4.13,4.32-8.26,6.21-12.54a70.23,70.23,0,0,0,5.57-18.89,172.51,172.51,0,0,1,4-22.14,5,5,0,0,1,.13-.75c.17-.36.3-.88.78-.86s.49.67.54,1a49.24,49.24,0,0,1,.33,11.41c-.2,2.75-.43,5.51-.78,8.26-.59,4.56-1.23,9.1-2.21,13.59a130,130,0,0,1-4.36,16.26c-1.17,3.26-2,6.68-4,9.59-.84,1.22-1.78,2.37-2.71,3.52-.3.37-.42.62-.15,1.08,1.61,2.74,3,5.64,5.25,7.94a7.13,7.13,0,0,0,5.09,2.16A28.93,28.93,0,0,0,233.6,283C236.08,282.17,238.57,281.4,241.06,280.62Z"/>
          <path class="cls-8" d="M108.39,228.83c.81.55,1-.49,1.5-.63s1.22-1,1.78-.38-.23,1.19-.67,1.68a27.32,27.32,0,0,0-5.34,8.08,14.32,14.32,0,0,0-.78,9.82c1.77,5.83-.09,10.72-3.51,15.31-1.17,1.57-2.36,3.13-3.49,4.72a7.79,7.79,0,0,0-1.56,4.31c-.13,4.2,1.57,6,6.21,7.37,2.07.59,4.08.12,6.11-.22.73-.12,1.64-.47,1.64.86-.23,1.51-1.53,2-2.57,2.81a26.68,26.68,0,0,1-7.15,1.92,2.75,2.75,0,0,1-2-.37c-1.45-.62-3-1-4.48-1.51-4-1.45-5.41-4.45-5.81-8.32-.45-4.34,1.5-7.78,4-11.05.37-.49.69-1,1-1.53a2.91,2.91,0,0,0,.28-.31A12.11,12.11,0,0,1,96.87,258a10.83,10.83,0,0,0,4.07-4.82,3.26,3.26,0,0,0,.14-1.65c.33-1.5-.31-3-.14-4.45.62-1.78.25-3.68.64-5.5a24.23,24.23,0,0,1,6-11.52A8.81,8.81,0,0,0,108.39,228.83Z"/>
          <path class="cls-5" d="M230.47,355.54l2.78.87a2.58,2.58,0,0,1,.11,1.52c-1.15,10.48-2.06,21-3.12,31.46-.67,6.56-1.24,13.13-1.78,19.7-.4,4.93-.73,9.86-.94,13.77.77-6.63,1-14.33,1.61-22,.48-6.35,1.74-12.57,2.52-18.87a50.77,50.77,0,0,0,.52-5.55c0-.61-.18-1.39.71-1.67.07,4.94-.46,9.84-.82,14.76-.21,2.92-.41,5.84-.69,8.75-.37,3.82-.85,7.63-1.17,11.45s-.82,7.43-1.33,11.12A97.53,97.53,0,0,1,226,436.17c-.13.42-.11,1.25-.8,1.11-.46-.09-.55-.81-.58-1.3a138.66,138.66,0,0,1-.05-19.93c.19-2.51.16-5,.27-7.56.18-4,.44-8,.76-12,.5-6.12,1-12.24,1.73-18.35q.9-8.08,2-16.14A32.54,32.54,0,0,1,230.47,355.54Z"/>
          <path class="cls-8" d="M185.45,206.68a35.92,35.92,0,0,1-8.92.6c-4.95-.18-7.27,2.85-9.22,6.47-1.36,2.54-2.37,5.27-3.51,7.92a13.66,13.66,0,0,1-3,4.27,6.31,6.31,0,0,1-6.66,1.57c-1-1.26-2.43-2.23-3.07-3.82a7.19,7.19,0,0,1-.36-.86c-.21-.81-.89-1.82.25-2.31s1.45.63,1.87,1.38a8.35,8.35,0,0,0,1.3,2.1c1.08,1.06,1.76,1,2.54-.35a21.38,21.38,0,0,0,2.1-5.48c.78-3,1.5-6.11,2.55-9.09,2.25-6.35,8.9-11.29,16.89-6.91a14.29,14.29,0,0,0,4.64,1.66c1.5.24,2.88.14,3.62-1.49,1-.1,1,.56.83,1.2A4.71,4.71,0,0,1,185.45,206.68Z"/>
          <path class="cls-5" d="M261.2,360.77a2,2,0,0,1,.46,0c1,.25,2.34-.7,3,.12s.62,2,.8,3.07c.81,4.73,1.67,9.46,2.25,14.23.75,6.08,1.82,12.12,3.16,18.11,1.08,4.85,1.83,9.73,2.44,14.66a125.37,125.37,0,0,0,2.89,14.42,21.29,21.29,0,0,1,.8,6.39,3.8,3.8,0,0,1,0,.77c-.15.51-.15,1.3-.79,1.31s-.63-.68-.81-1.18c-1-2.82-1.16-5.8-1.67-8.71-1-5.65-2.78-11.1-4-16.69-1.48-6.89-2.86-13.8-4.29-20.7.14-2-.57-3.86-.86-5.78-.91-6.08-2.1-12.1-3.46-18.1C261,362.06,260.68,361.4,261.2,360.77Z"/>
          <path class="cls-5" d="M260,293.08c-.27-1.6.81-2.26,2-2.84,4.46.4,8.78-.61,13.15-1.22a79.66,79.66,0,0,0,17.16-4.61,28.73,28.73,0,0,0,8.12-5.21c5.4-4.49,10.89-8.89,17.17-12.15a6.36,6.36,0,0,1,2.09-.6,47.54,47.54,0,0,1-5.86,6.77c-8.53,7.82-18.68,12.9-29.29,17.11a33.66,33.66,0,0,1-13.79,2.56,33.42,33.42,0,0,0-9.41.64C260.8,293.66,260.28,293.69,260,293.08Z"/>
          <path class="cls-15" d="M238.93,287.23c.6-.07.53-.85,1.12-1-.73,3,0,5.86.17,8.77.07,1.65,0,3.26-.07,4.89a47.06,47.06,0,0,0,.35,8,12,12,0,0,1-1.09,7c-2.2,4.72-4.54,9.37-6.84,14a8.61,8.61,0,0,1-1.06,1.7c-.44.53-.68.17-.79-.32a11.27,11.27,0,0,1,.95-3.68c2.32-6.35,3.15-13,3.67-19.68a58.77,58.77,0,0,1,.79-6.59,4.62,4.62,0,0,0,0-1.69c.61-3,1.21-5.91,2.07-8.81C238.47,289,239.17,288.24,238.93,287.23Z"/>
          <path class="cls-8" d="M296,276.94c-1.45-.51-1.61-1.09-.56-2.1.67-.64,1.39-1.23,2.11-1.82,1.69-1.38,2.07-3.33,2.06-5.3,0-4.08-1.55-7.29-5.3-9.45a21.76,21.76,0,0,1-6.36-6c-1.86-2.49-2.13-5.3-1.9-8.25,1.24,1.1,1.43,2.78,2.24,4.14a12.54,12.54,0,0,0,7,5.7c5.81,2,8.22,7.53,7.61,13.2-.23,2.09-.5,4.14-2,5.8a10.41,10.41,0,0,0-1,1.4A8.29,8.29,0,0,1,296,276.94Z"/>
          <path class="cls-16" d="M213.39,362.93a2.83,2.83,0,0,1-3.32-.1,88.58,88.58,0,0,1-8-5.48c-2.19-1.57-2.71-4.05-3.26-6.47a32.45,32.45,0,0,1-.32-11.51,1.94,1.94,0,0,1,.87-1.56,46.55,46.55,0,0,0,6,15.19,45.45,45.45,0,0,0,6.92,8.33A5.92,5.92,0,0,1,213.39,362.93Z"/>
          <path class="cls-7" d="M260,293.08c1.21.56,2.3-.23,3.43-.38a38.25,38.25,0,0,1,6.48-.22c6.38.24,12.33-1.43,18.08-4A103.44,103.44,0,0,0,307.22,278a49.54,49.54,0,0,0,5.25-4,2.8,2.8,0,0,1,1.35-.72c-1.64,2.51-4.06,4.24-6.38,6a77.89,77.89,0,0,1-18.54,10.54,90.4,90.4,0,0,1-17.84,4.87c-2.9.49-5.83.19-8.74.37C261.45,294.46,260.15,294.47,260,293.08Z"/>
          <path class="cls-7" d="M232.89,374.77c-.6,1.73-.28,3.55-.5,5.32-.42,3.31-1,6.59-1.46,9.89-.65,4.72-1.49,9.41-1.76,14.2-.35,6.2-.08,12.45-1.47,18.58-.12.53-.06,1.11-.22,1.65,0-2.86-.23-5.7.05-8.56s.34-5.64.76-8.44c.87-5.85.68-11.78,1.49-17.65.52-3.81.63-7.67,1-11.51.34-3.57.88-7.13,1.16-10.7.26-3.33.57-6.65,1-10a9.47,9.47,0,0,1,.31-1.18,2.58,2.58,0,0,1,1.55.3c.16,3.29-.77,6.45-1.14,9.68a31.19,31.19,0,0,0-.43,5.8A6.46,6.46,0,0,1,232.89,374.77Z"/>
          <path class="cls-8" d="M255.28,257.7l2.2-2.19c0,2.43,2.1,3.25,3.64,4.4a16.85,16.85,0,0,0,3.16,1.61,8.88,8.88,0,0,1,5.26,6.1c1.23,4.91,3,9.5,6.88,13-.6.61-1.06,0-1.48-.24a15.14,15.14,0,0,1-6.56-8.39c-.52-1.55-1.05-3.1-1.65-4.63-.67-1.69-2.16-2.57-3.63-3.42-1.25-.72-2.56-1.33-3.79-2.08A11,11,0,0,1,255.28,257.7Z"/>
          <path class="cls-5" d="M206.51,270.08c1.74,1,1.69,3-.15,4.29-2.67,1.84-5.34,3.7-8.08,5.44-2.06,1.3-3.78,3-6,4.19-.91.47-1.18,2.16-1.26,3.46-.6-.15-.66-.74-.92-1.15-.74-1.21-1.23-2.6-2.66-3.25-.45-.2-.3-.58-.11-.92C194.83,279.89,200.63,274.92,206.51,270.08Z"/>
          <path class="cls-15" d="M270.19,342.14c.24-.6-.48-1.51.58-1.85a.38.38,0,0,1,.06.24,52,52,0,0,1,.6,12.28,5,5,0,0,1-.62,2.37c-1.79,2.58-4.53,3.62-7.41,4a60.51,60.51,0,0,1-9.84.71,3.76,3.76,0,0,1-2.13-.54c3.3-.65,6.53-.81,9.67-1.63,5.22-1.36,7.77-4.19,8.5-9.53a16.89,16.89,0,0,0,.3-2.91C270.32,344.25,269.79,343.15,270.19,342.14Z"/>
          <path class="cls-9" d="M243.18,254.3c-.72-1.76-1.88-3.28-2.55-5.08a21.1,21.1,0,0,1-1.74-10.42c.69,2.05,1.31,3.72,1.81,5.42A21.39,21.39,0,0,0,248.51,256a5.33,5.33,0,0,1,2.05,5.42,28.2,28.2,0,0,0-.22,4.62c.09,2.33-.29,4.63-.37,6.94l-.3-.19a8.14,8.14,0,0,1-.35-3.64c.21-3-.12-6,.21-8.94a2.26,2.26,0,0,0-1.82-2.48A7.46,7.46,0,0,1,243.18,254.3Z"/>
          <path class="cls-7" d="M213.66,283.79c.23-.88-.55-1.68-.15-2.68,1.07.83,1.56,2,2.35,3a6.25,6.25,0,0,0,3.9,2.5,39.64,39.64,0,0,0,12.87,0A41.43,41.43,0,0,0,238,286c.57-.16.83.27,1.16.58l-.25.32c-1.89,1.31-4.12,1.11-6.25,1.38a3.64,3.64,0,0,0-1.22.11c-3.59.52-7.21.24-10.82.38S214.88,287.16,213.66,283.79Z"/>
          <path class="cls-3" d="M159.91,175a15.75,15.75,0,0,1,3.51-5,137.61,137.61,0,0,1,10.26-9.87c6-5.34,12.42-10.25,16.39-17.48.49-.9,1-1.77,1.56-2.65a26.65,26.65,0,0,1-5.23,9.68c-4,5.07-9.05,9.07-14.11,13-4.41,3.46-8.61,7.16-11.79,11.87A2.24,2.24,0,0,1,159.91,175Z"/>
          <path class="cls-9" d="M261.2,360.77c.88,4.26,1.82,8.5,2.63,12.77.74,3.91,1.36,7.85,2,11.79.07.44.14.94-.37,1.24-1.78-6.22-3.09-12.55-4.58-18.84a48,48,0,0,0-1.37-5c-.44-1.23-.45-2,1.06-2.2h.56A1.88,1.88,0,0,0,261.2,360.77Z"/>
          <path class="cls-10" d="M175.49,273.5c-1.12-1.25-1-2.9-1.18-4.37a26.18,26.18,0,0,1-.37-6.3,34.46,34.46,0,0,0-.33-4.6,1.32,1.32,0,0,1,.84-1.46c.67-.29,1-.11,1,.59a2.5,2.5,0,0,1,0,.31c-.21,4,.48,8,.33,12,0,1.08-.53,2.11-.31,3.21Z"/>
          <path class="cls-17" d="M236.14,298.66c.64,2.2,0,4.4-.2,6.56a96.61,96.61,0,0,1-1.13,10.53c-.7,3.73-1.38,7.45-3.15,10.86.57-2.62,1.2-5.24,1.7-7.88a48.09,48.09,0,0,0,.8-5.89,105.77,105.77,0,0,1,1.72-12.54A6.83,6.83,0,0,1,236.14,298.66Z"/>
          <path class="cls-18" d="M270.82,355.18c.91-4,.5-8,0-12a23,23,0,0,1,0-2.62,14.75,14.75,0,0,1,.87,4.7,39.92,39.92,0,0,1-.27,9.46c0,.21-.05.4-.27.49Z"/>
          <path class="cls-5" d="M231.4,288.37l7.47-1.5q0,.14-.07.29a1.71,1.71,0,0,1-2,1.29C235,288.33,233.19,288.38,231.4,288.37Z"/>
          <path class="cls-5" d="M210,265.14a.85.85,0,0,1,0,1.22.59.59,0,0,1-1,0C209.06,265.74,209.79,265.64,210,265.14Z"/>
          <path class="cls-19" d="M300,274.22c0-.71.47-1.07,1-1.4C301.07,273.56,300.43,273.82,300,274.22Z"/>
          <path class="cls-20" d="M237.87,228.17l0,1.77c-.55-.54-.14-1.18-.18-1.77Z"/>
          <path class="cls-21" d="M95.11,303.77c1.1-2.5,1.63-5.24,3.1-7.58.82-.23,1.32.4,1.9.75,1.08.66,2,1.53,3.14,2.15a75.7,75.7,0,0,1,6.58,4.91c.37.32.94.53.8,1.2.22,1.4.42,2.81.68,4.21a67.13,67.13,0,0,1,.83,7.32c.36,4.69.12,9.4.37,14.09.45,8.28,1.11,16.56,3,24.68a5.45,5.45,0,0,1,0,1.24c-5.94,3.46-10.87,1.93-15.53-1.56-2.57-1.93-3.68-4.93-4.24-7.91A149.39,149.39,0,0,1,93,328.41c-.21-3.5.08-7-.5-10.51a29.16,29.16,0,0,1,.13-3.7,31,31,0,0,1,1.83-6.83,9,9,0,0,0,1-.37c.73-.37,1.52-.66,1.47-1.73S95.91,304,95.11,303.77Z"/>
          <path class="cls-22" d="M92.61,314.2a23.16,23.16,0,0,1,.5,6.09A127.3,127.3,0,0,0,95.58,344a40.13,40.13,0,0,0,1.59,6.24c1.73,4.7,5.4,6.71,10,7.77a10.32,10.32,0,0,0,7.26-1.25,1,1,0,0,1,1.12,0c1.09,2.41.42,3.88-2.44,5.31-1.28.66-2.78.34-4.08.91-3-.12-6,.59-9.06,0-1.41-.26-2.83-.42-4.25-.63l-2.19-.65L92,360.79c-2.49-2.55-2.54-5.87-2.81-9.1-.44-5.08.55-10.08,1.05-15.1.2-2,.49-4.08.52-6.15a88.86,88.86,0,0,1,1.58-15.71A2,2,0,0,1,92.61,314.2Z"/>
          <path class="cls-16" d="M155,311.1a79.12,79.12,0,0,1,4.29,15.24c.44,2.53,1.17,5,1.63,7.52a38.07,38.07,0,0,1-.47,14.67A103.17,103.17,0,0,0,158.37,363c-.21,3.38-.59,6.75-.59,10.15,0,1.49.62,2.94.2,4.58-1.38-1.27-1.8-3-2.37-4.56-.32-.91-.27-1.94-.92-2.74-.62-1.17-.41-2.5-.57-3.74-.74-5.89-.14-11.76.53-17.63.3-2.64.43-5.31.66-8,.7-8.14,0-16.29-.08-24.44C155.2,314.8,155,312.95,155,311.1Z"/>
          <path class="cls-7" d="M110.62,305.2a63.79,63.79,0,0,0-6.82-5.31,6.76,6.76,0,0,1-.66-.6c-.66-.55-.29-.77.3-.83a3,3,0,0,1,1.45.47c3.54,1.57,7,3.32,10.58,4.78,4.08,1.67,8.26,3,12.78,2.57a78.71,78.71,0,0,0,12.89-2.57,53.49,53.49,0,0,0,16.52-6.85c.8-.53,1.82-1.25,2.68.06a.63.63,0,0,1-.05.49c-.63,1.83-2.35,2.47-3.75,3.45-.49.36-1.09.53-1.55.93h0c-1.78.22-3.23,1.31-4.9,1.85-7.62,2.48-15.15,5.25-23,7.07a12.89,12.89,0,0,1-11.23-2.13A27,27,0,0,0,110.62,305.2Z"/>
          <path class="cls-5" d="M160.22,297.11c-.66-1.08-1.53-.49-2.12-.08-8,5.49-17.25,7.37-26.46,9.3-5.6,1.18-11.06.09-16.26-2.19-3.82-1.67-7.59-3.48-11.4-5.19-.26-.12-1-1-.85.32-1.84-.71-3.14-2.29-4.92-3.1a17.1,17.1,0,0,0-3.75-2.44c-3.22-2.71-6.44-5.41-9.64-8.15a4.76,4.76,0,0,1-1.66-2.38,1.81,1.81,0,0,1,.49-2,1.54,1.54,0,0,1,2,0,49,49,0,0,1,6.63,5,18.9,18.9,0,0,0,3.6,2.6c1.89.43,3.25,1.9,5.18,2.68.46-2.61,1-5.11-.48-7.53a50.1,50.1,0,0,0,7.25-1.84,1,1,0,0,1-.46,1.07c-2.46,1.58-2.45,4.11-2.55,6.59a16.12,16.12,0,0,1-.22,3.23c0,1.06,1,.94,1.61,1.27,2,1,4,1.86,6.06,2.79a1.67,1.67,0,0,0,2.42-.61c1.63-3,3.79-5.67,5.28-8.75,2.88-5.95,5.24-12,5.79-18.7a1.53,1.53,0,0,1,.42-1,4,4,0,0,1,2.13-.14,1.26,1.26,0,0,1,.27,1.16,112.1,112.1,0,0,1-4.5,19.94,25.46,25.46,0,0,1-4.94,8c-.3.36-.62.69-.92,1.05-.53.67-.42,1.12.42,1.35a16.55,16.55,0,0,0,3.66.63c4.19.23,8.21-.72,12.26-1.57,6.62-1.4,12.8-4.07,19.07-6.48a4.23,4.23,0,0,1,2.08-.53,10.25,10.25,0,0,1,3.18-.36,2.4,2.4,0,0,1,2.6,2.26c-.32.68.11,1.46-.27,2.14v0C160.86,296.05,160.93,296.83,160.22,297.11Z"/>
          <path class="cls-23" d="M100.94,247.05a7.38,7.38,0,0,1,.41,4.76c-.43,2.9-2.36,4.75-4.48,6.47a26.24,26.24,0,0,0-3.32,3.3c-.52-2.12.38-4,.94-6a6.57,6.57,0,0,1,.44-1.31,16.28,16.28,0,0,1,.9-2,9,9,0,0,1,1.34-2.18,1.33,1.33,0,0,0,.11-.25,11.94,11.94,0,0,1,2.08-2.24,9.2,9.2,0,0,1,1.3-.52A1.08,1.08,0,0,0,100.94,247.05Z"/>
          <path class="cls-2" d="M100.56,284.06c2.14,1.29,1.22,3.39,1.26,5.17,0,1-.24,2-.31,3.19a54.67,54.67,0,0,1-5.65-3.51,38,38,0,0,1,2.66-4.81Z"/>
          <path class="cls-24" d="M94.7,255.49a16.25,16.25,0,0,0-1.15,6.09l-.34.11a13.7,13.7,0,0,1,1.19-6.19C94.51,255.35,94.61,255.35,94.7,255.49Z"/>
          <path class="cls-2" d="M99.46,247.7a12.09,12.09,0,0,1-2.18,2.21c.11-1.13,1.14-1.52,1.79-2.21A.32.32,0,0,1,99.46,247.7Z"/>
          <path class="cls-25" d="M97.17,250.16l-1.31,2.23c-.13.11-.23.08-.32-.06C95.93,251.49,96.13,250.51,97.17,250.16Z"/>
          <path class="cls-25" d="M95.55,252.34l.32.06-.77,1.87a.25.25,0,0,1,0-.41C94.87,253.23,95.24,252.79,95.55,252.34Z"/>
          <path class="cls-2" d="M95.06,253.85l0,.41-.39,1.23h-.29A2.41,2.41,0,0,1,95.06,253.85Z"/>
          <path class="cls-25" d="M99.46,247.7h-.39a1.41,1.41,0,0,1,1.6-.54Z"/>
          <path class="cls-7" d="M166.18,384.37a16.73,16.73,0,0,1,3.79.37,10.86,10.86,0,0,1,.35,5.28,32.19,32.19,0,0,0-.1,4.93,4.79,4.79,0,0,1-.29,2.12c0,3.83-.22,7.67,0,11.48.32,5,.06,10,.62,15a87.13,87.13,0,0,1,.22,10.52,69,69,0,0,1-.72,6.93h-.39c-.55-3.2-1.11-6.4-1.63-9.61a150.08,150.08,0,0,1-1.65-17.79c-.14-3.35.06-6.72-.26-10-.54-5.73-.12-11.46-.28-17.19A3.3,3.3,0,0,1,166.18,384.37Z"/>
          <path class="cls-2" d="M155.68,291.53c-6.49,2.79-13,5.53-19.9,7.13-4.34,1-8.66,2.11-13.19,1.88a20,20,0,0,1-4.82-.88c-.85-.26-1-.45-.4-1.18,1.08-1.23,2.12-2.51,3.13-3.81,2.58-3.31,3.75-7.21,4.78-11.21a139,139,0,0,0,3-15.5c1.86-.27,3.56.42,5.3.91a27.94,27.94,0,0,1,6.55,3.43c5.58,3.63,10.72,2,14.21-2.8a86.7,86.7,0,0,1,8.72-10.68c.52-.52.71-1.26,1.27-1.75l2.73-1.63c2.43.76,3.87,1.86,3.64,5-.29,3.95.74,7.91,1.32,11.84-6.29-.51-10.24,2.79-13.1,8a34.1,34.1,0,0,0-3.28,9.77A6.63,6.63,0,0,0,155.68,291.53Z"/>
          <path class="cls-26" d="M160.22,297.11l1-1.56a1.89,1.89,0,0,1-.93,1.85A1.34,1.34,0,0,0,160.22,297.11Z"/>
          <path class="cls-27" d="M161.2,295.57c.08-.71-.22-1.47.27-2.14C161.38,294.15,161.86,294.93,161.2,295.57Z"/>
          <path class="cls-28" d="M155,301.78a1.79,1.79,0,0,1,1.55-.93A1.83,1.83,0,0,1,155,301.78Z"/>
          <path class="cls-2" d="M104.11,293.33c.55-2,.17-4,.47-6a5.46,5.46,0,0,1,2.54-4.31,3.56,3.56,0,0,0,.7-.81c.7-.94,1.92-1.37,2.45-2.48,2.27-2.23,4.5-4.51,6.84-6.67,2.59-2.4,5.43-4.4,9-5-.17,6.38-2.31,12.22-4.93,17.92a43,43,0,0,1-5.49,9.22,2.52,2.52,0,0,0-.36.82c-.49,1.55-1.64,2.18-3.06,1.55-2.16-1-4.28-2-6.41-3C105.38,294.09,104.57,294,104.11,293.33Z"/>
          <path class="cls-8" d="M164.33,257.08a3,3,0,0,1-1.17,2.26,68.6,68.6,0,0,0-8.23,10,11.51,11.51,0,0,1-7.55,5.22,8.14,8.14,0,0,1-5.68-1c-2.7-1.59-5.61-2.82-8.11-4.73.42-1.87,1.85-1.36,3-1.12a15.6,15.6,0,0,1,4.79,1.7c3.83,2.27,6.82.67,9.76-1.8a37.61,37.61,0,0,0,5.5-5.82c1.44-1.85,3.48-3,5.35-4.31A3.21,3.21,0,0,1,164.33,257.08Z"/>
          <path class="cls-29" d="M239.19,286.35c-.18-1,.54-1.79.63-2.73C240.35,284.7,239.59,285.49,239.19,286.35Z"/>
          <path class="cls-18" d="M270.19,342.14c-.12,1,.31,2.12-.3,3.11C270,344.22,269.58,343.13,270.19,342.14Z"/>
          <path class="cls-8" d="M261.71,245.83A28.66,28.66,0,0,1,259.6,237a7.86,7.86,0,0,0-1.82-5,16,16,0,0,1-4.16-9.17c-.48-3.75-2-7.12-3.64-10.47,1.55-1,2.38-.85,3.35.79a29.85,29.85,0,0,1,3.15,9.49,15.67,15.67,0,0,0,3.34,7.5,9.51,9.51,0,0,1,2.3,6.56c-.06,4.14.23,8.21,2.63,11.84A6.58,6.58,0,0,1,261.71,245.83Z"/>
          <path class="cls-7" d="M180.17,253c-1.2.34-1.31-.14-1-1.16.76-2.12,2.26-3.81,3.32-5.75a48.65,48.65,0,0,0,4.72-12.2c.09-.39.07-.82.63-1.18a27.32,27.32,0,0,1-1.16,8A28.28,28.28,0,0,1,180.15,253Z"/>
          <path class="cls-30" d="M96.87,258.28c1.77-2,3.74-3.79,4.48-6.47.62,1.22-.32,2.08-.83,2.91A7.87,7.87,0,0,1,96.87,258.28Z"/>
          <path class="cls-31" d="M104.11,293.33a2.58,2.58,0,0,1,1.81,1.3C105.21,294.34,104.24,294.4,104.11,293.33Z"/>
        </g>
      </g>
    </g>
  </g>
</svg>
