<?xml version="1.0" encoding="utf-8"?>
<!-- Generator: Adobe Illustrator 21.0.0, SVG Export Plug-In . SVG Version: 6.00 Build 0)  -->
<svg version="1.1" id="Livello_1" xmlns="http://www.w3.org/2000/svg" xmlns:xlink="http://www.w3.org/1999/xlink" x="0px" y="0px"
	 viewBox="0 0 375 667" style="enable-background:new 0 0 375 667;" xml:space="preserve">
<style type="text/css">
	.st0{clip-path:url(#SVGID_2_);}
	.st1{fill:#F6B95D;}
	.st2{fill:#F6938A;}
	.st3{fill:#7CCCCA;}
	.st4{fill:#A0A0A0;}
	.st5{fill:#A1A0A0;}
	.st6{fill:#A0A1A1;}
	.st7{fill:#A2A0A0;}
	.st8{fill:#EF978A;}
	.st9{fill:#A89F9E;}
	.st10{fill:#A5A09F;}
	.st11{fill:#A1A1A1;}
	.st12{fill:#C59B98;}
	.st13{fill:#A5A2A1;}
	.st14{fill:#F2958B;}
	.st15{fill:#A2A3A2;}
	.st16{fill:#A3A2A1;}
	.st17{fill:#A0A3A2;}
	.st18{fill:#A8A3A1;}
	.st19{fill:#BD9C99;}
	.st20{fill:#166D7B;}
	.st21{font-family:'ProductSans-Regular';}
	.st22{font-size:36px;}
	.st23{font-size:12px;}
	.st24{fill:#FA0F0C;}
	.st25{fill:#F55657;}
</style>
<title>Senza titolo-3</title>
<g>
	<g id="Livello_1_1_">
		<g id="nozoomGIALLO">
			<g>
				<defs>
					<rect id="SVGID_1_" width="375" height="668.3"/>
				</defs>
				<clipPath id="SVGID_2_">
					<use xlink:href="#SVGID_1_"  style="overflow:visible;"/>
				</clipPath>
				<g class="st0">
					<g>
						<path class="st1" d="M480,626.1v82.2c-13.7-1.7-27.4-3.7-41.1-5.1c-25.3-2.6-50.6-5.9-76-8.5c-3.8-0.4-7.6-1.2-11.5-1.4
							c-5-0.3-8,1.7-7.9,7c0.2,8.9-4.1,17.8,0.4,26.6c0.4,1.2,0.7,2.4,0.9,3.7c2.4,5.2,6.5,7.8,12.1,8.2c10.5,0.8,20.6,4.5,31.3,4.8
							c1.8,0.2,3.6,0.6,5.2,1.3c1.8,0.7,3.4,1.6,3.2,3.8c-0.2,2.5-2.1,3.5-4.3,3.6c-4.9,0.2-9.8,0.5-14.2,3
							c-3.9,2.5-3.6,6.6-3.6,10.4c0,10.2-0.1,20.4-1.7,30.6c-1.2,7.4-2.9,8.9-10.7,7.7c-1.7-0.7-3-2-3.8-3.7
							c-2.2-5-6.2-6.5-11.1-6.4c-1.9-0.8-3.2-2.5-3.6-4.5c-0.5-4.5,5.9-7.1,3-12.7s-7.2-9.9-12.2-13.5s-10.8-2.6-16.4-1.7
							c-11-1.4-22.1-1.4-33.1-2.9c-4.6-0.6-8.9-0.4-9.7,5.9c-1.1,8.3,0.4,12.1,6.3,13.5c7.5,1.8,15.3,2.2,23,3.2
							c10.3,1.5,13.8,4.6,13.3,11.7c-0.8,9.6-5.8,14.5-15.3,14.9c-5.2,0.2-10.4,0.1-15.5,0.2c-4.8,0.1-7.2,2.3-7.1,7.1
							c0,0.5,0,1,0,1.5c1.4,10.4-1.9,17.7-13.3,19.2c-2.9,3.6-3.1,7.9-3.4,12.3c-0.4,6.7-2.4,8.1-8.8,5.8c-3.8-1.5-7.9-2.2-11.9-2.1
							c-9-3.3-18.4-2-27.6-1.7c-4.5,0.1-6.2,3.3-6.2,7.3c-0.1,9.3-1.9,18.4-1.9,27.7c0,12.3-3.6,15.7-15.7,15.7
							c-30.2,0.2-60.4,0-90.6,0.1c-4.9,0-9.9-0.2-14.1,3c-2.7,1.1-5.7,1.3-8.6,0.7c-13.7-1.4-27.5-1.8-41.2-3.7
							c-2.5-0.3-5.1-0.3-7.3-2c-3.6-3.7-2.8-7.9-1.8-12.3c9.5-43.5,19.1-87,28.6-130.5c1.4-6.3,2.9-12.6,4.3-18.8
							c0.8-3.3,1.7-6.5,4.8-8.5c5.6-1.2,11.4-1.2,17.1-2.4c4,0.4,8.1,0.4,12.1,0.6c3.4,0.1,6.5,0.9,8.3,4.2
							c2.3,6.6-0.8,12.6-2.4,18.7c-1.5,5.6-2.4,11,0,16.5c0.1,1.3,0.4,2.6,0.8,3.8c0.8,2,1.7,3.9,4.2,4c2.9,0.1,4.1-1.9,4.8-4.2
							c2-7.2,4.9-14.2,6.7-21.4c2.6-10.3,8.8-17.1,19-20.7c11.2-4,12.4-7.5,13.7-18.8c1.2-10.9-3.6-17.3-12-22.4
							c-5.5-2.4-12.5,1.2-17.2-4.3c-2.6-10.3,0.6-20.4,1.8-30.4c2.1-17.7,2.6-17.6,20.8-17.6c5.9,0,11.9-0.1,17.8,0
							c3.6,0,7.5,0.1,7.7,5.3c-7.6,8.4-6.1,19.2-7,29.2c-0.4,4,3.3,6.3,6.5,8c8.1,4.2,12.9,10.2,13.5,19.9
							c0.7,10.2,6.4,18.9,11,27.8c-0.1,5.1,6.1,8.5,4.2,14.1c-3.2,3.5-7.4,2.5-11.4,2.8c-2.8,0.3-6.7-0.6-5.8,4.5
							c0.9,2,1.6,4.1,2.3,6.1c0.6,1.8,1.6,3.5,3.5,3.8c8.5,1,17,1,25.5,0.2c2.4-0.2,3.4-2.1,3.6-4.4s0.3-4.6,0.5-6.9
							c0.5-7.6,2.9-9.8,10.7-9.9c8.3-0.1,16.5-0.2,24.8,0.1c5.6,0.2,8-1.9,7.9-7.6c-0.1-6.8,0.2-13.6-6.6-17.8
							c-1.9-2.3-3.8-4.7-3.2-8c3.1-5.1,8.2-3.5,12.6-3.5c15.7-0.2,15.7-0.1,15.7-15.7c0-5.4,0.1-10.8-0.1-16.3c0-5-2-9.8-5.6-13.3
							c-7.3-7-13.1-15.2-20.4-22.3c-2.8-3-6.8-4.7-10.9-4.6h-25.6c-4.2-0.2-8.3,1.1-11.7,3.5c-6,9-14,10.9-27.6,6.8
							c-0.6-0.8-0.4,0.5-0.6-0.5c-2.9-12.8-8.6-25.5-4.9-38.9c2.4-8.7-3.4-16.6-13.8-17.2c-12.5-6.2-25.9-3-38.8-3.8
							c-5.3-0.3-10.9,1.3-15.7-2.3c-2.8-3-2.5-6.5-1.7-10.2c7.8-35.5,15.3-71,23.9-106.2c2.7-10.9,7.1-21.1,19.6-24.8
							c4-1.1,8.2-1.4,12.3-1c25.4,1.7,50.9,3.3,76.3,5.7c8.5,0.8,17,0.6,25.5,1.9c3.1,0.5,6.3,0.3,8.1,3.5c-0.9,4.3-4.5,3.6-7.4,3.6
							c-10,0.2-20,0.2-29.9,0c-5.6-0.2-11.2,0.6-16.6,2.3c-3.4,0.2-5.4,2.9-7.8,4.7c-3.6,0.8-4.5,3.6-5.1,6.6
							c-0.7,3.2-1.5,6.3-3.8,8.8c-5.8,3.3-9.8,8.8-15.1,12.7c-8.9,10.2-5,24.3,7.9,28.2c12.2,3.7,12.2,3.7,12.2,16.5
							c0,5.9,0.2,11.9,0.4,17.8c0.2,5.4,2.9,8,8.2,8.2c2.1,0.1,4.1,0.1,6.2,0.1c40.9,0,81.8,0,122.7,0c4,0,8.4,0.8,11.7-2.7
							c3.2-4.3,7.5-5.9,12.8-5.6c4.9,0.3,9.8,0.1,14.8,0.1c12.8,0,12.8,0,15.9,12.7c-0.2,12.1,1.9,24,2,36
							c-4.1,11.5,2.2,17.5,11.7,21.7c3,1.5,5.8,3.3,8.4,5.4c2.1,1.6,4.9,3.5,2.2,6.8c-3.6,1.5-7.6,1.5-11.3,2.3
							c-14.8-1.7-29.6-2.4-44.4-4.5c-8.4-1.2-10.6,0.3-12.2,8.5c-1.9,9.8-3.3,19.7-4.8,29.5c-0.4,2.7-0.4,5.1,1.5,7.2
							c2.1,6.5,8.3,5.1,13,6.5c2.5,1.1,4.7,2.8,6.3,4.9c2,4.1,5.1,6,9.9,5.6c7.1-0.5,14.1,2.5,21.3,1.5c2.7-0.4,6.4,2.2,7.8-2.4
							c1.2-4-1.4-6.2-4.1-8.3c-0.6-0.5-1.3-0.8-1.9-1.3c-3.7-3.4-8.6-5.7-10.4-11c-0.8-6.3,2.5-8.3,8.2-8.2
							c7.5,0.2,14.8,1.5,22.2,2.3c6.5,0.7,19.8-4.7,22.6-10.3c1.9-3.8,0.2-6.4-2.7-8.7c-3.2-3.5-6.8-6.5-9.1-10.7
							c-0.9-2-1.8-4,0.4-5.9c4.7-2.8,9.8-1.1,14.8-1.5c4.8,1.2,9.9,1.5,14.8,1c4.8,0.9,9.6,0.4,14.4,0.4
							C475.1,623,477.9,623.5,480,626.1z"/>
						<path class="st2" d="M480,410.6v32.6c-4.3,4.8-9.9,3-15.2,3.1c-24.7-4.4-49.8-4.7-74.7-6.3c-36.9-2.3-73.9-2.3-110.9-3.2
							c-30.4-0.7-60.9-2.9-91.3-4.6c-16.5-0.9-33-2-49.5-2.6c-12.9-0.5-13.4,0.1-16.2,12.5c-10.2,45.5-20.4,91.1-30.4,136.7
							C81.1,627.9,70.3,677,59.4,726.1c-11.7,53.4-22.9,106.9-35,160.3c-5.3,23.3-9.2,46.9-14.9,70.2c-0.9,3.7-2.3,6.8-5.3,9.1
							h-21.8c-3.6-3.6-2-7.8-1.1-11.7c7.4-33,15.1-65.9,22.9-98.8c20-84.6,37.6-169.8,56.1-254.7C71.9,547.7,83.5,495,94.9,442.3
							c2.4-11.1-0.1-14.2-11.6-14.3c-35.5-0.2-71-1.1-106.5,0.3c-22.8,0.9-45.5,0.6-68.3,1.1c-4.1,0.1-8.4,0.5-11.4-3.3v-21.7
							c1.7-2,4.1-3.2,6.8-3.2c1.6,0,3.1-0.2,4.7-0.2c66.8-0.1,133.5-3.1,200.3-1.3c30.2,0.8,60.4,2.5,90.6,3.9
							c19.1,0.9,38.2,2.4,57.4,2.1c2.1,0,4.1,0.1,6.2,0.1c5.2,0,11.7,3.5,15.3-2c4-6.2,6-13.6,4-21.4c-0.2-0.8-0.3-1.5-0.4-2.3
							c0.7-6.4,0-12.8,1-19.2c1.2-2.8,2.2-5.8,1.8-8.9c-2.2-18.5,1.1-36.7,1.9-55.1c0.7-3.6,1.7-7.2,1.5-10.9
							c0.1-7.8-0.1-15.7,0.1-23.5c0.6-3.2,1.5-6.3,1.4-9.6c-0.6-17.8,1.2-35.6,0.7-53.5c2.5-29.9,0.8-59.8,1.2-89.6
							c0.8-11-0.2-22,0.1-33c0.2-6.4-0.1-12.8,0.5-19.2c-1-8.2,0.2-16.5-0.5-24.8c1.2-13.7,3-27.3,3.6-41.1
							c-1.5-13.7,0.9-27.3,1.8-40.9c0.6-10.5,1.5-21.1,2.1-31.6c2-35.7,4.8-71.4,6.9-107.1c1.7-29,3.6-58,6-87
							c0.5-6.4,1.4-12.8,4.8-18.4h18.6c0.9,0.9,2.2,1.7,2.4,2.9c0.9,7,5.6,7.3,11.1,6.5c4.4-0.5,8.8-0.7,13.1-0.4
							c35,1.1,70-1.9,105-1.5c4.5,0,9.4-0.9,12.9,3.4v18.6c-2.3,2.5-4.8,4.6-8.5,4.6c-10.2,0.1-20.3,0.9-30.5,1.4
							c-23.5,0.6-47,3-70.5,3.8c-8.2,0.2-16.5,1.6-24.8,1.5c-5.4-0.1-8.2,2.7-8.3,8.1c-0.3,17.6-2.2,35-3.5,52.5
							c-1.9,27-3.5,54-5.7,81c-1.3,15.9-2,31.9-3.3,47.8c-0.6,7.7,1.4,10,9.3,9.7c24.5-1,49.1-0.8,73.6-2.6c0.5,0,1-0.1,1.5-0.1
							c19.9-0.3,39.9-0.1,59.7-1.7c3.8-0.3,7.9-0.2,10.6,3.3v17c-2.9,3.5-7.1,4.4-11.1,4.6c-21.4,1.2-42.7,3.6-64,5.1
							c-13.4,0.9-26.7,2.4-40.1,3.4c-5.9-0.1-11.8,0.6-17.5,2.2c-14.6,3.8-23.8,15.3-23.7,30.5c0.1,12-1.5,24.1,0,36.2
							c-2,21.6-1,43.3-1.9,64.9c-1.5,37.8-2.1,75.7-3.2,113.5c-1,31.9-1.9,63.8-3.1,95.7c-1,25.5-1.8,50.9-2.6,76.4
							c-0.3,9.4,1.7,11,10.9,12.5c49.1-0.8,98.3-0.3,147.4-0.3C474.4,407.2,477.7,407.6,480,410.6z"/>
						<path class="st1" d="M480,410.6l-157.3-0.2c-2.4-2-3-4.7-3-7.6c0-26.3,1.3-52.5,2.5-78.8c0.1-1.8,0.4-3.6,0.4-5.4
							c-0.9-24.8,1.4-49.5,1.9-74.2c0.8-31.9,1.9-63.9,3.1-95.8c1.2-32.2,2.5-64.3,3.1-96.5c3.7-14,0.4-28.2,1.5-42.3
							C332.9-1,336-10.5,346.3-16c5.6-3,11.2-4,16.6,0.4c1.8,1.4,4,2.4,5.2,4.4c1.1,2.9,3.3,3.6,6.2,3.5c23.7-1.1,47.4-2.6,71-4.7
							c9.3-0.8,18.6,0.1,27.8-1.6c2.7-0.5,5,1,6.8,3v1.6c-2.1,7.2-2.4,14.9-5.4,22c-2,4.8,3.5,6,5.4,9v212.4c-0.6,0.5-1,1.4-1.7,1.5
							c-13.2,3.2-26.4,2.6-39.6,0.4c-3.8-0.6-5-4.8-6.4-8.2c-1.1-2.6-2.2-5.2-3.5-7.7c-2.7-3.6-0.4-8.7-3.5-12.2
							c-6.6-2.9-8.7-11.2-16-13.3c-8.8-3.6-17.9-1.9-26.8-1.6c-4,0.1-4.9,3.4-4.8,6.7c0.4,11.6-2.3,23-1.8,34.7
							c0.3,5.7,0,11.3-1.1,16.9c-1.2,6-0.2,11.8,4.2,16.6c4.3,11.2,12.9,19,21.4,27c2.2,2.1,5,2.6,7.9,2.6c9,0.1,18.1,0,27.1,0.1
							c4.6,0,7.7-1.9,8.2-6.3c1-7.9,7.2-12.2,11.9-17.5c3.6-4.1,7.9-3.1,11.3,0.9c5.4,6.5,10.7,13.1,13,21.5v10.9
							c-2.5,3.3-6.2,3.3-9.9,3.4c-11.6,0.1-23.3-0.1-34.9,0.1c-7.9,0.1-9,1.3-9.3,9c-0.4,10,0.6,20.1-1.1,30.1
							c-0.6,3.4,1.4,5.9,3.5,8.3c1.4,2.3,1.2,5.4,4.3,7c3.4,1.8,4.7,5.2,4.6,9.1c0.1,3.6,1,7.2,2.8,10.3c1.3,1.5,2.4,3.2,3.1,5.1
							c0.9,3.9,4.3,3.7,7.2,4.5c7.3,1.8,14.8,0.9,22.1,2.7c2.8,0.7,5.5,1.3,7.4,3.6L480,410.6z"/>
						<path class="st1" d="M-102.9,426.1c47.9-0.5,95.8-1,143.6-1.4c14.8-0.1,29.5-0.1,44.3,0c12.8,0,16.5,4.3,13.8,16.6
							c-12.8,59-25.6,118-38.5,177c-12.6,58-24.8,116-37.8,173.9C9.7,849.3-3.9,906.3-17.2,963.3c-0.1,0.8-0.2,1.5-0.2,2.3
							c-26.7,0-53.4-0.1-80,0.1c-4.6,0-5.6-0.9-5.6-5.6c0.2-51.4,0.1-102.8,0.1-154.3c9.7-4.1,12-12.8,13.4-22
							c0.5-3.6,2.1-6.9,2.9-10.4c1.3-5.9,4.5-9.7,11-9.7c4.1,0,6.8-2.1,7.9-6.1c1.9-7.1,6.9-13.3,5.8-21.2c-0.5-3.3-0.2-6.6,0.9-9.8
							c6.2-4.7,16.5-3.7,24.4,2.5c2.7,11.3-1.4,21.7-4.9,32c-0.4,1.3-1.4,2.3-2.7,2.7c-9.4,2.4-10.2,10.5-12.1,17.9
							c-1,4-2,8-3.2,11.9c-1.2,4.2-3.5,7.7-7.9,8.7c-4.7,1-6.3,4.2-6.9,8.2c-4.1,29.5-10.2,58.7-13.7,88.3c2,5,1.4,11.1,6.3,15
							c1.9,4.7,0.2,10.2,3.7,14.5c-0.3,4.6,2,7,6.2,8.4c11.8,3.8,24,6,35.8,9.6c5,1.6,7.5-1.7,8.1-5.8c1.6-11.9,4.7-23.5,5.2-35.6
							c1.4-6,2.8-12.1,3-18.3c0-0.8,0.1-1.5,0.2-2.3c1.4-3.1,1.3-6.5,1.4-9.8c0.1-0.7,0.3-1.5,0.5-2.2c1.2-6,2.7-12,2.6-18.2
							c0.1-0.8,0.3-1.6,0.6-2.4c2.9-16.4,5.2-32.9,7.5-49.4c3.1-15.4,4.7-31,7.2-46.4c0.6-3.6,1.5-7,2.1-10.6
							c2.2-3.9,5.6-6.7,9.2-9.1c5.3-3.5,8.1-8.3,9.4-14.4c5.2-23.6,11.7-46.8,17.2-70.3c1.1-4.7,2.7-9.4,1-14.3
							c1.4-7.5-2.9-10-9.2-12.2c-7.3-2.5-15.9-2.8-21.1-9.9c-0.6-1.6-0.9-3.2-0.9-4.9c0.7-3.8,1.7-7.5,4.3-10.6c3-1.7,3-4.6,2.8-7.5
							c-0.3-5.1,1.1-9.2,6.2-11.3c3-1.2,4.1-3.6,4.6-6.5c4.3-24.3,8.1-48.6,12.3-72.9c0.7-4.2,1-8.3-3.6-10.8
							c-2.1-2-2.1-5.3-4.7-6.9c-5.3-2.7-10.9-2.9-16.7-2.8c-8.8,0.1-17.6,0-26.4,0c-3.9,0-8.2-0.7-8.4-5c-0.4-7.9-5.1-13.7-8.2-20.2
							c-0.7-2-0.2-5.6-3.4-5.1c-3.3,0.5-2.5,4.1-2.5,6.5c-0.2,27.3-0.1,54.7-0.1,82c0,18-0.1,18.1-18.2,17.4
							c-12.9-0.5-25.7-2.7-38.5-3.5c-3.8-0.2-7.7-1.2-10.4-4.5L-102.9,426.1z"/>
						<path class="st3" d="M464.6,443.1l15.4,0.1v63.6c-2.4,3-5.7,3.1-9.1,3.1c-10.6-0.1-21.2-0.1-31.9,0c-2.8,0-6-0.6-6.8,3.3
							c0.3,11.7,1.5,12.3,12.6,13.7c9.2,1.1,18.5,0.7,27.7,2.7c2.9,0.6,5.5,1.2,7.5,3.5v86.8c-5.4,5.5-12.5,3.6-18.4,2.8
							c-11.6-1.7-23.2-1.1-34.8-1.1c-6.5,0-12.3-1-17.2-5.3c-2.4-1.9-5.1-3.5-8-4.7c-7.7-3.7-12.3-9-11.5-18l-1.9-37.3
							c-1.2-2.4-0.6-4.9-0.6-7.3c0-3.1-0.7-5.4-4.3-5.8c-23-3.9-46,0.2-69-0.3c-33.1-0.7-66.3,0-99.5-0.2
							c-13.1-0.1-16.1-3.2-16.1-16c0-2.8-0.1-5.7,0-8.5c0.3-7.6-1.3-12.8-10.2-15.5c-12.1-3.6-15.6-14.6-9.8-25.1
							c3.3-5.4,7.2-10,13.9-11.3c3.2-1.8,5.3-5,5.7-8.6c0.3-2.5,1.5-4.9,3.3-6.8c0.3-2.9,2.3-5.3,5-6.2c13.8-1.4,27.7-0.3,41.5-0.6
							c7.4-0.1,14.9,0.3,22.1-1.6c39-3.6,78-3.2,117.1-2.2C413,440.8,438.9,441.4,464.6,443.1z"/>
						<path class="st1" d="M285.5,379.6c0.2,7-0.1,13.9-1,20.8c-0.9,7.7-5.4,10.4-12.1,10c-40-1.9-79.9-4.3-119.9-5.8
							c-31-1.2-62-2.3-93.1-1.8c-23.8,0.4-47.7-0.9-71.4,0.4c-30.3,1.6-60.5,0.7-90.8,1.2V378c4.7-0.3,6.1,3.7,7.5,6.6
							c3,6.1,7.5,8.6,14.2,8.6c21.2-0.1,42.4,0.1,63.5-0.1c8.8-0.1,10.3-1.7,10.3-10.5c0.1-17.3,0-34.5,0.1-51.8
							c0-4-0.7-7.7-3.5-10.7c-1.4-3.6-4-5-7.8-5.2c-18.2-1-36.4-2.8-54.6-3.1c-8-0.1-15.8-1.9-23.8-1.9c-2.5,0-4.3-1.5-5.9-3.1v-9.3
							c2.4-2.9,5.6-3.5,9.1-3.1c32,3.6,64.2,5.5,96.4,8.4c13.3,1.2,26.8,2.6,40.2,2c19.1-0.9,38.2,1.7,57.3,1.7
							c1.8-0.1,3.6,0.2,5.3,1c3.6,1.5,4.4,4.6,4.8,8.1s0.4,6.9,4.2,8.4c4,1.6,6.1-1.3,8.4-3.7c1.2-1,2.5-1.9,3.9-2.5
							c4.1-2.9,4.8-7.2,4.8-11.7c0.2-50.9,0.3-101.8-0.1-152.7c-0.1-12.3-4.2-16.4-16.2-18.9c-5.4-1.1-10.8-1.1-16.2-1.1
							c-62.4,0-124.8,0-187.3-0.1c-5,0-10.5,1.3-14.5-3.4V85c2.4-2.6,5.6-2.4,8.7-2.3c45.6,0.9,91.1-2.5,136.6-1.6
							c18.4,0.3,36.8,0.2,55.2,0c9.1,0,18-2.2,26-6.4c7.9-4.3,13.3-10.8,17.4-18.7c1.4-2.7,2.3-6.7,7.1-4.7
							c3.2,8.8,1.2,17.8,1.3,26.7c0.1,0.8-0.2,1.6-0.8,2.1c-10.3,8-8.1,19.3-8.2,30c-0.1,15.5,0,30.9-0.1,46.4
							c-0.2,5.7,1,11.3,3.5,16.5c5.1,5.1,11.8,4.4,18.2,4.9c4.5,0.3,10.9-0.8,11,5.5c0.1,7.1-6.8,5.8-11.4,5.8
							c-18.8,0.2-18.7-0.7-18.7,19c0.1,43.6,0.1,87.3,0,130.9c0,10.9,2.1,21.6,1.8,32.4c-0.1,5,2.9,8.1,7.1,10.2
							c7.3,3.5,14.9,6.2,23,6.7c13.1,0.8,26.3,2.6,39.5,1.8c13-0.8,25.8,1.2,38.7,1.5c4.4,0.1,8.8,0,13-1.8c6.1,0,11.4-1.4,14.6-7.4
							C281.6,380.7,283,379.1,285.5,379.6z"/>
						<path class="st3" d="M-102.9,548.6c18.7,1.8,37.5,3.2,56.2,5.5c6.4,0.8,7.5-1.2,7.4-6.8c-0.2-30.1-0.1-60.2-0.1-90.4
							c0-2.3,0-4.6,0.1-6.9c0.3-3.5,2.3-5.9,5.8-6.1s5.6,2.3,6.2,5.7c0.4,2,0.4,4.1,0.6,6.1c1.4,6.4,4.2,12.3,4.6,19
							c0.2,4.8,4.3,4.9,8.1,4.9c13.9-0.1,27.8-0.1,41.6,0c2.5,0,5.1-0.8,7.5,0.8l0.3,9.2c3,5.5,1.1,11,0.2,16.5
							c-3.5,21-6.8,42-10.6,62.9c-0.8,4.6-2.5,8.5-6.9,10.4s-3.9,6.2-5,9.8c-0.4,1.2-1.1,2.3-2.1,3.1c-4.3,3-5.4,7.9-7.2,12.4
							c-2.8,6.8,5.5,6.3,6.6,10.5c7.8,2.7,15.4,6,23.4,7.8c8.4,1.9,11.1,6,8,13.9c-0.1,11.7-4.5,22.4-7,33.6
							c-3.7,16.2-8,32.4-11.8,48.6c-1.1,4.7-3,8.8-7.2,11.4c-6,3.6-9.5,9.2-12.1,15.5c-2.9,16.1-5.3,32.2-7.8,48.3
							c-1.2,2.8-0.4,6-1.5,8.9c-2.3,13.6-4.2,27.2-6.6,40.8c-4.5,27.3-8.1,54.7-13.4,81.9c-0.7,3.7-0.8,7.6-1.7,11.3
							c-1.3,5.2-4.8,6.9-9.2,5.8c-12.8-3-25.6-5.8-38.1-10c-2.4-0.8-3.8-2.5-5.2-4.4c-8.8-3-2.5-9.2-3-14c-2.9-4.2-1-11.9-9-12.3
							c2.2-21.8,6.8-43.3,10-65c1.5-10.5,3.7-20.8,5.1-31.3c0.6-4.7,2.3-7.2,7.3-6.4c4.4,0.7,5.8-2.1,6.7-5.7c2-8,4.4-15.9,6.3-24
							c1-4.3,2.6-7.3,7.6-6.9c4.1,0.4,5.3-2.2,6-5.6c1.7-9.1,3.5-18.2,5.3-27.4c-2.1-12.5-0.1-24,7.8-34.2c5.9-0.3,8.3-3.9,9.4-9.2
							c1-4.7,1.9-9.5,3.2-14.1c3.5-9.7,3.1-10.8-6.5-15c-9.1-4-18.2-8.2-27-12.8c-6.4-6.8-4.8-14.8-2.6-22.4
							c1.3-4.4,5.8-5.5,10.1-5.6c4.1-0.1,7.6-1,9.2-5.4c1.9-5.2,8.2-3.5,11.4-6.8c0.7-1.4,1.4-2.8,1.9-4.2
							c3.8-12.2,1.4-15.6-11.2-17.3c-21.1-2.9-42.1-6.5-63.2-9.5c-3.3-0.5-5.6-2.3-7.8-4.6C-102.8,562-102.9,555.3-102.9,548.6z"/>
						<path class="st3" d="M298.1-8.4c0.3,13.8-1.6,27.4-3.4,41c-1,4.6-4.2,6-8.6,6c-37.5,0.2-74.9,0.2-112.4,0
							c-4.1,0-7.7-1.1-10-4.7c-7.2-11.2-15.4-21.9-22.5-33.2c-4.4-7-3.4-9.5,4.1-12.9c2.2,0,4.3-0.6,6.2-1.8
							c13.2-7.2,15.9-18.8,13.6-32.4c-4.1-24.4-7.3-48.8-11.6-73.2c-1.4-8-0.7-15,8-18.7c7.3-3.7,7.9-10.2,7.1-17.2
							c-2.7-22.7-6-45.4-8.9-68c-2-15.8-4.1-31.6-6.2-47.4c-0.8-5.5,1.8-8.3,6.2-10.1c10.5-4.3,20.9-8.9,32.3-10.4
							c2.8-0.4,5.7-0.4,8.2-1.9h96.4c2.4,2.8,1.6,5.8,0.5,8.8c-2.9,7.7-5.9,15.5-9.3,23c-2.7,5.9-7,8.2-13.6,7.8
							c-15.2-0.8-30.5-1.1-45.8-0.4c-12.1,0.6-16.9,5.4-16.9,17.4c-0.1,56.1-0.3,112.1,0.1,168.2c0.1,10.7,1.6,21.7,10.2,29.9
							c13.8,19.8,33.6,27,56.9,27.4C285.2-11.1,292.3-13.4,298.1-8.4z"/>
						<path class="st1" d="M-102.9-127.4c25.6,0.3,51.1,1.3,76.6,1.9c36.9,1,73.8,2.7,110.7,2.9c4.9,0.1,9.8,0.7,14.6,1.8
							c10.3,2.3,15.8,11.2,15.6,24.4c-5.5-4.2-11.7-7.2-18.4-9c-2.4-1.1-5-1.6-7.6-1.4c-21.7,0.8-43.4-2-65.1-1.7
							c-29.5,0.4-58.9-2.4-88.4-1.6c-5.9,0.2-11.7-1.6-17.8-1.4s-9.3,2.5-9,8.8c0.4,8.4-1.3,17,1.6,25.3c1.5,5,5.8,3.5,9.1,3.5
							c36.7,0.2,73.4-0.1,110,0.2c3.5,0.2,5.7,2.3,6.8,5.2c2.2,5.1,5.9,9.4,10.7,12.3c1.9,3.8,5.4,3.3,8.7,3.3h50
							c3.5,0,7.4-0.7,9.4,3.5c0,21.9,0.3,43.8-0.2,65.8c-0.3,13.6-1.6,27.1-2.5,40.7c-3.9-1.7-3.7-5.2-3.8-8.6
							c-0.4-7.7-0.4-15.5,0-23.2c0.6-8.4-1.4-14.6-10.4-17c-3-5.4-7.8-6.7-13.7-6.7C48.4,1.3,12.5-0.8-23.4-1.9
							c-23.5-0.7-47-1.3-70.4-2.8c-3.4-0.2-6.7-0.4-9.1-3.4V-127.4z"/>
						<path class="st1" d="M-102.9,215.3v-62c2.3-3,5.7-3.2,9.1-3.4c21.7-1.2,43.4-1.8,65.2-1.7c33.9,0.2,67.9,0.1,101.8,0.1
							c3.1,0,6.2,0,9.3,0.1c18.2,1,27.5,10.3,27.8,28.5c0.4,24,0.2,48.1,0.1,72.1c0,3.3,0.3,6.8-1.9,9.7c-5.8,5.2-11.2,2.9-16.3-1.2
							c-3.9-7.4-11.4-6.6-18-7.9c-8-1.6-16.5-0.6-23.8-5.4c-1.9-2.5-2.8-5.6-2.5-8.7c1.2-9.1-3.8-14.4-10.7-18.8
							c-12-1.5-24.1-1.9-36.2-1.3c-10,0.5-20.1,0.5-30.1,1c-22.1,0.9-44.2,3.1-66.3,2.3C-98.4,218.4-100.9,217.6-102.9,215.3z"/>
						<path class="st2" d="M-102.9-201.8c0-28.5,0.2-56.9-0.2-85.4c-0.1-5.4,1.2-7.2,6.4-6.1c0.6,0.7,1.2,1.4,1.7,2.2
							c1.5,15.6,0.3,31.2,0.7,46.8c0.1,2.8-0.1,5.6,0.3,8.4c0.7,6.2,3.2,10.8,10.3,11c9.1-1,18.1-0.5,27.2-0.5c43,0,86,0,129,0
							c3.9,0.1,7.7,0,11.6-0.3c11-1.2,13.9-3.8,14.6-15c0.6-10,0.7-20.1,1.5-30.1c0.7-7.5,0-15.4,3.7-22.5h35.8
							c5.8,6.2,3.4,13.7,2.9,20.6c-0.4,6.2-1,12.3-1,18.5c0.3,33.8-2.5,67.4-1.7,101.2c-2.2,15.9-2.7,31.8-2.6,47.8
							c0.2,36.4,0.1,72.9,0.1,109.3c-0.1,7.5,0.2,15,1,22.4c1.7,13.5-2.2,26-8.6,37.9c-5.1,9.4-13.7,13.6-23.5,16.2
							c-4.7,0.9-9.6,1.3-14.4,1.3c-24.8,0-49.6,0.1-74.4,0c-36.4-0.1-72.8,1.4-109.2,0.8c-3.8-0.1-7.8,0.8-11-2.3V58.7
							c4.5-3.8,10-2.6,14.9-1.9c5.9,0.7,11.8,1.1,17.8,1.2c47,1.9,94,2.4,141.1,2.5c12.4,0,24-2.9,35.4-6.8c0.7-0.6,1.3-1.2,1.8-1.9
							c4.1-15,4.6-30.3,3.8-45.8c-0.9-18.4-2.1-36.9,0.8-55.3c5.8-5.5,4-12.1,2.7-18.5c-1.9-9.8-4-19.5-4.6-29.5
							c-0.2-13.2-4.7-18.4-17.9-20.6c-3.3-0.6-6.6-1.4-10-1.3c-30,1-60-1-90-2c-29.2-1-58.5,0-87.6-2.8c-3.2-0.3-6.2-0.7-8.3-3.4
							v-20.2c2.3-3,5.6-3.3,9.1-3.4c36-0.1,71.8,1.2,107.8,2.8c7,0.3,14,0.5,21,0.2c19.4-0.9,38.8,1.8,58.2,1.6
							c10.9-0.1,11.9-1.1,12-12.1c0-7,0.4-14-0.3-20.9c-1-11.1-5.9-15.5-17.1-15.8c-0.5,0-1,0-1.6,0c-52.3,0.6-104.5-2.8-156.8-1.5
							c-8.6,0.2-17-1.1-25.5-1.8C-98.7-198.5-101.2-199.8-102.9-201.8z"/>
						<path class="st3" d="M51.2,242.8c11.8,1.7,23.5,3.7,35.3,5c5.3,0.6,7.3,2.9,6.8,8c5,7.8,2.9,16.5,3,24.9
							c0.2,20-0.2,21-20.3,20.1c-36.8-1.6-73.7-0.9-110.5-5.6c-19.1-2.5-38.5-3.5-57.7-5.2c-4.4-0.4-8.2-1.1-10.7-5v-69.7
							c24.6,0.4,49.1-1.5,73.6-2.5c23.7-1,47.4-2.1,71.2-0.5c0.7,7.3,3.7,14.2,3.6,21.7C45.4,237.8,48.8,240.1,51.2,242.8z"/>
						<path class="st3" d="M-102.9-8C-48.4-6.1,6-4.2,60.4-2.3c9.8,0.3,19.6,1,29.4,0.6c7.1-0.3,10,2.4,9.3,9.3
							c2.7,2.1,3.3,5.1,3.3,8.3c0.2,7.5,0.3,15-0.1,22.4c-0.5,7.6-3.5,10.6-11,11.2c-0.8,0.1-1.6,0.1-2.3,0.1
							c-60.7,0.2-121.5,0.2-182.1,0c-3.7,0-7.3-0.1-9.9-3.4L-102.9-8z"/>
						<path class="st4" d="M464.6,443.1c-50.8,0.1-101.5,0.1-152.3,0.4c-14,0.1-27.9,2-41.9,0.9c0.6-3.8,2.7-1.8,4.4-1.4
							c-3.4-2-7.8,2.2-11.1-1.2c-33.8-2.5-67.5-5-101.3-7.4c-4.4-0.3-8.8-0.4-13.2-0.2c-9,0.4-15.7,4.2-19.4,12.9
							c-6.4,15.1-8.4,31.4-12.1,47.2c-5.7,24.1-10.9,48.4-16.3,72.5c-0.3,1.8-0.5,3.6-0.6,5.4c2.2,3,1.9,6.3,1.1,9.6
							c-9.6,42.5-19,85.1-28.2,127.8c-0.6,2.7-1.1,5.6-2.8,7.9c-0.2,0.8-0.4,1.5-0.6,2.3c-1.1,3.7-2.9,7.2-5.1,10.4
							c-11.5,52.6-23.1,105.2-34.7,157.8c-0.7,3-1.5,6-1.1,9.2c-5.9,17.2-6.4,35.5-10.2,53.1c-0.7,5.6,0.1,11.6-5.4,15.5H4.4
							c7.8-37.1,15.5-74.2,23.6-111.3c30-136.9,60-273.8,90.1-410.6c3.9-17.9,3.8-18.4,22.1-17.5c46,2.2,91.9,5,137.9,7.2
							c17.3,0.8,34.7,0.3,52,0.6c38.3,0.6,76.4,4.5,114.5,7.2C451.3,441.8,458.1,440.5,464.6,443.1z"/>
						<path class="st3" d="M430.1,216.7c4.4,2.5,4.9,7.2,5.9,11.2c1.1,4.5,3.5,5.7,7.7,5.7c12.1,0,24.2,0.1,36.4,0.2V285
							c-3.4,1.3-5.5-0.6-7.1-3c-1.5-2.1-3-4.2-4.7-6.1c-7.5-9.1-16.2-7.6-20.8,3.4c-4.9,11.9-5.2,12-18.2,12.1
							c-8.3,0-16.6-0.2-24.8,0.1c-5.6,0.2-10-1.4-13.7-5.7c-4.5-5.3-10.1-9.5-13-16.1c-5.1-3.7-6.5-8.6-6.1-14.9
							c1.3-19.8,2.2-39.7,3-59.6c0.2-4.9,1.6-7,6.8-6.8c7.8,0.3,15.5,0.2,23.3,0c3.1-0.1,5.6,0.6,7.1,3.5c2.8,1,4.6,2.2,4.8,5.9
							c0.4,9.1,1.5,18.3,2.1,29.5c3.5-4.9,2.9-10.7,8.2-11.7C428,215.6,429.2,216,430.1,216.7z"/>
						<path class="st2" d="M106.8,259c0.1-27.4,0.4-54.7,0.1-82.1c-0.2-17.1-8.5-24.9-26.6-25c-26.9-0.3-53.8-0.1-80.8-0.1
							c-19.7,0-39.3,0-59,0.1c-14.5,0-28.9,2.2-43.4,1.5v-15.5c2.6-3.3,6.2-3.4,9.9-3.4c61.3-0.1,122.7-0.2,184,0.1
							c6.4,0,12.9,1.2,19.3,1.9c9.4,1.1,15,6.4,16.6,15.8c1.1,6.3,2.2,12.7,2.2,19.2c0,45.4,0,90.9,0,136.3c0,4.6,0.3,9.4-3.5,13
							c-2.1,5.2-5.4,9.1-11.7,7.4s-7.2-6.7-6.9-12.2c0.1-2-0.1-4.1-0.1-6.2c-2.4-2-3.1-4.6-3.2-7.6c-0.2-11.9-0.2-23.7,0-35.6
							C103.7,263.6,104.3,260.9,106.8,259z"/>
						<path class="st5" d="M125.6,320.7c-0.1-49.3-0.2-98.5-0.3-147.8c-0.1-6.2-0.5-12.4-1.4-18.5c-1.3-9.8-5.8-14-15.8-15
							c-8.7-0.8-17.5-1.4-26.3-1.4c-58.2-0.1-116.4-0.1-174.6-0.1c-3.4,0-6.7-0.2-10.1-0.3V130l205.7,0.1c4.9-0.1,9.8,0.3,14.7,1.2
							c12.3,2.3,17,7.1,17.3,19.8c0.4,14.4,0.3,28.9,0.3,43.4c0,37.9-0.1,75.9,0.1,113.8C135.2,315.3,132.8,319.6,125.6,320.7z"/>
						<path class="st4" d="M106.8,259c0,16.9,0,33.8,0.1,50.8c-42.9-1.2-85.8-1.1-128.6-5.6c-27-2.9-54.1-4.5-81.1-6.6
							c0-4.1,0-8.3,0-12.4c14.9,1.5,29.8,3.2,44.7,4.6c20.8,2,41.7,4,62.5,5.8c5.9,0.5,11.9,0.3,17.9,0.4
							c20.7,0.5,41.4,0.9,62.1,1.8c6.7,0.3,9.3-1.5,9-8.6c-0.5-11.1,0-22.2,0.1-33.3C97.3,258.7,102.1,258.5,106.8,259z"/>
						<path class="st6" d="M-102.9,46.3l190.3-0.1c11.7,0,11.7,0,11.7-11.5c0-9,0-18.1,0.1-27.1c12.7,0.3,12.7,0.3,12.7,12.7
							s0.1,24.5,0.2,36.7c-0.2,0.1-0.5,0.3-0.7,0.5c-39.9,3.9-79.9,2.9-119.9,2.2c-23.2-0.4-46.5-1.2-69.8-1.1
							c-8.2,0.2-16.5-0.3-24.6-1.5V46.3z"/>
						<path class="st7" d="M136.4-152.5c1,3.9,3.8,7.3,3.4,11.7c-0.2,2.4,1.3,3.9,3.8,3.8s3.6-1.7,3.7-4.1c0.1-1,0.1-2.1,0.1-3.1
							c-0.9-35.6,2-71.1,1.9-106.7c0-14.1,1.1-28.3,1.2-42.4h1.5c4.6,4.1,3.9,9.4,2.7,14.3c-0.8,3.5-0.9,7.1-0.4,10.6
							c0.1,26.8,0.6,53.7-0.6,80.5c-2.5,54.9-0.4,109.8-1.2,164.8c0,4.1-0.2,8.2-0.4,12.3c-1.3,1.3-2.9,1.3-4.6,1.2
							c-4.1-3.2-3.4-7.8-3.4-12.1c-0.1-31.2,0-62.3-0.1-93.5c0.1-3.8,0-7.7-0.4-11.5c-0.8-1.9-1.6-3.7-3.1-0.4
							c-0.9,25.1-0.3,50.1-0.4,75.1c-0.1,22.9-0.5,45.7,0,68.6c0.1,3.2-0.8,6.7,1.9,9.9c2.8-1.5,1.8-4.6,2.9-6.6
							c2.2-4,4.7-5.7,7.9-0.8c-1.9,8.7,1.6,18-3.1,26.4c-1.1,2-1.7,4.3-3.7,5.7c-3,10.6-8.2,19.6-18.5,24.8
							c-5.9,3.3-11.9,6-18.9,5.4c-1.6-0.2-3.2,0-3-2.3c20.4-8.6,31.7-28.2,29.9-50.7c-0.7-8.7-0.2-17.5-0.2-26.3
							c0-43.1-0.1-86.1,0.1-129.2C135.2-135.7,136-144.1,136.4-152.5z"/>
						<path class="st8" d="M-102.9,57.1l199.6,0.2c4.9,0,9.8,0.1,14.7,0.2c-14.9,0.6-28.8,6.7-44.1,6c-23-0.9-46,0.3-69-0.4
							c-33.8-1-67.5-2.9-101.2-4.4L-102.9,57.1z"/>
						<path class="st9" d="M105.4,78.9c8.1,4.5,14.7-1.9,22-3.1c-8.2,7.6-18.7,7.1-28.5,7.3C65.8,83.7,32.7,83-0.5,83.8
							C-34.6,84.5-68.7,85-102.9,85v-1.6c3-2.3,6.5-1.5,9.8-1.5c59.8-0.9,119.6-0.8,179.4-0.8c2.3,0,4.7,0.7,6.8-0.8L105.4,78.9z"/>
						<path class="st10" d="M93,80.3c-2.4,2.1-5.3,1.6-8.2,1.6c-12.4,0-24.8,0.2-37.3,0C-2.6,80.8-52.7,84-102.9,83.5v-3.1
							c39-0.1,77.9-0.2,116.9-0.3C40.4,80.1,66.7,80.2,93,80.3z"/>
						<path class="st3" d="M248.6,701.9c1.7,1.6,3.9,2.6,4.7,5c1.7,4.8,3.6,9.5,3.1,14.9c-0.6,6.2-3.5,9.5-9.7,9.8
							c-7,0.3-13.9,0.5-20.9-0.4c-8.6-1.1-10.8,0.4-11.5,9c-0.5,5.2-1.9,9.1-8,9.2c-10.3-0.8-20.8,2-30.8-2.3
							c-2.8-7-1.8-8.8,5.4-9.1c4.9-0.2,9.8-0.2,14.6-0.2c1.9-6.2-4.4-8.1-6.5-12.3c-6.9-10.8-12.2-22.1-12.4-35.2
							c0-4.4-2.7-6.6-6.1-8c-10.8-4.6-16.4-11.7-12.6-24c1.2-3.9,1.3-8.1,1.4-12.2c0.1-4.6,2.3-6.5,6.7-6.2c3.3-1,1-9.2,7.7-5.9
							c3,0.1,6.1,0.1,9.1,0.3c7.7,0.6,15.3,0.9,15.9-9.9c13.4-0.9,26.9-0.2,40.3-0.4c3.9-0.1,6.6,2.1,9.4,4.6
							c8.2,7.5,14.6,16.7,22.7,24.4c1.6,1.4,2.6,3.3,3,5.3c1.4,11,1.4,22.1,0,33.2c-0.6,4.3-4.4,6.1-8.7,6.2s-8.8,0-13.2,0
							C249.3,697.5,247,698.1,248.6,701.9z"/>
						<path class="st3" d="M68.2,719l32.5-146.9c13.3,0,26.7,0.2,40-0.1c5.9-0.1,11.1,1.2,15.9,4.7c6.9,2.7,7.4,8.5,5.9,14.2
							c-1.3,4.7-1.4,9.6-0.1,14.2c1.8,6.7,1.1,13.9,0.4,20.8c-0.6,5.5-4.3,7.9-9.7,7.9c-7.2,0-14.5,0.2-21.8,0
							c-4.9-0.1-8.2,1.6-8.9,6.5c-1.9,12-2.8,24-3.9,36.1c-0.2,2.1,0.9,4.1,2.8,5.2l19.8,0.8c1.3,7.2,3.9,14.1,3.5,21.7
							c-0.4,9.4-4.4,16.2-13,19.2s-12.9,8.5-15,17c-1.8,7.5-3.1,15.2-6.6,22.2c-3.1,6.3-6,7.2-12.1,4.5c-3.9-3.2-4.1-7.4-2.9-11.9
							c2-7.4,3.9-14.9,5.9-22.3c0.6-5.9-2.6-8.4-7.9-8.8c-4.9-0.3-9.8,0.2-14.7-0.4C74.5,723.2,70.4,723,68.2,719z"/>
						<path class="st3" d="M388.3,664.7l10.9,8.3c1,1.8,2,3.6,2.8,5.5c2,4.8,0,8.7-5,8.7c-11.9,0-24,0.5-35.2-5l-4.7-4.8
							c-3.9-3.8-9.9-2.9-13.9-6.2c-4.3-0.2-5-2.7-4.4-6.3c2.2-13,4.4-25.9,6.4-38.9c0.8-5.3,3.7-6.7,8.6-6.2
							c16.7,1.7,33.5,3.2,50.2,4.7c6.5,2,13.2-0.2,19.7,1.5c2.2,0.6,4.6,0.3,6.6,1.8l8.1,9.2c3.7,10.9-8.7,24.2-20.3,22.1
							c-8-1.6-16.2-2.5-24.4-2.7C385.4,656.3,385,657,388.3,664.7z"/>
						<path class="st11" d="M178.7,477.4c-0.8,15.7,2.1,19.7,17.8,23.6c4,1,5.6,2.9,5.4,7c-0.2,7-0.1,13.9,0,20.9
							c0.1,9,1.4,10.4,10.4,10.4c30.6,0.1,61.1,0.1,91.7,0c24.6,0,49.2,0,73.8,0c3,0,6.3-0.8,9,1.4c-1.6,2.7-4.3,2.3-6.9,2.3
							c-5.4,0-10.8,0-16.2,0c-11,0.1-11,0.1-12.6,10.2c-2.5,1.8-5.5,1.2-8.3,1.2c-44.8,0-89.5,0-134.3,0c-12.1,0-13.1-1-13.1-13.4
							c0-6.7-0.2-13.4,0.1-20.1c0.3-5.6-1.1-8.3-7.6-8.6c-9.2-0.4-15.2-6.1-17.2-14.3C168.6,489.6,171.2,482.9,178.7,477.4z"/>
						<path class="st11" d="M121.2,681.6c-5.4,1.1-7-1.5-6.5-6.4c1.5-12.7,3.1-25.5,4.3-38.2c0.5-5.1,3.3-6.3,7.8-6.2
							c8.8,0.1,17.5-0.2,26.3,0.1c5.1,0.1,7-2,6.7-6.9c-0.6-7.8,1.6-15.9-2.9-23.3c-1.2-1.9-0.7-4.7,0.6-6.7c4-6.1,2.3-11.7-1-17.3
							c14.1,0.8,20,10.7,13.6,22.9c-1,1.9-1.9,4.4-0.7,5.9c7,8.7,3.2,18.9,4.4,28.3c-4.3-0.2-3.6,5.9-7.7,5.9
							c0.4-4.4-3.1-2.5-4.8-2.6c-9-0.2-18.1,0.2-27.1-0.2c-6-0.2-8.1,2.3-8.7,8C124.4,657.2,122.7,669.4,121.2,681.6z"/>
						<path class="st11" d="M248.6,701.9c-3.7-1.8-6.9-4.4-9.4-7.6c8.9,0,16.4-0.4,23.8,0.1c6.6,0.4,9.8-1.6,8.9-8.6
							c-0.4-2.3-0.4-4.6,0-7c3.3-17.1-5.4-28.7-16.2-40.7c-9.8-10.8-19.9-15.9-34.4-14c-7.4,0.9-15,0-22.5,0
							c15.4-2.7,30.8-1.3,46.2-0.7c1.8,0.3,3.4,1.2,4.6,2.5c9.2,10.1,18.1,20.4,27.3,30.6c1.9,2.1,2.9,4.9,2.8,7.8
							c-0.1,10-0.1,20.1,0,30.2c0.1,4.7-2,6.1-6.5,6.3C264.9,701.2,256.6,699.3,248.6,701.9z"/>
						<path class="st5" d="M351,553.3c-0.1-12-0.1-12.1,11.9-12.4c7.9-0.2,15.8,0,23.8,0c2.3,5,1.8,10.2,1.5,15.5
							c-2.9-10.6-2.9-10.6-15.2-10.6c-3.6,0-7.2,0.4-10.7-0.1C355.8,544.6,352.3,547.2,351,553.3z"/>
						<path class="st12" d="M263.7,441.8h13.6l-6.8,2.6l-63.9,0.2c7.4-2.9,15.2-0.8,22.8-1.4C240.8,442.4,252.3,444.7,263.7,441.8z"
							/>
						<path class="st13" d="M201.6,450.8c0.2,7,1.6,14.7-9,15.4c1.7-2.5,1.4-5.3,1.7-8.1C194.9,453.9,196.9,451,201.6,450.8z"/>
						<path class="st4" d="M285.5,379.6c-3.4,7.3-6.2,15.2-17,12.2c-2.5-2.8-1.3-5.8-0.4-8.8c1.1-3.2,1.6-6.5,1.6-9.9
							c-0.4-8.6-3.3-11-11.8-12c-14.4-1.7-28.9-1.3-43.3-1.6c-15.8-0.3-22-6.7-22.3-22.1c-0.2-8.7-1.3-17.5,7.7-23.5
							c3-2,2.9-6.4,3.3-10c1.3-10.6,6.6-15.5,17.3-16c11.4-0.4,22.7,0.2,34-1.5c8.1-1.2,9.1-1.6,9.1-10.1c0.1-22.7,0-45.4,0-68.1
							c0-5.8,0.1-11.4,5.4-15.4c2.2-1.7,2.3-4.6,2.3-7.1c0.1-22.2,0.1-44.4,0-66.6c0-4.5-2-7.7-5-10.8c-3.4-3.3-8-6.1-7.8-11.9
							c5.2-4.9,16.3-5.8,23.2-1.2c5.5,3.6,10.8,7.8,12.9,14.6c-0.3,30,1.6,60-1.3,89.9c-1.3,2.1-3.1,4-3.2,6.7
							c-1.7,6.2-2.4,12.7-2.2,19.1c0.1,20.8,0.1,41.7,0,62.5c0,10.5-1.1,11.3-11.4,11.6c-12.1,0.4-24.2-1.2-36.3,1.2
							c-4.1,0.7-8,2-11.7,3.9c-4.2,1.5-4.6,5-5,8.8c-0.6,7.3-3.5,13.3-10.1,17.3c-5.2,3.1-5.2,7.8-0.3,11.5c3,2.3,6.6,2.9,10.3,2.8
							c16-0.4,31.9,2.2,47.9,1.8c11.5-0.3,13.9,2.6,14.3,14.1L285.5,379.6z"/>
						<path class="st5" d="M151.9,20.3c-1.4-2.4-3.1-4.6-4.3-0.1c-0.7,2.7-0.2,5.6-0.3,8.5c-0.1,2.5-0.5,4.7-3.6,5
							c-2.4,0.3-4.7-1-5.7-3.2c-1.5-2.6-1.5-5.4-1.5-8.3c0-51.4,0.1-102.8,0.1-154.2c3.6-1.6,7.1-1.1,10.7,0V-9.6l-7.2,2.4
							c8.8,13.4,17.3,26.3,25.6,39.2c1.8,2.8,4.4,3.3,7.4,3.2c38.2,0,76.5,0,114.7,0c2.8,0,5.1-0.6,7-2.7c0,8.1,0,16.2,0,24.3
							c-2.6,3.8-6.6,3.5-10.5,3.5c-18.3,0.2-36.7,0-55,0.1c-10.3,0.1-10.7,0.9-10.4,11.1c0.3,8.4,1.7,17-1.6,25.2
							c-4.1,4-4.3,9.1-4.3,14.4c0,34.1,0,68.2,0,102.3c0,3.6,0.1,7.2-0.3,10.8c-0.4,4-2.1,7.3-6.4,7.4c-4.2,0.1-6.5-2.9-7.3-6.8
							c-0.9-4.1-0.6-8.2-0.6-12.4c0-45.7,0-91.4,0-137.1c0-3.6,0.1-7.2-0.2-10.8c-0.9-9-6.7-14.4-15.8-14.8
							c-9.8-0.5-19.7,0.8-29.4-0.9c-5.1-3-2.9-5.5,0.9-6.9c5.6-1.9,4.8-4.6,2.3-8.7C153.7,29.5,149.2,25.9,151.9,20.3z"/>
						<path class="st4" d="M334,51.1c-0.3,47.2-2.4,94.3-4.5,141.4c-0.7,16.2-0.5,32.4-1.4,48.7c-1.5,24.9-1.4,50-2.1,75
							c-1,31.4-2.1,62.8-3.2,94.2c-11.4,0.4-14.1-2-13.7-13.1c1.6-54.4,3.2-108.8,5-163.1c0.9-29.4,1.8-58.7,2.8-88.1
							c1-34.3,2.1-68.6,3.2-102.9c1.3-1.9,1.6-4.4,3.1-6.1c2-2.4,4.7-3,7.7-2.2s4.1,2.8,3.9,5.8C334.4,44,335.4,47.7,334,51.1z"/>
						<path class="st1" d="M287.3,201.4l6.2-1.6l-1.8,54.4c-1.3,2.4,0.5,5.3-1.3,7.6l-0.3,25c-1.4,2.9,0.5,6.3-1.3,9.1
							c1,20.1-2.2,40-1.7,60.1c0,1.7-0.9,3.4-1.4,5.1c-1.9-9-7.8-11.1-16.5-11c-16.2,0.1-32.5-1-48.7-1.5
							c-6.8-0.2-11.9-2.9-14.3-9.6c-1.9-5.2-2.3-9.2,4.9-10.8c7.8-1.8,8.7-8.8,9-15.3c0.2-4.2,0.4-8.3,4.7-10.7
							c6.6-4,14.1-2.1,21.2-2.8c11.3-1.2,22.7-1.4,34-0.9c5.2,0.3,6.6-1.5,6.5-6.5c-0.2-27.3-0.1-54.7-0.1-82
							C286.5,207,285.8,204.1,287.3,201.4z"/>
						<path class="st1" d="M215.7,95.8c-0.6-10,0.5-20.1-1.2-30c-1.1-6.2,1.6-8.7,8.2-8.6c24,0.2,48-0.1,72-0.1c0,17.7,0,35.3,0,53
							c-2-1.5-4.5-2.7-6-4.6c-7.8-10-18.3-10.8-29.6-9.3C252.1,101,222.1,100.8,215.7,95.8z"/>
						<path class="st5" d="M334,51.1c0-2,0.1-4.1-0.1-6.2c-0.2-2.7,1.1-6-2.4-7.5c-3.6-1.5-6.4,0.2-8.6,3.2c-0.9,0.9-1.9,1.8-3,2.4
							c0-12.1-0.3-24.1-0.1-36.2c0.3-16.6,12.5-30.6,28.9-33.2c4.8-0.8,9.7-1.1,14.5-1.6c-5.8,4.6-2,10.9-2.9,16.4
							c-1.6-3.5-3.4-5.3-8-3.6C341.5-11,336.1-3.7,335.7,9.9c-0.3,10.8-0.2,21.5-0.4,32.3C335.2,45.2,335.7,48.3,334,51.1z"/>
						<path class="st14" d="M288.8,295.9c0.2-3.1-0.7-6.3,1.3-9.1C290.1,289.9,291,293.1,288.8,295.9z"/>
						<path class="st14" d="M290.4,261.8c0.1-2.6-0.5-5.3,1.3-7.6C291.8,256.8,292.3,259.5,290.4,261.8z"/>
						<path class="st3" d="M413.2,116.3c-5,0.1-4.8-3.4-4.9-6.9c-0.5-12.3-1-24.7-1.5-37c-1.5-3.6-4.2-4.5-7.9-4.6
							c-7.4-0.2-14.7,1.7-22.1,1.7c-5.7,0-11.2-0.2-16.3-3c-2.6-20.7-2.4-20.8,17.7-23.1c22.3-2.5,44.6-5.2,67-7.7
							c3.5-0.4,8.2-2.4,8.7,4.1c4.5,5.2,3.9,11.1,1.6,16.6s-7.6,5.5-12.6,5.2s-10.3,0.6-15.4,0.8c-3.9,0.2-7.1,2.2-6.2,6.2
							c2.6,10.8-0.2,22.1,2.9,32.8c0.6,2,1.6,3.7,3.1,5.1l0,0c5.8,1.7,11.8,0.4,17.7,0.8c2.4,0.1,4.1,0.2,4.9,3.4
							c4.7,17.8,2,35.8,2.2,53.8c-0.1,2.4-1.1,4.6-2.8,6.2c-1.1,1.4-2.8,2.2-3.8,3.7c-3.6,6.1-2.1,12.9-2.5,19.3
							c-0.3,4.3-0.9,8.2-6.2,8.9c-1.6-0.2-3.6-0.5-3.9-2c-2.4-10.4-4.7-20.9-3.3-31.7c0.1-0.8,0.4-1.5,1-2c10.3-5.3,6.9-15,7.8-23.4
							c1.3-5,0.2-10.2,0.6-15.2c0.5-6.3-2.8-8.7-8.6-9S418.3,120.4,413.2,116.3z"/>
						<path class="st15" d="M360.5,66.6c12.8-0.1,25.6-0.2,38.4-1.7c5.8-0.7,9,1.1,7.9,7.6c-6.5-2.8-13.2-1.1-19.8-0.9
							c-4.4,0.1-8.7,0.4-13.1,1C368.1,73.4,363.3,72.2,360.5,66.6z"/>
						<path class="st11" d="M10.5,590.4c0-2.8,0.1-5.7,0-8.5c-0.1-3.3,0.9-5.6,4.7-5.6c4.2,0,5.6-2.3,6.2-6.2
							c4-25.7,8.3-51.3,12.6-77c0.3-1.2,0.8-2.4,1.4-3.5c5.9-0.6,8.4,1,7.1,7.8c-4.8,26.5-9.1,53.1-13.4,79.7
							c-0.7,4.2-1.6,7.5-6.8,7.5c-4.6,0-3.9,3.8-4.1,6.8c-0.3,3.8,1.5,8.7-4.4,10.1c-6.6-1.4-3.2-6.2-3.4-9.8L10.5,590.4z"/>
						<path class="st16" d="M2.8,745.5c-0.2-7.3,2.5-13,9.3-16.4c6.5-3.3,9.3-8.7,10.9-15.7c6-25.5,12.5-51,18.8-76.4
							c2.3,2.5,1.3,5.3,0.6,8.1c-6.9,28.1-13.8,56.2-20.5,84.3c-2.3,9.5-11.4,11.1-17.5,16.2C3.9,746.5,3.3,746.5,2.8,745.5z"/>
						<path class="st17" d="M10.4,615.2c-3.8-1.7-10.7-0.3-11.3-4.7c-0.8-5.5,2.5-11.3,5.7-16.3c1.1-1.8,3.8-2.5,5.7-3.8l0.2,0.3
							c0.9,6.6,1.3,13.2-0.2,19.9L10.4,615.2z"/>
						<path class="st18" d="M35.2,480.4c-17,0-34.1,0-51.1,0.2c-6.4,0.1-9.6-1.9-9.4-8.9c0.2-5.3-0.8-10.7-1.3-16.1
							c3.2,6,7.2,11.7,7.4,18.9c0.1,4.3,3.5,4.4,6.7,4.4c13.2,0,26.3,0,39.5,0C29.8,479.1,32.7,478.3,35.2,480.4z"/>
						<path class="st19" d="M10.6,610.6c0.1-6.6,0.1-13.2,0.2-19.9c2.8,3.1-0.1,7.7,3,10.7L10.6,610.6z"/>
						<path class="st3" d="M215.7,95.8l43.4,0.2c0.5,0.9,1.2,1.7,2,2.4c13.2,8.1,14.9,20.3,14.1,34.5c-1,18.5-0.2,37.2-0.2,55.8
							c0,4,0.3,7.6-5.3,8.6c-4.1,0.8-2.8,5-2.8,7.9c-0.1,25-0.3,50.1,0.1,75.1c0.1,7.4-2.1,9.4-9.5,9.8c-12.7,0.6-25.3,0.8-38,1.2
							c-8.3,0.2-12.7,4.3-13,12.2c-0.3,7.4-1.1,14-9.2,17.1c-0.8,0.3-2,1.5-2,2.1c0.8,8.7-1.6,17.7,2.1,26c2.9,6.3,9.2,7.2,15.2,7.3
							c16,0.2,32,0.9,48.1,1.5c6.7,0.3,9.8,2.8,11.5,8.8c2.6,9.2-0.2,17.3-3.8,25.4c-2.5,2.7-5.5,3.4-9.1,3.2
							c-28.2-1.1-56.4-2-84.5-3c-5.2-0.4-10.3-1.5-15.1-3.3c-17.3-5.9-18.2-7.7-19.1-25.6c-2.5-55-0.7-109.9-1.2-164.9
							c-0.1-11.4,1.1-12.5,12.3-12.6c5.4,0,10.9,0,16.3-0.1c1.7,0,4-0.1,3.7-2.7c-0.3-1.9-2.3-1.9-3.7-1.9c-7.5-0.2-15,0.5-22.3-1.9
							c-1.9-0.8-3.8-1.7-5.6-2.6c-2.4-1.7-1.2-4.3-1.2-6.4c-0.1-26.8,0-53.5-0.1-80.3c0-4.7,0-8.9,6.6-8.7c3.5,0.1,2.8-3.1,2.8-5.2
							c0-8,0.2-16-0.1-23.9c-0.1-2.5-1.3-5.3,2.7-5.8l32.6,0.1c10.5,0,18.4,7.7,18.4,18.2c0.1,27.6,0.1,55.3,0.1,82.9
							c0,23.5,0,47,0.1,70.5c0,1.8,0,3.6,0,5.4c0.1,3,0.6,6.4,4.1,6.5c4.1,0.2,3.6-3.7,3.6-6.4c0.1-10.1,0-20.1,0-30.2
							c0-29.7,0-59.4,0-89.1C209.6,99.6,209.4,95.3,215.7,95.8z"/>
						<path class="st1" d="M150.7,46c-3.4,8.5-0.9,17.2-1.5,25.9c-0.3,5.1,1,10.7-7.1,10.9c-2.7,0.1-2.7,2.7-2.7,4.8
							c0.3,29.6-0.9,59.2,0.6,88.8c-2.4-1.8-2.1-4.5-2.1-7.1c0-27.3,0-54.5,0-81.8c0-4,0.5-7.2,5.6-7.3c2,0,3.6-1.3,3.6-3.3
							c-0.3-8.6,1.9-17.4-1.2-25.9c1.6-8.9,4-17.6,3.2-26.8c-0.2-1.9,0.5-3.6,2.8-3.9c2.8,4.6,5.6,9.2,8.5,13.8
							c5,8,4.9,8.4-4.5,10.6C154.1,45.1,152.4,45.6,150.7,46z"/>
						<path class="st16" d="M51.2,242.8c-7.5,0.2-10.3-3.2-9.5-10.7c0.7-6.5,0.2-13.2,0.2-19.8c1.6,3.4,1.3,8.1,7.1,8.4
							c2.4,0.1,1.9,3.2,2,5.2C51,231.5,51.1,237.1,51.2,242.8z"/>
						<path class="st14" d="M287.3,201.4c0,29.1,0,58.1,0,87.2c0,10.3,0,10.3-10.1,10.4c-17.5,0.1-34.9,1.2-52.3,3
							c6.6-5.4,14.8-3.4,22.2-4.1c9.8-0.8,19.6-0.9,29.5-0.3c7.7,0.4,9.5-2.6,9.4-9.8c-0.4-25.8-0.2-51.6-0.1-77.4
							C285.9,207.3,285,204.1,287.3,201.4z"/>
					</g>
				</g>
			</g>
		</g>
		<text transform="matrix(1 0 0 1 112.64 264.56)" class="st20 st21 st22">I’M HERE!</text>
		<text transform="matrix(1 0 0 1 87.81 390.83)" class="st20 st21 st23">NA</text>
		<text transform="matrix(1 0 0 1 104.18 390.83)" class="st20 st21 st23">B</text>
		<text transform="matrix(1 0 0 1 111.19 390.83)" class="st20 st21 st23">A - </text>
		<text transform="matrix(1 0 0 1 129.67 390.83)" class="st20 st21 st23">N</text>
		<text transform="matrix(1 0 0 1 137.9 390.83)" class="st20 st21 st23">u</text>
		<text transform="matrix(1 0 0 1 144.34 390.83)" class="st20 st21 st23">ov</text>
		<text transform="matrix(1 0 0 1 156.8 390.83)" class="st20 st21 st23">a</text>
		<text transform="matrix(1 0 0 1 162.94 390.83)" class="st20 st21 st23"> </text>
		<text transform="matrix(1 0 0 1 165.1 390.83)" class="st20 st21 st23">A</text>
		<text transform="matrix(1 0 0 1 172.94 390.83)" class="st20 st21 st23">ccad</text>
		<text transform="matrix(1 0 0 1 198.28 390.83)" class="st20 st21 st23">em</text>
		<text transform="matrix(1 0 0 1 214.94 390.83)" class="st20 st21 st23">i</text>
		<text transform="matrix(1 0 0 1 217.52 390.83)" class="st20 st21 st23">a di Bel</text>
		<text transform="matrix(1 0 0 1 254.5 390.83)" class="st20 st21 st23">l</text>
		<text transform="matrix(1 0 0 1 256.89 390.83)" class="st20 st21 st23">e</text>
		<text transform="matrix(1 0 0 1 263.32 390.83)" class="st20 st21 st23"> </text>
		<text transform="matrix(1 0 0 1 265.48 390.83)" class="st20 st21 st23">A</text>
		<text transform="matrix(1 0 0 1 273.5 390.83)" class="st20 st21 st23">rt</text>
		<text transform="matrix(1 0 0 1 282.36 390.83)" class="st20 st21 st23">i</text>
		<g id="iìm_here">
			
				<image style="overflow:visible;opacity:0.75;enable-background:new    ;" width="567" height="649" xlink:href="1BBAE468D42A128A.png"  transform="matrix(0.2396 0 0 0.2393 125.68 258)">
			</image>
			<g>
				<circle class="st24" cx="186.5" cy="315.8" r="40.6"/>
				<circle class="st25" cx="186.5" cy="315.8" r="27.1"/>
				<circle class="st24" cx="186.5" cy="368" r="7.9"/>
				<path class="st24" d="M178.5,368c0,0-0.1-6-2.4-9.3s-10.7-8.2-10.7-8.2h19.9l1.2,17.6H178.5z"/>
				<path class="st24" d="M194.4,368c0,0,0.1-6,2.4-9.3s10.7-8.2,10.7-8.2h-19.9l-1.2,17.6H194.4z"/>
				<polygon class="st24" points="182.6,349.8 183.5,369.3 192.1,368.6 192.1,349.3 				"/>
			</g>
		</g>
	</g>
</g>
</svg>
