<svg xmlns="http://www.w3.org/2000/svg" width="19.07" height="19.01" viewBox="0 0 19.07 19.01">
  <defs>
    <style>
      .cls-1 {
        fill: #c60000;
      }

      .cls-2 {
        opacity: 0.9;
      }

      .cls-3 {
        fill: #082421;
      }

      .cls-4 {
        fill: #fdcebd;
      }

      .cls-5 {
        fill: #fd7b6f;
      }

      .cls-6 {
        fill: #fdb59b;
      }

      .cls-7 {
        fill: #505050;
      }

      .cls-8 {
        fill: #fe6052;
      }
    </style>
  </defs>
  <title>Risorsa 69</title>
  <g id="Livello_2" data-name="Livello 2">
    <g id="ICONE">
      <g id="community">
        <circle class="cls-1" cx="9.51" cy="9.51" r="9.51"/>
        <g id="icon_you" class="cls-2">
          <path class="cls-3" d="M5.37,12.06a1.21,1.21,0,0,0-.17.27,1.34,1.34,0,0,1-.2.3,3.45,3.45,0,0,1-.35.31l-.29.22a2.71,2.71,0,0,1-.39.22,1.46,1.46,0,0,1-.27.09l-.37.06a1,1,0,0,1-.33,0,.38.38,0,0,1-.26-.18.58.58,0,0,1-.05-.43,1,1,0,0,1,.15-.32c.05-.08.1-.15.15-.23A.86.86,0,0,0,3,11.81c0-.1,0-.2,0-.3a1,1,0,0,1,0-.37,1.86,1.86,0,0,1,.2-.4c.1-.15.25-.25.35-.41s.12-.52.23-.66.39-.26.54-.45a1.19,1.19,0,0,0,.26-.69,1.51,1.51,0,0,0,0-.33,1.65,1.65,0,0,0-.14-.45c-.06-.13-.14-.26-.2-.39a.68.68,0,0,1,0-.48.91.91,0,0,1,.57-.6,2,2,0,0,1,.63-.12h.24L6,6.1A1.18,1.18,0,0,0,6.4,6a3.49,3.49,0,0,0,.32-.22,1,1,0,0,1,.51-.2,1.12,1.12,0,0,1,.31,0A1,1,0,0,1,8,5.8a1.24,1.24,0,0,1,.27.34,1.06,1.06,0,0,1,.13.63,3.29,3.29,0,0,1-.07.36,1,1,0,0,0,0,.29.44.44,0,0,0,.19.33l.24.16a.35.35,0,0,1,.15.29.75.75,0,0,1-.08.33,1.7,1.7,0,0,1-.2.3l-.23.28-.09.11-.19.22A.74.74,0,0,0,8,9.58h0s0,0,0,0a.76.76,0,0,0,0-.08,1.45,1.45,0,0,0,0-.4.87.87,0,0,0-.09-.24,1,1,0,0,0-.27-.27.86.86,0,0,1-.18-.18.94.94,0,0,1-.16-.49,2.06,2.06,0,0,1,0-.28,1.2,1.2,0,0,0,0-.22.66.66,0,0,0-.1-.3,2.64,2.64,0,0,0-.22-.25.45.45,0,0,1-.11-.25.31.31,0,0,1,0-.2A.29.29,0,0,1,7,6.3h0a.27.27,0,0,0-.16.1.32.32,0,0,0-.05.21s0,0,0,0a.77.77,0,0,0-.18.08A1.16,1.16,0,0,0,6.25,7,1.66,1.66,0,0,0,6,7.3a2.37,2.37,0,0,0-.15.37,2.91,2.91,0,0,0-.11.51,2,2,0,0,0,0,.32s0,0,0,.05v0s0,0,0,0,0,.11,0,.17,0,.14,0,.21a2.83,2.83,0,0,0,.05.28,2.43,2.43,0,0,0,.18.5l.1.19a1.46,1.46,0,0,0,.2.25l.11.09a0,0,0,0,1,0,0,.53.53,0,0,1-.07.12c-.07.08-.15.15-.21.22a.7.7,0,0,0-.14.22,1.37,1.37,0,0,0-.06.37,1.63,1.63,0,0,1,0,.17"/>
          <path class="cls-3" d="M5.34,12"/>
          <path class="cls-4" d="M5.76,8.55h0s0,0,0,.06a1.94,1.94,0,0,0,0,.27,2.94,2.94,0,0,0,.1.5,2.34,2.34,0,0,0,.17.43,1.47,1.47,0,0,0,.33.44.86.86,0,0,0,.44.22.71.71,0,0,0,.36,0,1,1,0,0,0,.39-.27,1.59,1.59,0,0,0,.22-.31.84.84,0,0,0,.08-.16.73.73,0,0,0,.05-.22A1.5,1.5,0,0,0,7.85,9a.67.67,0,0,0-.23-.31L7.4,8.5a.7.7,0,0,1-.2-.34,1.22,1.22,0,0,1,0-.37c0-.11,0-.21,0-.32A.61.61,0,0,0,7,7.05a2.34,2.34,0,0,1-.19-.2.48.48,0,0,1-.08-.16s0,0,0,0a.89.89,0,0,0-.3.17A1.58,1.58,0,0,0,6,7.42a2.54,2.54,0,0,0-.16.5.26.26,0,0,0,0,0s0,0,0,0a.25.25,0,0,1,0-.07h0s0,0,0,.06A3.94,3.94,0,0,0,6,8.71a3.09,3.09,0,0,0,.18.49,2.62,2.62,0,0,0,.27.46,1.21,1.21,0,0,0,.35.32,2.59,2.59,0,0,0,.29.14l.11.07a.07.07,0,0,1,0,.13.37.37,0,0,1-.22.1.57.57,0,0,1-.4-.1,1.26,1.26,0,0,1-.42-.47,2.73,2.73,0,0,1-.24-.7c0-.19-.09-.38-.12-.58a1.65,1.65,0,0,1,0-.31,1.22,1.22,0,0,1,0-.13.06.06,0,0,0,0-.05.47.47,0,0,0,0,.1,2.55,2.55,0,0,0,0,.32S5.77,8.54,5.76,8.55Z"/>
          <path class="cls-5" d="M5.94,12.85c0,.24-.12.82.06.94s1.76.1,1.78-.13a1.25,1.25,0,0,0,.08-.36,1.45,1.45,0,0,0-.1-.65,1.36,1.36,0,0,0-.29-.46,1.19,1.19,0,0,0-.32-.24s0,0,0,0a.73.73,0,0,1-.11.29l-.07.07a.16.16,0,0,1-.22-.06.76.76,0,0,1-.12-.32c0-.06,0-.06-.06,0a.8.8,0,0,0-.44.36,1.13,1.13,0,0,0-.15.42A.87.87,0,0,0,5.94,12.85Z"/>
          <path class="cls-4" d="M7.2,10.46a1,1,0,0,1-.26,0,.76.76,0,0,1-.29-.05l-.11-.05s0,0,0,0,.06,1.41.14,1.66a.45.45,0,0,0,.1.19c.1.1.18.06.24,0a.66.66,0,0,0,.11-.29c0-.06,0-.28,0-.34S7.17,10.62,7.2,10.46Z"/>
          <path class="cls-6" d="M5.81,8.08c0,.08,0,.16,0,.24a2.35,2.35,0,0,0,0,.38c0,.21.08.41.13.61a2.39,2.39,0,0,0,.21.56,1.22,1.22,0,0,0,.26.33.81.81,0,0,0,.38.21.47.47,0,0,0,.37-.07l0,0s0-.09,0-.13A1.26,1.26,0,0,0,7,10.06a1.28,1.28,0,0,1-.35-.22,1.76,1.76,0,0,1-.33-.43,2.89,2.89,0,0,1-.38-1.15c0-.12,0-.24,0-.35a.17.17,0,0,0,0-.07s0,0,0,0h0a.58.58,0,0,0,0,.11A.71.71,0,0,0,5.81,8.08Z"/>
          <path class="cls-7" d="M3.75,10.61l0,0h0l-.07.07,0,.06a1.5,1.5,0,0,0-.11.26h0s0,0,0-.06a.35.35,0,0,1,0-.06l0-.07a.88.88,0,0,0-.13.16,1,1,0,0,0-.14.41,1.37,1.37,0,0,0,0,.31c0,.12,0,.24,0,.36a1.09,1.09,0,0,1,0,.48,1.29,1.29,0,0,1-.13.25A.9.9,0,0,0,3,13a.19.19,0,0,0,.1.23.25.25,0,0,0,.17,0,.29.29,0,0,0,.23-.22.49.49,0,0,0,0-.17c0-.1,0-.21,0-.31a2.13,2.13,0,0,1,0-.36.55.55,0,0,1,.09-.3.71.71,0,0,1,.19-.17.5.5,0,0,0,.18-.2.54.54,0,0,0,0-.19c0-.1,0-.21,0-.31a1,1,0,0,1,.15-.42,1.59,1.59,0,0,0,.14-.27.26.26,0,0,0,0-.1.07.07,0,0,0-.08-.07.26.26,0,0,0-.14.06,1.94,1.94,0,0,0-.31.31Z"/>
          <path class="cls-7" d="M4.87,8s0-.06,0-.09a1.12,1.12,0,0,0-.06-.38.85.85,0,0,1,0-.22.42.42,0,0,1,.07-.25A2,2,0,0,1,5,6.89a.5.5,0,0,0,.12-.23.23.23,0,0,0,0-.12,0,0,0,0,0,0,0,.23.23,0,0,0-.11,0,.52.52,0,0,0-.33.25.51.51,0,0,0-.08.33,1,1,0,0,0,.08.29,4.73,4.73,0,0,1,.19.48l0,.14Z"/>
          <path class="cls-7" d="M8.31,6.77a.31.31,0,0,0,0-.16,1.31,1.31,0,0,0,0-.21.74.74,0,0,0-.14-.29,1.54,1.54,0,0,0-.5-.41.19.19,0,0,0-.09,0s0,0,0,0a0,0,0,0,0,0,.05l.1.08A2.57,2.57,0,0,1,8,6.08a1.12,1.12,0,0,1,.23.37,1.52,1.52,0,0,1,.09.32Z"/>
          <path class="cls-7" d="M8.76,8.23a.29.29,0,0,0,0-.13A.35.35,0,0,0,8.62,8h0s0,0,0,0a.27.27,0,0,0,0,.12l.08.19a.07.07,0,0,1,0,.05s0,0,0,0h0a.12.12,0,0,0,.05-.06A.14.14,0,0,0,8.76,8.23Z"/>
          <path class="cls-8" d="M6.63,12.29a.38.38,0,0,0-.07-.18l0-.05a0,0,0,0,0,0,0,.51.51,0,0,0-.31.3h0s0,0,0,.06a.06.06,0,0,0,.06,0l.11,0,.17-.07A.11.11,0,0,1,6.63,12.29Z"/>
          <path class="cls-6" d="M6.61,11.25c0-.05,0-.1.06-.15a1.18,1.18,0,0,1,.16-.26.85.85,0,0,0,.11-.15v0c0-.06,0-.08-.06-.08H6.75a.2.2,0,0,0-.17.18,1.31,1.31,0,0,0,0,.33s0,.08,0,.12A.08.08,0,0,0,6.61,11.25Z"/>
        </g>
        <g id="icon_you-2" data-name="icon_you">
          <path class="cls-3" d="M11.8,6.28a3.56,3.56,0,0,0,0-.56,5.19,5.19,0,0,0-.2-.91,4.23,4.23,0,0,0-.27-.66,3,3,0,0,0-.38-.57,2.08,2.08,0,0,0-.51-.44A1.37,1.37,0,0,0,10.09,3s0,0,0-.07A.57.57,0,0,0,10,2.54a.48.48,0,0,0-.29-.18h0a.52.52,0,0,1,.25.19.56.56,0,0,1,.09.36.8.8,0,0,1-.2.44,4.72,4.72,0,0,0-.39.45,1.18,1.18,0,0,0-.19.54,2.14,2.14,0,0,0,0,.39,3.68,3.68,0,0,1,0,.5,1.68,1.68,0,0,1-.28.88,1.53,1.53,0,0,1-.33.31,1.86,1.86,0,0,0-.49.48A1.56,1.56,0,0,0,8,7.35a2.59,2.59,0,0,0-.07.72,1.35,1.35,0,0,0,0,.13s0,0,0,0a0,0,0,0,1,0,0A1.32,1.32,0,0,0,7.64,8l-.34-.39-.16-.19c-.15-.16-.28-.33-.42-.5a3,3,0,0,1-.35-.54,1.34,1.34,0,0,1-.15-.6.63.63,0,0,1,.27-.53c.14-.1.29-.18.42-.29a.79.79,0,0,0,.33-.58,1.78,1.78,0,0,0-.06-.52,5.89,5.89,0,0,1-.12-.64,1.9,1.9,0,0,1,.24-1.12,2.22,2.22,0,0,1,.48-.61,1.7,1.7,0,0,1,.82-.4,2,2,0,0,1,.55,0,1.83,1.83,0,0,1,.91.35,6.23,6.23,0,0,0,.57.39A2.1,2.1,0,0,0,11.3,2a5.2,5.2,0,0,0,.66.07l.43,0a3.65,3.65,0,0,1,1.12.22,1.63,1.63,0,0,1,1,1.08,1.22,1.22,0,0,1-.07.86c-.1.24-.24.47-.36.7a3,3,0,0,0-.26.8,2.7,2.7,0,0,0,0,.6,2.12,2.12,0,0,0,.46,1.23,3.36,3.36,0,0,0,1,.81A11.34,11.34,0,0,0,16.53,9a3.53,3.53,0,0,1,.89.52,3,3,0,0,1,.62.73,3.32,3.32,0,0,1,.36.72,1.75,1.75,0,0,1,.08.66c0,.18,0,.36-.07.53a1.53,1.53,0,0,0,.12,1c.08.15.17.28.26.42a1.72,1.72,0,0,1,.26.57,1,1,0,0,1-.1.77.68.68,0,0,1-.46.33,1.84,1.84,0,0,1-.59,0,5.26,5.26,0,0,1-.66-.11,2.6,2.6,0,0,1-.48-.17,4.84,4.84,0,0,1-.69-.4c-.18-.12-.35-.25-.52-.39a6.17,6.17,0,0,1-.63-.55,2.4,2.4,0,0,1-.36-.54,2.16,2.16,0,0,0-.3-.49.83.83,0,0,0-.52-.26,1.75,1.75,0,0,0-.62.05,4.78,4.78,0,0,1-.58.11.89.89,0,0,1-.56-.1.9.9,0,0,1-.3-.3,1.54,1.54,0,0,1-.21-.53,2.92,2.92,0,0,1,0-.3,2.45,2.45,0,0,0-.1-.67,1.25,1.25,0,0,0-.25-.39c-.12-.14-.27-.26-.38-.4a.94.94,0,0,1-.13-.22.05.05,0,0,1,0-.07,1.1,1.1,0,0,0,.2-.17,2.6,2.6,0,0,0,.36-.45c.07-.11.13-.22.19-.33a4.35,4.35,0,0,0,.32-.9,5.05,5.05,0,0,0,.1-.5c0-.12,0-.25,0-.37s0-.2,0-.3,0-.05,0-.08V6.37S11.81,6.31,11.8,6.28Z"/>
          <path class="cls-4" d="M11.78,6.38h0s0,.07,0,.11a3.47,3.47,0,0,1,0,.48,5.26,5.26,0,0,1-.17.9,4.18,4.18,0,0,1-.3.77,2.63,2.63,0,0,1-.59.78,1.54,1.54,0,0,1-.79.39,1.28,1.28,0,0,1-.65-.07,1.81,1.81,0,0,1-.69-.48,2.84,2.84,0,0,1-.4-.55A1.49,1.49,0,0,1,8,8.43,1.3,1.3,0,0,1,7.92,8a2.69,2.69,0,0,1,.13-.88,1.19,1.19,0,0,1,.41-.55c.13-.1.26-.2.39-.32a1.26,1.26,0,0,0,.35-.61A2.19,2.19,0,0,0,9.28,5c0-.19,0-.38,0-.57a1.09,1.09,0,0,1,.29-.74,4.19,4.19,0,0,0,.34-.36A.85.85,0,0,0,10,3s0,0,.06,0a1.58,1.58,0,0,1,.54.3,2.83,2.83,0,0,1,.75,1,4.55,4.55,0,0,1,.29.89.47.47,0,0,1,0,.05s0,0,0,0a.45.45,0,0,0,0-.12s0,0,0,0v0s0,.08,0,.11a7,7,0,0,1-.2,1.42,5.52,5.52,0,0,1-.32.87,4.69,4.69,0,0,1-.48.82,2.16,2.16,0,0,1-.62.58,4.63,4.63,0,0,1-.52.25.83.83,0,0,0-.2.12.13.13,0,0,0,0,.23.66.66,0,0,0,.4.19,1,1,0,0,0,.72-.19A2.25,2.25,0,0,0,11,8.68a4.88,4.88,0,0,0,.43-1.25c.08-.34.15-.68.21-1a3,3,0,0,0,0-.55,2.18,2.18,0,0,0,0-.23.1.1,0,0,1,0-.09.83.83,0,0,1,0,.19,4.55,4.55,0,0,1,0,.58S11.77,6.36,11.78,6.38Z"/>
          <path class="cls-5" d="M11.46,14.07c0,.42.21,1.47-.11,1.68-.58.37-3.14.18-3.17-.23A2.24,2.24,0,0,1,8,14.87,2.59,2.59,0,0,1,8.2,13.7a2.43,2.43,0,0,1,.52-.83,2.12,2.12,0,0,1,.58-.43s0,0,.05,0a1.3,1.3,0,0,0,.19.51.45.45,0,0,0,.12.12.28.28,0,0,0,.39-.11,1.35,1.35,0,0,0,.22-.56c0-.1,0-.1.11-.07a1.43,1.43,0,0,1,.78.65,2,2,0,0,1,.26.75A1.55,1.55,0,0,1,11.46,14.07Z"/>
          <path class="cls-4" d="M9.21,9.78a1.8,1.8,0,0,0,.46.08,1.35,1.35,0,0,0,.51-.09l.2-.1s.05,0,0,0-.12,2.51-.25,3A.81.81,0,0,1,10,13c-.17.18-.31.11-.43,0a1.18,1.18,0,0,1-.19-.53c0-.1-.07-.51-.08-.61C9.28,11.47,9.27,10.09,9.21,9.78Z"/>
          <path class="cls-6" d="M11.7,5.54c0,.14,0,.28,0,.42a4.2,4.2,0,0,1-.08.68c-.07.37-.15.73-.24,1.1a4.28,4.28,0,0,1-.38,1,2.19,2.19,0,0,1-.47.6,1.45,1.45,0,0,1-.67.38.84.84,0,0,1-.67-.13L9.13,9.5c-.06-.08,0-.17.06-.24a2.26,2.26,0,0,1,.38-.19,2.28,2.28,0,0,0,.62-.39,3.15,3.15,0,0,0,.59-.77,5.16,5.16,0,0,0,.67-2.05c0-.21,0-.42.06-.63a.3.3,0,0,1,0-.12s0,0,0,0,0,0,0,0a1,1,0,0,1,.08.19A1.28,1.28,0,0,1,11.7,5.54Z"/>
          <path class="cls-7" d="M17.15,10l-.07,0h0l.12.12a.28.28,0,0,1,.08.1,2.67,2.67,0,0,1,.2.46v0s0-.08,0-.11a.62.62,0,0,0,0-.11l0-.12a1.56,1.56,0,0,1,.22.29,1.76,1.76,0,0,1,.25.73,2.45,2.45,0,0,1,0,.56c0,.21-.07.42-.08.64a2,2,0,0,0,.09.85,2.31,2.31,0,0,0,.24.44,1.61,1.61,0,0,1,.27.53.35.35,0,0,1-.17.42.45.45,0,0,1-.3,0,.52.52,0,0,1-.41-.39.87.87,0,0,1,0-.31c0-.19.06-.37.08-.55a3.81,3.81,0,0,0,0-.64,1,1,0,0,0-.15-.53,1.26,1.26,0,0,0-.33-.3.89.89,0,0,1-.32-.35,1,1,0,0,1-.08-.33c0-.19,0-.37,0-.56a1.83,1.83,0,0,0-.26-.75,2.85,2.85,0,0,1-.25-.48.47.47,0,0,1,0-.17.12.12,0,0,1,.14-.13.46.46,0,0,1,.24.11,3.47,3.47,0,0,1,.55.55Z"/>
          <path class="cls-7" d="M13.38,5.42c0-.05,0-.11,0-.16a2,2,0,0,1,.11-.68,1.53,1.53,0,0,0,.08-.4.75.75,0,0,0-.13-.44,3.66,3.66,0,0,0-.27-.34A.9.9,0,0,1,12.93,3a.41.41,0,0,1,0-.21A.08.08,0,0,1,13,2.73a.41.41,0,0,1,.19,0,.93.93,0,0,1,.59.45.92.92,0,0,1,.14.59,1.73,1.73,0,0,1-.14.52,8.45,8.45,0,0,0-.35.86l-.07.26Z"/>
          <path class="cls-7" d="M7.24,3.21a.55.55,0,0,1,0-.29,2.35,2.35,0,0,1,0-.38A1.33,1.33,0,0,1,7.5,2a2.75,2.75,0,0,1,.89-.73.33.33,0,0,1,.16-.05s.05,0,.06,0a.08.08,0,0,1,0,.09l-.19.15A4.6,4.6,0,0,0,7.83,2a2,2,0,0,0-.42.67,2.72,2.72,0,0,0-.16.58Z"/>
          <path class="cls-7" d="M6.42,5.81a.53.53,0,0,1,.07-.24.63.63,0,0,1,.19-.23l0,0c.05,0,.07,0,.07,0a.49.49,0,0,1-.05.22l-.15.34a.12.12,0,0,0,0,.09s0,0,0,0h0a.21.21,0,0,1-.09-.11A.25.25,0,0,1,6.42,5.81Z"/>
          <path class="cls-8" d="M10.23,13.06a.69.69,0,0,1,.12-.32l.05-.1a.06.06,0,0,1,.08,0,.92.92,0,0,1,.55.53v0s0,.08,0,.11a.11.11,0,0,1-.11,0l-.2-.08-.3-.13A.2.2,0,0,0,10.23,13.06Z"/>
          <path class="cls-6" d="M10.27,11.2c0-.09-.07-.18-.11-.27a2.11,2.11,0,0,0-.29-.47,1.51,1.51,0,0,1-.2-.27l0-.07c0-.1,0-.14.1-.14A1.42,1.42,0,0,1,10,10a.36.36,0,0,1,.3.33,2.34,2.34,0,0,1,0,.59c0,.07,0,.14,0,.21A.15.15,0,0,1,10.27,11.2Z"/>
        </g>
      </g>
    </g>
  </g>
</svg>
