<svg xmlns="http://www.w3.org/2000/svg" xmlns:xlink="http://www.w3.org/1999/xlink" width="19.24" height="19.24" viewBox="0 0 19.24 19.24">
  <defs>
    <style>
      .cls-1 {
        fill: #6c9093;
      }

      .cls-2 {
        fill: url(#Sfumatura_senza_nome_24);
      }

      .cls-3 {
        fill: #c9c9c9;
      }

      .cls-4 {
        fill: #ffe000;
      }

      .cls-5 {
        fill: #fff294;
      }

      .cls-6 {
        fill: #efe8e8;
      }
    </style>
    <radialGradient id="Sfumatura_senza_nome_24" data-name="Sfumatura senza nome 24" cx="9.62" cy="8.04" r="5.99" gradientUnits="userSpaceOnUse">
      <stop offset="0" stop-color="#ffe600"/>
      <stop offset="0.09" stop-color="#ffe700" stop-opacity="0.97"/>
      <stop offset="0.22" stop-color="#ffe900" stop-opacity="0.88"/>
      <stop offset="0.38" stop-color="#ffec00" stop-opacity="0.74"/>
      <stop offset="0.57" stop-color="#fff100" stop-opacity="0.55"/>
      <stop offset="0.78" stop-color="#fff700" stop-opacity="0.3"/>
      <stop offset="1" stop-color="#ff0" stop-opacity="0"/>
    </radialGradient>
  </defs>
  <title>Risorsa 70</title>
  <g id="Livello_2" data-name="Livello 2">
    <g id="ICONE">
      <g id="enlightened">
        <circle class="cls-1" cx="9.62" cy="9.62" r="9.62"/>
        <circle class="cls-2" cx="9.62" cy="8.04" r="5.99"/>
        <rect class="cls-3" x="9.2" y="8.01" width="0.85" height="7.73" rx="0.42" ry="0.42"/>
        <circle class="cls-4" cx="9.62" cy="8.04" r="2.86"/>
        <path class="cls-5" d="M11.42,6.17a3.35,3.35,0,0,1,.11,1.36c-.11.47-1.07,1-.94,1.85.06.43,1,.23,1.34-.1a2.55,2.55,0,0,0,.19-2.1A2.94,2.94,0,0,0,11.42,6.17Z"/>
        <path class="cls-6" d="M9.62,11.19a34.76,34.76,0,0,0,.2,4.15,41.14,41.14,0,0,0,.06-4.15Z"/>
      </g>
    </g>
  </g>
</svg>
