<svg xmlns="http://www.w3.org/2000/svg" width="19.24" height="19.24" viewBox="0 0 19.24 19.24">
  <defs>
    <style>
      .cls-1 {
        fill: #aaa;
      }

      .cls-2 {
        fill: #ececec;
      }
    </style>
  </defs>
  <title>Risorsa 74</title>
  <g id="Livello_2" data-name="Livello 2">
    <g id="ICONE">
      <g id="password">
        <circle class="cls-1" cx="9.62" cy="9.62" r="9.62"/>
        <rect class="cls-2" x="4.77" y="8.21" width="9.71" height="7.63" rx="1.67" ry="1.67"/>
        <circle class="cls-1" cx="9.62" cy="11.42" r="1.23"/>
        <path class="cls-1" d="M9.62,14.09H8.77a.46.46,0,0,1-.44-.6l.39-1.23h.9Z"/>
        <path class="cls-1" d="M9.62,14.09h.85a.46.46,0,0,0,.44-.6l-.39-1.23h-.9Z"/>
        <path class="cls-2" d="M12.6,7.89A.43.43,0,0,0,13,7.43C12.88,5,11.41,3.14,9.62,3.14S6.37,5,6.2,7.43a.43.43,0,0,0,.44.46h0a.43.43,0,0,0,.43-.39C7.21,5.73,8.3,4.35,9.62,4.35S12,5.73,12.17,7.5a.43.43,0,0,0,.43.39Z"/>
      </g>
    </g>
  </g>
</svg>
