<svg xmlns="http://www.w3.org/2000/svg" width="19.24" height="19.24" viewBox="0 0 19.24 19.24">
  <defs>
    <style>
      .cls-1 {
        fill: #ff0606;
      }

      .cls-2 {
        fill: #fff;
      }
    </style>
  </defs>
  <title>Risorsa 349</title>
  <g id="Livello_2" data-name="Livello 2">
    <g id="community">
      <g id="distance">
        <circle class="cls-1" cx="9.62" cy="9.62" r="9.62"/>
      </g>
      <g id="publish">
        <rect class="cls-2" x="8.1" y="5.39" width="5.06" height="1.37" rx="0.69" ry="0.69" transform="translate(22.44 2.86) rotate(135)"/>
        <rect class="cls-2" x="8.1" y="10.66" width="5.06" height="1.37" rx="0.69" ry="0.69" transform="translate(26.16 11.85) rotate(135)"/>
        <rect class="cls-2" x="8.1" y="8.04" width="5.06" height="1.37" rx="0.69" ry="0.69" transform="translate(11.97 22.41) rotate(-135)"/>
        <circle class="cls-2" cx="12.9" cy="5.76" r="0.7" transform="translate(-0.29 10.81) rotate(-45)"/>
        <circle class="cls-2" cx="10.95" cy="3.8" r="0.7" transform="translate(0.52 8.85) rotate(-45)"/>
        <path class="cls-2" d="M13.39,6.25c-.21.21-.77-.76-1.52-1.52s-1.62-1.22-1.42-1.42c.47-.47,2.22-.56,3.06-.58a.45.45,0,0,1,.46.46C14,4,13.87,5.78,13.39,6.25Z"/>
        <circle class="cls-2" cx="7.8" cy="14.17" r="0.7"/>
        <circle class="cls-2" cx="6.17" cy="15.81" r="0.7"/>
      </g>
    </g>
  </g>
</svg>
