<svg xmlns="http://www.w3.org/2000/svg" width="120.88" height="102.47" viewBox="0 0 120.88 102.47">
  <defs>
    <style>
      .cls-1 {
        fill: #6dba4c;
      }

      .cls-2 {
        fill: #fff;
      }
    </style>
  </defs>
  <title>Risorsa 345</title>
  <g id="Livello_2" data-name="Livello 2">
    <g id="inizio_navigazione" data-name="inizio navigazione">
      <path id="let_sgoICON" data-name="let&apos;sgoICON" class="cls-1" d="M111.17,55.38C112.1,69.6,104.6,77.77,93,82.48a128.69,128.69,0,0,0-23.2,12.46,44.75,44.75,0,0,1-17.88,7.24C42.34,103.71,35.54,99,30.74,91.87c-6.38-9.48-14.09-17.62-22-25.73C3.84,61.08.44,54.95,0,47.6-.62,35,5.69,25.54,16.61,21.7,28.89,17.39,39.33,10.44,50.4,4.25,63-2.8,73.82-1,83.83,9.16,93.07,18.56,100,29.8,107.38,40.58,110.55,45.18,112.16,50.49,111.17,55.38Z"/>
      <g>
        <path class="cls-2" d="M36.47,50.22H34.54v-12l-2.79,1.22L31,37.83l4.22-2h1.24Z"/>
        <path class="cls-2" d="M44.14,50.55a5.09,5.09,0,0,1-3-1,4.76,4.76,0,0,1-1.88-2.89L41,46a4,4,0,0,0,1.13,2,2.78,2.78,0,0,0,2,.76,3,3,0,0,0,2.18-.82,2.82,2.82,0,0,0,.86-2.14,2.89,2.89,0,0,0-3-3A2.84,2.84,0,0,0,41.7,44l-2-.84.92-7.29h7.54V37.7H42.29l-.53,4.12.08,0a4,4,0,0,1,2.6-.86,4.5,4.5,0,0,1,3.27,1.35,4.57,4.57,0,0,1,1.38,3.39,4.63,4.63,0,0,1-1.42,3.43A4.84,4.84,0,0,1,44.14,50.55Z"/>
        <path class="cls-2" d="M61,48.39a5.12,5.12,0,0,1-8.36,0A8.77,8.77,0,0,1,51,43a8.76,8.76,0,0,1,1.6-5.37,5.13,5.13,0,0,1,8.36,0A8.76,8.76,0,0,1,62.58,43,8.77,8.77,0,0,1,61,48.39Zm-4.18.32a3.16,3.16,0,0,0,2.76-1.62,7.36,7.36,0,0,0,1-4.05,7.35,7.35,0,0,0-1-4.06A3.19,3.19,0,0,0,54,39,7.4,7.4,0,0,0,53,43a7.42,7.42,0,0,0,1,4.05A3.15,3.15,0,0,0,56.8,48.71Z"/>
        <path class="cls-2" d="M64.68,50.22V39.93h1.85v1.43h.08A3.57,3.57,0,0,1,68,40.11a3.68,3.68,0,0,1,1.82-.51,3.23,3.23,0,0,1,3.25,2,4,4,0,0,1,3.59-2,3.3,3.3,0,0,1,2.75,1.17,5,5,0,0,1,.92,3.16v6.3H78.37v-6A3.36,3.36,0,0,0,77.8,42a2.16,2.16,0,0,0-1.72-.65,2.28,2.28,0,0,0-1.88,1,3.51,3.51,0,0,0-.75,2.21v5.69H71.52v-6A3.36,3.36,0,0,0,71,42a2.16,2.16,0,0,0-1.72-.65,2.28,2.28,0,0,0-1.88,1,3.51,3.51,0,0,0-.75,2.21v5.69Z"/>
      </g>
      <g>
        <path class="cls-2" d="M34.54,65.61h-1.1V58.08H31V57h5.9v1.06h-2.4Z"/>
        <path class="cls-2" d="M42.34,65.61H41.29V64.8h0a2.06,2.06,0,0,1-.77.71,2.18,2.18,0,0,1-1.09.29,2.07,2.07,0,0,1-1.67-.67,2.69,2.69,0,0,1-.57-1.8v-3.6h1.1v3.42q0,1.64,1.45,1.64a1.35,1.35,0,0,0,1.12-.55A2,2,0,0,0,41.24,63V59.73h1.1Z"/>
        <path class="cls-2" d="M44.79,65.61h-1.1V59.73h1.06v1h0a1.5,1.5,0,0,1,.69-.79,2,2,0,0,1,1-.31,2.11,2.11,0,0,1,.83.14l-.42,1a1.66,1.66,0,0,0-.59-.08,1.44,1.44,0,0,0-1.06.47,1.71,1.71,0,0,0-.46,1.24Z"/>
        <path class="cls-2" d="M49.1,59.73v.82h0a2,2,0,0,1,.76-.71,2.2,2.2,0,0,1,1.1-.29,2.08,2.08,0,0,1,1.67.67,2.68,2.68,0,0,1,.58,1.8v3.6h-1.1V62.18q0-1.63-1.45-1.63a1.36,1.36,0,0,0-1.12.55,2,2,0,0,0-.43,1.27v3.25H48V59.73Z"/>
        <path class="cls-2" d="M58.29,65.61h-1.1V59.73h1.06v1h0A1.5,1.5,0,0,1,59,59.9a2,2,0,0,1,1-.31,2.11,2.11,0,0,1,.83.14l-.42,1a1.66,1.66,0,0,0-.59-.08,1.44,1.44,0,0,0-1.06.47,1.71,1.71,0,0,0-.46,1.24Z"/>
        <path class="cls-2" d="M62.74,58.26a.78.78,0,1,1,.23-.55A.75.75,0,0,1,62.74,58.26Zm0,7.36h-1.1V59.73h1.1Z"/>
        <path class="cls-2" d="M66.68,68.4a2.66,2.66,0,0,1-1.7-.52A3.07,3.07,0,0,1,64,66.68l1-.42a1.66,1.66,0,0,0,.62.8,1.71,1.71,0,0,0,1,.32,1.89,1.89,0,0,0,1.43-.55,2.06,2.06,0,0,0,.52-1.48V64.8h0a2.26,2.26,0,0,1-.82.72,2.45,2.45,0,0,1-1.19.29,2.59,2.59,0,0,1-2-.9,3.42,3.42,0,0,1,0-4.46,2.58,2.58,0,0,1,2-.9,2.45,2.45,0,0,1,1.19.29,2.27,2.27,0,0,1,.82.72h0v-.82h1.06v5.58a2.93,2.93,0,0,1-.88,2.3A3.09,3.09,0,0,1,66.68,68.4Zm.08-3.6a1.76,1.76,0,0,0,1.33-.58,2.47,2.47,0,0,0,0-3.1,1.8,1.8,0,0,0-2.65,0,2.43,2.43,0,0,0,0,3.08A1.75,1.75,0,0,0,66.76,64.8Z"/>
        <path class="cls-2" d="M72.14,57v2.71l0,.82h0a2,2,0,0,1,.76-.71,2.2,2.2,0,0,1,1.1-.29,2.08,2.08,0,0,1,1.67.67,2.68,2.68,0,0,1,.58,1.8v3.6h-1.1V62.18q0-1.63-1.45-1.63a1.36,1.36,0,0,0-1.12.55,2,2,0,0,0-.43,1.27v3.25H71V57Z"/>
        <path class="cls-2" d="M79.78,65.71a1.71,1.71,0,0,1-1.9-1.88V60.74h-1v-1h1v-1.8H79v1.8h1.44v1H79v3q0,1,.79,1a1.19,1.19,0,0,0,.5-.1l.38.95A2.24,2.24,0,0,1,79.78,65.71Z"/>
      </g>
      <g id="icon_turn_right" data-name="icon_turn right">
        <path class="cls-2" d="M106.86,48.83c-2.07-1.56-.5-22.07-.3-23.13.68-3.49,13,8.21,13,8.21a4.27,4.27,0,0,1,0,6.19S108.73,50.24,106.86,48.83Z"/>
        <path class="cls-2" d="M96.65,33.43H107.5a0,0,0,0,1,0,0v7.15a0,0,0,0,1,0,0h-18a0,0,0,0,1,0,0v0A7.15,7.15,0,0,1,96.65,33.43Z"/>
        <path class="cls-2" d="M89.5,53.16V40.58h11.15c-4.19,0-4.07,4.2-4.07,4.2Z"/>
        <path class="cls-2" d="M89.5,44.78h7.08a0,0,0,0,1,0,0V63.33A3.54,3.54,0,0,1,93,66.87h0a3.54,3.54,0,0,1-3.54-3.54V44.78A0,0,0,0,1,89.5,44.78Z"/>
        <path class="cls-2" d="M106.26,40.58h1.23a0,0,0,0,1,0,0V49a0,0,0,0,1,0,0h-1.23a4.2,4.2,0,0,1-4.2-4.2v0A4.2,4.2,0,0,1,106.26,40.58Z"/>
        <path class="cls-2" d="M106.26,25h1.23a0,0,0,0,1,0,0v8.4a0,0,0,0,1,0,0h-1.23a4.2,4.2,0,0,1-4.2-4.2v0A4.2,4.2,0,0,1,106.26,25Z"/>
      </g>
    </g>
  </g>
</svg>
