<svg xmlns="http://www.w3.org/2000/svg" width="19.24" height="19.24" viewBox="0 0 19.24 19.24">
  <defs>
    <style>
      .cls-1 {
        fill: #ffe029;
      }

      .cls-2 {
        fill: #00e7ff;
      }

      .cls-3 {
        fill: #00a8a8;
      }

      .cls-4 {
        fill: #00ced8;
      }

      .cls-5 {
        fill: red;
      }

      .cls-6 {
        fill: #ff5757;
      }
    </style>
  </defs>
  <title>Risorsa 348</title>
  <g id="Livello_2" data-name="Livello 2">
    <g id="community">
      <g id="steps">
        <circle class="cls-1" cx="9.62" cy="9.62" r="9.62"/>
      </g>
      <g id="yourarea">
        <ellipse class="cls-2" cx="9.62" cy="12.78" rx="6.07" ry="2.62"/>
        <ellipse class="cls-3" cx="9.62" cy="12.78" rx="5.23" ry="2.26"/>
        <ellipse class="cls-4" cx="9.62" cy="12.78" rx="3.31" ry="1.43"/>
        <circle class="cls-5" cx="9.62" cy="6.98" r="4.21"/>
        <circle class="cls-6" cx="9.62" cy="6.98" r="2.81"/>
        <circle class="cls-5" cx="9.62" cy="12.4" r="0.82"/>
        <path class="cls-5" d="M8.8,12.4a2.17,2.17,0,0,0-.25-1,4.81,4.81,0,0,0-1.11-.86H9.5l.12,1.82Z"/>
        <path class="cls-5" d="M10.44,12.4a2.17,2.17,0,0,1,.25-1,4.81,4.81,0,0,1,1.11-.86H9.74L9.62,12.4Z"/>
        <polygon class="cls-5" points="9.22 10.52 9.32 12.53 10.21 12.46 10.21 10.46 9.22 10.52"/>
      </g>
    </g>
  </g>
</svg>
